<svg width="83" height="36" viewBox="0 0 83 36" fill="none" xmlns="http://www.w3.org/2000/svg">
<g filter="url(#filter0_d_1354_6130)">
<path fill-rule="evenodd" clip-rule="evenodd" d="M65.4021 8.64001V11.1545C65.4007 11.2779 65.3491 11.3954 65.259 11.4801C65.169 11.5647 65.0483 11.6091 64.9248 11.6031H62.0947C61.8455 11.6031 61.6427 11.4031 61.6396 11.1545V8.64001C61.6427 8.39135 61.8455 8.19137 62.0947 8.19139H64.947C65.1962 8.19137 65.399 8.39135 65.4021 8.64001ZM10.1699 27.8031C11.8997 27.8697 13.5442 27.0512 14.5316 25.632C15.6193 24.0211 16.1654 22.1067 16.0909 20.1655C16.1718 18.3064 15.6138 16.4754 14.5094 14.976C13.462 13.638 11.8305 12.8889 10.131 12.9655C9.23684 12.9291 8.35148 13.1543 7.58391 13.6135C7.11321 13.9339 6.68928 14.3179 6.32422 14.7545C6.27865 14.8037 6.2079 14.8208 6.14483 14.7978C6.08176 14.7748 6.03871 14.7162 6.03566 14.6492V10.1077V8.87262C6.03566 8.56674 5.78721 8.31878 5.48073 8.31878H2.89477C2.58829 8.31878 2.33984 8.56674 2.33984 8.87262V26.8726C2.33984 27.1785 2.58829 27.4265 2.89477 27.4265H5.41414C5.72062 27.4265 5.96907 27.1785 5.96907 26.8726V26.3188C5.97314 26.2258 6.03365 26.1447 6.12174 26.1142C6.20984 26.0836 6.30769 26.1098 6.36862 26.1803C6.64599 26.5407 6.97727 26.8564 7.35084 27.1163C8.20321 27.615 9.18317 27.8537 10.1699 27.8031ZM9.18217 24.7514C8.20905 24.8114 7.27578 24.3572 6.72385 23.5551C6.15742 22.6547 5.87693 21.6045 5.9192 20.5422C5.88972 19.6871 6.02149 18.8342 6.30765 18.0277C6.72205 16.8695 7.85215 16.1228 9.08229 16.1945C10.3141 16.1268 11.4372 16.8953 11.8181 18.0665C12.1011 18.866 12.2328 19.7112 12.2065 20.5588C12.2559 21.6273 11.9792 22.6857 11.413 23.5939C10.9253 24.3446 10.0781 24.7842 9.18217 24.7514ZM29.8918 25.704C28.6932 27.1809 26.8767 27.9194 24.4424 27.9194C22.0081 27.9157 20.1917 27.1772 18.993 25.704C16.6039 22.5584 16.6039 18.2103 18.993 15.0646C20.1843 13.5692 22.0007 12.8215 24.4424 12.8215C26.8841 12.8215 28.7006 13.5692 29.8918 15.0646C32.2885 18.2077 32.2885 22.5609 29.8918 25.704ZM21.9402 23.6603C22.5291 24.4306 23.4589 24.8632 24.428 24.8186C25.404 24.8714 26.3432 24.4377 26.9346 23.6603C28.0923 21.6252 28.0923 19.1324 26.9346 17.0972C26.3084 16.3719 25.3967 15.9548 24.4374 15.9548C23.4781 15.9548 22.5664 16.3719 21.9402 17.0972C20.7712 19.1294 20.7712 21.6282 21.9402 23.6603ZM54.9027 12.9378C55.2438 12.9409 55.5187 13.2177 55.5186 13.5582L55.4909 16.0837C55.4868 16.2547 55.4127 16.4167 55.2858 16.5317C55.159 16.6468 54.9904 16.7051 54.8194 16.6929H54.4143C52.9123 16.6929 51.9246 17.1766 51.451 18.144C51.1143 18.9396 50.9662 19.8019 51.0182 20.664V26.8338C51.0182 27.1764 50.7399 27.4542 50.3967 27.4542H47.905C47.5639 27.4511 47.289 27.1743 47.2891 26.8338V13.9237C47.289 13.5833 47.5639 13.3064 47.905 13.3034H50.2024C50.5457 13.3034 50.824 13.5811 50.824 13.9237V15.1588C50.8212 15.2351 50.871 15.3035 50.9446 15.3244C51.0182 15.3454 51.0966 15.3136 51.1347 15.2474C51.4542 14.7094 51.8547 14.2237 52.3223 13.8074L52.4887 13.6745C53.1971 13.1844 54.0409 12.927 54.9027 12.9378ZM59.4583 26.9723V24.0092C59.4583 23.7606 59.258 23.5581 59.0088 23.5551H55.9345C55.6832 23.5551 55.4795 23.7584 55.4795 24.0092V26.9723C55.4795 27.2231 55.6832 27.4265 55.9345 27.4265H58.97C59.2191 27.4234 59.4195 27.221 59.4195 26.9723H59.4583ZM65.4021 26.9734V26.9723V13.7243C65.399 13.4757 65.1962 13.2757 64.947 13.2757H62.0947C61.8455 13.2757 61.6427 13.4757 61.6396 13.7243V26.9723C61.6396 27.2231 61.8434 27.4265 62.0947 27.4265H64.9248C65.0493 27.4325 65.1708 27.3874 65.261 27.3015C65.351 27.216 65.4019 27.0974 65.4021 26.9734ZM79.2033 25.7206C78.0047 27.1975 76.1882 27.936 73.754 27.936V27.9194C71.3197 27.9157 69.5032 27.1828 68.3046 25.7206C65.9154 22.575 65.9154 18.2269 68.3046 15.0812C69.4995 13.5859 71.316 12.8382 73.754 12.8382C76.1919 12.8382 78.0084 13.5859 79.2033 15.0812C81.6001 18.2243 81.6001 22.5775 79.2033 25.7206ZM73.7535 24.8345C72.779 24.8843 71.8426 24.4512 71.2508 23.6769C70.0818 21.6448 70.0818 19.146 71.2508 17.1139C71.8769 16.3885 72.7886 15.9715 73.7479 15.9715C74.7072 15.9715 75.6189 16.3885 76.2451 17.1139C77.4029 19.149 77.4029 21.6418 76.2451 23.6769C75.6509 24.4465 74.7142 24.8735 73.7424 24.8179L73.7535 24.8345ZM36.5008 26.8505C36.5008 27.1563 36.2523 27.4043 35.9458 27.4043L33.3821 27.3877C33.0756 27.3877 32.8271 27.1397 32.8271 26.8338V8.87262C32.8271 8.56674 33.0756 8.31877 33.3821 8.31877H35.9625C36.269 8.31877 36.5174 8.56674 36.5174 8.87262V14.5385C36.518 14.6081 36.562 14.6699 36.6277 14.6934C36.6934 14.7169 36.7667 14.6971 36.8115 14.6437C37.2217 14.0858 37.7629 13.637 38.3875 13.3366C39.0835 13.0162 39.8408 12.8499 40.6072 12.8492C41.383 12.8407 42.1533 12.9798 42.8769 13.2591C43.7044 13.5941 44.4093 14.1739 44.8968 14.9206C45.1844 15.3486 45.3738 15.8346 45.4518 16.344C45.56 17.2518 45.6045 18.166 45.5849 19.08V26.9335C45.5849 27.1844 45.3812 27.3877 45.1299 27.3877H42.2498C42.0007 27.3847 41.8003 27.1822 41.8003 26.9335V18.7809C41.8278 18.1428 41.6922 17.5081 41.4063 16.9366C41.0222 16.2507 40.263 15.8621 39.4807 15.9508C38.6258 15.9016 37.7995 16.2665 37.261 16.9311C36.7053 17.7541 36.438 18.7375 36.5008 19.728V26.8505Z" fill="white"/>
</g>
<defs>
<filter id="filter0_d_1354_6130" x="0.339844" y="6.19139" width="82.6611" height="23.7446" filterUnits="userSpaceOnUse" color-interpolation-filters="sRGB">
<feFlood flood-opacity="0" result="BackgroundImageFix"/>
<feColorMatrix in="SourceAlpha" type="matrix" values="0 0 0 0 0 0 0 0 0 0 0 0 0 0 0 0 0 0 127 0" result="hardAlpha"/>
<feOffset/>
<feGaussianBlur stdDeviation="1"/>
<feColorMatrix type="matrix" values="0 0 0 0 0 0 0 0 0 0 0 0 0 0 0 0 0 0 0.402304 0"/>
<feBlend mode="normal" in2="BackgroundImageFix" result="effect1_dropShadow_1354_6130"/>
<feBlend mode="normal" in="SourceGraphic" in2="effect1_dropShadow_1354_6130" result="shape"/>
</filter>
</defs>
</svg>
