<svg xmlns="http://www.w3.org/2000/svg" width="32" height="16" viewBox="0 0 32 16">
  <path id="Combined_Shape" data-name="Combined Shape" d="M27,15.021a2.08,2.08,0,0,0,1.3-.715,2.614,2.614,0,0,0,.519-1.76V11.282a5.309,5.309,0,0,1,.271-1.89,2.118,2.118,0,0,1,1.9-1.4,2.128,2.128,0,0,1-1.9-1.355A5.373,5.373,0,0,1,28.823,4.7V3.764A4.74,4.74,0,0,0,28.6,2.091,1.766,1.766,0,0,0,27,.953V0a3.057,3.057,0,0,1,2.562,1.338A4.538,4.538,0,0,1,30,3.588V4.952a3.433,3.433,0,0,0,.249,1.455A2.05,2.05,0,0,0,32,7.51v.954a2.029,2.029,0,0,0-1.75,1.129A3.424,3.424,0,0,0,30,11.023v1.724a2.943,2.943,0,0,1-.853,2.392A4.079,4.079,0,0,1,27,16Zm-24.156.105a2.964,2.964,0,0,1-.853-2.38V11.023a3.427,3.427,0,0,0-.248-1.438A2.036,2.036,0,0,0,0,8.465V7.51a2.083,2.083,0,0,0,1.742-1.1,3.434,3.434,0,0,0,.248-1.463V3.588a4.539,4.539,0,0,1,.6-2.493A3.058,3.058,0,0,1,5,0V.953A1.776,1.776,0,0,0,3.4,2.141a4.638,4.638,0,0,0-.227,1.623V4.7a5.323,5.323,0,0,1-.271,1.923A2.13,2.13,0,0,1,1,7.988a2.122,2.122,0,0,1,1.9,1.4,5.333,5.333,0,0,1,.271,1.89v1.264a2.469,2.469,0,0,0,.572,1.836A2.222,2.222,0,0,0,5,15.021V16A3.948,3.948,0,0,1,2.844,15.126Zm18.722-5.7A1.961,1.961,0,0,1,21,7.991a1.929,1.929,0,0,1,.566-1.43,2.114,2.114,0,0,1,2.868,0A1.929,1.929,0,0,1,25,7.991a1.961,1.961,0,0,1-.566,1.439,2.09,2.09,0,0,1-2.868,0Zm-7,0A1.961,1.961,0,0,1,14,7.991a1.929,1.929,0,0,1,.565-1.43,2.116,2.116,0,0,1,2.869,0A1.929,1.929,0,0,1,18,7.991a1.961,1.961,0,0,1-.565,1.439,2.091,2.091,0,0,1-2.869,0Zm-7,0A1.961,1.961,0,0,1,7,7.991a1.929,1.929,0,0,1,.565-1.43A1.95,1.95,0,0,1,9,6a1.95,1.95,0,0,1,1.435.561A1.929,1.929,0,0,1,11,7.991a1.961,1.961,0,0,1-.565,1.439A1.936,1.936,0,0,1,9,10,1.936,1.936,0,0,1,7.565,9.43Z" fill="#fff"/>
</svg>
