<svg xmlns="http://www.w3.org/2000/svg" width="26" height="32" viewBox="0 0 26 32">
  <path id="Combined_Shape" data-name="Combined Shape" d="M6.944,27.86A19.543,19.543,0,0,1,3.267,21.75C1.444,17.137.681,11.429,0,5.5H.007c6.645,0,8.708-1.8,11.32-4.082C11.852.953,12.395.48,13,0l.383.31c.455.374.879.744,1.29,1.1C17.286,3.694,19.35,5.5,26,5.5L25.8,7.22c-.294,2.456-.67,5.339-1.231,8.094a36.624,36.624,0,0,1-2.105,7.1,18.816,18.816,0,0,1-3.636,5.7A16.091,16.091,0,0,1,13,32,16.046,16.046,0,0,1,6.944,27.86ZM11.238,2.812A14.484,14.484,0,0,1,6.92,5.5a17.233,17.233,0,0,1-5.614.977l-.184,0L1.184,7c.849,7.045,1.61,10.74,2.909,14.118l.1.269c1.818,4.6,4.492,7.575,8.412,9.362l.392.173.014-.005a14.966,14.966,0,0,0,5.151-3.56A18.116,18.116,0,0,0,21.634,21.8l.169-.416c1.335-3.378,2.1-6.993,2.944-13.815l.13-1.089-.184,0c-4.253-.148-6.783-1.049-9.67-3.441l-.259-.218-1.6-1.389L13,1.291ZM8.5,22a.5.5,0,0,1-.5-.5v-7a.5.5,0,0,1,.5-.5H9V13a4,4,0,0,1,8,0v1h.5a.5.5,0,0,1,.5.5v7a.5.5,0,0,1-.5.5ZM12,17a1,1,0,0,0,.684.949L12,20h2l-.683-2.051A1,1,0,1,0,12,17Zm-2-4v1h6V13a3,3,0,0,0-6,0Z" fill="#fff"/>
</svg>
