<svg xmlns="http://www.w3.org/2000/svg" width="32" height="20" viewBox="0 0 32 20">
  <path id="Combined_Shape" data-name="Combined Shape" d="M1.7,20A1.7,1.7,0,0,1,0,18.3V1.7A1.7,1.7,0,0,1,1.7,0H30.3A1.7,1.7,0,0,1,32,1.7V18.3A1.7,1.7,0,0,1,30.3,20ZM1,18a1,1,0,0,0,.884.994L2,19H30a1,1,0,0,0,.994-.883L31,18V5H1ZM1.007,1.884,1,2V4H31V2a1,1,0,0,0-1-1H2A1,1,0,0,0,1.007,1.884ZM15.389,16.995C11.246,16.916,8,16.04,8,15V9c0-1.081,3.38-1.958,7.693-2L16,7c4.32,0,7.831.844,7.994,1.923L24,9v6c0,1.1-3.589,2-8,2ZM9,14.969a17.811,17.811,0,0,0,6.046,1.017l.343.009.136,0c.141,0,.3,0,.475,0l.307,0A19.014,19.014,0,0,0,23,14.969v-1A19.426,19.426,0,0,1,16,15l-.611-.005A18.321,18.321,0,0,1,9,13.969Zm0-2a17.833,17.833,0,0,0,6.046,1.017l.343.008.136,0c.158,0,.316,0,.475,0l.307,0A19.014,19.014,0,0,0,23,12.969v-1A19.426,19.426,0,0,1,16,13l-.611-.006A18.307,18.307,0,0,1,9,11.969Zm0-2a17.833,17.833,0,0,0,6.046,1.017l.343.008.136,0c.158,0,.316,0,.475,0l.307,0A19,19,0,0,0,23,10.968v-1A19.439,19.439,0,0,1,16,11l-.611-.005A18.354,18.354,0,0,1,9,9.969Zm1.586-2.413a7.241,7.241,0,0,0-1.183.39L9.291,9l.113.054a6.436,6.436,0,0,0,.949.329l.234.062A23.43,23.43,0,0,0,16,10a23.435,23.435,0,0,0,5.414-.555A7.177,7.177,0,0,0,22.6,9.054L22.708,9,22.6,8.946a6.418,6.418,0,0,0-.949-.328l-.234-.061A23.409,23.409,0,0,0,16,8,23.409,23.409,0,0,0,10.586,8.556ZM6,2.5a.5.5,0,1,1,.5.5A.5.5,0,0,1,6,2.5Zm-2,0a.5.5,0,1,1,.5.5A.5.5,0,0,1,4,2.5Zm-2,0a.5.5,0,1,1,.5.5A.5.5,0,0,1,2,2.5Z" fill="#fff"/>
</svg>
