<svg xmlns="http://www.w3.org/2000/svg" width="28.048" height="28.066" viewBox="0 0 28.048 28.066">
  <path id="Combined_Shape" data-name="Combined Shape" d="M10.663,21.454A6.562,6.562,0,1,1,17.225,28,6.56,6.56,0,0,1,10.663,21.454Zm1.066,0a5.5,5.5,0,1,0,5.5-5.482A5.5,5.5,0,0,0,11.73,21.454ZM1,14.909a1,1,0,0,1-1-1V5.271a1,1,0,0,1,1-1H9.663a1,1,0,0,1,1,1v8.637a1,1,0,0,1-1,1Zm.067-9.074v7.51a.5.5,0,0,0,.5.5H9.1a.5.5,0,0,0,.5-.5V5.835a.5.5,0,0,0-.5-.5H1.566A.5.5,0,0,0,1.067,5.835Zm14.539,5.882a1,1,0,0,1-.863-1.5L20.462.429a1,1,0,0,1,1.727,0l5.72,9.783a1,1,0,0,1-.863,1.5Zm5.284-9.852L16.409,9.91a.5.5,0,0,0,.437.743h8.961a.5.5,0,0,0,.437-.743l-4.48-8.045a.5.5,0,0,0-.874,0Z" transform="translate(0 0.066)" fill="#fff"/>
</svg>
