<svg xmlns="http://www.w3.org/2000/svg" width="31.997" height="32" viewBox="0 0 31.997 32">
  <path id="Shape" d="M16.024,32h0a15.937,15.937,0,0,1-5.035-.815A13.378,13.378,0,0,1,6.6,28.963a.3.3,0,0,1-.023-.432,5.487,5.487,0,0,0,.584-.641.3.3,0,0,1,.423-.078,14.537,14.537,0,0,0,16.818.018.292.292,0,0,1,.419.074,2.521,2.521,0,0,0,.532.633.3.3,0,0,1-.021.467A15.876,15.876,0,0,1,16.024,32Zm-.008-3.988H15.99a.751.751,0,0,1,0-1.5h.023a.751.751,0,0,1,0,1.5Zm2.565-.287a.3.3,0,0,1-.3-.324,2.257,2.257,0,0,0-.1-.8.292.292,0,0,1,.221-.369,10.665,10.665,0,0,0,7.033-5.585A10.5,10.5,0,0,0,18.405,5.774a.292.292,0,0,1-.221-.368,2.269,2.269,0,0,0,.1-.789.3.3,0,0,1,.3-.32.292.292,0,0,1,.067.008,11.742,11.742,0,0,1,8.438,7.043A12.005,12.005,0,0,1,18.64,27.719.3.3,0,0,1,18.58,27.725Zm-5.131,0a.3.3,0,0,1-.059-.006A12,12,0,0,1,13.384,4.3a.3.3,0,0,1,.065-.007.3.3,0,0,1,.3.32,2.272,2.272,0,0,0,.1.79.291.291,0,0,1-.22.368A10.547,10.547,0,0,0,6.591,20.649a10.666,10.666,0,0,0,7.033,5.585.292.292,0,0,1,.192.136.3.3,0,0,1,.03.233,2.278,2.278,0,0,0-.1.8.3.3,0,0,1-.1.248A.3.3,0,0,1,13.449,27.725Zm13.336-.178a.75.75,0,0,1-.529-1.283l.013-.014a.751.751,0,0,1,1.062,1.062l-.018.017A.746.746,0,0,1,26.784,27.547Zm-21.579,0a.751.751,0,0,1-.4-.114.742.742,0,0,1-.24-.24.751.751,0,1,1,.637.354ZM3.263,25.5H3.249a.3.3,0,0,1-.211-.1A13.4,13.4,0,0,1,.815,21.011,15.965,15.965,0,0,1,3,6.665a.294.294,0,0,1,.228-.123h.015a.3.3,0,0,1,.225.1,2.526,2.526,0,0,0,.632.533A.29.29,0,0,1,4.17,7.6a14.558,14.558,0,0,0,.018,16.818.3.3,0,0,1,.051.228.3.3,0,0,1-.129.194,5.347,5.347,0,0,0-.641.584A.3.3,0,0,1,3.263,25.5Zm25.5-.041h0a.3.3,0,0,1-.226-.1,2.531,2.531,0,0,0-.632-.532.291.291,0,0,1-.075-.419,14.555,14.555,0,0,0-.018-16.818.3.3,0,0,1,.078-.423,5.487,5.487,0,0,0,.641-.584.3.3,0,0,1,.2-.081h.016a.3.3,0,0,1,.212.1,13.378,13.378,0,0,1,2.222,4.387A15.963,15.963,0,0,1,29,25.335a.3.3,0,0,1-.229.124ZM16,21a5,5,0,1,1,5-5A5.006,5.006,0,0,1,16,21ZM5.2,5.966a.75.75,0,0,1-.533-1.279l.018-.018A.751.751,0,0,1,5.75,5.73l-.014.014A.743.743,0,0,1,5.2,5.966Zm21.579,0a.764.764,0,0,1-.408-.118h0l0,0a1.464,1.464,0,0,0-.1-.11,1.5,1.5,0,0,0-.11-.1h0l0,0a.752.752,0,0,1,.63-1.161.753.753,0,0,1,.726.556.753.753,0,0,1-.194.725A.762.762,0,0,1,26.783,5.961ZM16.016,5.5H16A.75.75,0,1,1,15.99,4h.025a.75.75,0,0,1,0,1.5Zm8.572-1.253h0a.294.294,0,0,1-.174-.056A14.54,14.54,0,0,0,7.6,4.17a.287.287,0,0,1-.176.059.3.3,0,0,1-.05,0A.291.291,0,0,1,7.176,4.1a2.526,2.526,0,0,0-.533-.632.3.3,0,0,1-.1-.239A.294.294,0,0,1,6.665,3,15.964,15.964,0,0,1,21.011.815,13.4,13.4,0,0,1,25.4,3.038a.3.3,0,0,1,.022.432,5.346,5.346,0,0,0-.584.641.3.3,0,0,1-.194.129A.305.305,0,0,1,24.587,4.244Z" transform="translate(-0.001 0)" fill="#fff"/>
</svg>
