<svg xmlns="http://www.w3.org/2000/svg" width="32" height="32" viewBox="0 0 32 32">
  <path id="Combined_Shape" data-name="Combined Shape" d="M2,32a2,2,0,0,1-2-2V2A2,2,0,0,1,2,0H30a2,2,0,0,1,2,2V30a2,2,0,0,1-2,2ZM1,2V30a1,1,0,0,0,1,1H30a1,1,0,0,0,1-1V2a1,1,0,0,0-1-1H2A1,1,0,0,0,1,2ZM20,28.026V26.917a6,6,0,0,1-2.477-1.027l-.766.766a1,1,0,0,1-1.414-1.414l.766-.766A6.011,6.011,0,0,1,15.082,22H14a1,1,0,0,1,0-2h1.083a6,6,0,0,1,1.027-2.477l-.766-.766a1,1,0,0,1,1.414-1.415l.766.766A5.928,5.928,0,0,1,20,15.082V14a1,1,0,0,1,2,0v1.083a5.942,5.942,0,0,1,2.477,1.026l.766-.766a1,1,0,0,1,1.415,1.415l-.766.766A5.928,5.928,0,0,1,26.917,20H28a1,1,0,0,1,.051,2H26.917a5.93,5.93,0,0,1-1.026,2.477l.766.766a1,1,0,0,1-1.415,1.414l-.766-.766A6.011,6.011,0,0,1,22,26.917V28c0,.017,0,.034,0,.051a1,1,0,0,1-2-.025ZM16,21a5,5,0,1,0,5-5A5.005,5.005,0,0,0,16,21ZM5,29a2,2,0,0,1-2-2V23a2,2,0,0,1,2-2H9a2,2,0,0,1,2,2v4a2,2,0,0,1-2,2ZM4,23v4a1,1,0,0,0,1,1H9a1,1,0,0,0,1-1V23a1,1,0,0,0-1-1H5A1,1,0,0,0,4,23Zm14-2a3,3,0,1,1,3,3A3,3,0,0,1,18,21Zm1,0a2,2,0,1,0,2-2A2,2,0,0,0,19,21ZM5,19a2,2,0,0,1-2-2V15a2,2,0,0,1,2-2H9a2,2,0,0,1,2,2v2a2,2,0,0,1-2,2ZM4,15v2a1,1,0,0,0,1,1H9a1,1,0,0,0,1-1V15a1,1,0,0,0-1-1H5A1,1,0,0,0,4,15Zm11-4a2,2,0,0,1-2-2V5a2,2,0,0,1,2-2H27a2,2,0,0,1,2,2V9a2,2,0,0,1-2,2ZM14,5V9a1,1,0,0,0,1,1H27a1,1,0,0,0,1-1V5a1,1,0,0,0-1-1H15A1,1,0,0,0,14,5ZM5,11A2,2,0,0,1,3,9V5A2,2,0,0,1,5,3H9a2,2,0,0,1,2,2V9a2,2,0,0,1-2,2ZM4,5V9a1,1,0,0,0,1,1H9a1,1,0,0,0,1-1V5A1,1,0,0,0,9,4H5A1,1,0,0,0,4,5Z" fill="#fff"/>
</svg>
