<svg xmlns="http://www.w3.org/2000/svg" width="32" height="32" viewBox="0 0 32 32">
  <path id="Combined_Shape" data-name="Combined Shape" d="M4.686,27.314A16,16,0,0,1,27.314,4.686,16,16,0,0,1,4.686,27.314Zm.707-21.92A15,15,0,0,0,26.607,26.607,15,15,0,1,0,5.394,5.394ZM15.5,29.5a.5.5,0,1,1,.5.5A.5.5,0,0,1,15.5,29.5Zm3.511-.33a.5.5,0,1,1,.484.37A.5.5,0,0,1,19.012,29.17Zm-6.635.353a.5.5,0,1,1,.129.017A.5.5,0,0,1,12.377,29.523Zm9.941-1.581a.5.5,0,1,1,.434.25A.5.5,0,0,1,22.317,27.941ZM9,28.124a.5.5,0,1,1,.249.067A.5.5,0,0,1,9,28.124ZM6.1,25.9a.5.5,0,1,1,.353.146A.5.5,0,0,1,6.1,25.9Zm19.092,0a.5.5,0,1,1,.353.146A.5.5,0,0,1,25.193,25.9ZM17,24V22h1v2Zm-3,0V22h1v2ZM3.876,23a.5.5,0,1,1,.433.25A.5.5,0,0,1,3.876,23Zm23.566.183a.5.5,0,1,1,.248.067A.5.5,0,0,1,27.442,23.183ZM12,21V11h5a3,3,0,0,1,2.613,4.472A3,3,0,0,1,18,21Zm2-2h4a1,1,0,0,0,.116-1.993L18,17H14Zm0-4h3a1,1,0,0,0,.116-1.993L17,13H14ZM2.478,19.624a.5.5,0,1,1,.483.371A.5.5,0,0,1,2.478,19.624Zm26.433.353a.5.5,0,1,1,.13.017A.5.5,0,0,1,28.911,19.976ZM29,16a.5.5,0,1,1,.5.5A.5.5,0,0,1,29,16ZM2,16a.5.5,0,1,1,.5.5A.5.5,0,0,1,2,16Zm26.557-3.364a.5.5,0,1,1,.482.37A.5.5,0,0,1,28.558,12.636Zm-25.727.353a.5.5,0,1,1,.129.017A.5.5,0,0,1,2.831,12.989ZM17,10V8h1v2Zm-3,0V8h1v2Zm13.259-.5a.5.5,0,1,1,.433.25A.5.5,0,0,1,27.259,9.5Zm-23.2.183a.5.5,0,1,1,.248.067A.5.5,0,0,1,4.059,9.683ZM25.193,6.808a.5.5,0,1,1,.354.146A.5.5,0,0,1,25.193,6.808ZM6.1,6.808a.5.5,0,1,1,.353.146A.5.5,0,0,1,6.1,6.808ZM22.5,4.741a.5.5,0,1,1,.249.067A.5.5,0,0,1,22.5,4.741ZM8.817,4.559a.5.5,0,1,1,.434.25A.5.5,0,0,1,8.817,4.559ZM12.023,3.09a.5.5,0,1,1,.483.37A.5.5,0,0,1,12.023,3.09Zm7.342.353a.5.5,0,1,1,.129.017A.5.5,0,0,1,19.365,3.443ZM15.5,2.5A.5.5,0,1,1,16,3,.5.5,0,0,1,15.5,2.5Z" fill="#fff"/>
</svg>
