<svg xmlns="http://www.w3.org/2000/svg" width="32" height="26" viewBox="0 0 32 26">
  <path id="Shape" d="M16,26,15.188,26C6.671,25.889,0,24.134,0,22V4C0,2.949,1.616,1.956,4.553,1.2A47.935,47.935,0,0,1,15.592,0H16a49.253,49.253,0,0,1,11.18,1.138c3,.733,4.712,1.713,4.815,2.759L32,4V22C32,24.206,24.822,26,16,26ZM1,17.395V22c0,.431,1.47,1.244,3.929,1.858A47.864,47.864,0,0,0,16,25a47.864,47.864,0,0,0,11.071-1.141C29.53,23.244,31,22.431,31,22l0-4.606C28.683,18.953,22.653,20,16,20l-.811-.005C8.8,19.916,3.231,18.895,1,17.395Zm0-6V16c0,.431,1.469,1.244,3.928,1.858A47.9,47.9,0,0,0,16,19a47.868,47.868,0,0,0,11.071-1.142C29.53,17.244,31,16.431,31,16l0-4.605C28.683,12.953,22.654,14,16,14l-.811,0C8.8,13.915,3.232,12.894,1,11.394Zm0-6V10c0,.431,1.469,1.244,3.928,1.859A47.854,47.854,0,0,0,16,13a47.847,47.847,0,0,0,11.072-1.141C29.53,11.244,31,10.431,31,10l0-4.606C28.681,6.953,22.652,8,16,8L15.189,8C8.8,7.916,3.232,6.9,1,5.4ZM16,1A47.879,47.879,0,0,0,4.928,2.142C2.5,2.748,1,3.578,1,4s1.47,1.244,3.929,1.859A47.922,47.922,0,0,0,16,7,47.889,47.889,0,0,0,27.07,5.859C29.53,5.244,31,4.431,31,4S29.5,2.748,27.07,2.142A47.846,47.846,0,0,0,16,1Z" transform="translate(0.001 0)" fill="#fff"/>
</svg>
