<svg xmlns="http://www.w3.org/2000/svg" width="32" height="20" viewBox="0 0 32 20">
  <path id="Shape" d="M30.3,20H1.7A1.7,1.7,0,0,1,0,18.3V1.7A1.7,1.7,0,0,1,1.7,0H30.3A1.7,1.7,0,0,1,32,1.7V18.3A1.7,1.7,0,0,1,30.3,20ZM1,5V18a1,1,0,0,0,.884.994L2,19H30a1,1,0,0,0,.994-.883L31,18V5ZM2,1a1,1,0,0,0-.993.884L1,2V4H31V2a1,1,0,0,0-1-1ZM14.735,17a.758.758,0,0,1-.182-.022.693.693,0,0,1-.436-.32.6.6,0,0,1-.058-.469l2.532-8.712A.693.693,0,0,1,17.266,7a.756.756,0,0,1,.181.022.7.7,0,0,1,.437.321.6.6,0,0,1,.058.468l-2.532,8.711A.692.692,0,0,1,14.735,17Zm4.614-1.3a.734.734,0,0,1-.5-.2l-.057-.062-.046-.062a.606.606,0,0,1,.118-.787l.068-.053,3.208-2.218L18.93,10.1l-.062-.049a.6.6,0,0,1-.126-.785L18.79,9.2l.052-.058a.731.731,0,0,1,.507-.2.745.745,0,0,1,.345.084l.074.045,3.953,2.733.062.048a.611.611,0,0,1,0,.931l-.066.051-3.953,2.733-.068.041A.744.744,0,0,1,19.35,15.7Zm-6.7,0a.741.741,0,0,1-.35-.087l-.068-.041L8.279,12.838A.63.63,0,0,1,8,12.355a.616.616,0,0,1,.217-.5l.061-.048,3.953-2.733a.743.743,0,0,1,.925.071l.053.058a.607.607,0,0,1-.077.853l-.062.049L9.863,12.322l3.208,2.218a.613.613,0,0,1,.184.84l-.045.062A.715.715,0,0,1,12.65,15.7ZM6.5,3A.5.5,0,1,1,7,2.5.5.5,0,0,1,6.5,3Zm-2,0A.5.5,0,1,1,5,2.5.5.5,0,0,1,4.5,3Zm-2,0A.5.5,0,1,1,3,2.5.5.5,0,0,1,2.5,3Z" fill="#fff"/>
</svg>
