<svg xmlns="http://www.w3.org/2000/svg" width="32.001" height="20" viewBox="0 0 32.001 20">
  <path id="Combined_Shape" data-name="Combined Shape" d="M30.3,20c-2.525,0-4.1-2.09-5.493-3.934-1.181-1.566-2.3-3.045-3.808-3.045H11c-1.513,0-2.628,1.479-3.809,3.045C5.8,17.91,4.225,20,1.7,20H1.657C.577,19.99-.012,18.557,0,15.965A30.452,30.452,0,0,1,2.108,5.792,15.675,15.675,0,0,1,4.391,1.673,3.824,3.824,0,0,1,7.211,0,3.763,3.763,0,0,1,9.995,1.659a5.293,5.293,0,0,1,.495.928c.4.853.894,1.915,1.492,1.951l.226.008h7.585c.7-.009,1.258-1.116,1.71-2.006a5.668,5.668,0,0,1,.5-.881A3.765,3.765,0,0,1,24.789,0a3.821,3.821,0,0,1,2.82,1.673,15.642,15.642,0,0,1,2.284,4.118A30.452,30.452,0,0,1,32,15.964c.012,2.593-.577,4.026-1.658,4.036ZM21,12.02c1.33,0,2.38.652,3.74,2.323l.477.607.723.954C27.7,18.219,28.8,19,30.3,19h.038c.11,0,.22-.159.347-.5A7.663,7.663,0,0,0,31,15.931a28.816,28.816,0,0,0-1.4-7.993c-.922-2.893-2.143-5.171-3.352-6.251A2.245,2.245,0,0,0,24.781,1c-.64,0-1.276.412-2,1.3a1.189,1.189,0,0,0-.084.131l-.273.516c-.1.2-.232.454-.292.566-.652,1.221-1.215,1.946-2.168,2.031l-.168.008H12.171l-.248-.01c-.937-.056-1.427-.685-2-1.826l-.148-.3L9.418,2.66a3.171,3.171,0,0,0-.194-.365C8.5,1.41,7.858,1,7.218,1a2.245,2.245,0,0,0-1.463.689C4.547,2.768,3.326,5.045,2.4,7.938A28.791,28.791,0,0,0,1,15.931a7.663,7.663,0,0,0,.319,2.57c.127.339.237.5.346.5H1.7c1.492,0,2.591-.781,4.356-3.1l.724-.954.283-.365c1.4-1.771,2.442-2.488,3.725-2.558L11,12.02ZM24,10a1,1,0,1,1,1,1A1,1,0,0,1,24,10ZM6,10V9H5A1,1,0,1,1,5,7H6V6A1,1,0,0,1,8,6V7H9A1,1,0,0,1,9,9H8v1a1,1,0,1,1-2,0ZM26,8a1,1,0,1,1,1,1A1,1,0,0,1,26,8ZM22,8a1,1,0,1,1,1,1A1,1,0,0,1,22,8Zm2-2a1,1,0,1,1,1,1A1,1,0,0,1,24,6Z" transform="translate(0)" fill="#fff"/>
</svg>
