<svg xmlns="http://www.w3.org/2000/svg" width="28" height="16" viewBox="0 0 28 16">
  <path id="Combined_Shape" data-name="Combined Shape" d="M24,14H13a1,1,0,0,1-1-1V6a1,1,0,0,1,1-1H27a1,1,0,0,1,1,1v7a1,1,0,0,1-1,1H26v2ZM13,6.5v6a.5.5,0,0,0,.5.5h13a.5.5,0,0,0,.5-.5v-6a.5.5,0,0,0-.5-.5h-13A.5.5,0,0,0,13,6.5ZM20.5,12a.5.5,0,1,1,0-1h5a.5.5,0,1,1,0,1ZM2,9H1A1,1,0,0,1,0,8V1A1,1,0,0,1,1,0H15a1,1,0,0,1,1,1V4H15V1.5a.5.5,0,0,0-.5-.5H1.5a.5.5,0,0,0-.5.5v6a.5.5,0,0,0,.5.5H11V9H4L2,11Zm15.5,1a.5.5,0,0,1,0-1h8a.5.5,0,1,1,0,1Zm-2-2a.5.5,0,0,1,0-1h10a.5.5,0,1,1,0,1ZM2.5,7a.5.5,0,1,1,0-1h5a.5.5,0,1,1,0,1Zm0-2a.5.5,0,1,1,0-1h8a.5.5,0,0,1,0,1Zm0-2a.5.5,0,1,1,0-1h10a.5.5,0,0,1,0,1Z" fill="#fff"/>
</svg>
