<svg xmlns="http://www.w3.org/2000/svg" width="22" height="32" viewBox="0 0 22 32">
  <path id="Combined_Shape" data-name="Combined Shape" d="M10.266,31.267V25.513a.734.734,0,0,1,1.467,0v5.754a.734.734,0,0,1-1.467,0Zm10.582-1.433h0L18.1,21.65l-1.965.743,1.179-5.557,2.75.931L22,29.834Zm-.788-5.576-.92-5.729-1.058-.359-.553,2.607,1.207-.457ZM1.151,29.834H0L1.938,17.769l2.75-.931,1.179,5.557L3.9,21.65l-2.75,8.183h0Zm1.708-11.3-.92,5.729,1.324-3.937,1.207.457-.553-2.607Zm9.608,9.127V24.791a.733.733,0,0,1,1.466,0v2.866a.733.733,0,1,1-1.466,0Zm-4.4,0V24.791a.734.734,0,0,1,1.467,0v2.866a.734.734,0,0,1-1.467,0Zm-.948-4.55a20.892,20.892,0,0,1-1.985-9.089A21.407,21.407,0,0,1,6.66,5.953,14.428,14.428,0,0,1,10.666.265L11,0c3.619,2.745,5.867,8.116,5.867,14.017a20.868,20.868,0,0,1-1.986,9.089H7.12Zm-.954-9.089a20.34,20.34,0,0,0,1.5,7.8l.121.275h6.431l.12-.274a20.22,20.22,0,0,0,1.493-7.275l.006-.524A20.778,20.778,0,0,0,14.68,7.108H7.319A20.788,20.788,0,0,0,6.165,14.017Zm8.118-7.924a13.632,13.632,0,0,0-3.206-4.7L11,1.326l-.17.156A13.718,13.718,0,0,0,7.717,6.093ZM8.067,14.671A2.934,2.934,0,1,1,11,17.559,2.914,2.914,0,0,1,8.067,14.671Zm1.031,0A1.9,1.9,0,1,0,11,12.8,1.889,1.889,0,0,0,9.1,14.671Z" fill="#fff"/>
</svg>
