<?xml version="1.0" encoding="UTF-8"?>
<svg width="256" height="256" xmlns="http://www.w3.org/2000/svg" xmlns:svg="http://www.w3.org/2000/svg">
 <!-- Created with SVG-edit - http://svg-edit.googlecode.com/ -->
 <g>
  <title>Layer 1</title>
  <g stroke="null" id="svg_1">
   <rect stroke="null" id="svg_2" x="0" y="0" opacity="0.3" fill="rgba(105,77,255,0)" height="256.17189" width="256.265636"/>
   <path stroke="null" id="svg_3" fill="#fff" d="m128.132818,21.347657a106.777348,106.738287 0 1 0 106.777348,106.738287a106.777348,106.738287 0 0 0 -106.777348,-106.738287z"/>
   <path stroke="null" id="svg_4" fill="#dd1e1e" d="m128.132818,32.021486a96.099614,96.064459 0 1 0 96.099614,96.064459a96.099614,96.064459 0 0 0 -96.099614,-96.064459zm55.524221,130.220711l-21.35547,21.347657l-34.168751,-34.156252l-34.168751,34.156252l-21.35547,-21.347657l34.168751,-34.156252l-34.168751,-34.156252l21.35547,-21.347657l34.168751,34.156252l34.168751,-34.156252l21.35547,21.347657l-34.168751,34.156252l34.168751,34.156252z"/>
  </g>
 </g>
</svg>