<svg width="24" height="24" viewBox="0 0 24 24" fill="none" xmlns="http://www.w3.org/2000/svg">
<circle cx="12" cy="12" r="12" fill="#E84855"/>
<mask id="mask0_950_5521" style="mask-type:alpha" maskUnits="userSpaceOnUse" x="0" y="0" width="24" height="24">
<circle cx="12" cy="12" r="12" fill="white"/>
</mask>
<g mask="url(#mask0_950_5521)">
<rect x="12" y="2" width="13" height="2" rx="1" fill="white"/>
<rect x="12" y="6" width="13" height="2" rx="1" fill="white"/>
<rect x="12" y="10" width="13" height="2" rx="1" fill="white"/>
<rect x="-1" y="14" width="26" height="2" rx="1" fill="white"/>
<rect x="-1" y="18" width="26" height="2" rx="1" fill="white"/>
<rect x="-1" y="22" width="26" height="2" rx="1" fill="white"/>
<rect x="-1" width="14" height="14" rx="1" fill="#365C73"/>
<circle cx="4" cy="3" r="1" fill="white"/>
<circle cx="4" cy="7" r="1" fill="white"/>
<circle cx="4" cy="11" r="1" fill="white"/>
<circle cx="1" cy="3" r="1" fill="white"/>
<circle cx="7" cy="3" r="1" fill="white"/>
<circle cx="7" cy="7" r="1" fill="white"/>
<circle cx="7" cy="11" r="1" fill="white"/>
<circle cx="1" cy="7" r="1" fill="white"/>
<circle cx="10" cy="3" r="1" fill="white"/>
<circle cx="10" cy="7" r="1" fill="white"/>
<circle cx="10" cy="11" r="1" fill="white"/>
<circle cx="1" cy="11" r="1" fill="white"/>
</g>
</svg>
