<svg width="91" height="70" viewBox="0 0 91 70" fill="none" xmlns="http://www.w3.org/2000/svg">
<g opacity="0.7" clip-path="url(#clip0_751_4236)">
<path d="M23.104 28.3777C23.104 25.6555 23.0891 22.9319 23.1159 20.2083C23.1159 19.6458 22.9894 19.3924 22.3973 19.2454C16.0086 17.6646 13.0523 9.97816 16.8626 4.20544C18.9783 1.00037 22.9002 -0.593904 26.4561 0.199488C30.2634 1.04237 33.2793 4.21894 33.9131 8.05692C34.6897 12.7588 32.1545 17.3227 27.8398 18.9724C27.1927 19.2279 26.512 19.3865 25.8193 19.4434C25.3298 19.4779 25.187 19.6368 25.2554 20.1348C25.5917 22.6109 28.0823 25.1456 30.5327 25.5115C31.0178 25.5835 31.1755 25.4006 31.2766 24.9581C32.2199 21.0781 35.8487 18.8465 39.6382 19.9278C42.114 20.6342 43.6747 22.3845 44.3204 24.8951C44.4692 25.4876 44.6641 25.717 45.2935 25.684C46.4049 25.627 47.5252 25.636 48.6381 25.684C49.2332 25.708 49.4936 25.5535 49.6498 24.9341C50.5946 21.1126 54.0121 19.0189 57.8254 19.8693C60.6597 20.5007 62.9004 23.4868 62.9078 26.6379C62.9183 31.6307 58.0977 34.9588 53.5345 33.045C51.526 32.2036 50.2211 30.6214 49.69 28.4752C49.5412 27.8752 49.3166 27.6578 48.6932 27.6878C47.5312 27.7418 46.3617 27.7358 45.1997 27.6878C44.6299 27.6638 44.4558 27.8842 44.3204 28.4092C43.2923 32.5606 38.8631 34.7638 35.0349 32.985C33.0918 32.0852 31.8078 30.5299 31.3064 28.4002C31.1799 27.8632 31.0088 27.5708 30.3929 27.4838C28.542 27.2303 26.9798 26.3454 25.6542 25.0241C25.5411 24.9116 25.4518 24.6837 25.2524 24.7677C25.0531 24.8516 25.1498 25.0796 25.1498 25.2401C25.1498 28.9116 25.1096 32.5891 25.1602 36.2561C25.2018 39.2362 27.3785 41.9133 30.1757 42.5837C30.747 42.7217 31.0684 42.7517 31.1844 41.9358C31.5608 39.2257 33.1335 37.3315 35.6479 36.4406C38.0284 35.5977 40.2944 36.1001 42.2434 37.7904C44.7727 39.9891 45.2845 43.9801 43.398 46.9392C41.6453 49.6913 38.0091 50.7951 35.0855 49.4258C34.2223 49.0369 33.4499 48.4694 32.8184 47.7601C32.1868 47.0509 31.7102 46.2158 31.4195 45.3089C31.3168 45.0089 31.2276 44.8139 30.8437 44.7614C26.1972 44.115 23.1457 40.562 23.107 35.7327C23.0847 33.2745 23.104 30.8268 23.104 28.3777ZM24.5918 17.5296C28.7325 17.5401 32.0146 14.1566 32.0488 9.83717C32.083 5.51776 28.8411 2.09073 24.6856 2.06373C20.5301 2.03674 17.184 5.45627 17.1735 9.78018C17.1601 14.0546 20.4735 17.5176 24.5889 17.5296H24.5918ZM37.768 47.9755C40.4149 47.995 42.5603 45.7783 42.5633 43.0172C42.5633 40.3175 40.4506 38.1173 37.8186 38.0828C35.2343 38.0483 33.0754 40.2831 33.0576 43.0037C33.0397 45.7243 35.1643 47.956 37.7651 47.9755H37.768ZM60.9171 26.6634C60.9305 23.8948 58.8818 21.7141 56.2245 21.6856C53.5673 21.6571 51.395 23.9008 51.4174 26.6349C51.4397 29.369 53.5673 31.5842 56.162 31.5842C58.7925 31.5872 60.9023 29.4035 60.9142 26.6634H60.9171ZM37.9123 21.6901C35.2893 21.6256 33.1394 23.7643 33.065 26.5104C32.9921 29.21 35.0885 31.5227 37.6773 31.5857C40.3286 31.6502 42.4934 29.486 42.5693 26.7114C42.6422 24.0298 40.5279 21.7531 37.9094 21.6901H37.9123Z" fill="white"/>
<path d="M62.9441 42.8942C62.8444 46.8537 60.141 49.9163 56.2489 49.9973C53.1854 50.0603 50.5803 48.0745 49.7575 45.069C49.576 44.4075 49.3513 44.0866 48.6282 44.1826C48.0838 44.2298 47.5366 44.2333 46.9916 44.1931C46.3667 44.1751 45.8906 43.7431 45.8772 43.2227C45.8638 42.6528 46.3236 42.1728 46.9827 42.1428C47.6418 42.1129 48.2712 42.1188 48.9169 42.1428C49.3379 42.1578 49.5046 42.0094 49.6013 41.5714C50.4255 37.8474 53.5887 35.6322 57.3068 36.1422C59.8926 36.4976 62.4576 39.1013 62.7998 41.7484C62.8534 42.1639 63.0066 42.5748 62.9441 42.8942ZM56.1909 47.9636C58.7916 47.9636 60.8894 45.7424 60.8969 43.0142C60.8969 40.5366 59.0683 38.1159 56.1566 38.0889C53.5157 38.0634 51.47 40.2981 51.4759 43.0382C51.4819 45.7784 53.553 47.9696 56.1909 47.9636Z" fill="white"/>
<path d="M20.0281 65.7885C20.0281 64.6157 20.0504 63.4428 20.0176 62.2715C20.0043 61.7721 20.2274 61.7121 20.641 61.7016C21.0874 61.6881 21.1796 61.8845 21.1648 62.2805C21.141 62.9284 21.1841 63.5793 21.1499 64.2302C21.1246 64.7026 21.3106 64.8466 21.745 64.8121C22.48 64.7551 23.4188 65.1121 23.9024 64.6727C24.3859 64.2332 24.0601 63.2613 24.0511 62.5264C24.0511 61.958 24.1181 61.6176 24.7951 61.7061C25.1194 61.7481 25.2117 61.8635 25.2117 62.1695C25.2042 64.5692 25.1968 66.9583 25.2117 69.3535C25.2117 69.8515 24.9528 69.8305 24.6061 69.8485C24.191 69.8695 24.0363 69.7345 24.0482 69.301C24.075 68.3547 24.0333 67.4053 24.066 66.4514C24.0839 65.94 23.9291 65.7135 23.3995 65.7705C22.6719 65.8485 21.7465 65.4586 21.2615 65.9475C20.8404 66.3704 21.1677 67.2778 21.138 67.9707C21.1201 68.3682 21.1186 68.7701 21.138 69.1706C21.1603 69.595 21.1186 69.856 20.5637 69.8575C20.0087 69.859 19.9953 69.5575 19.9983 69.1571C20.0355 68.0337 20.0281 66.9103 20.0281 65.7885Z" fill="white"/>
<path d="M5.05322 63.221C4.65597 62.9315 4.30931 62.7006 3.88677 62.5971C2.67717 62.2971 1.75472 62.7995 1.41549 64.0069C1.10364 65.171 1.09646 66.3967 1.39466 67.5644C1.47451 67.9333 1.65306 68.273 1.91093 68.5468C2.41828 69.0672 3.62193 69.2247 4.12333 68.8348C4.30931 68.6848 4.45215 67.128 4.30783 66.819C4.16351 66.5101 3.88825 66.5986 3.65913 66.6046C3.30949 66.615 3.17559 66.4891 3.17856 66.1276C3.18154 65.7662 3.32734 65.6777 3.66954 65.6507C5.43113 65.5307 5.42965 65.5217 5.42965 67.3185V68.2183C5.42965 69.2427 5.23623 69.5097 4.27063 69.8261C2.43614 70.426 0.699846 69.4422 0.214814 67.5029C-0.0716047 66.3834 -0.0716047 65.2089 0.214814 64.0894C0.704309 62.1516 2.46292 61.1408 4.26468 61.7392C5.15886 62.0331 5.21837 62.1366 5.05322 63.221Z" fill="white"/>
<path d="M33.5469 65.6235C33.5469 64.4012 33.5573 63.1804 33.5469 61.9595C33.5469 61.5756 33.6019 61.3596 34.0632 61.3596C34.5244 61.3596 34.6062 61.5441 34.5884 61.943C34.5646 62.5145 34.5884 63.0889 34.5884 63.6618C34.5884 64.0593 34.7119 64.1222 35.0823 63.9363C36.5806 63.1864 37.9211 63.8028 38.3392 65.4361C38.6011 66.4063 38.5742 67.4327 38.2618 68.3877C37.7723 69.8575 36.3991 70.3854 35.06 69.634C34.8666 69.5245 34.7372 69.355 34.5437 69.685C34.3697 69.9849 33.9992 69.8635 33.7329 69.7975C33.4665 69.7315 33.5618 69.421 33.5603 69.217C33.5424 68.0172 33.5469 66.8204 33.5469 65.6235ZM37.4227 66.8054C37.4227 66.2535 37.3974 65.706 37.1475 65.1961C37.0502 64.9774 36.8906 64.7927 36.689 64.6656C36.4874 64.5385 36.2529 64.4746 36.0152 64.4822C35.5049 64.4822 35.0779 64.6937 34.877 65.1796C34.6591 65.6859 34.5467 66.2318 34.5467 66.7836C34.5467 67.3355 34.6591 67.8814 34.877 68.3877C35.0883 68.8976 35.5257 69.1196 36.0777 69.1031C36.3152 69.1032 36.5471 69.0308 36.7429 68.8953C36.9387 68.7598 37.0891 68.5676 37.1742 68.3442C37.3929 67.8537 37.4197 67.3318 37.4227 66.8054Z" fill="white"/>
<path d="M49.1418 61.721C49.5882 61.625 49.8024 61.835 49.9408 62.3089C50.6118 64.6081 51.3259 66.8953 52.0059 69.1915C52.0624 69.382 52.3555 69.7254 51.9642 69.7914C51.6428 69.8484 51.1504 70.0764 50.9599 69.4914C50.945 69.4449 50.9346 69.3955 50.9168 69.3415C50.7248 68.812 50.8216 67.9511 50.3454 67.8042C49.6015 67.5747 48.7297 67.7277 47.9144 67.7247C47.6421 67.7247 47.6287 67.9571 47.5722 68.1416C47.4338 68.5161 47.3239 68.9007 47.2433 69.292C47.1407 69.9909 46.6482 69.8139 46.2257 69.8004C45.9474 69.7914 46.0189 69.5799 46.0769 69.4134C46.8208 66.9778 47.5647 64.5451 48.2863 62.1064C48.4217 61.643 48.7594 61.7135 49.1418 61.721ZM49.1418 62.9973H48.993C48.7827 63.7522 48.573 64.5066 48.3637 65.2605C47.8876 66.9583 48.0051 67.0873 49.7935 66.8353C49.8177 66.833 49.8421 66.833 49.8664 66.8353C50.094 66.8353 50.1714 66.7108 50.1104 66.4933L49.1418 62.9973Z" fill="white"/>
<path d="M79.8601 66.7528C79.8601 65.928 79.8601 65.1031 79.8601 64.2797C79.8601 64.0772 79.7619 63.7653 80.0996 63.7548C80.357 63.7548 80.723 63.5508 80.8554 63.9842C80.9759 64.3832 81.153 64.1657 81.336 64.0487C82.9101 63.0514 84.3116 63.7068 84.4396 65.568C84.5303 66.8353 84.4604 68.1176 84.4872 69.388C84.4976 69.8484 84.2313 69.8274 83.9129 69.8379C83.5692 69.8514 83.4264 69.7404 83.4308 69.373C83.4467 68.2501 83.4467 67.1263 83.4308 66.0014C83.4159 64.9786 83.099 64.5692 82.3388 64.5257C81.5785 64.4822 81.0518 64.9351 80.9268 65.847C80.7691 66.9898 80.8822 68.1416 80.8643 69.2965C80.8643 69.6324 80.8465 69.8589 80.4016 69.8544C79.988 69.8544 79.8318 69.7404 79.8467 69.3055C79.8809 68.4506 79.8601 67.6017 79.8601 66.7528Z" fill="white"/>
<path d="M72.9462 66.7859C72.9203 66.2105 73.0171 65.6361 73.2304 65.1017C73.6306 64.1103 74.3805 63.6364 75.4219 63.6019C76.4634 63.5674 77.3308 63.9753 77.7653 64.9832C78.0111 65.5462 78.1402 66.1539 78.1445 66.769C78.1489 67.3842 78.0284 67.9937 77.7906 68.5602C77.3844 69.574 76.5453 69.997 75.4755 69.982C74.373 69.967 73.6291 69.4646 73.2229 68.4687C73.0126 67.9341 72.9182 67.3603 72.9462 66.7859ZM73.9966 66.7664C73.9736 67.2657 74.0563 67.7642 74.2391 68.2287C74.4861 68.8167 74.9191 69.1286 75.5678 69.1076C76.1852 69.0926 76.6092 68.7882 76.8086 68.2167C77.1334 67.2951 77.1334 66.2888 76.8086 65.3671C76.6078 64.7867 76.1525 64.4987 75.5544 64.4867C75.2797 64.4692 75.0066 64.5403 74.7747 64.6897C74.5428 64.8391 74.364 65.059 74.2644 65.3176C74.0721 65.7742 73.9807 66.2676 73.9966 66.7634V66.7664Z" fill="white"/>
<path d="M30.5225 69.1466C29.9527 69.6865 29.4364 70 28.7743 69.9865C27.9307 69.97 27.3103 69.5756 27.1273 68.7507C26.7836 67.1999 27.0083 65.6161 26.9785 64.0458C26.9696 63.6079 27.3609 63.7668 27.6034 63.7458C27.959 63.7098 27.9917 63.9483 27.9902 64.2273C27.9902 65.3266 27.9783 66.426 27.9902 67.5268C28.0021 68.6277 28.3964 69.1016 29.2593 69.0566C29.9437 69.0206 30.3603 68.6187 30.4808 67.7833C30.64 66.6915 30.521 65.5876 30.5552 64.4837C30.5657 64.1343 30.4228 63.7339 31.0537 63.7204C31.7172 63.7114 31.6012 64.1313 31.6027 64.5182C31.6027 66.042 31.6131 67.5658 31.5923 69.0896C31.5923 69.3566 31.8125 69.7825 31.2575 69.8395C30.8335 69.8755 30.4645 69.862 30.5225 69.1466Z" fill="white"/>
<path d="M88.7661 69.9865C88.1849 69.9705 87.6074 69.8879 87.0447 69.7405C86.6281 69.643 86.5596 69.4106 86.5715 69.0431C86.5805 68.6997 86.6683 68.5932 87.0179 68.7432C87.6383 69.0086 88.2825 69.1796 88.9699 69.0686C89.4758 68.9891 89.8924 68.7896 89.9325 68.2107C89.9727 67.6318 89.5427 67.4413 89.1053 67.3108C88.6679 67.1804 88.2379 67.1054 87.8094 66.9839C87.0506 66.7679 86.6549 66.243 86.6102 65.4571C86.587 65.0913 86.6862 64.7283 86.8921 64.4261C87.0979 64.124 87.3984 63.9003 87.7454 63.7908C88.6233 63.4759 89.4996 63.5928 90.3715 63.8553C90.8178 63.9918 90.7494 64.3652 90.6824 64.6547C90.5753 65.1046 90.2822 64.7552 90.1081 64.6952C89.546 64.4923 88.9401 64.4457 88.354 64.5602C87.9418 64.6442 87.6874 64.8947 87.6681 65.3266C87.6502 65.7316 87.8808 65.985 88.2513 66.093C88.6783 66.216 89.1157 66.306 89.5457 66.42C90.5396 66.6809 91.0112 67.2358 91.0038 68.1297C91.0038 68.9726 90.4578 69.6295 89.5412 69.874C89.2857 69.9292 89.0267 69.9668 88.7661 69.9865Z" fill="white"/>
<path d="M15.0223 66.579V65.8292C15.0223 64.6578 15.0223 64.6473 13.8484 64.5648C13.5508 64.5438 13.3887 64.4793 13.3887 64.1419C13.3887 63.8044 13.5642 63.7114 13.8573 63.7339C13.9565 63.7287 14.0558 63.7287 14.1549 63.7339C14.8988 63.8674 15.1205 63.5315 15.0312 62.8266C14.9806 62.4216 14.8973 61.9462 15.61 62.0272C15.9343 62.0647 16.0563 62.1666 16.0296 62.4771C16.0162 62.6766 16.0489 62.8806 16.0296 63.077C15.9582 63.6155 16.1947 63.7879 16.7035 63.7399C17.071 63.7054 17.4475 63.7399 17.8179 63.7399C18.1036 63.7309 18.2926 63.7864 18.2926 64.1404C18.2926 64.4703 18.1542 64.5903 17.8462 64.5663C17.7967 64.5626 17.747 64.5626 17.6974 64.5663C16.037 64.6113 16.037 64.6113 16.037 66.3196C16.037 66.7935 16.0236 67.269 16.037 67.7429C16.0802 68.7418 16.3212 68.9427 17.2853 69.0312C17.6334 69.0627 18.3268 68.6578 18.2643 69.4812C18.2152 70.1711 17.6037 69.8231 17.2645 69.8291C15.5088 69.8546 15.0491 69.3792 15.0327 67.6394C15.0193 67.2779 15.0223 66.936 15.0223 66.579Z" fill="white"/>
<path d="M61.3023 66.5566C61.3023 66.1066 61.268 65.6567 61.3112 65.2067C61.3632 64.6653 61.1401 64.4928 60.6387 64.5528C60.4438 64.5768 60.2429 64.5528 60.0435 64.5528C59.746 64.5618 59.6656 64.3893 59.6701 64.1239C59.6701 63.8974 59.743 63.6859 59.9974 63.7354C61.1401 63.9544 61.4852 63.4355 61.3097 62.3691C61.2427 61.9687 61.5701 62.0392 61.8051 62.0332C62.0402 62.0272 62.2857 62.0017 62.3244 62.3826C62.369 62.8236 62.064 63.422 62.5401 63.6664C62.8957 63.8494 63.4135 63.6979 63.8568 63.7294C64.1336 63.7489 64.5442 63.5495 64.568 64.1059C64.5948 64.7058 64.1559 64.5438 63.8479 64.5558C62.3169 64.5798 62.3169 64.5738 62.3169 66.1321C62.3169 66.7065 62.3035 67.2795 62.3303 67.8524C62.3705 68.7043 62.613 68.9382 63.464 68.9937C63.7095 69.0102 63.958 69.0072 64.208 69.0027C64.5055 69.0027 64.5725 69.1692 64.574 69.4332C64.5755 69.6971 64.4728 69.8471 64.1842 69.8351C63.6902 69.8141 63.1903 69.8501 62.6963 69.7811C61.8468 69.6596 61.4228 69.2172 61.3439 68.3473C61.2903 67.7474 61.3335 67.1475 61.3335 66.5476L61.3023 66.5566Z" fill="white"/>
<path d="M58.0135 65.0087C56.5882 64.2963 55.5377 64.3562 54.9203 65.1586C54.3028 65.961 54.3415 67.7083 54.9679 68.4852C55.5943 69.2621 56.6908 69.2996 57.954 68.6112C58.1771 69.499 58.1117 69.619 57.28 69.862C56.0228 70.2309 54.6808 69.829 54.0068 68.8796C53.2167 67.7758 53.1959 65.904 53.9606 64.7687C54.6004 63.8163 55.8695 63.3859 57.1386 63.6903C58.0507 63.9063 58.1162 63.9903 58.0135 65.0087Z" fill="white"/>
<path d="M69.8382 66.4246C69.8382 67.098 69.8561 67.7744 69.8382 68.4478C69.8233 68.8617 69.9602 69.0477 70.3842 69.0222C70.7309 69.0012 71.079 69.0222 71.4257 69.0222C71.7233 69.0132 71.8111 69.1572 71.8111 69.4332C71.8111 69.7091 71.7397 69.8456 71.4361 69.8441C70.0475 69.8341 68.6589 69.8341 67.2702 69.8441C66.9726 69.8441 66.8789 69.7211 66.8789 69.4392C66.8789 69.1572 66.9667 69.0072 67.2628 69.0267C67.3123 69.0297 67.362 69.0297 67.4115 69.0267C68.8265 68.9592 68.8265 68.9592 68.8265 67.5449C68.8265 66.795 68.7952 66.0451 68.8369 65.2952C68.8667 64.7568 68.7298 64.4838 68.148 64.5768C67.9751 64.5881 67.8017 64.5881 67.6288 64.5768C67.3148 64.5768 67.2717 64.3819 67.2732 64.1269C67.2747 63.8719 67.3744 63.7519 67.6258 63.7519C68.2447 63.7519 68.8652 63.7609 69.4841 63.7519C69.868 63.7429 69.8427 64.0009 69.8427 64.2559C69.8387 64.9778 69.8372 65.7007 69.8382 66.4246Z" fill="white"/>
<path d="M10.3085 66.435C10.3085 67.1069 10.3279 67.7848 10.3085 68.4522C10.2936 68.8631 10.4171 69.0521 10.8516 69.0221C11.1953 68.9966 11.5434 69.0221 11.8931 69.0221C12.2427 69.0221 12.2918 69.1856 12.2918 69.4856C12.2918 69.8065 12.1103 69.8395 11.8588 69.8395C10.5005 69.8395 9.14058 69.8305 7.78071 69.8395C7.46826 69.8395 7.3418 69.7375 7.3418 69.4106C7.3418 69.0461 7.54414 69.0326 7.8179 69.0131C9.28937 68.9156 9.28937 68.9096 9.28937 67.3813C9.28937 66.7094 9.25217 66.0315 9.29978 65.3641C9.34442 64.7642 9.18968 64.4643 8.54396 64.5707C8.39539 64.5821 8.24619 64.5821 8.09762 64.5707C7.84171 64.5707 7.75393 64.4313 7.74798 64.1958C7.74203 63.9603 7.78964 63.7458 8.09911 63.7458H9.95294C10.3249 63.7458 10.3085 64.0053 10.3085 64.2618V66.435Z" fill="white"/>
<path d="M69.8341 62.1366C69.8966 62.5055 69.8177 62.7245 69.3134 62.7245C68.7629 62.7245 68.8179 62.408 68.8179 62.0556C68.8179 61.7031 68.7778 61.3987 69.3208 61.3852C69.9338 61.3612 69.8445 61.7241 69.8341 62.1366Z" fill="white"/>
<path d="M10.3013 62.015C10.3221 62.387 10.3771 62.7125 9.81771 62.717C9.29697 62.717 9.25978 62.468 9.2821 62.0705C9.30144 61.7241 9.21216 61.3791 9.77754 61.3806C10.2908 61.3866 10.3563 61.6281 10.3013 62.015Z" fill="white"/>
<path d="M29.5393 9.73229C29.5512 10.5542 29.267 11.1181 28.6258 11.4975C27.0888 12.4094 25.5653 13.3438 24.0239 14.2467C23.0062 14.8466 22.1641 14.7716 21.4217 14.0862C21.2347 13.921 21.0855 13.717 20.9843 13.4881C20.8831 13.2592 20.8323 13.0109 20.8355 12.7604C20.8355 10.7866 20.8057 8.81441 20.8429 6.84218C20.8424 6.50292 20.9314 6.16961 21.1008 5.87646C21.2702 5.58331 21.5139 5.34088 21.8069 5.17402C22.1 5.00716 22.4318 4.9219 22.7683 4.92697C23.1048 4.93205 23.4339 5.02728 23.7219 5.2029C25.3362 6.12828 26.9326 7.08815 28.5335 8.03602C29.2045 8.43496 29.5928 9.00189 29.5393 9.73229ZM22.792 12.6329C24.3527 11.7225 25.7676 10.9036 27.1677 10.0832C27.4861 9.89726 27.4429 9.72178 27.1498 9.5463C25.8306 8.75941 24.5129 7.96902 23.1967 7.17513C22.9244 7.01165 22.7905 7.05515 22.7905 7.3971C22.7935 9.08737 22.792 10.7791 22.792 12.6329Z" fill="white"/>
<path d="M36.0297 44.0355C35.5357 44.049 35.0388 43.5511 35.0254 43.0307C35.0345 42.7666 35.142 42.5158 35.3265 42.3281C35.511 42.1405 35.7589 42.0299 36.0207 42.0183C36.2844 42.0175 36.5375 42.122 36.7249 42.3089C36.9123 42.4958 37.0186 42.75 37.0206 43.0157C37.0134 43.2803 36.9073 43.5324 36.7235 43.7215C36.5398 43.9106 36.292 44.0228 36.0297 44.0355Z" fill="white"/>
<path d="M38.547 43.0292C38.547 42.4578 38.9934 41.9704 39.5171 42.0244C40.0721 42.0829 40.4351 42.4038 40.4783 42.9872C40.5169 43.5316 39.9664 44.0851 39.4368 44.0251C38.8714 43.9606 38.5381 43.6366 38.547 43.0292Z" fill="white"/>
<path d="M59.2623 25.1635C59.289 25.4155 59.1626 25.6389 58.9647 25.8489C58.0541 26.7998 57.1629 27.7672 56.245 28.7105C55.7584 29.21 55.1826 29.2205 54.6693 28.745C54.223 28.3221 53.7871 27.8706 53.3719 27.4102C52.9568 26.9498 52.875 26.4308 53.3199 25.9374C53.7156 25.4995 54.2959 25.4875 54.7482 26.0169C55.2823 26.6438 55.6543 26.5643 56.1319 25.9779C56.5647 25.4658 57.0272 24.98 57.517 24.5231C57.8354 24.2141 58.2193 24.0552 58.6701 24.2576C58.8519 24.325 59.0075 24.4493 59.1141 24.6124C59.2206 24.7754 59.2726 24.9685 59.2623 25.1635Z" fill="white"/>
<path d="M35.5621 25.6359C36.0561 25.6164 36.3358 25.9239 36.5946 26.2178C36.913 26.5823 37.163 26.6003 37.4948 26.2283C37.9917 25.6719 38.5214 25.147 39.0481 24.6205C39.6045 24.0656 40.1639 24.0116 40.6148 24.4511C41.0656 24.8905 41.0209 25.4169 40.4571 26.0169C39.6586 26.8667 38.8542 27.7131 38.0438 28.556C37.3624 29.2579 36.8193 29.2699 36.1349 28.5965C35.7109 28.1781 35.2988 27.7461 34.9075 27.2962C34.7764 27.1432 34.6936 26.9544 34.6694 26.7538C34.6453 26.5532 34.681 26.3499 34.7721 26.1698C34.8414 26.0156 34.9521 25.8839 35.0917 25.7895C35.2313 25.6952 35.3942 25.642 35.5621 25.6359Z" fill="white"/>
</g>
<defs>
<clipPath id="clip0_751_4236">
<rect width="91" height="70" fill="white"/>
</clipPath>
</defs>
</svg>
