<svg width="60" height="77" viewBox="0 0 60 77" fill="none" xmlns="http://www.w3.org/2000/svg">
<g clip-path="url(#clip0_751_3816)" filter="url(#filter0_d_751_3816)">
<path d="M4.9292 9.70451C4.87453 9.4753 4.98959 9.34331 5.28009 9.24372C9.70563 7.72881 14.1282 6.20521 18.5477 4.67292C21.8199 3.54425 25.1109 2.45985 28.3554 1.26241C29.3844 0.882239 30.2592 0.913856 31.2629 1.26874C33.99 2.23143 36.7465 3.11586 39.4941 4.02165C43.2826 5.27045 47.0727 6.51479 50.8645 7.75464C52.2386 8.20595 53.6071 8.67227 54.9829 9.11884C55.2457 9.2042 55.2881 9.32197 55.2481 9.58121C55.1029 10.5257 54.9968 11.4781 54.8719 12.4266C54.6949 13.7766 54.5137 15.1266 54.3366 16.4765C54.2142 17.4108 54.0975 18.3458 53.9768 19.2808C53.8261 20.4495 53.674 21.6182 53.5206 22.787C53.3754 23.8935 53.2236 24.9945 53.0832 26.0995C52.9331 27.285 52.7968 28.4706 52.6483 29.6562C52.4943 30.8797 52.3363 32.1027 52.1742 33.3252C51.9359 35.1446 51.6965 36.9638 51.4561 38.7828C51.3663 39.4712 51.2725 40.1596 51.2031 40.8504C51.2017 40.9336 51.1762 41.0147 51.1297 41.0845C51.0831 41.1544 51.0172 41.2102 50.9395 41.2456C48.1341 42.7442 45.3308 44.2459 42.5297 45.7508L31.2686 51.787C30.8533 52.0099 30.42 52.2051 30.0209 52.4525C29.8055 52.586 29.6537 52.5442 29.4644 52.4422C27.8495 51.5728 26.2313 50.7144 24.6164 49.8474C22.942 48.9516 21.2689 48.0513 19.5971 47.1466C17.1197 45.8077 14.6431 44.4675 12.1673 43.1259C11.0999 42.55 10.0301 41.9786 8.95787 41.4116C8.85967 41.3683 8.77534 41.3001 8.71374 41.2143C8.65214 41.1285 8.61553 41.0282 8.6078 40.9239C8.34096 38.6452 8.06433 36.3681 7.79913 34.0895C7.56983 32.123 7.3593 30.1541 7.12755 28.1877C6.92436 26.4694 6.69669 24.7542 6.49268 23.0359C6.31479 21.5389 6.16628 20.0396 5.98431 18.5426C5.75745 16.6567 5.50694 14.7733 5.27764 12.8866C5.15442 11.8425 5.04589 10.7992 4.9292 9.70451ZM29.7361 3.57587C29.6448 3.59879 29.5517 3.61381 29.4636 3.64463C25.6887 4.94455 21.9146 6.24605 18.1413 7.54913C14.7312 8.72918 11.326 9.92029 7.915 11.0972C7.6351 11.1936 7.5486 11.2971 7.58859 11.6006C7.76567 12.9048 7.90439 14.2144 8.05862 15.5217C8.46119 18.9352 8.8643 22.3483 9.26796 25.7612C9.55357 28.1666 9.84026 30.5712 10.128 32.975C10.3802 35.1043 10.6364 37.2328 10.8739 39.3637C10.9033 39.6269 10.9792 39.7858 11.2272 39.917C17.2658 43.1575 23.2994 46.4023 29.3281 49.6514C29.4546 49.7193 29.5729 49.8292 29.7361 49.8094C29.8993 49.8387 30.016 49.7241 30.1442 49.6561C36.2822 46.3639 42.4209 43.073 48.56 39.7834C48.7991 39.6554 48.8775 39.4886 48.9068 39.2602C49.1789 37.1656 49.4492 35.0706 49.718 32.975C50.1026 29.9647 50.4834 26.9539 50.8604 23.9425C51.3875 19.8104 51.9074 15.6775 52.4647 11.5485C52.5202 11.1383 52.3953 11.0355 52.0567 10.9233C45.8495 8.87461 39.642 6.82145 33.4343 4.76382C32.2062 4.35993 30.9953 3.90783 29.7394 3.57824L29.7361 3.57587Z" fill="white"/>
<path d="M20.6255 65.56C20.304 65.2534 20.0543 64.9072 20.2648 64.4266C20.3509 64.218 20.5029 64.0409 20.6989 63.9208C20.8515 63.8283 20.8923 63.7532 20.6989 63.6481C20.0061 63.2624 19.6618 62.3124 19.9792 61.3797C20.2322 60.6383 20.8564 60.1799 21.8307 60.1657C22.8328 60.1506 23.8341 60.2945 24.8394 60.2447C24.9887 60.2376 25.0491 60.3048 25.0181 60.4273C24.9871 60.5498 25.1421 60.7434 24.8769 60.8138C24.5872 60.8928 24.2747 60.8138 23.9867 60.9529C24.114 61.2588 24.2723 61.5433 24.3 61.8808C24.3857 62.9154 23.7802 63.7042 22.7186 63.8828C22.4387 63.9295 22.1473 63.9801 21.8666 63.9224C21.5859 63.8647 21.3925 63.9729 21.2138 64.1524C21.0351 64.3318 20.9331 64.5476 21.0245 64.7989C21.1159 65.0502 21.3583 65.104 21.5876 65.115C22.0355 65.1348 22.4852 65.1309 22.9332 65.1198C23.2188 65.1157 23.5035 65.15 23.7794 65.2218C24.3384 65.3624 24.7913 65.6691 24.9047 66.2421C25.0312 66.8855 24.9332 67.5068 24.3767 67.9691C23.9287 68.3438 23.3877 68.5137 22.8189 68.573C21.9825 68.6599 21.1387 68.7176 20.3366 68.3793C19.7336 68.1256 19.4104 67.668 19.3876 67.0357C19.3664 66.4579 19.7417 65.9663 20.3619 65.7055C20.45 65.6675 20.5626 65.6849 20.6255 65.56ZM22.3318 65.8762C21.985 65.8936 21.5769 65.8936 21.1746 65.941C20.6499 66.0027 20.3137 66.3828 20.277 66.9053C20.2403 67.3795 20.4712 67.7115 21.0114 67.8537C21.7911 68.0528 22.6157 68.0089 23.3681 67.7281C23.5867 67.6499 23.7756 67.5094 23.9099 67.325C24.0154 67.1865 24.081 67.0234 24.1002 66.8524C24.1194 66.6813 24.0915 66.5084 24.0193 66.3512C23.892 66.0453 23.6023 65.9616 23.2922 65.9378C22.9879 65.9125 22.69 65.8983 22.3318 65.8762ZM22.0927 63.3185C22.9748 63.3264 23.4236 62.9367 23.4342 62.1535C23.4456 61.2635 23.0262 60.7995 22.2004 60.7893C21.2301 60.7774 20.7626 61.1979 20.7609 62.0847C20.7593 62.8917 21.2114 63.3106 22.0927 63.3185Z" fill="white"/>
<path d="M12.2793 65.9817C12.2678 65.988 12.2564 65.9998 12.245 66.0006C11.3768 66.0741 11.3768 66.0741 11.061 65.2948C10.8692 64.8206 10.666 64.3519 10.4897 63.8721C10.4081 63.6556 10.3094 63.5662 10.0581 63.571C9.20288 63.5884 8.34443 63.586 7.49087 63.571C7.24607 63.571 7.12938 63.6421 7.04696 63.8682C6.83398 64.4483 6.56469 65.0103 6.36885 65.5959C6.25787 65.9295 6.09548 66.0757 5.73562 66.0164C5.58242 66.0054 5.42859 66.0054 5.27539 66.0164C5.62709 65.1557 5.96493 64.3345 6.29868 63.5117C6.967 61.8677 7.63858 60.2245 8.29303 58.575C8.38442 58.3434 8.5109 58.2699 8.74429 58.2968C8.95563 58.3205 9.17513 58.2225 9.29998 58.5339C10.2792 60.9951 11.2788 63.4469 12.2719 65.9026C12.2783 65.9285 12.2808 65.9551 12.2793 65.9817ZM7.52108 62.7466H10.0646C9.64353 61.6282 9.229 60.5335 8.77937 59.3385C8.41869 60.5525 7.92011 61.6172 7.52108 62.7466Z" fill="white"/>
<path d="M49.3158 64.9468C50.1465 65.2479 50.9641 65.406 51.816 65.3594C52.1427 65.3506 52.4633 65.2715 52.7545 65.1278C52.9421 65.0328 53.1018 64.8932 53.2184 64.722C53.335 64.5508 53.4047 64.3537 53.421 64.1493C53.4374 63.9448 53.3997 63.7396 53.3117 63.5531C53.2236 63.3666 53.088 63.2049 52.9177 63.0831C52.566 62.8262 52.1572 62.6792 51.75 62.5298C51.3642 62.4038 50.9889 62.2498 50.6271 62.069C49.7042 61.5711 49.2717 60.7641 49.4439 59.8559C49.6071 58.9802 50.3105 58.3756 51.3607 58.2554C52.1872 58.1646 53.0241 58.2501 53.8128 58.506C54.1776 58.6206 54.0503 58.8047 53.976 59.0142C53.9018 59.2236 53.8741 59.4236 53.5248 59.2892C52.8247 59.0205 52.0919 58.883 51.3346 59.0577C50.8532 59.1683 50.4729 59.4102 50.3831 59.9144C50.2893 60.444 50.4174 60.9072 50.9192 61.2217C51.333 61.4802 51.7932 61.6367 52.2485 61.8035C52.6575 61.9427 53.0492 62.1256 53.4163 62.3488C53.703 62.5326 53.9373 62.7834 54.0977 63.078C54.258 63.3726 54.3392 63.7016 54.3338 64.0346C54.3283 64.3676 54.2364 64.6939 54.0665 64.9834C53.8966 65.273 53.6542 65.5164 53.3616 65.6914C53.016 65.9021 52.6253 66.0335 52.2192 66.0755C51.4352 66.1558 50.6431 66.119 49.8707 65.9664C49.421 65.8755 49.2407 65.6819 49.3182 65.2503C49.3258 65.1493 49.325 65.0478 49.3158 64.9468Z" fill="white"/>
<path d="M39.4377 65.1494C38.7776 66.0291 37.9428 66.203 36.9978 66.0979C36.2691 66.0188 35.7167 65.5754 35.5519 64.9123C35.3666 64.1662 35.6335 63.4683 36.2634 63.0881C36.8346 62.7435 37.4752 62.6644 38.1223 62.6075C38.2855 62.5941 38.4593 62.6384 38.6119 62.5949C38.8796 62.5158 39.2998 62.8067 39.4067 62.3838C39.5577 61.7839 39.2664 61.1983 38.8094 60.9975C38.3345 60.7904 37.8538 60.8679 37.3773 60.9817C37.1957 61.03 37.0176 61.0902 36.8444 61.1619C36.7701 61.195 36.688 61.2081 36.6067 61.1998C36.5254 61.1914 36.4479 61.162 36.3824 61.1146C36.3169 61.0672 36.2658 61.0035 36.2345 60.9303C36.2032 60.8571 36.1929 60.7771 36.2047 60.6987C36.2128 60.5999 36.3001 60.5857 36.3679 60.5549C37.2459 60.1597 38.1631 60.034 39.104 60.2625C39.7805 60.4261 40.2464 60.9414 40.2587 61.6219C40.2937 63.0154 40.2774 64.4112 40.2856 65.8054C40.2856 65.9453 40.2587 66.0536 40.0906 66.0125C39.9225 65.9714 39.6605 66.1603 39.5887 65.8442C39.5455 65.6505 39.5055 65.4584 39.4377 65.1494ZM39.4092 63.586C39.4753 63.2944 39.3651 63.141 38.9824 63.2027C38.7433 63.2414 38.4928 63.2177 38.248 63.2367C37.8693 63.2667 37.4891 63.3039 37.1333 63.4493C36.6029 63.6659 36.3679 64.0895 36.4593 64.6609C36.5294 65.1012 36.9024 65.3921 37.4524 65.4371C38.6299 65.5296 39.4002 64.8206 39.4092 63.5829V63.586Z" fill="white"/>
<path d="M13.2936 63.1312C13.2936 62.276 13.2936 61.4208 13.2936 60.5656C13.2936 60.4225 13.2275 60.217 13.5074 60.2494C13.7203 60.2739 14.0239 60.1222 14.0631 60.5055C14.0712 60.5846 14.0843 60.6636 14.0949 60.7426C14.1055 60.8217 14.1031 60.9149 14.183 60.9497C14.3079 61.0035 14.3348 60.8707 14.3944 60.8138C15.1451 60.0906 16.5381 59.9159 17.4504 60.4399C17.94 60.7221 18.1791 61.1663 18.2329 61.7045C18.3709 63.0688 18.2615 64.4385 18.3007 65.8051C18.3056 65.9853 18.2387 66.0169 18.0706 66.0256C17.3639 66.0627 17.3639 66.0691 17.3639 65.4004C17.3639 64.3871 17.368 63.3738 17.3639 62.3606C17.359 61.3726 17.0008 60.9505 16.1276 60.8849C15.1288 60.8059 14.4083 61.3038 14.2565 62.1835C14.0933 63.1502 14.2108 64.1263 14.1749 65.0977C14.1594 65.2555 14.1607 65.4144 14.179 65.5719C14.2483 65.9608 14.0868 66.0461 13.7016 66.0374C13.3662 66.0295 13.2707 65.9584 13.2821 65.6264C13.3123 64.7894 13.2936 63.9635 13.2936 63.1312Z" fill="white"/>
<path d="M31.2019 63.132C31.2019 64.0014 31.2019 64.8709 31.2019 65.7403C31.2019 65.8533 31.2688 66.0564 31.0387 66.0082C30.8363 65.9663 30.5491 66.2011 30.4291 65.8296C30.3761 65.6628 30.4797 65.3988 30.2774 65.3467C30.1305 65.3087 30.0326 65.5546 29.9004 65.6628C29.1782 66.2359 27.6588 66.2951 26.9113 65.7703C26.7077 65.6275 26.5407 65.4412 26.4233 65.2259C26.3059 65.0106 26.2411 64.772 26.234 64.5286C26.1524 63.185 26.2193 61.8461 26.1915 60.5048C26.1875 60.2874 26.2731 60.2242 26.478 60.2511C26.5592 60.2622 26.6416 60.2622 26.7228 60.2511C27.0296 60.2068 27.1389 60.3024 27.1308 60.6281C27.1071 61.7346 27.121 62.8412 27.1226 63.943C27.1226 64.923 27.4825 65.3538 28.354 65.4312C29.3071 65.5158 30.0252 65.0424 30.2137 64.2077C30.3696 63.5185 30.279 62.819 30.2953 62.1243C30.3195 61.6381 30.3168 61.1511 30.2872 60.6652C30.2553 60.2914 30.4046 60.2455 30.7408 60.24C31.1056 60.2345 31.2305 60.319 31.2117 60.6913C31.179 61.4999 31.2011 62.3163 31.2019 63.132Z" fill="white"/>
<path d="M47.6962 62.4179C47.6962 63.6667 47.7101 64.9163 47.6921 66.1651C47.6725 67.5088 46.5309 68.3308 45.1934 68.0249C44.7095 67.9143 44.9087 67.5768 44.9152 67.3381C44.9233 67.0567 45.1714 67.2464 45.2889 67.259C46.3228 67.3736 46.7904 66.9911 46.7945 65.9596C46.8035 63.5537 46.7945 61.147 46.8018 58.7411C46.8018 58.6075 46.7153 58.3901 46.8777 58.353C47.1292 58.3036 47.3884 58.3036 47.6399 58.353C47.7598 58.3735 47.6962 58.5609 47.6962 58.6691C47.7 59.9185 47.7 61.1678 47.6962 62.4171V62.4179Z" fill="white"/>
<path d="M34.052 61.9743C34.052 63.2112 34.0423 64.4482 34.0602 65.6843C34.0602 65.9665 33.9786 66.0598 33.7003 66.0163C33.6059 66.0025 33.5099 66.0025 33.4155 66.0163C33.161 66.0542 33.1047 65.9546 33.1055 65.7136C33.1164 63.2007 33.1164 60.688 33.1055 58.1757C33.1055 57.8943 33.1871 57.7939 33.4678 57.835C33.5622 57.8485 33.6581 57.8485 33.7526 57.835C34.0153 57.7963 34.061 57.9141 34.0586 58.1464C34.0463 59.4221 34.052 60.6986 34.052 61.9743Z" fill="white"/>
<path d="M43.0354 61.3555C43.2003 61.0735 43.4105 60.8187 43.6581 60.6006C44.1624 60.1541 44.7654 60.0908 45.4109 60.1651C45.5594 60.1817 45.5912 60.2497 45.579 60.3714C45.579 60.3841 45.579 60.3975 45.579 60.4102C45.5447 60.9121 45.4974 60.98 44.9825 60.9389C43.8931 60.852 43.1162 61.8265 43.0999 62.6667C43.0803 63.6666 43.0591 64.6672 43.0942 65.6655C43.1105 66.1397 42.811 65.9911 42.5727 66.0117C42.3108 66.0338 42.137 66.0354 42.1427 65.6647C42.1696 63.9811 42.1541 62.2968 42.1549 60.6125C42.1549 60.422 42.0913 60.2054 42.4397 60.2379C42.7058 60.2624 42.9971 60.1754 42.9571 60.6086C42.9343 60.8156 42.9955 61.0275 43.0354 61.3555Z" fill="white"/>
<path d="M29.7387 3.57812C30.9921 3.91009 32.2055 4.36219 33.4336 4.7637C39.6446 6.81027 45.8532 8.8629 52.0593 10.9216C52.3987 11.0338 52.5236 11.1366 52.4673 11.5468C51.9099 15.6758 51.3901 19.8087 50.863 23.9408C50.4822 26.9517 50.1014 29.9625 49.7206 32.9733C49.454 35.0689 49.1836 37.164 48.9094 39.2585C48.8801 39.4869 48.8017 39.6537 48.5626 39.7817C42.4213 43.0666 36.2826 46.3575 30.1467 49.6544C30.0202 49.7224 29.9076 49.837 29.7387 49.8078C29.7387 43.8814 29.7387 37.9554 29.7387 32.0296C31.8318 32.0296 33.9249 32.0296 36.018 32.0106C36.275 32.0106 36.3305 32.145 36.4072 32.3173C37.3252 34.3794 38.2498 36.4384 39.1621 38.5029C39.2657 38.74 39.3849 38.8388 39.6639 38.8419C41.145 38.8593 42.6261 38.9004 44.1072 38.932C44.1578 38.932 44.2182 38.9368 44.241 38.8625C44.2182 38.8088 44.1953 38.7479 44.1667 38.6902C41.2682 32.7007 38.3695 26.7114 35.4704 20.7224C33.5838 16.8231 31.698 12.9215 29.813 9.01756C29.7191 8.85948 29.7403 8.68797 29.7403 8.51961L29.7387 3.57812Z" fill="white"/>
<path d="M29.7372 32.0321C29.7372 37.9579 29.7372 43.8839 29.7372 49.8102C29.574 49.8316 29.4565 49.7217 29.3292 49.6522C23.2955 46.4068 17.2619 43.162 11.2283 39.9178C10.9835 39.785 10.9018 39.6261 10.8749 39.3645C10.6375 37.2305 10.3853 35.1051 10.1291 32.9758C9.84348 30.5715 9.55678 28.1669 9.269 25.762C8.86534 22.3491 8.46222 18.936 8.05965 15.5225C7.90543 14.2152 7.7667 12.9056 7.58963 11.6014C7.54883 11.2979 7.63532 11.1944 7.91603 11.098C11.327 9.92266 14.7322 8.72681 18.1424 7.54993C21.9146 6.24421 25.6886 4.94271 29.4646 3.64542C29.5528 3.6146 29.6458 3.59958 29.7372 3.57666V8.5221C29.7372 8.69045 29.716 8.86355 29.8106 9.02004C29.6009 9.07932 29.6009 9.28245 29.534 9.4263C25.4147 18.3192 21.2993 27.2131 17.1876 36.1081C16.7747 37.0013 16.3635 37.8952 15.9636 38.7528C17.6258 38.7528 19.2685 38.748 20.9119 38.7575C21.1649 38.7575 21.182 38.5876 21.2441 38.4374C22.0846 36.4008 22.9245 34.3632 23.7639 32.3245C23.8349 32.1522 23.8814 32.0084 24.145 32.0084C26.017 32.0321 27.875 32.0266 29.7372 32.0321Z" fill="white"/>
<path d="M29.7305 18.8129C29.7435 18.7583 29.7305 18.6485 29.8235 18.6999C29.8953 18.7386 29.9353 18.8413 29.9753 18.9227C31.431 21.8661 32.8866 24.8085 34.3418 27.7498C34.3761 27.8185 34.4038 27.8905 34.4471 27.9869H29.7419C29.7375 24.9297 29.7337 21.8717 29.7305 18.8129Z" fill="white"/>
<path d="M29.7292 18.813C29.7325 21.8718 29.7352 24.9306 29.7374 27.9894H25.707C26.1061 27.0749 26.4896 26.1983 26.8723 25.3202C27.7928 23.2083 28.7133 21.0961 29.6337 18.9837C29.6598 18.9244 29.6974 18.8699 29.7292 18.813Z" fill="white"/>
</g>
<defs>
<filter id="filter0_d_751_3816" x="0.916016" y="0.989746" width="58.3457" height="75.6489" filterUnits="userSpaceOnUse" color-interpolation-filters="sRGB">
<feFlood flood-opacity="0" result="BackgroundImageFix"/>
<feColorMatrix in="SourceAlpha" type="matrix" values="0 0 0 0 0 0 0 0 0 0 0 0 0 0 0 0 0 0 127 0" result="hardAlpha"/>
<feOffset dy="4"/>
<feGaussianBlur stdDeviation="2"/>
<feComposite in2="hardAlpha" operator="out"/>
<feColorMatrix type="matrix" values="0 0 0 0 0 0 0 0 0 0 0 0 0 0 0 0 0 0 0.25 0"/>
<feBlend mode="normal" in2="BackgroundImageFix" result="effect1_dropShadow_751_3816"/>
<feBlend mode="normal" in="SourceGraphic" in2="effect1_dropShadow_751_3816" result="shape"/>
</filter>
<clipPath id="clip0_751_3816">
<rect width="50.3451" height="67.6491" fill="white" transform="translate(4.91602 0.989746)"/>
</clipPath>
</defs>
</svg>
