<svg width="99" height="60" viewBox="0 0 99 60" fill="none" xmlns="http://www.w3.org/2000/svg">
<g opacity="0.7" clip-path="url(#clip0_751_4259)">
<path d="M47.8417 59.9981C38.0815 59.9981 28.3212 59.9981 18.561 59.9981C17.8102 59.9981 17.0693 59.8991 16.3286 59.796C15.7778 59.7234 15.2327 59.613 14.6971 59.4655C14.1554 59.3125 13.609 59.1768 13.0719 59.0036C12.1924 58.7199 11.3717 58.3108 10.5421 57.9185C9.52245 57.4358 8.60389 56.797 7.69602 56.1336C6.83897 55.5075 6.06161 54.7968 5.32382 54.0393C4.80087 53.5021 4.32846 52.9207 3.87596 52.3234C3.36543 51.6493 2.88551 50.9554 2.47893 50.2126C2.11971 49.5564 1.77896 48.8922 1.48471 48.2028C1.23608 47.6206 1.02471 47.0262 0.83182 46.4249C0.650765 45.8602 0.523132 45.2803 0.385103 44.7032C0.228593 44.0488 0.182966 43.3796 0.0795891 42.7186C0.0232802 42.3603 0.0177917 41.9931 0.00537491 41.6294C-0.0064644 41.283 0.00537914 40.9366 0.0024915 40.5902C-0.000973661 39.8988 0.0671745 39.2138 0.146873 38.527C0.209824 37.9837 0.292985 37.4439 0.404159 36.9104C0.478371 36.5568 0.567025 36.202 0.660585 35.8507C0.795726 35.342 0.964362 34.8444 1.14224 34.3513C1.28114 33.9662 1.42407 33.5808 1.60022 33.2076C1.80899 32.765 2.01257 32.3199 2.2456 31.8901C2.62716 31.1905 3.04749 30.5128 3.50462 29.8601C4.10415 29.0017 4.77553 28.1957 5.51152 27.4508C6.05006 26.9049 6.61518 26.3844 7.22851 25.9168C7.99258 25.334 8.75 24.7428 9.59637 24.2838C10.5559 23.7641 11.5172 23.2483 12.5614 22.9042C12.942 22.7789 13.3139 22.6268 13.698 22.5049C14.201 22.345 14.7144 22.235 15.2244 22.1074C15.717 21.9839 16.2206 21.9077 16.721 21.8476C17.2518 21.7838 17.7857 21.7033 18.3248 21.7171C18.4309 21.7207 18.537 21.7168 18.6425 21.7053C18.7868 21.6886 18.8842 21.6187 18.9205 21.462C19.0236 21.0148 19.1871 20.5858 19.3384 20.1537C19.6491 19.2663 19.9981 18.3938 20.3854 17.5363C20.7343 16.7669 21.1258 16.019 21.5405 15.282C22.2204 14.0775 22.9826 12.9213 23.8217 11.8216C24.4696 10.975 25.1626 10.1638 25.8979 9.39185C26.8763 8.35666 27.9389 7.41847 29.0498 6.52935C30.1699 5.63445 31.3553 4.8328 32.5848 4.10043C33.6137 3.48457 34.6867 2.94559 35.795 2.48789C36.6182 2.14995 37.4505 1.83442 38.292 1.54132C38.8325 1.35195 39.3971 1.23157 39.942 1.05259C40.2885 0.937121 40.6448 0.867552 40.9971 0.784125C41.4519 0.676449 41.9035 0.53875 42.3748 0.513058C42.5316 0.504398 42.6664 0.422126 42.8218 0.409136C43.5463 0.348803 44.2538 0.16607 44.9875 0.151636C45.4756 0.143807 45.9624 0.0974775 46.4432 0.0130738C46.5103 0.00606524 46.578 0.00499953 46.6453 0.00989527C47.3181 0.00989527 47.9933 -0.0224339 48.6635 0.0197128C49.2251 0.0549312 49.7937 0.0272158 50.3496 0.147016C50.3963 0.157661 50.444 0.16318 50.4919 0.163473C51.0209 0.161163 51.5384 0.258735 52.0611 0.318491C52.6048 0.380557 53.135 0.508152 53.6753 0.583208C54.0391 0.633726 54.4093 0.707336 54.7627 0.836374C55.0226 0.931059 55.3013 0.959929 55.5698 1.02604C56.3151 1.20992 57.0405 1.45501 57.7682 1.69172C58.1866 1.82769 58.5903 2.00927 59.0024 2.16371C59.9431 2.51985 60.8595 2.9372 61.7456 3.41309C62.5542 3.8461 63.3561 4.29817 64.1305 4.79729C64.905 5.29641 65.6543 5.83652 66.3785 6.40435C67.1526 7.00539 67.8932 7.64826 68.5971 8.3301C69.2705 8.98828 69.9254 9.66349 70.546 10.3728C70.9693 10.8569 71.373 11.3574 71.7657 11.867C72.2468 12.4905 72.6967 13.1371 73.1206 13.7988C73.4567 14.3242 73.7648 14.8669 74.0851 15.4029C74.0998 15.4278 74.1125 15.4538 74.1266 15.4789C74.3389 15.8588 74.3383 15.8559 74.7761 15.7716C74.8688 15.7537 74.9669 15.7615 75.0625 15.7626C75.7157 15.7696 76.3654 15.6515 77.0189 15.6977C77.6115 15.7395 78.2049 15.7595 78.7974 15.8039C79.5817 15.8617 80.3567 15.9916 81.1257 16.1336C81.6576 16.232 82.1941 16.3512 82.7099 16.534C82.9524 16.6206 83.2065 16.6685 83.4523 16.7485C83.9882 16.9234 84.5106 17.1321 85.0373 17.3313C85.7572 17.6035 86.4407 17.9465 87.1178 18.303C87.8154 18.6678 88.4912 19.0727 89.1421 19.5154C90.669 20.5601 92.0722 21.7555 93.3118 23.1328C94.2774 24.2032 95.1332 25.3678 95.8662 26.609C96.2537 27.2672 96.6017 27.9471 96.9289 28.6404C97.4628 29.7723 97.8818 30.9421 98.2167 32.1427C98.424 32.9001 98.5891 33.6683 98.7114 34.444C98.8292 35.1639 98.8792 35.8897 98.9568 36.6116C99.0244 37.2398 98.9929 37.8798 98.9837 38.5143C98.9724 39.2908 98.8815 40.0642 98.7853 40.8324C98.7045 41.5167 98.5772 42.1947 98.4042 42.8618C98.202 43.6201 97.9979 44.3787 97.7316 45.1186C97.2046 46.5834 96.5558 47.9878 95.7371 49.316C95.2999 50.0273 94.8258 50.7154 94.317 51.3774C93.5318 52.3969 92.6564 53.3438 91.7014 54.2064C90.9279 54.9114 90.1068 55.5621 89.2437 56.1541C88.8085 56.4503 88.3436 56.7026 87.8998 56.9858C87.3413 57.3426 86.7424 57.6229 86.1562 57.9269C85.8771 58.0719 85.5894 58.2 85.2949 58.3105C84.7035 58.5325 84.117 58.7672 83.5123 58.9543C82.6058 59.2358 81.684 59.4656 80.7515 59.6428C80.1485 59.7565 79.5387 59.8448 78.9323 59.9049C78.4385 59.9534 77.9392 59.999 77.4391 59.999C67.5739 59.9972 57.7081 59.997 47.8417 59.9981ZM47.8994 57.0536C57.6789 57.0536 67.4583 57.0536 77.2378 57.0536C77.7968 57.0536 78.3507 56.9959 78.9051 56.9358C79.3925 56.8845 79.8733 56.7895 80.3579 56.7211C80.8644 56.6495 81.353 56.515 81.845 56.3859C82.3648 56.2494 82.8724 56.071 83.3755 55.883C83.735 55.7491 84.1008 55.6258 84.4471 55.4619C85.2022 55.1045 85.9466 54.7278 86.6665 54.2979C87.7648 53.6423 88.7941 52.8775 89.7387 52.0151C90.6714 51.1635 91.5027 50.2227 92.2645 49.2149C93.1383 48.0571 93.8402 46.8051 94.427 45.4847C94.8527 44.5274 95.2067 43.5456 95.4495 42.5237C95.574 42.0012 95.6984 41.4802 95.7802 40.949C95.8668 40.3792 95.9554 39.8093 95.9725 39.2322C96.0014 38.2796 96.0086 37.327 95.9664 36.3758C95.9537 36.0871 95.9424 35.7984 95.8934 35.5158C95.7542 34.713 95.6502 33.9047 95.4313 33.1146C95.2887 32.5973 95.1553 32.0754 94.9719 31.5731C94.6302 30.6459 94.2258 29.7431 93.7614 28.8708C92.8815 27.2003 91.7477 25.6764 90.4005 24.3533C89.2659 23.2373 88.0465 22.2313 86.6642 21.4262C85.6319 20.8249 84.5773 20.2715 83.4569 19.8615C82.1849 19.3922 80.8679 19.0553 79.5268 18.8561C78.7269 18.738 77.9222 18.6858 77.1156 18.6609C76.6553 18.6468 76.1939 18.6777 75.7336 18.6898C75.0492 18.7077 74.3741 18.8033 73.6944 18.8569C73.1168 18.9026 72.6488 18.7478 72.3337 18.2447C72.0187 17.7415 71.7469 17.2098 71.4429 16.6982C71.0594 16.0536 70.6803 15.407 70.2618 14.7849C69.4981 13.6492 68.6289 12.5964 67.6918 11.6017C66.605 10.445 65.4296 9.37486 64.1764 8.40083C62.9636 7.46004 61.6474 6.68725 60.294 5.97596C59.4853 5.55562 58.6543 5.17978 57.8046 4.85012C56.8664 4.48177 55.9216 4.142 54.9432 3.89518C54.6917 3.83167 54.4347 3.78866 54.1872 3.71505C53.4942 3.50893 52.7775 3.4206 52.0709 3.28492C51.5136 3.17811 50.9447 3.16194 50.3834 3.09584C49.455 2.98643 48.5223 2.9746 47.5925 2.96767C46.9013 2.96151 46.2102 2.99225 45.5223 3.05975C44.9878 3.11316 44.451 3.15242 43.9194 3.22632C43.311 3.3109 42.7066 3.42377 42.1039 3.54386C41.7086 3.62267 41.3144 3.71274 40.9278 3.81637C40.1608 4.02191 39.4043 4.27017 38.6515 4.52565C38.1155 4.70751 37.5848 4.91016 37.0667 5.13793C36.214 5.51321 35.3812 5.92948 34.5588 6.37C33.5389 6.91646 32.573 7.54577 31.6452 8.22993C30.6755 8.94169 29.7551 9.71827 28.8904 10.5543C27.7143 11.6963 26.6279 12.9157 25.6733 14.2479C24.7084 15.5915 23.8716 17.0225 23.1737 18.5221C22.7773 19.364 22.427 20.2269 22.1244 21.1069C22.0507 21.3251 22.0043 21.5549 21.9101 21.7613C21.7701 22.0693 21.7028 22.3981 21.6179 22.7171C21.5393 23.0116 21.4065 23.293 21.3765 23.6022C21.3687 23.683 21.3161 23.7641 21.2694 23.8357C20.9194 24.3721 20.4478 24.6769 19.7811 24.644C18.7585 24.5955 17.7398 24.6893 16.7372 24.8631C15.6196 25.0576 14.5224 25.3552 13.4597 25.752C12.3233 26.1728 11.2403 26.7259 10.2331 27.3997C9.62584 27.8061 9.04387 28.2489 8.49041 28.7259C7.4021 29.6598 6.44642 30.7378 5.64984 31.9302C4.90515 33.0506 4.29895 34.2571 3.84449 35.5233C3.55562 36.3163 3.33685 37.1332 3.19073 37.9644C3.06287 38.6731 2.98366 39.3897 2.95365 40.1092C2.89908 41.6649 3.03133 43.2015 3.39921 44.7133C3.66419 45.7971 4.05039 46.8475 4.55052 47.8449C5.19302 49.1312 5.9438 50.3468 6.9152 51.4158C7.65328 52.2278 8.41995 53.0096 9.29952 53.6729C9.7832 54.0378 10.2646 54.4059 10.7901 54.7096C11.6206 55.1901 12.4843 55.6109 13.3746 55.9688C14.1346 56.2742 14.9197 56.4907 15.7121 56.6812C16.1504 56.7866 16.6006 56.8409 17.0468 56.9122C17.6732 57.0098 18.3065 57.0573 18.9405 57.0542C20.8463 57.049 22.7504 57.0542 24.6554 57.0542L47.8994 57.0536Z" fill="white"/>
<path d="M50.2009 26.2558C49.8833 27.5881 49.5668 28.9154 49.2515 30.2378C48.8128 32.0772 48.3738 33.9166 47.9347 35.7561C47.9235 35.8025 47.9139 35.8499 47.9009 35.8961C47.8022 36.2491 47.5885 36.4622 47.203 36.463C46.7028 36.463 46.2027 36.4705 45.7014 36.4653C45.3073 36.461 45.0921 36.2295 44.9841 35.8715C44.7927 35.2364 44.5983 34.604 44.4066 33.9703C43.8545 32.1522 43.3026 30.3342 42.7508 28.5161C42.3113 27.0656 41.8733 25.6145 41.4367 24.1629C41.387 23.9975 41.3373 23.8309 41.3379 23.6557C41.3379 23.4265 41.4291 23.322 41.6555 23.2905C41.7035 23.2861 41.7518 23.285 41.7999 23.287C42.2235 23.287 42.6469 23.2853 43.0705 23.287C43.1664 23.287 43.2622 23.3009 43.3578 23.309C43.6145 23.33 43.7774 23.4703 43.8799 23.7021C43.9856 23.9412 44.0381 24.1952 44.1014 24.4455C44.8595 27.4423 45.6168 30.4393 46.3734 33.4366C46.3991 33.5387 46.3988 33.6594 46.5068 33.783C46.583 33.4683 46.6512 33.1941 46.7156 32.9192C47.3893 30.0498 48.0623 27.1802 48.7343 24.3104C48.7825 24.1051 48.8247 23.8987 48.9032 23.7013C48.9899 23.4842 49.1415 23.358 49.3719 23.326C49.4663 23.3081 49.5616 23.2961 49.6575 23.2902C50.0618 23.2862 50.466 23.2789 50.8703 23.2902C51.4057 23.3061 51.5922 23.4634 51.7141 23.9761C51.8189 24.4149 51.9182 24.8548 52.021 25.2942C52.4884 27.2957 52.9564 29.2963 53.425 31.296C53.6089 32.0812 53.7963 32.8656 53.982 33.6502C54.0014 33.7324 54.0019 33.8234 54.0912 33.8984C54.2535 33.2685 54.4137 32.6493 54.5728 32.0301C55.2466 29.4084 55.9204 26.7864 56.5942 24.1643C56.6363 23.9968 56.6923 23.8332 56.7617 23.675C56.7998 23.5809 56.8623 23.4987 56.9427 23.4367C57.0232 23.3747 57.1186 23.3352 57.2194 23.3223C57.3232 23.3028 57.4283 23.2912 57.5338 23.2876C57.9473 23.2836 58.3612 23.2836 58.7755 23.2876C59.1726 23.2914 59.2835 23.4371 59.2188 23.8361C59.1847 24.0463 59.1142 24.2454 59.0519 24.4466C58.3796 26.6194 57.7045 28.7915 57.0265 30.9629C56.5308 32.5575 56.0363 34.1525 55.5431 35.7477C55.5344 35.7751 55.5255 35.8025 55.5165 35.8297C55.3476 36.3395 55.166 36.4766 54.6352 36.4818C54.2217 36.4862 53.8078 36.4862 53.3935 36.4818C52.8587 36.4754 52.6716 36.3247 52.5483 35.8054C51.8957 33.0792 51.2435 30.3529 50.5916 27.6267C50.4935 27.2158 50.3956 26.805 50.298 26.3943C50.2879 26.3487 50.2858 26.2991 50.2009 26.2558Z" fill="white"/>
<path d="M49.5227 49.608C45.8184 49.6173 42.2092 49.0327 38.7079 47.8116C35.1466 46.5747 31.8302 44.7225 28.9096 42.3392C28.4842 41.9927 28.0658 41.6388 27.661 41.2687C27.5692 41.1847 27.4765 41.1004 27.4262 40.9801C27.315 40.713 27.4744 40.4642 27.7638 40.4567C27.9258 40.4527 28.0589 40.5286 28.1935 40.6062C29.6254 41.435 31.1059 42.1767 32.6271 42.8273C35.5812 44.0914 38.6641 45.0304 41.8214 45.6275C43.5975 45.965 45.3923 46.1958 47.1961 46.3186C48.5221 46.4083 49.8493 46.4473 51.1773 46.4069C53.3988 46.3395 55.6118 46.1018 57.7969 45.6959C60.9105 45.1237 63.9526 44.2152 66.8699 42.9864C67.0333 42.9174 67.1982 42.8767 67.3746 42.894C67.6233 42.9185 67.8098 43.0401 67.919 43.267C68.0281 43.4939 67.9727 43.6974 67.8375 43.8908C67.759 44.0028 67.6507 44.083 67.5415 44.163C65.8075 45.4303 63.9231 46.4233 61.9343 47.223C59.561 48.1788 57.1048 48.8344 54.5801 49.2339C53.2778 49.4397 51.9679 49.5803 50.6483 49.6057C50.2729 49.6144 49.8975 49.608 49.5227 49.608Z" fill="white"/>
<path d="M37.4845 29.1143C37.4629 28.3465 37.5339 27.6069 37.3754 26.8742C37.1374 25.7773 36.5957 25.2467 35.4941 25.0527C34.5123 24.8795 33.5414 24.9473 32.5793 25.197C32.0037 25.3494 31.4386 25.5392 30.8877 25.7651C30.7534 25.8194 30.6177 25.8693 30.4733 25.8838C30.2767 25.9034 30.1678 25.8399 30.141 25.6499C30.0769 25.2115 30.0817 24.7657 30.1554 24.3287C30.1877 24.1442 30.3483 24.0492 30.4982 23.9592C30.8629 23.7404 31.2588 23.5908 31.6587 23.456C32.7806 23.0781 33.9336 22.8919 35.1181 22.9364C35.8111 22.963 36.4955 23.0478 37.1617 23.2626C38.492 23.6913 39.3072 24.5946 39.6684 25.9291C39.8301 26.5269 39.8945 27.1372 39.8948 27.7547C39.8948 29.1981 39.8986 30.6414 39.8931 32.0848C39.8914 32.4991 39.9303 32.9101 39.9624 33.3215C40.006 33.8784 40.2471 34.3737 40.4874 34.8665C40.5209 34.9355 40.5627 35.0007 40.5954 35.07C40.7109 35.3165 40.6872 35.5227 40.4799 35.6938C40.1166 35.9941 39.7184 36.2487 39.3092 36.4811C39.0513 36.6274 38.8218 36.5128 38.6323 36.3249C38.4086 36.0992 38.2168 35.8441 38.062 35.5665C37.9529 35.3746 37.8573 35.1748 37.7516 34.9811C37.7161 34.9162 37.7048 34.8322 37.6139 34.7923C37.391 35.0233 37.1712 35.2654 36.9237 35.4791C35.7716 36.4736 34.4279 36.8766 32.922 36.7934C32.3102 36.7596 31.7185 36.6381 31.1765 36.3486C30.0696 35.7574 29.4592 34.8163 29.2839 33.5836C29.1892 32.9182 29.221 32.258 29.4141 31.6134C29.7295 30.5606 30.4153 29.8118 31.3702 29.2988C32.2391 28.832 33.1814 28.6825 34.1556 28.679C35.22 28.6753 36.2616 28.8439 37.2942 29.0832C37.3404 29.0941 37.3881 29.099 37.4845 29.1143ZM37.5096 31.5104C37.5096 31.3299 37.5096 31.1764 37.5096 31.0225C37.5082 30.7653 37.5073 30.7676 37.2497 30.7096C36.6122 30.5683 35.9644 30.4783 35.3124 30.4405C34.7459 30.4065 34.1793 30.4117 33.6209 30.5367C32.879 30.7012 32.2804 31.058 31.981 31.7947C31.7956 32.2505 31.7806 32.7271 31.8444 33.2092C31.9654 34.1281 32.5767 34.7903 33.6457 34.8642C34.4165 34.922 35.1884 34.7676 35.8775 34.4176C36.5128 34.0969 37.0121 33.6255 37.2815 32.9534C37.4683 32.4875 37.4952 31.9846 37.5096 31.5112V31.5104Z" fill="white"/>
<path d="M64.7198 36.8679C63.5648 36.8572 62.4469 36.637 61.3618 36.2478C61.2624 36.212 61.168 36.1635 61.0701 36.1234C60.5336 35.9029 60.2258 35.5394 60.2974 34.9234C60.317 34.7525 60.2942 34.577 60.3017 34.4038C60.3182 34.0285 60.4929 33.8995 60.8481 34.0043C61.0038 34.0531 61.1567 34.1109 61.3057 34.1775C62.6318 34.745 64.0132 34.9615 65.4478 34.816C65.8988 34.7704 66.3346 34.6543 66.7348 34.4254C67.526 33.9722 67.742 33.1527 67.5119 32.4235C67.4126 32.1091 67.2078 31.8733 66.9384 31.6876C66.5942 31.4504 66.2098 31.2991 65.8168 31.1721C65.0767 30.9325 64.332 30.7076 63.591 30.4715C62.8902 30.248 62.2237 29.9562 61.6661 29.4611C60.1036 28.0731 59.9165 25.4826 61.853 23.9763C62.6756 23.3357 63.6228 23.0254 64.6491 22.937C65.855 22.8323 67.0256 23.0138 68.1697 23.3926C68.4357 23.4792 68.6895 23.5929 68.9182 23.7569C69.1683 23.9364 69.3109 24.17 69.2999 24.4892C69.2916 24.739 69.3048 24.9895 69.2942 25.2398C69.2791 25.5989 69.1073 25.7205 68.7605 25.6203C68.6421 25.5815 68.5264 25.5351 68.414 25.4814C67.1452 24.9289 65.8281 24.7724 64.4648 24.9999C64.1797 25.0466 63.9048 25.1425 63.6525 25.2834C62.7476 25.7915 62.6153 27.0816 63.399 27.7617C63.686 28.0108 64.0253 28.1704 64.3739 28.3102C65.0432 28.5792 65.74 28.7663 66.4241 28.9906C67.0351 29.1909 67.6525 29.371 68.2225 29.6805C69.1561 30.1871 69.7692 30.9394 69.9725 31.9884C70.2915 33.6359 69.5413 35.2323 68.075 36.0741C67.1683 36.5928 65.9199 36.8898 64.7198 36.8679Z" fill="white"/>
<path d="M67.3051 41.345C66.2944 41.324 65.2901 41.4316 64.2875 41.5523C64.1447 41.5736 64.0007 41.5852 63.8563 41.587C63.5676 41.5832 63.47 41.3849 63.6219 41.1369C63.6996 41.0099 63.8185 40.9279 63.9395 40.8482C64.7085 40.3312 65.5592 40.0111 66.4587 39.8154C67.8271 39.5171 69.2019 39.4712 70.5834 39.7264C70.887 39.7778 71.1829 39.8676 71.4638 39.9938C71.6824 40.0959 71.7991 40.2588 71.8467 40.4963C71.9417 40.9683 71.8961 41.438 71.8271 41.9031C71.5984 43.4431 71.0919 44.8842 70.2357 46.1928C69.8971 46.7195 69.4851 47.1953 69.0122 47.6058C68.9019 47.7005 68.7879 47.7894 68.6368 47.8097C68.4128 47.8403 68.2785 47.7069 68.3247 47.4855C68.3498 47.3645 68.4041 47.249 68.45 47.1333C68.8944 46.0173 69.3235 44.896 69.6155 43.7269C69.7183 43.3161 69.8017 42.9019 69.8124 42.4767C69.8143 42.3518 69.8034 42.2272 69.7801 42.1045C69.7318 41.8309 69.573 41.6609 69.3252 41.554C69.0316 41.4324 68.7188 41.3632 68.4012 41.3497C68.0365 41.3289 67.6703 41.345 67.3051 41.345Z" fill="white"/>
</g>
<defs>
<clipPath id="clip0_751_4259">
<rect width="99" height="60" fill="white"/>
</clipPath>
</defs>
</svg>
