<svg width="103" height="50" viewBox="0 0 103 50" fill="none" xmlns="http://www.w3.org/2000/svg">
<g opacity="0.7" clip-path="url(#clip0_751_4266)">
<path d="M35.3585 49.9667C24.5334 49.9667 13.7063 49.9667 2.87709 49.9667C0.179592 49.9667 -0.135869 49.5508 0.0126172 46.6394C0.510665 36.9668 7.06258 30.8611 14.0445 30.2888C14.9447 30.2123 15.1736 29.7199 15.053 28.8548C14.3601 23.9735 16.1202 20.1604 19.7612 17.442C23.4734 14.6736 27.4795 14.6869 31.3865 17.036C32.4383 17.6682 32.5713 17.2989 32.9147 16.3706C36.667 6.23214 46.034 0.0432863 55.4969 -0.0132786C66.5963 -0.0798255 76.6067 8.30506 79.3011 20.0972C79.4096 20.4062 79.4332 20.7423 79.3692 21.0654C78.1658 24.1 77.5286 27.3874 75.7128 30.1458C72.7678 34.5911 68.638 36.2581 63.7039 36.2481C56.6446 36.2481 49.5823 36.2681 42.5261 36.4278C38.2509 36.5243 33.9757 36.6707 29.7006 36.654C29.4407 36.654 29.184 36.6541 28.9272 36.674C28.3456 36.7173 27.8785 37.0733 27.8971 37.6722C27.9156 38.2711 28.5312 38.2778 28.986 38.2911C31.8196 38.3909 34.6501 38.5307 37.4837 38.5606C43.717 38.6271 49.9535 38.6072 56.1899 38.6771C59.537 38.717 62.8841 38.8334 66.2282 38.9798C69.8351 39.1362 71.9665 42.8496 70.9581 47.1418C70.8279 47.5601 70.7185 47.9855 70.6301 48.4162C70.4662 49.6174 69.897 49.99 68.7432 49.9834C57.6067 49.9302 46.4703 49.9535 35.3493 49.9535L35.3585 49.9667Z" fill="white"/>
<path d="M87.4809 49.9667C83.051 49.9667 78.6181 49.9667 74.179 49.9667C73.0994 49.9667 72.79 49.8037 73.1241 48.4428C74.1542 44.2404 79.7348 38.9632 84.4956 38.8634C87.0323 38.8102 89.6432 38.9499 92.1736 38.3144C92.7366 38.1746 93.3925 38.1713 93.3213 37.3162C93.2502 36.4611 92.5758 36.7173 92.1056 36.674C89.6494 36.4478 87.1931 36.1417 84.7307 36.0551C80.7092 35.9121 78.6892 32.5414 79.5368 28.1627C79.8461 26.499 80.4432 24.8852 80.8113 23.2216C81.0681 22.047 81.6249 21.6278 82.7571 21.6511C92.5016 21.8407 100.699 29.0511 102.617 39.3426C103.123 42.2298 103.111 45.1943 102.583 48.0768C102.363 49.3878 101.884 50.03 100.458 49.9901C96.1271 49.8736 91.7962 49.9501 87.4654 49.9501L87.4809 49.9667Z" fill="white"/>
</g>
<defs>
<clipPath id="clip0_751_4266">
<rect width="103" height="50" fill="white"/>
</clipPath>
</defs>
</svg>
