<svg width="137" height="144" viewBox="0 0 137 144" fill="none" xmlns="http://www.w3.org/2000/svg">
<g clip-path="url(#clip0_751_4295)">
<path d="M84.8043 26.5981C85.3614 25.6883 86.2427 25.0203 87.2727 24.7274C94.2736 22.618 101.411 21.5407 108.731 21.7484C109.384 21.767 110.036 21.841 110.686 21.8539C111.157 21.8616 111.366 22.0457 111.478 22.5168C112.313 26.0955 112.748 29.734 112.913 33.4063C113.091 37.5827 112.875 41.7666 112.266 45.9031C112.186 46.447 112.098 46.9916 111.977 47.5245C111.941 47.6792 111.775 47.8204 111.645 47.9321C111.515 48.0438 111.296 48.081 111.212 48.2126C111.096 48.3912 110.993 48.6492 111.03 48.8367C111.058 48.9704 111.329 49.0574 111.591 49.2324C111.592 49.4571 111.575 49.6815 111.539 49.9034C109.764 58.0921 106.404 65.8596 101.644 72.7726C98.4307 77.4489 94.5473 81.4956 90.2549 85.1917C90.0005 85.4285 89.811 85.726 89.7045 86.056C87.9942 91.0509 86.3133 96.0553 84.5979 101.049C84.2917 101.94 83.8382 102.781 83.4906 103.66C82.5776 105.975 80.9059 107.689 79.0773 109.294C77.6944 110.506 76.3161 111.722 74.9293 112.927C74.0709 113.673 73.1995 114.405 72.2625 115.096C72.3464 114.991 72.4206 114.878 72.484 114.759C72.6656 114.322 72.8043 113.865 73.0159 113.444C73.1562 113.174 73.3461 112.932 73.5757 112.731C75.4348 111.074 77.2865 109.408 79.1792 107.79C80.8756 106.339 82.0213 104.536 82.8791 102.506C85.0018 97.4883 86.6598 92.3104 88.2716 87.1151C88.2788 87.0535 88.2799 86.9913 88.2747 86.9295C88.1341 87.0294 88.0187 87.1072 87.9098 87.192C81.6729 92.0832 75.438 96.977 69.2049 101.873C69.021 102.014 68.8769 102.199 68.7866 102.411C66.2519 109.164 63.7248 115.919 61.2051 122.677C61.173 122.762 61.1574 122.853 61.0919 123.103C62.2724 122.14 63.3386 121.278 64.3899 120.41C66.0964 118.999 67.7925 117.576 69.5036 116.171C69.7216 115.992 70.0049 115.894 70.2713 115.751C70.3716 116.082 70.45 116.339 70.5531 116.683C66.7108 119.837 62.8226 123.03 58.932 126.224L58.7938 126.141C61.6277 118.559 64.4607 110.977 67.3558 103.229C65.9442 104.258 64.6733 105.189 63.3984 106.112C62.3414 106.875 61.2704 107.623 60.225 108.395C59.9476 108.601 59.768 108.592 59.5116 108.367C58.6657 107.622 57.7935 106.908 56.9438 106.167C56.6815 105.945 56.4994 105.893 56.1778 106.105C55.7311 106.395 55.2507 106.631 54.7471 106.806C53.9008 107.107 53.1178 106.978 52.4403 106.336C52 105.92 51.5191 105.546 50.9793 105.087C50.9646 105.185 50.9591 105.285 50.9631 105.384C51.5642 108.507 50.531 111.064 48.295 113.25C45.1853 116.289 41.4336 118.226 37.3795 119.654C33.6145 120.963 29.7071 121.826 25.7388 122.225C25.5216 122.267 25.3093 122.331 25.1049 122.416L24.9106 122.209C24.9731 119.67 24.9479 117.131 25.1276 114.601C25.4461 110.093 26.3564 105.709 28.3086 101.588C29.0846 99.923 30.0884 98.3724 31.2913 96.9803C32.8954 95.1487 34.9313 94.2471 37.3636 94.2113L38.1543 94.2014C37.6968 93.8127 37.3857 93.5049 37.0337 93.2573C35.3442 92.074 35.5782 90.8461 36.1648 89.4757C36.4084 88.9046 36.3362 88.6301 35.8714 88.268C34.9994 87.5879 34.1787 86.8409 33.3396 86.1171C33.285 86.0577 33.2348 85.9943 33.1896 85.9275C34.5455 83.2907 35.9125 80.6337 37.2794 77.975L37.2083 77.8757C30.116 81.8399 23.0241 85.805 15.9325 89.7709L15.8466 89.6979C16.477 88.6168 17.0895 87.5237 17.7404 86.4553C21.0616 80.9695 24.3713 75.477 27.7308 70.0159C28.8356 68.2191 30.05 66.4858 31.2677 64.7615C32.3896 63.1722 34.0588 62.2096 35.674 61.2167C40.5494 58.2166 45.6926 55.7131 50.8296 53.1966C51.2457 52.9876 51.5995 52.6739 51.8557 52.2867C54.3214 48.4407 56.9572 44.7315 60.1689 41.4446C66.1376 35.334 73.0147 30.5365 80.8733 27.1362C81.491 26.8689 82.11 26.6075 82.7297 26.3434C83.4771 26.0199 84.2281 25.6777 84.8267 26.5939L82.9662 27.4188C83.0496 27.6312 83.1218 27.8311 83.2055 28.0251C84.3783 30.7578 86.1175 33.1191 88.1077 35.3014C91.9454 39.506 96.2668 43.1661 100.978 46.3654C103.488 48.07 106.15 49.5001 109.099 50.3341C109.489 50.4436 109.888 50.5274 110.318 50.6322C112.349 41.339 112.488 32.1275 110.505 22.8889C110.041 22.8598 109.647 22.8252 109.251 22.8117C101.079 22.5179 93.1488 23.8065 85.4299 26.4527C85.2241 26.5122 85.0153 26.5608 84.8043 26.5981ZM110.03 51.673C109.85 51.615 109.742 51.5715 109.629 51.5442C107.594 51.0599 105.677 50.2703 103.838 49.2883C99.8694 47.171 96.3597 44.4104 92.9791 41.4795C90.0314 38.9225 87.2092 36.2357 84.9531 33.0432C83.8125 31.427 82.8767 29.6689 81.8083 27.9086C81.7461 27.9336 81.547 28.0088 81.3511 28.0929C76.1536 30.3035 71.2869 33.2155 66.8884 36.7467C62.5253 40.2629 58.6131 44.212 55.422 48.8312C51.6277 54.3212 48.2923 60.0984 45.0097 65.9033C44.7675 66.3307 44.8525 66.5321 45.1969 66.8231C55.7205 75.7484 66.2392 84.6799 76.753 93.6177L77.4638 94.2215C77.6465 94.0981 77.7845 94.0194 77.9058 93.9201C81.361 91.1216 84.8458 88.3577 88.2581 85.5072C91.1708 83.0741 94.013 80.55 96.5045 77.6751C102.383 70.8954 106.644 63.2264 109.209 54.638C109.501 53.6598 109.755 52.6718 110.03 51.673ZM44.2311 67.3843C44.1554 67.4827 44.0849 67.5848 44.0198 67.6903C40.9055 73.562 37.7898 79.4319 34.6725 85.2999C34.474 85.6728 34.6167 85.8453 34.888 86.0758C43.0748 93.0212 51.2557 99.974 59.4308 106.934C59.8124 107.258 60.0479 107.248 60.4338 106.963C64.8327 103.698 69.2446 100.458 73.6475 97.2017C74.6425 96.4645 75.6108 95.6892 76.6251 94.9078L44.2311 67.3843ZM50.3953 54.6139C50.1809 54.6994 50.0878 54.7277 50.0035 54.7712C45.8848 56.9219 41.7513 59.0462 37.6519 61.2382C34.7595 62.7831 32.2298 64.7106 30.4905 67.6115C26.8929 73.6172 23.1706 79.5496 19.5032 85.5146C19.225 85.9675 18.9761 86.4391 18.7139 86.9026C18.8917 86.8915 19.0637 86.8359 19.2141 86.741C25.4425 83.2565 31.6719 79.7707 37.9023 76.2838C38.1815 76.1064 38.4095 75.8599 38.564 75.5685C41.9319 69.5679 45.2927 63.5639 48.6466 57.5566C49.1809 56.5946 49.7668 55.6654 50.3945 54.6148L50.3953 54.6139ZM30.1503 116.302C30.4607 116.214 30.5576 116.181 30.6522 116.161C33.1735 115.562 35.7334 115.089 38.2113 114.336C41.567 113.318 44.689 111.807 47.2713 109.335C49.2402 107.454 49.2744 105.23 48.4651 103.096C48.3811 102.919 48.2555 102.766 48.0991 102.648C45.7522 100.646 43.4011 98.6487 41.046 96.6563C40.8832 96.5181 40.6996 96.3621 40.5027 96.3146C38.8232 95.9133 36.4148 95.9632 34.8928 97.9159C34.3269 98.627 33.8212 99.3835 33.3808 100.177C31.7621 103.175 31.0122 106.435 30.6351 109.781C30.4009 111.886 30.3151 114.012 30.1496 116.303L30.1503 116.302ZM50.0024 106.675C49.6738 108.331 48.6676 109.569 47.4232 110.6C46.3962 111.465 45.2983 112.242 44.1408 112.925C40.3014 115.14 36.0892 116.286 31.7496 117.046C30.9373 117.189 30.1175 117.278 29.2406 117.404C29.1015 111.94 29.5134 106.635 31.5667 101.593C32.6126 99.027 33.8804 96.5564 36.7299 95.3362C35.2485 95.4118 33.8394 95.9967 32.7435 96.9909C31.0961 98.5307 29.9804 100.435 29.07 102.461C27.2503 106.505 26.4476 110.79 26.1529 115.181C26.0211 117.14 26.0131 119.108 25.9459 121.212C26.2786 121.14 26.4684 121.086 26.6639 121.061C30.4036 120.591 34.0788 119.707 37.6211 118.424C41.1802 117.117 44.501 115.4 47.2851 112.769C49.0371 111.113 50.2198 109.212 49.9995 106.671L50.0024 106.675ZM37.3241 89.5503C36.5406 90.8514 36.6415 91.5548 37.7031 92.4566L52.8745 105.345C53.767 106.103 54.7614 106.024 55.6323 105.103L37.3241 89.5503Z" fill="white" stroke="white" stroke-miterlimit="10"/>
</g>
<defs>
<clipPath id="clip0_751_4295">
<rect width="65.6453" height="132.342" fill="white" transform="matrix(0.762127 0.647428 -0.651832 0.758363 86.2637 0.777344)"/>
</clipPath>
</defs>
</svg>
