<svg width="100" height="100" viewBox="0 0 100 100" fill="none" xmlns="http://www.w3.org/2000/svg">
<g clip-path="url(#clip0_2616_15305)">
<path d="M67.5223 5.96331C67.999 5.11635 68.7532 4.49459 69.6346 4.22191C75.6255 2.25837 81.7329 1.25552 87.9969 1.44892C88.5563 1.46615 89.1137 1.53509 89.6705 1.54708C90.0732 1.55421 90.2524 1.72563 90.3477 2.16418C91.0624 5.49546 91.4346 8.88241 91.5759 12.3007C91.7284 16.1884 91.543 20.0831 91.022 23.9335C90.954 24.4398 90.8787 24.9468 90.7746 25.4429C90.7438 25.5868 90.6025 25.7183 90.4908 25.8223C90.3792 25.9263 90.1926 25.9609 90.1198 26.0834C90.0207 26.2496 89.9326 26.4898 89.9648 26.6643C89.9882 26.7888 90.2201 26.8698 90.4449 27.0326C90.4459 27.2418 90.4308 27.4508 90.3998 27.6573C88.8815 35.2798 86.0058 42.5103 81.9329 48.9454C79.1829 53.2984 75.8597 57.0652 72.1866 60.5058C71.9689 60.7263 71.8067 61.0032 71.7156 61.3103C70.252 65.9599 68.8136 70.6183 67.3457 75.2667C67.0837 76.0964 66.6956 76.879 66.3981 77.6977C65.6168 79.8522 64.1864 81.4474 62.6215 82.9415C61.4382 84.0698 60.2587 85.2016 59.072 86.3239C58.3374 87.0181 57.5917 87.6992 56.7899 88.3429C56.8617 88.2445 56.9251 88.1393 56.9794 88.0285C57.1348 87.6217 57.2535 87.197 57.4346 86.8052C57.5546 86.5536 57.7171 86.3285 57.9136 86.1413C59.5046 84.5989 61.0891 83.0476 62.7087 81.5418C64.1604 80.1908 65.1408 78.5129 65.8748 76.6232C67.6914 71.9522 69.1101 67.1323 70.4894 62.2962C70.4956 62.2388 70.4965 62.181 70.4921 62.1234C70.3717 62.2164 70.273 62.2889 70.1798 62.3678C64.8427 66.9208 59.5072 71.4763 54.1734 76.0342C54.016 76.1647 53.8927 76.3372 53.8154 76.5347C51.6464 82.8208 49.4838 89.109 47.3277 95.3993C47.3002 95.4782 47.2868 95.5629 47.2308 95.7964C48.241 94.8992 49.1534 94.0969 50.053 93.2888C51.5133 91.9761 52.9647 90.6509 54.429 89.3433C54.6155 89.1767 54.8579 89.0851 55.0859 88.9525C55.1717 89.2606 55.2389 89.4993 55.327 89.8198C52.0391 92.7559 48.7118 95.7282 45.3825 98.7015L45.2643 98.6241C47.6893 91.5666 50.1136 84.5083 52.591 77.2963C51.3831 78.2541 50.2955 79.1204 49.2046 79.9793C48.3001 80.6903 47.3836 81.3859 46.489 82.1046C46.2516 82.2966 46.0979 82.2878 45.8785 82.0793C45.1546 81.3857 44.4083 80.7207 43.6811 80.0313C43.4567 79.824 43.3009 79.7755 43.0256 79.973C42.6434 80.2433 42.2323 80.4626 41.8014 80.6262C41.0772 80.9056 40.4071 80.7861 39.8274 80.1881C39.4506 79.8008 39.0391 79.4524 38.5771 79.0255C38.5645 79.1172 38.5599 79.2098 38.5632 79.3024C39.0776 82.2095 38.1935 84.589 36.2801 86.6243C33.619 89.4532 30.4086 91.256 26.9393 92.585C23.7174 93.8043 20.3738 94.6077 16.9779 94.9784C16.7921 95.0181 16.6104 95.0778 16.4356 95.1565L16.2693 94.9637C16.3228 92.6002 16.3012 90.2368 16.455 87.8819C16.7275 83.6857 17.5065 79.6043 19.177 75.7687C19.8411 74.2186 20.7 72.7752 21.7295 71.4794C23.1021 69.7744 24.8443 68.9351 26.9257 68.9018L27.6024 68.8926C27.2108 68.5308 26.9446 68.2442 26.6434 68.0137C25.1976 66.9123 25.3979 65.7693 25.8998 64.4936C26.1083 63.962 26.0465 63.7065 25.6488 63.3694C24.9026 62.7363 24.2003 62.041 23.4822 61.3673C23.4355 61.3119 23.3926 61.2529 23.3539 61.1908C24.5142 58.7362 25.684 56.2629 26.8536 53.788L26.7928 53.6956C20.7237 57.3858 14.6549 61.0767 8.58636 64.7684L8.51285 64.7004C9.05231 63.6941 9.5765 62.6766 10.1334 61.682C12.9755 56.5755 15.8078 51.4628 18.6826 46.3792C19.628 44.7066 20.6672 43.0932 21.7092 41.4881C22.6693 40.0087 24.0976 39.1126 25.4799 38.1884C29.6519 35.3957 34.0531 33.0653 38.449 30.7228C38.8051 30.5283 39.1078 30.2362 39.3271 29.8759C41.437 26.2957 43.6926 22.843 46.441 19.7833C51.5486 14.0952 57.4335 9.62941 64.1585 6.46416C64.687 6.21539 65.2167 5.972 65.747 5.72622C66.3866 5.42506 67.0292 5.10648 67.5415 5.95934L65.9494 6.72726C66.0207 6.92499 66.0826 7.11103 66.1541 7.29157C67.1577 9.83538 68.6461 12.0334 70.3491 14.0648C73.6332 17.9787 77.3311 21.3858 81.3627 24.3639C83.5108 25.9506 85.7884 27.2819 88.3118 28.0582C88.6463 28.1601 88.9876 28.2381 89.355 28.3357C91.0936 19.685 91.2125 11.1104 89.5157 2.51057C89.118 2.48348 88.7807 2.45128 88.4426 2.43865C81.4493 2.16516 74.663 3.36473 68.0577 5.82797C67.8816 5.88333 67.7028 5.92852 67.5223 5.96331V5.96331ZM89.1089 29.3046C88.9548 29.2505 88.8623 29.21 88.7659 29.1846C87.0242 28.7339 85.384 27.9988 83.8102 27.0847C80.414 25.1138 77.4106 22.5441 74.5178 19.8158C71.9953 17.4356 69.5803 14.9345 67.6496 11.9628C66.6736 10.4583 65.8728 8.82178 64.9585 7.18321C64.9053 7.20647 64.7349 7.27642 64.5673 7.35471C60.1196 9.41252 55.955 12.1232 52.1911 15.4102C48.4574 18.6833 45.1096 22.3594 42.3789 26.6592C39.132 31.7697 36.2778 37.1474 33.4688 42.5509C33.2615 42.9489 33.3342 43.1363 33.6289 43.4072C42.6343 51.7154 51.6355 60.0294 60.6326 68.3492L61.2408 68.9112C61.3971 68.7964 61.5153 68.7231 61.6191 68.6307C64.5757 66.0257 67.5579 63.4529 70.4778 60.7995C72.9703 58.5346 75.4025 56.1851 77.5345 53.5089C82.5653 47.1979 86.2113 40.0591 88.4061 32.0646C88.6557 31.1539 88.8736 30.2343 89.1089 29.3046V29.3046ZM32.8025 43.9296C32.7377 44.0211 32.6773 44.1162 32.6216 44.2144C29.9567 49.6802 27.2904 55.1442 24.6228 60.6065C24.453 60.9536 24.5751 61.1142 24.8072 61.3288C31.813 67.794 38.8137 74.2661 45.8094 80.7452C46.1359 81.0469 46.3374 81.0376 46.6677 80.7721C50.4319 77.733 54.2073 74.7171 57.975 71.6854C58.8265 70.9992 59.6552 70.2775 60.5231 69.5501L32.8025 43.9296ZM38.0773 32.0421C37.8939 32.1217 37.8142 32.148 37.7421 32.1885C34.2175 34.1906 30.6804 36.1679 27.1724 38.2084C24.6973 39.6465 22.5325 41.4408 21.0441 44.1411C17.9656 49.7315 14.7803 55.2538 11.642 60.8064C11.4039 61.228 11.1909 61.667 10.9665 62.0984C11.1186 62.0881 11.2659 62.0364 11.3946 61.948C16.7244 58.7044 22.0551 55.4596 27.3866 52.2138C27.6256 52.0487 27.8207 51.8192 27.9529 51.5479C30.8349 45.9622 33.7109 40.3733 36.5809 34.7814C37.0382 33.8859 37.5395 33.0209 38.0767 32.0429L38.0773 32.0421ZM20.7531 89.4653C21.0186 89.3834 21.1016 89.3529 21.1825 89.3335C23.3401 88.7768 25.5307 88.3359 27.6511 87.6347C30.5227 86.6876 33.1943 85.2805 35.404 82.9803C37.0889 81.2292 37.1182 79.159 36.4256 77.172C36.3537 77.0078 36.2463 76.8648 36.1124 76.7552C34.1041 74.8916 32.0922 73.0324 30.0768 71.1778C29.9375 71.0491 29.7805 70.9039 29.6119 70.8597C28.1747 70.4861 26.1138 70.5325 24.8113 72.3503C24.3271 73.0122 23.8943 73.7164 23.5174 74.4555C22.1323 77.2454 21.4906 80.2805 21.1679 83.3947C20.9675 85.3546 20.8941 87.3333 20.7524 89.4661L20.7531 89.4653ZM37.7411 80.5037C37.4599 82.0457 36.5989 83.198 35.534 84.1577C34.6552 84.9625 33.7157 85.6863 32.7252 86.3215C29.4397 88.3837 25.8351 89.45 22.1216 90.1579C21.4265 90.2904 20.7249 90.3735 19.9746 90.4912C19.8556 85.4046 20.208 80.4669 21.9651 75.7728C22.8601 73.3846 23.945 71.0848 26.3834 69.949C25.1158 70.0193 23.9099 70.5638 22.9721 71.4893C21.5624 72.9226 20.6076 74.6951 19.8285 76.5808C18.2714 80.3458 17.5845 84.3344 17.3323 88.4218C17.2195 90.2453 17.2127 92.077 17.1552 94.0356C17.4399 93.9685 17.6023 93.9187 17.7696 93.8951C20.9698 93.4576 24.1148 92.6343 27.146 91.4406C30.1917 90.2242 33.0335 88.6253 35.4158 86.1762C36.9152 84.6345 37.9272 82.8657 37.7387 80.5001L37.7411 80.5037ZM26.8919 64.563C26.2214 65.7742 26.3078 66.429 27.2162 67.2684L40.1989 79.2655C40.9626 79.9713 41.8136 79.8973 42.5589 79.0406L26.8919 64.563Z" fill="white" stroke="white" stroke-miterlimit="10"/>
</g>
<defs>
<clipPath id="clip0_2616_15305">
<rect width="100" height="100" fill="white"/>
</clipPath>
</defs>
</svg>
