<svg width="749" height="525" viewBox="0 0 749 525" fill="none" xmlns="http://www.w3.org/2000/svg">
<g clip-path="url(#clip0_2509_15185)">
<path d="M997 0H0V525H997V0Z" fill="#B22234"/>
<path d="M0 60.5769H997ZM997 141.346H0ZM0 222.115H997ZM997 302.885H0ZM0 383.654H997ZM997 464.423H0Z" fill="black"/>
<path d="M0 60.5769H997M997 141.346H0M0 222.115H997M997 302.885H0M0 383.654H997M997 464.423H0" stroke="white" stroke-width="40.37"/>
<path d="M398.8 0H0V282.692H398.8V0Z" fill="#3C3B6E"/>
<path d="M33.2334 12.1155L42.7237 41.3381L17.8779 23.2775H48.589L23.7432 41.3381L33.2334 12.1155Z" fill="white"/>
<path d="M33.2334 68.6541L42.7237 97.8766L17.8779 79.8161H48.589L23.7432 97.8766L33.2334 68.6541Z" fill="white"/>
<path d="M33.2334 125.192L42.7237 154.415L17.8779 136.354H48.589L23.7432 154.415L33.2334 125.192Z" fill="white"/>
<path d="M33.2334 181.731L42.7237 210.954L17.8779 192.893H48.589L23.7432 210.954L33.2334 181.731Z" fill="white"/>
<path d="M33.2334 238.269L42.7237 267.492L17.8779 249.431H48.589L23.7432 267.492L33.2334 238.269Z" fill="white"/>
<path d="M66.4668 40.3848L75.9571 69.6073L51.1113 51.5468H81.8224L56.9766 69.6073L66.4668 40.3848Z" fill="white"/>
<path d="M66.4668 96.9233L75.9571 126.146L51.1113 108.085H81.8224L56.9766 126.146L66.4668 96.9233Z" fill="white"/>
<path d="M66.4668 153.462L75.9571 182.684L51.1113 164.624H81.8224L56.9766 182.684L66.4668 153.462Z" fill="white"/>
<path d="M66.4668 210L75.9571 239.223L51.1113 221.162H81.8224L56.9766 239.223L66.4668 210Z" fill="white"/>
<path d="M99.7002 12.1155L109.19 41.3381L84.3447 23.2775H115.056L90.21 41.3381L99.7002 12.1155Z" fill="white"/>
<path d="M99.7002 68.6541L109.19 97.8766L84.3447 79.8161H115.056L90.21 97.8766L99.7002 68.6541Z" fill="white"/>
<path d="M99.7002 125.192L109.19 154.415L84.3447 136.354H115.056L90.21 154.415L99.7002 125.192Z" fill="white"/>
<path d="M99.7002 181.731L109.19 210.954L84.3447 192.893H115.056L90.21 210.954L99.7002 181.731Z" fill="white"/>
<path d="M99.7002 238.269L109.19 267.492L84.3447 249.431H115.056L90.21 267.492L99.7002 238.269Z" fill="white"/>
<path d="M132.934 40.3848L142.424 69.6073L117.578 51.5468H148.289L123.443 69.6073L132.934 40.3848Z" fill="white"/>
<path d="M132.934 96.9233L142.424 126.146L117.578 108.085H148.289L123.443 126.146L132.934 96.9233Z" fill="white"/>
<path d="M132.934 153.462L142.424 182.684L117.578 164.624H148.289L123.443 182.684L132.934 153.462Z" fill="white"/>
<path d="M132.934 210L142.424 239.223L117.578 221.162H148.289L123.443 239.223L132.934 210Z" fill="white"/>
<path d="M166.167 12.1155L175.657 41.3381L150.812 23.2775H181.523L156.677 41.3381L166.167 12.1155Z" fill="white"/>
<path d="M166.167 68.6541L175.657 97.8766L150.812 79.8161H181.523L156.677 97.8766L166.167 68.6541Z" fill="white"/>
<path d="M166.167 125.192L175.657 154.415L150.812 136.354H181.523L156.677 154.415L166.167 125.192Z" fill="white"/>
<path d="M166.167 181.731L175.657 210.954L150.812 192.893H181.523L156.677 210.954L166.167 181.731Z" fill="white"/>
<path d="M166.167 238.269L175.657 267.492L150.812 249.431H181.523L156.677 267.492L166.167 238.269Z" fill="white"/>
<path d="M199.4 40.3848L208.891 69.6073L184.045 51.5468H214.756L189.91 69.6073L199.4 40.3848Z" fill="white"/>
<path d="M199.4 96.9233L208.891 126.146L184.045 108.085H214.756L189.91 126.146L199.4 96.9233Z" fill="white"/>
<path d="M199.4 153.462L208.891 182.684L184.045 164.624H214.756L189.91 182.684L199.4 153.462Z" fill="white"/>
<path d="M199.4 210L208.891 239.223L184.045 221.162H214.756L189.91 239.223L199.4 210Z" fill="white"/>
<path d="M232.634 12.1155L242.124 41.3381L217.278 23.2775H247.989L223.144 41.3381L232.634 12.1155Z" fill="white"/>
<path d="M232.634 68.6541L242.124 97.8766L217.278 79.8161H247.989L223.144 97.8766L232.634 68.6541Z" fill="white"/>
<path d="M232.634 125.192L242.124 154.415L217.278 136.354H247.989L223.144 154.415L232.634 125.192Z" fill="white"/>
<path d="M232.634 181.731L242.124 210.954L217.278 192.893H247.989L223.144 210.954L232.634 181.731Z" fill="white"/>
<path d="M232.634 238.269L242.124 267.492L217.278 249.431H247.989L223.144 267.492L232.634 238.269Z" fill="white"/>
<path d="M265.867 40.3848L275.357 69.6073L250.512 51.5468H281.223L256.377 69.6073L265.867 40.3848Z" fill="white"/>
<path d="M265.867 96.9233L275.357 126.146L250.512 108.085H281.223L256.377 126.146L265.867 96.9233Z" fill="white"/>
<path d="M265.867 153.462L275.357 182.684L250.512 164.624H281.223L256.377 182.684L265.867 153.462Z" fill="white"/>
<path d="M265.867 210L275.357 239.223L250.512 221.162H281.223L256.377 239.223L265.867 210Z" fill="white"/>
<path d="M299.1 12.1155L308.59 41.3381L283.744 23.2775H314.455L289.609 41.3381L299.1 12.1155Z" fill="white"/>
<path d="M299.1 68.6541L308.59 97.8766L283.744 79.8161H314.455L289.609 97.8766L299.1 68.6541Z" fill="white"/>
<path d="M299.1 125.192L308.59 154.415L283.744 136.354H314.455L289.609 154.415L299.1 125.192Z" fill="white"/>
<path d="M299.1 181.731L308.59 210.954L283.744 192.893H314.455L289.609 210.954L299.1 181.731Z" fill="white"/>
<path d="M299.1 238.269L308.59 267.492L283.744 249.431H314.455L289.609 267.492L299.1 238.269Z" fill="white"/>
<path d="M332.333 40.3848L341.823 69.6073L316.978 51.5468H347.689L322.843 69.6073L332.333 40.3848Z" fill="white"/>
<path d="M332.333 96.9233L341.823 126.146L316.978 108.085H347.689L322.843 126.146L332.333 96.9233Z" fill="white"/>
<path d="M332.333 153.462L341.823 182.684L316.978 164.624H347.689L322.843 182.684L332.333 153.462Z" fill="white"/>
<path d="M332.333 210L341.823 239.223L316.978 221.162H347.689L322.843 239.223L332.333 210Z" fill="white"/>
<path d="M365.566 12.1155L375.057 41.3381L350.211 23.2775H380.922L356.076 41.3381L365.566 12.1155Z" fill="white"/>
<path d="M365.566 68.6541L375.057 97.8766L350.211 79.8161H380.922L356.076 97.8766L365.566 68.6541Z" fill="white"/>
<path d="M365.566 125.192L375.057 154.415L350.211 136.354H380.922L356.076 154.415L365.566 125.192Z" fill="white"/>
<path d="M365.566 181.731L375.057 210.954L350.211 192.893H380.922L356.076 210.954L365.566 181.731Z" fill="white"/>
<path d="M365.566 238.269L375.057 267.492L350.211 249.431H380.922L356.076 267.492L365.566 238.269Z" fill="white"/>
</g>
<defs>
<clipPath id="clip0_2509_15185">
<rect width="749" height="525" fill="white"/>
</clipPath>
</defs>
</svg>
