<svg width="749" height="525" viewBox="0 0 749 525" fill="none" xmlns="http://www.w3.org/2000/svg">
<g clip-path="url(#clip0_2509_15148)">
<path fill-rule="evenodd" clip-rule="evenodd" d="M322.565 336.358L323.824 341.289L319.529 338.567L315.235 341.289L316.494 336.358L312.581 333.109L317.654 332.785L319.529 328.054L321.406 332.785L326.478 333.109L322.565 336.358Z" fill="white"/>
<path fill-rule="evenodd" clip-rule="evenodd" d="M281.702 296.759L282.961 301.694L278.666 298.969L274.372 301.694L275.63 296.759L271.718 293.514L276.79 293.189L278.666 288.459L280.542 293.189L285.614 293.514L281.702 296.759Z" fill="white"/>
<path fill-rule="evenodd" clip-rule="evenodd" d="M270.926 242.268L272.185 247.199L267.892 244.476L263.597 247.199L264.856 242.268L260.942 239.021L266.016 238.695L267.892 233.964L269.766 238.695L274.84 239.021L270.926 242.268Z" fill="white"/>
<path fill-rule="evenodd" clip-rule="evenodd" d="M749 0V525H0V0H749Z" fill="#009C37"/>
<path d="M685.335 262.5L374.5 461.25L63.665 262.5L374.5 63.75L685.335 262.5Z" fill="#FEE000"/>
<path d="M374.499 131.25C446.878 131.25 505.575 190.024 505.575 262.501C505.575 334.977 446.878 393.75 374.499 393.75C302.12 393.75 243.425 334.976 243.425 262.501C243.425 190.026 302.12 131.25 374.499 131.25V131.25Z" fill="#002277"/>
<path fill-rule="evenodd" clip-rule="evenodd" d="M417.602 217.957L418.861 222.888L414.568 220.165L410.273 222.888L411.534 217.957L407.619 214.709L412.694 214.384L414.568 209.653L416.442 214.384L421.515 214.709L417.602 217.957Z" fill="white"/>
<path fill-rule="evenodd" clip-rule="evenodd" d="M407.404 255.436L408.307 258.982L405.22 257.024L402.13 258.982L403.037 255.436L400.221 253.099L403.87 252.866L405.22 249.464L406.569 252.866L410.218 253.099L407.404 255.436Z" fill="white"/>
<path fill-rule="evenodd" clip-rule="evenodd" d="M270.926 242.268L272.185 247.199L267.893 244.476L263.598 247.199L264.858 242.268L260.943 239.021L266.018 238.695L267.893 233.964L269.766 238.695L274.839 239.021L270.926 242.268Z" fill="white"/>
<path fill-rule="evenodd" clip-rule="evenodd" d="M325.916 268.904L326.98 273.065L323.354 270.768L319.731 273.065L320.794 268.904L317.491 266.16L321.772 265.888L323.354 261.896L324.939 265.888L329.219 266.16L325.916 268.904Z" fill="white"/>
<path fill-rule="evenodd" clip-rule="evenodd" d="M292.308 287.646L292.986 290.298L290.675 288.834L288.366 290.298L289.042 287.646L286.938 285.898L289.666 285.724L290.675 283.178L291.684 285.724L294.414 285.898L292.308 287.646Z" fill="white"/>
<path fill-rule="evenodd" clip-rule="evenodd" d="M281.7 296.763L282.959 301.694L278.667 298.971L274.372 301.694L275.632 296.763L271.718 293.516L276.792 293.19L278.667 288.459L280.54 293.19L285.614 293.516L281.7 296.763Z" fill="white"/>
<path fill-rule="evenodd" clip-rule="evenodd" d="M267.5 307.918L268.562 312.079L264.938 309.782L261.315 312.079L262.377 307.918L259.075 305.178L263.354 304.903L264.938 300.909L266.521 304.903L270.802 305.178L267.5 307.918Z" fill="white"/>
<path fill-rule="evenodd" clip-rule="evenodd" d="M307.729 308.939L308.792 313.103L305.169 310.803L301.545 313.103L302.607 308.939L299.306 306.198L303.586 305.924L305.169 301.932L306.752 305.924L311.031 306.198L307.729 308.939Z" fill="white"/>
<path fill-rule="evenodd" clip-rule="evenodd" d="M302.611 322.622L303.516 326.169L300.428 324.21L297.339 326.169L298.244 322.622L295.43 320.286L299.079 320.053L300.428 316.648L301.777 320.053L305.426 320.286L302.611 322.622Z" fill="white"/>
<path fill-rule="evenodd" clip-rule="evenodd" d="M322.564 336.358L323.823 341.289L319.53 338.566L315.235 341.289L316.496 336.358L312.581 333.11L317.656 332.785L319.53 328.054L321.404 332.785L326.477 333.11L322.564 336.358Z" fill="white"/>
<path fill-rule="evenodd" clip-rule="evenodd" d="M376.317 367.246L376.803 369.14L375.152 368.094L373.503 369.14L373.987 367.246L372.484 366L374.432 365.873L375.152 364.055L375.873 365.873L377.822 366L376.317 367.246Z" fill="white"/>
<path fill-rule="evenodd" clip-rule="evenodd" d="M378.05 286.533L379.111 290.695L375.487 288.397L371.863 290.695L372.926 286.533L369.624 283.792L373.905 283.517L375.487 279.526L377.071 283.517L381.351 283.792L378.05 286.533Z" fill="white"/>
<path fill-rule="evenodd" clip-rule="evenodd" d="M390.037 297.763L391.1 301.925L387.478 299.626L383.854 301.925L384.915 297.763L381.613 295.024L385.893 294.749L387.478 290.757L389.061 294.749L393.341 295.024L390.037 297.763Z" fill="white"/>
<path fill-rule="evenodd" clip-rule="evenodd" d="M368.525 305.91L369.203 308.562L366.892 307.099L364.583 308.562L365.259 305.91L363.153 304.164L365.883 303.989L366.892 301.442L367.902 303.989L370.631 304.164L368.525 305.91Z" fill="white"/>
<path fill-rule="evenodd" clip-rule="evenodd" d="M359.515 299.141L360.42 302.687L357.331 300.728L354.242 302.687L355.147 299.141L352.333 296.802L355.982 296.57L357.331 293.166L358.68 296.57L362.329 296.802L359.515 299.141Z" fill="white"/>
<path fill-rule="evenodd" clip-rule="evenodd" d="M377.759 324.988L379.018 329.918L374.726 327.196L370.431 329.918L371.691 324.988L367.776 321.74L372.851 321.415L374.726 316.684L376.599 321.415L381.672 321.74L377.759 324.988Z" fill="white"/>
<path fill-rule="evenodd" clip-rule="evenodd" d="M403.935 338.034L404.839 341.584L401.751 339.625L398.662 341.584L399.567 338.034L396.752 335.701L400.401 335.467L401.751 332.065L403.1 335.467L406.748 335.701L403.935 338.034Z" fill="white"/>
<path fill-rule="evenodd" clip-rule="evenodd" d="M415.057 354.365L416.12 358.528L412.497 356.229L408.872 358.528L409.935 354.365L406.634 351.626L410.913 351.35L412.497 347.358L414.077 351.35L418.359 351.626L415.057 354.365Z" fill="white"/>
<path fill-rule="evenodd" clip-rule="evenodd" d="M426.645 341.339L427.552 344.884L424.463 342.928L421.373 344.884L422.279 341.339L419.465 339.004L423.111 338.77L424.463 335.366L425.81 338.77L429.459 339.004L426.645 341.339Z" fill="white"/>
<path fill-rule="evenodd" clip-rule="evenodd" d="M442.275 364.821L443.18 368.369L440.092 366.41L437.003 368.369L437.907 364.821L435.093 362.486L438.743 362.252L440.092 358.849L441.438 362.252L445.09 362.486L442.275 364.821Z" fill="white"/>
<path fill-rule="evenodd" clip-rule="evenodd" d="M442.806 351.182L443.868 355.342L440.242 353.044L436.619 355.342L437.682 351.182L434.382 348.439L438.661 348.167L440.242 344.173L441.825 348.167L446.107 348.439L442.806 351.182Z" fill="white"/>
<path fill-rule="evenodd" clip-rule="evenodd" d="M442.069 338.296L442.976 341.842L439.886 339.885L436.799 341.842L437.702 338.296L434.89 335.959L438.537 335.725L439.886 332.322L441.237 335.725L444.886 335.959L442.069 338.296Z" fill="white"/>
<path fill-rule="evenodd" clip-rule="evenodd" d="M455.016 338.422L455.921 341.971L452.832 340.012L449.743 341.971L450.65 338.422L447.833 336.088L451.482 335.854L452.832 332.452L454.181 335.854L457.83 336.088L455.016 338.422Z" fill="white"/>
<path fill-rule="evenodd" clip-rule="evenodd" d="M467.636 333.009L468.699 337.166L465.075 334.871L461.45 337.166L462.513 333.009L459.212 330.265L463.492 329.992L465.075 326L466.657 329.992L470.937 330.265L467.636 333.009Z" fill="white"/>
<path fill-rule="evenodd" clip-rule="evenodd" d="M473.834 322.595L474.897 326.754L471.271 324.459L467.647 326.754L468.71 322.595L465.41 319.852L469.689 319.578L471.271 315.587L472.855 319.578L477.135 319.852L473.834 322.595Z" fill="white"/>
<path fill-rule="evenodd" clip-rule="evenodd" d="M469.117 309.846L470.376 314.777L466.084 312.054L461.789 314.777L463.049 309.846L459.135 306.599L464.209 306.273L466.084 301.542L467.957 306.273L473.031 306.599L469.117 309.846Z" fill="white"/>
<path fill-rule="evenodd" clip-rule="evenodd" d="M487.452 310.707L488.357 314.254L485.268 312.296L482.178 314.254L483.086 310.707L480.271 308.373L483.918 308.136L485.268 304.734L486.617 308.136L490.265 308.373L487.452 310.707Z" fill="white"/>
<path fill-rule="evenodd" clip-rule="evenodd" d="M296.202 222.041C280.067 222.041 264.211 223.27 248.721 225.639C250.614 219.15 253.001 212.87 255.832 206.835C269.071 205.215 282.539 204.363 296.203 204.363C375.002 204.363 447.519 232.114 504.5 278.324C503.668 285.047 502.328 291.618 500.509 297.991C445.548 250.693 374.117 222.041 296.202 222.041L296.202 222.041Z" fill="white"/>
<path fill-rule="evenodd" clip-rule="evenodd" d="M262.477 215.235C262.586 216.516 262.959 217.488 263.588 218.149C264.216 218.81 265.042 219.095 266.065 219.008C267.097 218.919 267.869 218.496 268.383 217.736C268.897 216.978 269.097 215.957 268.987 214.675C268.877 213.396 268.506 212.425 267.871 211.765C267.235 211.103 266.402 210.819 265.37 210.907C264.349 210.996 263.582 211.418 263.075 212.175C262.568 212.929 262.367 213.949 262.477 215.235L262.477 215.235ZM260.038 215.444C259.876 213.562 260.261 212.026 261.19 210.835C262.118 209.643 263.452 208.969 265.19 208.821C266.926 208.672 268.356 209.105 269.481 210.124C270.606 211.143 271.248 212.59 271.409 214.466C271.57 216.343 271.184 217.882 270.249 219.076C269.313 220.271 267.979 220.944 266.243 221.092C264.504 221.242 263.076 220.808 261.957 219.789C260.84 218.771 260.199 217.322 260.038 215.444H260.038ZM279.035 213.267L281.858 213.173C282.468 213.152 282.913 213.012 283.195 212.755C283.472 212.496 283.603 212.101 283.585 211.566C283.568 211.059 283.415 210.68 283.127 210.426C282.839 210.173 282.417 210.057 281.864 210.075L278.931 210.173L279.034 213.267H279.035ZM276.852 219.922L276.462 208.238L282.122 208.049C283.393 208.005 284.346 208.247 284.976 208.771C285.609 209.295 285.942 210.119 285.979 211.239C286.002 211.951 285.873 212.553 285.59 213.039C285.309 213.525 284.889 213.864 284.335 214.057C284.849 214.221 285.218 214.483 285.446 214.846C285.672 215.209 285.813 215.782 285.872 216.564L285.967 217.941C285.967 217.953 285.967 217.969 285.968 217.99C286.004 218.686 286.17 219.105 286.462 219.242L286.473 219.6L283.84 219.689C283.752 219.526 283.682 219.328 283.629 219.088C283.577 218.849 283.538 218.563 283.519 218.23L283.445 217.002C283.394 216.28 283.243 215.794 282.989 215.551C282.734 215.303 282.287 215.192 281.647 215.213L279.103 215.298L279.254 219.841L276.853 219.922L276.852 219.922ZM294.081 217.296L296.007 217.333C297.122 217.354 297.936 217.077 298.445 216.502C298.956 215.929 299.223 214.983 299.248 213.672C299.273 212.367 299.058 211.401 298.606 210.779C298.152 210.155 297.432 209.836 296.442 209.816L294.224 209.774L294.081 217.296V217.296ZM291.687 219.362L291.909 207.674L296.48 207.76C298.27 207.795 299.598 208.305 300.458 209.288C301.32 210.272 301.733 211.749 301.696 213.717C301.676 214.785 301.495 215.724 301.156 216.532C300.815 217.341 300.329 217.988 299.704 218.472C299.231 218.833 298.7 219.09 298.104 219.24C297.508 219.389 296.679 219.455 295.61 219.434L291.687 219.362L291.687 219.362ZM306.5 219.623L307.129 207.951L315.595 208.408L315.485 210.438L309.384 210.108L309.25 212.597L314.83 212.898L314.721 214.895L309.142 214.593L308.98 217.596L315.366 217.941L315.25 220.098L306.5 219.623L306.5 219.623ZM320.24 220.44L321.478 208.817L325.011 209.194L326.377 218.288L329.598 209.684L333.144 210.063L331.906 221.688L329.668 221.448L330.665 212.074L327.309 221.197L324.867 220.935L323.475 211.306L322.478 220.68L320.24 220.44L320.24 220.44ZM351.175 224.428L353.62 212.998L361.912 214.776L361.486 216.763L355.513 215.482L354.992 217.919L360.455 219.09L360.037 221.046L354.573 219.874L353.944 222.815L360.198 224.156L359.746 226.269L351.175 224.427L351.175 224.428ZM382.075 225.15L384.319 225.756C384.924 225.92 385.398 225.909 385.745 225.727C386.09 225.542 386.34 225.166 386.493 224.593C386.637 224.057 386.611 223.615 386.416 223.265C386.218 222.917 385.854 222.671 385.318 222.525L382.954 221.888L382.075 225.15L382.075 225.15ZM381.51 227.191L380.43 231.206L378.11 230.58L381.149 219.293L386.16 220.647C387.344 220.965 388.158 221.517 388.604 222.296C389.046 223.075 389.11 224.06 388.788 225.253C388.476 226.417 387.934 227.233 387.169 227.703C386.403 228.173 385.461 228.259 384.359 227.961L381.51 227.191H381.51ZM395.546 229.029L398.246 229.859C398.829 230.039 399.298 230.053 399.648 229.899C399.995 229.746 400.245 229.414 400.404 228.902C400.552 228.417 400.531 228.009 400.341 227.675C400.15 227.343 399.788 227.095 399.261 226.932L396.456 226.068L395.546 229.029L395.546 229.029ZM391.319 234.609L394.75 223.435L400.163 225.101C401.38 225.475 402.2 226.014 402.624 226.715C403.053 227.417 403.1 228.304 402.77 229.377C402.562 230.058 402.245 230.584 401.817 230.951C401.392 231.319 400.886 231.502 400.302 231.504C400.733 231.827 400.995 232.194 401.096 232.612C401.191 233.03 401.137 233.618 400.94 234.376L400.582 235.708C400.575 235.719 400.571 235.734 400.567 235.754C400.377 236.424 400.397 236.875 400.628 237.1L400.523 237.442L398.002 236.667C397.973 236.484 397.973 236.274 397.999 236.031C398.029 235.787 398.083 235.504 398.176 235.184L398.505 233.997C398.691 233.299 398.705 232.791 398.544 232.477C398.383 232.161 397.996 231.909 397.387 231.722L394.953 230.973L393.619 235.319L391.322 234.609L391.319 234.609ZM409.099 234.568C408.658 235.777 408.584 236.814 408.876 237.679C409.169 238.544 409.796 239.153 410.758 239.505C411.731 239.861 412.611 239.805 413.397 239.334C414.183 238.863 414.796 238.023 415.236 236.815C415.677 235.609 415.75 234.572 415.453 233.705C415.157 232.837 414.52 232.226 413.549 231.87C412.586 231.517 411.713 231.575 410.935 232.046C410.154 232.517 409.541 233.357 409.1 234.568L409.099 234.568ZM406.801 233.725C407.447 231.952 408.445 230.722 409.789 230.035C411.135 229.347 412.627 229.302 414.268 229.902C415.903 230.502 417.017 231.5 417.604 232.899C418.193 234.298 418.167 235.881 417.521 237.65C416.873 239.421 415.874 240.65 414.523 241.338C413.173 242.026 411.678 242.071 410.042 241.472C408.401 240.871 407.291 239.874 406.707 238.477C406.123 237.08 406.152 235.496 406.801 233.725H406.801ZM428.396 247.454C427.766 247.825 427.145 248.027 426.529 248.065C425.915 248.1 425.264 247.973 424.575 247.679C423.076 247.039 422.082 245.998 421.595 244.557C421.109 243.115 421.227 241.543 421.952 239.846C422.681 238.133 423.73 236.959 425.095 236.33C426.459 235.699 427.915 235.715 429.462 236.373C430.809 236.948 431.769 237.737 432.348 238.745C432.92 239.753 433.051 240.858 432.728 242.054L430.476 241.092C430.578 240.476 430.483 239.932 430.186 239.461C429.888 238.99 429.402 238.608 428.726 238.321C427.829 237.937 426.983 237.965 426.189 238.406C425.392 238.846 424.751 239.648 424.256 240.811C423.758 241.98 423.635 243.008 423.888 243.9C424.141 244.789 424.735 245.433 425.669 245.831C426.367 246.13 427.042 246.172 427.688 245.961C428.335 245.746 428.872 245.303 429.287 244.631L426.853 243.594L427.636 241.754L432.085 243.652L429.606 249.47L428.127 248.838L428.396 247.454V247.454ZM439.496 247.146L442.033 248.391C442.583 248.659 443.041 248.745 443.411 248.649C443.777 248.551 444.077 248.262 444.313 247.781C444.537 247.326 444.578 246.92 444.446 246.56C444.308 246.201 443.989 245.9 443.493 245.656L440.859 244.364L439.497 247.146H439.496ZM434.451 251.996L439.584 241.497L444.67 243.991C445.812 244.55 446.541 245.212 446.85 245.971C447.162 246.731 447.071 247.614 446.578 248.621C446.266 249.261 445.868 249.731 445.39 250.027C444.913 250.325 444.385 250.427 443.807 250.336C444.184 250.722 444.386 251.127 444.418 251.555C444.448 251.983 444.303 252.554 443.988 253.272L443.426 254.533C443.418 254.543 443.414 254.557 443.407 254.576C443.111 255.208 443.059 255.656 443.256 255.914L443.098 256.234L440.73 255.076C440.729 254.89 440.76 254.683 440.824 254.446C440.892 254.21 440.991 253.939 441.131 253.636L441.64 252.517C441.936 251.856 442.029 251.356 441.917 251.021C441.809 250.685 441.467 250.375 440.892 250.093L438.608 248.972L436.61 253.054L434.453 251.996L434.451 251.996ZM447.496 258.704L453.172 248.489L460.582 252.616L459.595 254.393L454.258 251.419L453.048 253.596L457.929 256.316L456.958 258.064L452.077 255.344L450.618 257.971L456.205 261.085L455.157 262.972L447.496 258.704V258.704ZM460.669 262.328L462.699 263.553C462.446 264.147 462.426 264.689 462.636 265.179C462.848 265.667 463.304 266.122 464.005 266.545C464.605 266.908 465.118 267.07 465.548 267.041C465.98 267.014 466.32 266.789 466.572 266.372C466.935 265.763 466.369 264.737 464.864 263.285C464.845 263.267 464.826 263.25 464.813 263.235C464.773 263.198 464.713 263.14 464.631 263.059C463.82 262.291 463.292 261.662 463.05 261.169C462.832 260.73 462.747 260.26 462.792 259.767C462.837 259.272 463.015 258.765 463.33 258.243C463.917 257.269 464.697 256.723 465.671 256.601C466.642 256.482 467.753 256.798 469.002 257.552C470.17 258.257 470.917 259.085 471.242 260.034C471.566 260.985 471.445 261.972 470.875 263.002L468.9 261.809C469.155 261.301 469.193 260.821 469.01 260.367C468.826 259.911 468.426 259.495 467.807 259.122C467.267 258.797 466.791 258.65 466.37 258.686C465.951 258.72 465.627 258.932 465.391 259.322C465.073 259.853 465.402 260.589 466.378 261.539C466.642 261.797 466.848 262 466.995 262.144C467.613 262.768 468.044 263.229 468.287 263.514C468.53 263.803 468.726 264.081 468.876 264.345C469.144 264.816 469.271 265.302 469.247 265.798C469.229 266.294 469.058 266.806 468.744 267.326C468.116 268.366 467.283 268.961 466.234 269.113C465.189 269.262 464.029 268.954 462.752 268.183C461.493 267.424 460.684 266.536 460.32 265.52C459.958 264.501 460.075 263.439 460.669 262.328L460.669 262.328ZM472.973 270.032L474.936 271.363C474.651 271.941 474.604 272.482 474.789 272.984C474.975 273.483 475.405 273.959 476.083 274.421C476.662 274.813 477.167 275.004 477.597 274.997C478.031 274.992 478.381 274.787 478.656 274.382C479.053 273.793 478.536 272.739 477.114 271.211C477.095 271.19 477.076 271.174 477.065 271.156C477.025 271.118 476.968 271.056 476.892 270.972C476.123 270.163 475.627 269.509 475.412 269.002C475.217 268.549 475.157 268.078 475.226 267.588C475.297 267.097 475.503 266.599 475.842 266.094C476.479 265.153 477.29 264.647 478.267 264.578C479.242 264.511 480.336 264.885 481.545 265.702C482.673 266.47 483.377 267.332 483.652 268.298C483.924 269.266 483.754 270.247 483.13 271.245L481.22 269.95C481.5 269.456 481.562 268.978 481.406 268.515C481.246 268.051 480.869 267.614 480.269 267.211C479.748 266.855 479.277 266.685 478.857 266.696C478.438 266.711 478.102 266.905 477.848 267.279C477.498 267.793 477.791 268.547 478.715 269.548C478.964 269.818 479.164 270.031 479.3 270.182C479.884 270.839 480.291 271.318 480.517 271.62C480.745 271.92 480.926 272.207 481.061 272.477C481.305 272.964 481.406 273.452 481.359 273.948C481.312 274.443 481.119 274.944 480.778 275.448C480.095 276.455 479.231 277.007 478.177 277.101C477.124 277.195 475.981 276.826 474.744 275.988C473.53 275.165 472.764 274.237 472.457 273.202C472.148 272.164 472.319 271.111 472.973 270.032L472.973 270.032ZM487.807 277.917C487.032 278.941 486.66 279.915 486.684 280.825C486.71 281.738 487.133 282.504 487.951 283.123C488.778 283.748 489.636 283.952 490.523 283.734C491.413 283.513 492.244 282.886 493.019 281.859C493.792 280.838 494.163 279.867 494.134 278.949C494.104 278.033 493.673 277.265 492.847 276.639C492.031 276.017 491.177 275.82 490.297 276.041C489.414 276.263 488.584 276.888 487.807 277.917L487.807 277.917ZM485.854 276.438C486.988 274.931 488.304 274.047 489.79 273.784C491.278 273.52 492.718 273.914 494.11 274.97C495.502 276.021 496.272 277.302 496.428 278.81C496.583 280.322 496.093 281.828 494.961 283.329C493.824 284.833 492.51 285.717 491.019 285.98C489.525 286.241 488.082 285.845 486.695 284.795C485.301 283.739 484.531 282.461 484.38 280.956C484.23 279.45 484.72 277.942 485.854 276.438L485.854 276.438Z" fill="#009C37"/>
</g>
<defs>
<clipPath id="clip0_2509_15148">
<rect width="749" height="525" fill="white"/>
</clipPath>
</defs>
</svg>
