<svg width="104" height="111" viewBox="0 0 104 111" fill="none" xmlns="http://www.w3.org/2000/svg">
<path d="M91.8953 12.8663C91.178 13.5606 90.4544 14.2461 89.7461 14.9522C79.3144 25.3473 68.8843 35.7425 58.456 46.1377C49.7737 54.7951 41.0927 63.453 32.413 72.1114C31.6533 72.869 30.8678 73.5942 30.1249 74.3724C29.7141 74.8019 29.2943 74.9166 28.7715 74.7298C26.1962 73.8045 23.599 72.9337 21.0327 71.9658C15.5318 69.8916 10.0378 67.7881 4.55063 65.6551C3.45612 65.23 2.39252 64.6931 1.33792 64.1517C0.242124 63.5884 -0.0785063 62.4704 0.015493 61.2229C0.11078 59.8608 0.736598 58.8061 1.83369 58.2368C2.08349 58.1073 2.62559 58.2486 2.79428 58.4869C3.00932 58.7811 3.05179 59.318 3.03247 59.7446C3.02346 59.9902 2.77494 60.2359 2.61527 60.4639C1.93153 61.4407 2.06672 62.1203 3.09299 62.5233C5.74729 63.5805 8.40847 64.6195 11.0765 65.6404C16.8156 67.8278 22.5637 69.9873 28.299 72.1864C28.7793 72.3718 29.0716 72.2791 29.4385 71.9128C41.7494 59.6171 54.0655 47.3287 66.3867 35.0477C75.3703 26.0775 84.3448 17.0955 93.3104 8.10168C93.4936 7.93539 93.6309 7.71215 93.7057 7.45883C93.4147 7.60593 93.1172 7.73979 92.834 7.90013C86.2102 11.7326 79.5882 15.568 72.9679 19.4064C58.9917 27.5401 45.0175 35.6797 31.0455 43.8252C24.0844 47.8715 17.1118 51.8923 10.1275 55.8876C9.66609 56.1488 9.19334 56.383 8.71107 56.5892C8.21146 56.807 7.80971 56.5892 7.5715 56.0773C7.33328 55.5654 7.38349 55.0476 7.85477 54.7373C8.91581 54.0459 9.98456 53.3677 11.0739 52.7337C23.5127 45.4708 35.9541 38.2138 48.3981 30.9627C61.8541 23.1173 75.3123 15.2773 88.7727 7.44267C92.9988 4.98607 97.2584 2.60597 101.506 0.199392C102.15 -0.166891 102.522 -0.0256777 102.858 0.599504C103.148 1.13937 102.978 1.56302 102.67 1.99844C100.481 5.08757 98.322 8.1973 96.1252 11.2732C87.0627 23.9622 77.9954 36.6467 68.9234 49.3269C61.8962 59.1679 54.8797 69.0178 47.874 78.8766C47.7015 79.1178 47.5392 79.3679 47.3126 79.7033C47.619 79.8504 47.8444 79.9696 48.0774 80.0608C54.5157 82.5733 60.9412 85.1137 67.3924 87.5821C72.3357 89.4738 77.3073 91.2802 82.2648 93.1116C83.7572 93.6618 84.8621 92.9424 85.1762 91.1758C86.7163 82.5291 88.2435 73.8795 89.7578 65.227C92.8541 47.4631 95.9419 29.6972 99.0212 11.9293C99.1808 11.0153 99.3525 10.1042 99.5362 9.1961C99.6908 8.41794 100.059 8.14432 100.743 8.26347C101.387 8.37674 101.535 8.92248 101.46 9.5153C101.3 10.801 101.092 12.0793 100.873 13.3532C98.1602 29.1303 95.4419 44.906 92.7181 60.6801C90.9609 70.8027 89.1727 80.9174 87.3537 91.0242C87.213 91.8894 86.9645 92.727 86.6159 93.5117C85.7956 95.2593 84.2362 96.1242 82.5507 95.6579C80.4686 95.0828 78.4096 94.3811 76.3699 93.6279C70.6742 91.5214 64.9892 89.3796 59.3149 87.2025C58.6517 86.9495 58.2654 87.1319 57.8276 87.6968C52.2572 94.8655 46.6773 102.024 41.088 109.174C40.8538 109.493 40.6026 109.796 40.336 110.08C39.6664 110.755 39.0484 110.593 38.7509 109.638C37.5585 105.805 36.3533 101.976 35.2111 98.1219C33.6428 92.8262 32.1208 87.5144 30.5897 82.2099C30.412 81.5965 30.2124 80.9919 30.8473 80.5124C31.3816 80.1064 31.692 80.1137 31.9971 80.7786C32.3703 81.5785 32.691 82.409 32.9564 83.2632C34.8562 89.5395 36.7447 95.8222 38.6222 102.111C38.8159 102.826 39.0853 103.511 39.4244 104.152C39.5454 103.591 39.6742 103.034 39.7862 102.472C41.2455 95.1343 42.7096 87.7978 44.1784 80.4623C44.2688 80.0392 44.4403 79.6443 44.6806 79.3061C54.6497 65.3423 64.6247 51.3843 74.6058 37.4322C80.2647 29.5142 85.9222 21.5943 91.5785 13.6724C91.7369 13.4517 91.8862 13.2223 92.0395 12.9972L91.8953 12.8663ZM41.8053 104.079L42.0113 104.227L56.1755 86.0463C55.6927 85.7962 55.3759 85.605 55.0398 85.4653C52.3435 84.4032 49.6454 83.349 46.9456 82.3026C46.1833 82.0084 46.1228 82.0363 45.9451 82.9366C44.7021 89.2198 43.4629 95.504 42.2276 101.789C42.0782 102.556 41.9443 103.319 41.804 104.079H41.8053Z" fill="#ffffff"/>
</svg>
