<svg width="74" height="80" viewBox="0 0 74 80" fill="none" xmlns="http://www.w3.org/2000/svg">
<path d="M65.9304 9.89689C65.4212 10.392 64.9075 10.8807 64.4048 11.3842C56.9994 18.7964 49.5953 26.2087 42.1923 33.6209C36.0289 39.794 29.8664 45.9675 23.7048 52.1413C23.1655 52.6815 22.6079 53.1986 22.0805 53.7535C21.7889 54.0597 21.4909 54.1415 21.1198 54.0083C19.2916 53.3486 17.4479 52.7276 15.6261 52.0375C11.7211 50.5585 7.82098 49.0586 3.92574 47.5377C3.14876 47.2346 2.39372 46.8517 1.64508 46.4657C0.867193 46.064 0.639582 45.2668 0.706311 44.3773C0.773953 43.4061 1.21821 42.654 1.99702 42.2481C2.17435 42.1558 2.55918 42.2565 2.67893 42.4264C2.83158 42.6362 2.86173 43.019 2.84802 43.3232C2.84162 43.4984 2.6652 43.6735 2.55186 43.8361C2.06647 44.5326 2.16245 45.0172 2.89098 45.3046C4.77523 46.0584 6.66436 46.7993 8.55836 47.5272C12.6325 49.0869 16.713 50.6267 20.7843 52.1948C21.1253 52.327 21.3328 52.2609 21.5933 51.9997C30.3326 43.2323 39.0756 34.4701 47.8222 25.7132C54.1995 19.3171 60.5704 12.9125 66.935 6.49951C67.065 6.38095 67.1625 6.22176 67.2156 6.04113C67.009 6.14602 66.7978 6.24147 66.5967 6.3558C61.8947 9.08853 57.1938 11.8234 52.4941 14.5603C42.5726 20.36 32.6526 26.1639 22.7341 31.972C17.7925 34.8572 12.8427 37.7242 7.88467 40.573C7.55712 40.7592 7.22152 40.9262 6.87917 41.0733C6.5245 41.2285 6.23931 41.0733 6.0702 40.7083C5.9011 40.3433 5.93674 39.9741 6.2713 39.7528C7.02451 39.2598 7.7832 38.7762 8.55653 38.3242C17.3866 33.1454 26.2186 27.9708 35.0524 22.8004C44.6046 17.2063 54.1584 11.616 63.7137 6.02961C66.7138 4.27795 69.7376 2.58083 72.7532 0.864832C73.2102 0.603656 73.4744 0.704347 73.7129 1.15013C73.9186 1.53507 73.798 1.83716 73.5795 2.14763C72.0255 4.35032 70.4926 6.5677 68.9332 8.76095C62.4998 17.8087 56.0631 26.8534 49.623 35.8949C44.6345 42.912 39.6536 49.9355 34.6803 56.9652C34.5579 57.1372 34.4427 57.3155 34.2818 57.5547C34.4994 57.6596 34.6593 57.7445 34.8248 57.8095C39.3952 59.6011 43.9565 61.4125 48.5361 63.1726C52.0453 64.5215 55.5746 65.8095 59.0939 67.1154C60.1533 67.5077 60.9376 66.9948 61.1606 65.735C62.2539 59.5696 63.338 53.4021 64.413 47.2324C66.6111 34.5659 68.8031 21.8981 70.989 9.22875C71.1023 8.57703 71.2242 7.92741 71.3546 7.27989C71.4643 6.72502 71.7257 6.52992 72.2111 6.61488C72.6681 6.69564 72.7733 7.08478 72.7202 7.50749C72.6069 8.42423 72.4588 9.33573 72.3034 10.2441C70.3777 21.4939 68.4481 32.7426 66.5145 43.9903C65.2671 51.2081 63.9977 58.4204 62.7064 65.627C62.6065 66.2439 62.4301 66.8412 62.1826 67.4007C61.6003 68.6468 60.4934 69.2635 59.2968 68.931C57.8187 68.5209 56.3571 68.0206 54.9092 67.4835C50.8658 65.9815 46.8301 64.4543 42.802 62.902C42.3313 62.7215 42.0571 62.8516 41.7463 63.2544C37.7919 68.366 33.8308 73.4706 29.8631 78.5683C29.6968 78.796 29.5185 79.0118 29.3292 79.2144C28.8539 79.6959 28.4152 79.5805 28.204 78.8998C27.3576 76.1663 26.502 73.4361 25.6912 70.6879C24.5778 66.9119 23.4974 63.1243 22.4105 59.342C22.2844 58.9046 22.1427 58.4735 22.5933 58.1316C22.9727 57.8421 23.193 57.8473 23.4096 58.3214C23.6745 58.8918 23.9021 59.4839 24.0906 60.093C25.4392 64.5683 26.7799 69.0481 28.1126 73.5325C28.2502 74.0422 28.4414 74.5308 28.6821 74.9874C28.768 74.5877 28.8594 74.1902 28.9389 73.7895C29.9749 68.5576 31.0142 63.3264 32.0569 58.0959C32.1211 57.7942 32.2428 57.5126 32.4134 57.2715C39.4903 47.3146 46.5714 37.362 53.6569 27.4135C57.674 21.7676 61.6902 16.1204 65.7055 10.4717C65.8179 10.3143 65.924 10.1507 66.0328 9.99025L65.9304 9.89689ZM30.3722 74.936L30.5185 75.0409L40.5735 62.0775C40.2307 61.8992 40.0058 61.7628 39.7673 61.6632C37.8532 60.9059 35.9378 60.1542 34.0213 59.4081C33.4801 59.1983 33.4372 59.2182 33.311 59.8601C32.4286 64.3403 31.549 68.8212 30.6721 73.3028C30.566 73.8493 30.471 74.3937 30.3713 74.936H30.3722Z" fill="#E84855"/>
</svg>
