<svg width="62" height="71" viewBox="0 0 62 71" fill="none" xmlns="http://www.w3.org/2000/svg">
<g clip-path="url(#clip0_751_3831)" filter="url(#filter0_d_751_3831)">
<path d="M10.2957 20.484C10.2042 9.7441 19.6584 0.725807 31.2986 0.97934C42.3282 1.2198 51.6121 10.0185 51.3128 21.0459C51.0272 31.5401 41.7771 40.3005 30.2504 40.0261C19.1906 39.7595 10.1987 31.0243 10.2957 20.484ZM43.5301 23.4663C43.5375 23.5045 43.5415 23.5432 43.542 23.5821C43.535 23.6409 43.5237 23.6991 43.5081 23.7564C42.2809 27.7554 39.6488 30.562 35.6119 32.1761C35.3373 32.285 35.1817 32.2267 34.983 32.0376C29.5517 26.8601 24.1161 21.6875 18.6762 16.5198C18.4757 16.3299 18.429 16.1817 18.5361 15.9212C20.8612 10.2398 27.3376 6.94738 33.5834 8.26819C36.779 8.94603 39.355 10.5395 41.3359 13.0078C41.5473 13.2692 41.6654 13.3014 41.9217 13.0679C42.4161 12.6166 42.9287 12.1845 43.4642 11.7724C43.7333 11.5624 43.7617 11.4239 43.5283 11.152C39.6076 6.59628 34.5629 4.61245 28.4425 5.39047C22.0137 6.2077 16.8271 10.7417 15.2105 16.7167C15.1391 16.9781 15.1766 17.1366 15.3743 17.3266C21.6344 23.2743 27.8896 29.2278 34.14 35.1872C34.3368 35.3745 34.5061 35.4154 34.7807 35.3492C41.713 33.6842 46.7102 27.7145 46.8777 20.8952C46.885 20.612 46.8173 20.5197 46.5061 20.5206C43.3327 20.531 40.1593 20.531 36.9859 20.5206C36.6994 20.5206 36.5758 20.5781 36.5832 20.8778C36.6015 21.6329 36.6015 22.3879 36.5832 23.143C36.5767 23.414 36.6683 23.4915 36.9493 23.4837C37.9709 23.4697 38.9934 23.4776 40.015 23.4776L43.5301 23.4663ZM30.3621 35.7752L14.7528 20.9239C14.8214 28.8305 21.7949 35.6585 30.3621 35.7752Z" fill="white"/>
<path d="M14.0017 54.5308C13.0286 54.5308 12.0793 54.5308 11.1337 54.5361C10.9506 54.5361 10.9067 54.4969 10.9113 54.3243C10.9241 53.8016 10.9214 53.285 10.9113 52.7648C10.9113 52.6254 10.9442 52.5845 11.0944 52.5853C12.8135 52.5906 14.5326 52.5906 16.2517 52.5853C16.3826 52.5853 16.4577 52.5975 16.4522 52.7596C16.4137 53.8643 16.2645 54.9525 15.7638 55.9614C14.9281 57.6447 13.5348 58.6274 11.5878 58.8967C10.4275 59.066 9.24211 58.9862 8.11841 58.6632C7.14443 58.3809 6.35444 57.8329 5.71458 57.0949C4.60969 55.8229 4.17762 54.3339 4.26733 52.7064C4.39732 50.3471 5.54431 48.5724 7.82091 47.6018C9.75789 46.7767 11.7571 46.7358 13.684 47.702C14.5564 48.1376 15.2054 48.8128 15.7254 49.6039C15.783 49.6911 15.7913 49.739 15.6805 49.7947C15.0727 50.1005 14.4685 50.4124 13.8644 50.7252C13.782 50.7679 13.7307 50.7784 13.6813 50.6834C12.8217 49.1413 10.9021 48.7841 9.33314 49.2702C7.83555 49.7346 7.05655 50.7862 6.7801 52.2081C6.59702 53.1255 6.65469 54.0377 7.08767 54.8933C7.79985 56.2942 9.01001 56.9468 10.6293 56.9294C11.0786 56.9257 11.5242 56.8533 11.9493 56.7151C13.0469 56.3544 13.706 55.6164 14.0017 54.5308Z" fill="white"/>
<path d="M41.5783 57.7959C41.5783 58.0974 41.5719 58.3405 41.5783 58.5801C41.5783 58.6925 41.5435 58.7212 41.4291 58.7203C40.7865 58.7151 40.1439 58.7151 39.5013 58.7203C39.3823 58.7203 39.3411 58.6855 39.3567 58.5775C39.3594 58.5392 39.3594 58.5007 39.3567 58.4624C39.3567 54.4657 39.3567 50.469 39.3567 46.4723C39.3567 46.2693 39.3997 46.204 39.6249 46.2109C40.2025 46.2275 40.781 46.2231 41.3586 46.2109C41.5353 46.2109 41.5847 46.2441 41.5838 46.42C41.5765 48.2845 41.5838 50.149 41.5838 52.0143V52.1537C41.6754 52.1598 41.69 52.0884 41.7248 52.0474C42.4571 51.218 43.4302 50.9662 44.5103 51.0586C46.4849 51.2259 47.684 52.6617 47.9037 54.3101C48.0438 55.3625 47.8955 56.361 47.3087 57.2802C46.2423 58.9538 43.9483 59.3372 42.5578 58.6097C42.1786 58.402 41.8458 58.1255 41.5783 57.7959ZM41.3733 54.9975C41.3733 56.2016 42.2887 57.0972 43.5144 57.0885C44.7401 57.0798 45.6637 56.1789 45.6601 54.9905C45.6601 53.7847 44.7447 52.9213 43.4723 52.9239C42.263 52.9274 41.3715 53.8082 41.3733 54.9975Z" fill="white"/>
<path d="M23.5857 52.2052C23.5857 51.8898 23.5903 51.645 23.5857 51.401C23.5857 51.3008 23.6168 51.2712 23.7212 51.2721C24.372 51.2721 25.0228 51.2782 25.6737 51.2721C25.8787 51.2721 25.8083 51.4036 25.8083 51.4916C25.8119 53.6471 25.8119 55.8029 25.8083 57.9589C25.8083 58.1654 25.8028 58.3719 25.8083 58.5784C25.8128 58.6908 25.7671 58.7239 25.6554 58.7239C25.0128 58.7204 24.3702 58.7204 23.7276 58.7239C23.6076 58.7239 23.5765 58.6838 23.5802 58.5775C23.5866 58.3414 23.5802 58.1062 23.5802 57.8674C23.4886 57.8483 23.4676 57.9232 23.4328 57.9633C22.6675 58.8624 21.6514 59.0715 20.5127 58.9112C18.4714 58.6228 17.1257 56.8873 17.2108 54.8381C17.263 53.6184 17.7116 52.5781 18.7277 51.8009C19.8325 50.9558 21.5215 50.7973 22.6877 51.4106C23.0419 51.5936 23.3092 51.8611 23.5857 52.2052ZM23.7889 55.0115C23.7889 53.8039 22.9019 52.9266 21.678 52.9257C20.4157 52.9257 19.4966 53.797 19.5012 55.0036C19.5057 56.2103 20.4294 57.0886 21.6588 57.0877C22.8881 57.0868 23.7889 56.1981 23.7889 55.0115Z" fill="white"/>
<path d="M47.8516 51.2739C48.6937 51.2739 49.4993 51.2792 50.2993 51.2739C50.454 51.2739 50.4824 51.3611 50.5355 51.4534L52.7508 55.32C52.7764 55.3653 52.8029 55.4071 52.8423 55.4768C53.2204 54.7424 53.5902 54.0271 53.9573 53.31C54.2831 52.6749 54.6054 52.038 54.9312 51.4029C54.9596 51.3471 54.9706 51.2765 55.0722 51.2765C55.8723 51.2765 56.6723 51.2765 57.5108 51.2765C57.3653 51.5379 57.2362 51.774 57.109 52.0066C55.1781 55.4916 53.249 58.9766 51.3218 62.4616C51.295 62.5264 51.2462 62.5807 51.1832 62.6159C51.1201 62.6512 51.0464 62.6652 50.974 62.6559C50.227 62.6463 49.4801 62.6559 48.6983 62.6559C48.9729 62.1654 49.2411 61.6923 49.5103 61.2201C50.1675 60.0631 50.8269 58.9069 51.4884 57.7517C51.519 57.7046 51.5337 57.6498 51.5308 57.5946C51.5279 57.5393 51.5073 57.4862 51.472 57.4424C50.3125 55.4792 49.1554 53.5148 48.0008 51.5492C47.9541 51.4647 47.912 51.3881 47.8516 51.2739Z" fill="white"/>
<path d="M34.9549 58.9755C33.839 58.9599 32.8687 58.6122 32.064 57.863C31.9505 57.7575 31.9304 57.6948 32.0476 57.5746C32.367 57.2426 32.6746 56.8994 32.9776 56.5526C33.0691 56.4489 33.1122 56.4533 33.211 56.5526C33.7008 57.0274 34.2701 57.3367 35.0015 57.2888C35.4382 57.2592 35.7787 57.0274 35.8648 56.6789C35.9046 56.5494 35.9012 56.4113 35.8551 56.2837C35.8091 56.156 35.7226 56.0452 35.6075 55.9663C35.3329 55.765 34.9997 55.7049 34.6921 55.5899C34.099 55.3764 33.5259 55.1455 33.0527 54.7186C32.0164 53.7759 32.3112 51.8348 33.8134 51.2789C34.5457 51.0097 35.3 51.0097 36.0643 51.116C36.618 51.2047 37.1442 51.4091 37.6049 51.7146C37.7578 51.8104 37.7953 51.8766 37.6571 52.0195C37.377 52.3131 37.1079 52.6189 36.8479 52.9282C36.7426 53.0528 36.6776 53.0815 36.533 52.9639C36.3464 52.8128 36.1271 52.7027 35.8907 52.6416C35.6543 52.5804 35.4067 52.5697 35.1654 52.6102C34.8633 52.6512 34.6418 52.8332 34.596 53.065C34.5502 53.2967 34.693 53.5599 34.9686 53.6984C35.2362 53.8164 35.5148 53.9106 35.8007 53.9798C36.1229 54.0739 36.4323 54.195 36.7435 54.3135C38.5286 54.9922 38.4361 56.8297 37.6928 57.7819C37.15 58.4789 36.3993 58.8274 35.5105 58.9398C35.3238 58.9546 35.1388 58.9616 34.9549 58.9755Z" fill="white"/>
<path d="M27.9361 55.9184C27.9361 55.0393 27.9361 54.1602 27.9361 53.282C27.9361 53.1339 27.8995 53.0851 27.7393 53.0921C27.5251 53.1034 27.2367 53.1644 27.1122 53.0607C26.9676 52.9396 27.0719 52.6591 27.0665 52.4508C27.0591 52.1145 27.0665 51.7782 27.0619 51.4419C27.0619 51.3182 27.0875 51.2537 27.2294 51.2773C27.2455 51.279 27.2618 51.279 27.2779 51.2773C27.4912 51.2633 27.7759 51.3644 27.8986 51.2354C28.0029 51.1248 27.9315 50.8591 27.9315 50.6613C27.9315 50.0802 27.9361 49.4999 27.9315 48.9188C27.9315 48.7942 27.9581 48.7498 28.0999 48.7515C28.7261 48.7585 29.3522 48.7602 29.9783 48.7515C30.1349 48.7515 30.1614 48.7977 30.1614 48.9319C30.1541 49.6289 30.1706 50.3259 30.1513 51.0176C30.1449 51.2503 30.22 51.2947 30.4434 51.279C30.7949 51.2598 31.1491 51.279 31.5025 51.2712C31.6334 51.2712 31.6856 51.2973 31.6856 51.4332C31.6776 51.9223 31.6776 52.4113 31.6856 52.9004C31.6856 53.0485 31.6434 53.1034 31.4814 53.0982C31.1208 53.0886 30.7583 53.1051 30.3976 53.0921C30.2145 53.0851 30.1559 53.1278 30.1568 53.3142C30.1651 55.041 30.1568 56.7687 30.1651 58.4955C30.1651 58.6646 30.1358 58.7308 29.9353 58.7264C29.3421 58.7113 28.748 58.7113 28.153 58.7264C27.9626 58.7264 27.9343 58.6707 27.9361 58.5077C27.9407 57.6443 27.9361 56.7809 27.9361 55.9184Z" fill="white"/>
</g>
<defs>
<filter id="filter0_d_751_3831" x="0.259766" y="0.974121" width="61.25" height="69.6802" filterUnits="userSpaceOnUse" color-interpolation-filters="sRGB">
<feFlood flood-opacity="0" result="BackgroundImageFix"/>
<feColorMatrix in="SourceAlpha" type="matrix" values="0 0 0 0 0 0 0 0 0 0 0 0 0 0 0 0 0 0 127 0" result="hardAlpha"/>
<feOffset dy="4"/>
<feGaussianBlur stdDeviation="2"/>
<feComposite in2="hardAlpha" operator="out"/>
<feColorMatrix type="matrix" values="0 0 0 0 0 0 0 0 0 0 0 0 0 0 0 0 0 0 0.25 0"/>
<feBlend mode="normal" in2="BackgroundImageFix" result="effect1_dropShadow_751_3831"/>
<feBlend mode="normal" in="SourceGraphic" in2="effect1_dropShadow_751_3831" result="shape"/>
</filter>
<clipPath id="clip0_751_3831">
<rect width="53.2496" height="61.68" fill="white" transform="translate(4.25977 0.974121)"/>
</clipPath>
</defs>
</svg>
