<svg width="74" height="66" viewBox="0 0 74 66" fill="none" xmlns="http://www.w3.org/2000/svg">
<g clip-path="url(#clip0_751_3972)" filter="url(#filter0_d_751_3972)">
<path d="M24.9098 36.7512C24.9858 37.1275 25.1388 37.4854 25.3599 37.8039C25.581 38.1223 25.8657 38.395 26.1974 38.6057C26.0103 39.0431 25.6023 38.8099 25.3159 38.8099C21.09 38.8298 16.8659 38.8226 12.64 38.828C12.3031 38.828 11.9568 38.7593 11.6275 38.8985C9.77463 38.6364 8.89688 37.3079 9.38161 35.5022C9.56876 34.8225 9.96927 34.2459 10.3174 33.6458C16.3525 23.3116 22.3876 12.9785 28.4227 2.6467C28.5144 2.48944 28.5986 2.32857 28.694 2.17493C30.1258 -0.126053 32.512 -0.111593 33.8932 2.2382C35.5139 5.01095 37.0748 7.81081 38.6881 10.5908C38.8434 10.8601 38.8752 11.2505 39.3001 11.3138C39.3191 11.3258 39.3343 11.3426 39.3442 11.3623C39.3541 11.3821 39.3582 11.404 39.3562 11.4259C39.3562 11.4674 39.3394 11.4891 39.3263 11.4891C38.456 12.326 38.0985 13.4774 37.4136 14.4264C36.9981 14.392 36.8746 14.0649 36.7136 13.7739C35.061 10.8818 33.3916 8.0006 31.7447 5.09771C31.6324 4.89888 31.5968 4.57714 31.2861 4.59702C31.0073 4.61329 30.9324 4.90611 30.8145 5.11036C27.3971 10.9728 23.9778 16.834 20.5566 22.694C18.186 26.7477 15.8203 30.8026 13.4597 34.8587C13.2819 35.1642 12.8608 35.4769 13.3212 35.8781C14.9644 36.0282 16.6058 35.9197 18.2452 35.9396C20.1055 35.9613 21.9659 35.9396 23.8243 35.9396C24.412 35.9541 24.8555 36.0914 24.9098 36.7512Z" fill="white"/>
<path d="M39.3211 11.4946C39.3211 11.4367 39.3062 11.3771 39.2949 11.3138C39.9836 10.2293 40.6555 9.11765 41.3667 8.03855C41.7672 7.42942 42.2613 6.898 43.0717 6.78955C43.4287 6.91974 43.8226 6.91974 44.1797 6.78955C45.2333 6.95946 45.8154 7.74754 46.2645 8.51755C51.3289 17.2069 56.3659 25.909 61.3754 34.6237C62.6237 36.7927 61.8788 38.4448 59.53 38.8913C59.4397 38.8256 59.3366 38.7783 59.2268 38.7521C57.243 38.7033 55.2611 38.7521 53.2791 38.725C52.9198 38.725 52.5305 38.8316 52.2161 38.5442C53.0639 37.8935 53.5261 37.0729 53.397 36.0028C53.7133 35.7353 54.1026 35.8058 54.4713 35.8022C55.4994 35.7914 56.5281 35.7914 57.5574 35.8022C58.1002 35.8022 58.2331 35.6215 57.9804 35.1515C57.5799 34.4032 57.1419 33.6747 56.7134 32.9409C52.9946 26.5748 49.3114 20.1906 45.602 13.819C45.0817 12.9279 44.5764 12.0296 44.0468 11.1439C43.7361 10.6251 43.5096 10.6486 43.2139 11.1439C42.7142 11.9772 42.2258 12.8159 41.7261 13.6491C41.5258 13.9817 41.3836 14.3721 40.9625 14.5222C40.4197 13.5118 39.6805 12.6008 39.3211 11.4946Z" fill="white"/>
<path d="M61.5924 54.9838C61.8693 54.4072 62.341 54.4704 62.7153 54.7831C63.4452 55.385 64.2986 55.6616 65.2007 55.8676C65.1689 55.752 65.2512 56.0104 65.152 55.9363C65.0528 55.8622 64.9649 55.9182 65.0753 55.9544C65.2701 55.9904 65.4689 56.0014 65.6667 55.9869C65.7902 55.9869 65.8707 55.996 65.7472 56.005C65.7254 55.9555 65.6964 55.9092 65.6611 55.8676C66.0508 55.7698 66.4339 55.6491 66.8083 55.5061C67.338 55.273 67.7441 54.9259 67.789 54.2987C67.8339 53.6715 67.484 53.2142 66.93 52.9141C66.3822 52.6278 65.7929 52.4224 65.182 52.305C64.509 52.1817 63.8579 51.9656 63.2487 51.6633C62.2586 51.1391 61.7514 50.3492 61.7514 49.2503C61.7334 48.7511 61.8609 48.257 62.1193 47.8244C62.3777 47.3917 62.7567 47.0378 63.2131 46.8029C64.7103 45.9569 67.1583 46.1359 68.5152 47.1824C68.9176 47.4915 69.3349 47.8404 68.9325 48.3808C68.5096 48.9484 68.0698 48.6267 67.6655 48.3085C67.1396 47.8946 66.4621 47.844 65.867 47.6C65.6237 47.3578 65.3242 47.5367 65.0528 47.4988C64.9331 47.4807 64.8488 47.5367 64.9724 47.5205C64.9852 47.5465 64.9953 47.5737 65.0023 47.6018C64.8601 47.6578 64.7216 47.7229 64.5756 47.7663C63.8775 47.9705 63.3198 48.3085 63.2655 49.0912C63.1981 49.9353 63.7577 50.3565 64.4689 50.6005C65.3747 50.9078 66.3199 51.1084 67.2238 51.4157C68.6818 51.911 69.3012 52.728 69.3125 54.0601C69.3237 55.3923 68.6088 56.3213 67.2538 56.8654C65.5694 57.5396 62.5918 57.0931 61.6036 55.526C61.7421 55.3435 61.5493 55.1645 61.5924 54.9838Z" fill="white"/>
<path d="M30.6497 46.6748C31.548 47.7882 32.4726 48.8872 33.3372 50.0259C33.6797 50.476 33.8351 50.6025 34.2374 50.0621C35.0665 48.945 36.0042 47.9039 36.8389 46.7904C37.1233 46.4109 37.4003 46.3024 37.7466 46.5555C38.0516 46.785 38.076 47.1592 37.8308 47.4827C36.9212 48.6902 36.0341 49.9157 35.0684 51.0797C34.6941 51.5316 34.6529 51.8298 35.0235 52.2763C35.9162 53.3608 36.7752 54.4688 37.6436 55.5768C37.9131 55.9239 38.3698 56.3704 37.8476 56.7246C37.4434 56.9976 36.9119 57.0861 36.4739 56.4354C35.7253 55.3111 34.8307 54.2845 34.0016 53.2126C33.7415 52.8764 33.6273 52.7878 33.3073 53.2469C32.5137 54.3947 31.5667 55.4413 30.7601 56.5818C30.4419 57.0337 30.1238 57.1711 29.7046 56.8982C29.2853 56.6252 29.4388 56.2059 29.6914 55.8715C30.6066 54.6586 31.505 53.4313 32.4726 52.2564C32.8019 51.857 32.8656 51.6599 32.5025 51.2297C31.5536 50.1036 30.6871 48.9143 29.7906 47.7466C29.5324 47.4068 29.218 47.0634 29.6877 46.6621C30.0021 46.588 30.3371 46.494 30.6497 46.6748Z" fill="white"/>
<path d="M12.1836 46.7033C12.4212 46.4195 12.672 46.396 12.9322 46.6708C12.9209 46.8352 12.9191 46.9997 12.9191 47.1642C12.9191 50.0189 12.9191 52.8724 12.9191 55.7247C12.9191 56.2037 12.9939 56.7315 12.2697 56.8092C12.2167 56.8348 12.1578 56.8471 12.0986 56.8449C12.0394 56.8426 11.9817 56.826 11.9309 56.7965C9.96017 54.3853 8.00066 51.9704 6.14035 49.4706C6.0449 49.3441 5.83341 49.2989 5.67433 49.2158C5.48717 49.3025 5.48718 49.4815 5.44788 49.6441C5.41606 51.5945 5.44788 53.543 5.43478 55.4915C5.43478 55.6722 5.43478 55.853 5.43478 56.0338C5.41045 56.2958 5.43478 56.6483 5.06047 56.6393C4.68616 56.6302 4.71049 56.2778 4.70862 56.0139C4.69177 53.8557 4.68054 51.6957 4.70862 49.5375C4.72172 48.5578 4.53457 47.5619 4.8546 46.5948C5.64626 46.2803 5.86523 46.9871 6.16468 47.3667C8.01189 49.6279 9.80858 51.927 11.6277 54.21C11.714 54.2916 11.8124 54.3605 11.9197 54.4142C12.1068 54.36 12.1068 54.1846 12.1555 54.0437C12.2023 51.6487 12.1555 49.2555 12.1761 46.8624L12.1836 46.7033Z" fill="white"/>
<path d="M21.1673 57.1347C19.1872 56.8961 17.9669 55.7827 17.6113 53.8938C17.6777 53.8185 17.7279 53.7313 17.7592 53.6371C17.8172 51.4338 17.7779 49.2322 17.7798 47.0306C17.7558 46.9354 17.7514 46.8365 17.7667 46.7396C18.0605 46.6113 18.3431 46.5715 18.5845 46.8372C18.8578 47.7121 18.6912 48.6104 18.7137 49.4979C18.7436 50.7162 18.7137 51.9363 18.7137 53.1545C18.7474 53.2865 18.6669 53.4889 18.9252 53.4962C19.277 54.7361 20.0088 55.6074 21.3862 55.846C21.2795 55.9797 21.3282 56.0394 21.4929 56.043C21.6453 56.0672 21.801 56.0623 21.9514 56.0285C21.9787 56.0066 22.0001 55.9789 22.0141 55.9475C22.0281 55.916 22.0342 55.8819 22.0319 55.8478C24.1075 55.1247 24.5211 54.512 24.5622 52.3538C24.5959 50.5625 24.3919 48.7659 24.6764 46.9818C24.9085 47.1535 24.8841 47.4048 24.8823 47.6416C24.871 49.2322 24.9291 50.8228 24.8561 52.399C24.9534 50.483 24.813 48.5779 24.9366 46.6764C25.2173 46.3709 25.4475 46.4233 25.6346 46.7703C25.6346 46.8228 25.6346 46.877 25.6346 46.9294C25.76 49.2141 25.7095 51.497 25.6533 53.7818C25.6792 53.8837 25.725 53.9801 25.7881 54.0655C25.2266 55.9526 24.1411 56.8961 22.2565 57.1239C21.9026 57.0086 21.5187 57.0125 21.1673 57.1347Z" fill="white"/>
<path d="M53.9196 57.1566C52.894 57.1476 52.1716 56.6144 51.5839 55.8715C51.3069 55.5208 51.101 55.1232 51.5577 54.7617C51.9825 54.4273 52.398 54.561 52.6956 54.9424C53.0699 55.4196 53.5921 55.6654 54.1423 55.8715C54.307 56.0522 54.4661 56.0739 54.6214 55.8625C56.1186 55.2804 56.4125 54.8647 56.4143 53.3012C56.4143 51.5298 56.4143 49.7584 56.4143 47.9888C56.4143 47.6653 56.3301 47.3255 56.5229 47.02C56.7531 48.1172 56.594 49.2252 56.6183 50.3278C56.6464 51.49 56.6408 52.6523 56.6333 53.8127C56.5734 51.5027 56.7175 49.1909 56.5734 46.8808C56.8916 46.4976 57.2247 46.2464 57.6402 46.776C57.8723 47.2225 57.8442 47.7033 57.8442 48.1786C57.8442 50.2699 57.8442 52.3595 57.8442 54.449C57.5953 55.9854 56.4873 56.9904 54.8497 57.1603C54.7074 57.0846 54.5476 57.0446 54.3851 57.0439C54.2226 57.0433 54.0625 57.082 53.9196 57.1566Z" fill="white"/>
<path d="M41.0645 47.5947C40.7613 47.2422 40.5928 46.9024 41.173 46.6421C43.4189 46.7307 45.6759 46.6529 47.9293 46.6837C48.3242 46.6837 48.7359 46.6132 49.1009 46.8445C49.55 46.915 49.4752 47.159 49.3067 47.432C48.2474 47.732 47.1526 47.479 46.0839 47.6254C46.0403 47.6434 46.001 47.67 45.9688 47.7037C45.9365 47.7373 45.912 47.7772 45.8968 47.8206C45.8968 50.503 45.8905 53.1854 45.8781 55.8677C45.8781 56.2094 45.9904 56.5998 45.5337 56.786C45.1894 56.8998 44.8469 57.0155 44.6223 56.6052C44.4988 54.2066 44.5998 51.8062 44.5661 49.4058C44.5796 49.0158 44.5696 48.6253 44.5362 48.2363C44.5012 48.1318 44.4416 48.0366 44.3621 47.958L44.16 47.7881C44.1787 47.5675 43.9916 47.6254 43.8699 47.591C43.0258 47.591 42.1855 47.5712 41.3396 47.6037C41.2487 47.6243 41.1537 47.6212 41.0645 47.5947Z" fill="white"/>
<path d="M51.112 38.7502C51.1158 38.8074 51.1158 38.8647 51.112 38.9219C50.5206 38.9364 49.9292 38.9635 49.3396 38.9635C42.3251 38.9635 35.3106 38.9635 28.296 38.9635C27.9217 38.9635 27.5474 38.931 27.1731 38.9129L27.1562 38.7502C27.3434 38.6002 27.5736 38.6508 27.7851 38.6508H50.4775C50.6909 38.6508 50.9248 38.6056 51.112 38.7502Z" fill="white"/>
<path d="M4.8539 46.6021V56.6266C5.37606 56.3229 5.25065 55.9994 5.25252 55.7391C5.26375 53.9316 5.25253 52.1331 5.26376 50.3292C5.26376 50.0129 5.14211 49.6622 5.43407 49.3893C5.65491 50.3382 5.52764 51.2998 5.52577 52.2524C5.52577 53.7816 5.62871 55.3143 5.46215 56.8417C5.21323 57.1255 4.95122 57.1219 4.67797 56.8742C4.51702 54.6004 4.6293 52.3247 4.61433 50.049C4.61433 48.9446 4.51889 47.8366 4.67797 46.734L4.8539 46.6021Z" fill="white"/>
<path d="M49.1017 46.8445C46.7124 46.8445 44.323 46.8493 41.9337 46.859C41.6623 46.859 41.3629 46.9204 41.1738 46.6421C41.3965 46.3999 41.6941 46.4975 41.9599 46.4975C44.0672 46.4878 46.174 46.4878 48.2801 46.4975C48.587 46.4993 48.9988 46.3529 49.1017 46.8445Z" fill="white"/>
<path d="M11.623 38.8988C11.9113 38.6258 12.2725 38.7433 12.6019 38.7415C16.8016 38.7415 21.0013 38.7415 25.203 38.7325C25.5342 38.7325 25.8898 38.8373 26.1949 38.606L26.8742 38.9277C22.9983 38.9458 19.1223 38.9729 15.2463 38.9729C14.0448 38.9729 12.8339 39.0651 11.623 38.8988Z" fill="white"/>
<path d="M57.8502 54.4415C57.5451 54.1758 57.663 53.8234 57.663 53.5088C57.6462 51.2621 57.6443 49.0153 57.6387 46.7686C57.9625 46.7957 57.9288 47.0686 57.9288 47.2439C57.9325 49.6425 58.0953 52.0447 57.8502 54.4415Z" fill="white"/>
<path d="M25.8133 54.0761H25.7422H25.6711C25.4465 53.1923 25.57 52.2939 25.5794 51.4046C25.5943 49.8827 25.4484 48.3571 25.6598 46.8388V46.7773C25.9406 46.7773 25.9256 47.0123 25.9237 47.1587C25.8919 49.4669 26.0809 51.7752 25.8133 54.0761Z" fill="white"/>
<path d="M12.7441 46.8481L12.9407 46.6782C13.2663 46.8355 13.1821 47.1373 13.184 47.3886C13.1914 50.2891 13.1914 53.1908 13.184 56.0936C13.184 56.3503 13.2607 56.6449 12.9575 56.8167L12.8471 56.6811C12.8227 53.724 12.8471 50.7669 12.8321 47.8097C12.834 47.4916 12.9313 47.1572 12.7441 46.8481Z" fill="white"/>
<path d="M4.67871 46.7344V56.8746C4.37926 56.6939 4.44102 56.4083 4.44102 56.1516C4.44102 53.2523 4.44102 50.353 4.44102 47.4538C4.44289 47.1971 4.36429 46.9007 4.67871 46.7344Z" fill="white"/>
<path d="M44.3568 47.9507H44.5645C44.7516 49.1744 44.6263 50.4053 44.645 51.6308C44.6693 53.2232 44.645 54.8175 44.645 56.4099C44.6543 56.5257 44.6226 56.641 44.5551 56.7371C44.2351 56.6142 44.338 56.3376 44.338 56.1207C44.3418 53.3913 44.3511 50.6801 44.3568 47.9507Z" fill="white"/>
<path d="M59.5336 38.7393C59.5336 38.7917 59.5336 38.8441 59.5336 38.8965C56.8349 39.0321 54.1342 38.9797 51.4336 38.9237L52.0643 38.582C54.2222 38.7357 56.3801 38.6019 58.538 38.6525C58.8674 38.6616 59.2136 38.5694 59.5336 38.7393Z" fill="white"/>
<path d="M12.184 54.2574L11.922 54.4219C11.922 52.1805 11.922 49.9374 11.9482 47.6942C11.9482 47.3616 11.7817 46.9712 12.184 46.7109C12.3712 48.2961 12.2477 49.8868 12.2608 51.4756C12.272 52.401 12.3712 53.3337 12.184 54.2574Z" fill="white"/>
<path d="M5.46362 56.842L5.43555 49.3896L5.68634 49.2251C5.68634 51.461 5.68633 53.6987 5.6751 55.9365C5.67323 56.2437 5.82109 56.6016 5.46362 56.842Z" fill="white"/>
<path d="M56.5758 46.8735C56.8454 47.1899 56.7162 47.564 56.7181 47.9111C56.7623 49.9679 56.6999 52.0257 56.5309 54.0765V47.0127C56.52 46.9882 56.5185 46.9606 56.5267 46.9351C56.535 46.9096 56.5524 46.8877 56.5758 46.8735Z" fill="white"/>
<path d="M17.7978 53.8993C17.7404 53.9029 17.6829 53.9029 17.6256 53.8993C17.4384 51.667 17.5825 49.4311 17.5488 47.197C17.5361 47.1079 17.5514 47.0171 17.5928 46.9365C17.6342 46.8559 17.6997 46.7893 17.7809 46.7451C17.769 46.7609 17.7627 46.7799 17.7627 46.7993C17.7627 46.8188 17.769 46.8378 17.7809 46.8536C18.0092 47.6145 17.8876 48.3936 17.8801 49.1618C17.8614 50.7379 17.998 52.3213 17.7978 53.8993Z" fill="white"/>
<path d="M24.9591 46.687C25.2492 47.4371 25.0714 48.2144 25.0882 48.9771C25.12 50.4069 25.0882 51.8367 25.0882 53.2664C25.0882 53.2917 25.0732 53.3351 25.0564 53.3405C25.0052 53.3499 24.9532 53.3547 24.901 53.355C24.7569 51.1852 24.7569 49.0087 24.901 46.8388C24.8978 46.8109 24.9014 46.7827 24.9115 46.7563C24.9215 46.7299 24.9378 46.7062 24.9591 46.687Z" fill="white"/>
<path d="M18.7349 53.5397C18.6768 53.4385 18.5664 53.339 18.5664 53.2378C18.5664 51.1031 18.5851 48.9702 18.5982 46.8374C18.6215 46.8253 18.6484 46.8214 18.6744 46.8263C18.7003 46.8313 18.7237 46.8447 18.7405 46.8645C18.8836 49.0874 18.8818 51.3169 18.7349 53.5397Z" fill="white"/>
<path d="M18.7344 53.5395V46.8643C19.1087 47.045 18.9328 47.3921 18.9365 47.656C18.9515 49.6027 18.9365 51.5494 18.9365 53.4961C18.8878 53.5539 18.8429 53.6949 18.7344 53.5395Z" fill="white"/>
<path d="M24.9108 46.8389C24.9108 49.0079 24.9108 51.1799 24.9108 53.355C24.6244 53.0839 24.7517 52.7368 24.748 52.4241C24.7218 50.6166 24.7143 48.8091 24.7012 47.0015L24.9108 46.8389Z" fill="white"/>
<path d="M45.8711 47.589C46.994 47.2275 48.1581 47.4227 49.3054 47.4318L49.1482 47.5981C48.0592 47.7189 46.9593 47.7158 45.8711 47.589Z" fill="white"/>
<path d="M44.1863 47.5783C44.3454 47.6651 44.2387 47.7211 44.1583 47.7808C43.1289 47.7085 42.0734 48.0465 41.0684 47.6C41.0846 47.6089 41.103 47.6135 41.1217 47.6135C41.1404 47.6135 41.1587 47.6089 41.175 47.6C42.1717 47.4437 43.1874 47.4364 44.1863 47.5783Z" fill="white"/>
<path d="M45.8711 47.5894L49.1482 47.5984C48.0908 48.0647 46.9697 47.6635 45.8898 47.8207C45.8861 47.743 45.8711 47.6671 45.8711 47.5894Z" fill="white"/>
<path d="M65.0002 47.6071C64.9235 47.5619 64.7045 47.4733 64.828 47.4498C65.2267 47.4036 65.6291 47.3945 66.0296 47.4227C66.0427 47.4227 66.0558 47.4607 66.0707 47.4806L65.8649 47.6053L65.0002 47.6071Z" fill="white"/>
<path d="M65.6591 55.8603L65.8332 55.9109C65.646 56.2507 65.2549 56.1151 65.0846 56.0338C64.7926 55.9 65.1594 55.9289 65.2006 55.853L65.6591 55.8603Z" fill="white"/>
<path d="M22.0538 55.8584L22.2896 56.0626C22.1436 56.1303 21.9837 56.1654 21.8218 56.1654C21.6598 56.1654 21.4999 56.1303 21.3539 56.0626C21.1911 55.9505 21.3352 55.9054 21.4063 55.8457L22.0538 55.8584Z" fill="white"/>
<path d="M44.1861 6.79518C44.0306 6.92046 43.8346 6.98909 43.6321 6.98909C43.4296 6.98909 43.2336 6.92046 43.0781 6.79518C43.4382 6.68221 43.826 6.68221 44.1861 6.79518Z" fill="white"/>
<path d="M30.651 46.6746L29.6797 46.6565C30.0091 46.3312 30.3385 46.2751 30.651 46.6746Z" fill="white"/>
<path d="M44.5605 56.7296V56.6862C44.5811 56.5434 44.6373 56.529 44.7271 56.6447C44.9611 56.8562 45.253 56.764 45.5244 56.7857C45.1819 57.149 44.86 57.1327 44.5605 56.7296Z" fill="white"/>
<path d="M21.168 57.1349C21.3252 57.0134 21.5206 56.9473 21.722 56.9473C21.9233 56.9473 22.1187 57.0134 22.2759 57.1349H21.168Z" fill="white"/>
<path d="M61.5916 54.9839C61.8349 55.1646 61.8386 55.3454 61.5916 55.5261C61.4587 55.3454 61.4044 55.1646 61.5916 54.9839Z" fill="white"/>
<path d="M11.9414 56.8055L12.1922 56.7784C12.3068 56.7172 12.4356 56.6851 12.5665 56.6851C12.6974 56.6851 12.8262 56.7172 12.9408 56.7784L12.9708 56.8128C12.617 57.149 12.2783 57.0966 11.9414 56.8055Z" fill="white"/>
<path d="M53.9199 57.1564C53.9782 57.092 54.0502 57.0403 54.1309 57.0049C54.2116 56.9695 54.2992 56.9512 54.3878 56.9512C54.4764 56.9512 54.564 56.9695 54.6447 57.0049C54.7254 57.0403 54.7974 57.092 54.8557 57.1564H53.9199Z" fill="white"/>
<path d="M54.6191 55.855C54.8287 56.137 54.5274 56.0737 54.4432 56.0556C54.359 56.0375 54.0221 56.2364 54.14 55.864L54.6191 55.855Z" fill="white"/>
<path d="M51.4301 38.9312L51.1119 38.9131C51.0223 38.8405 50.9166 38.7886 50.8031 38.7613C43.0325 38.7191 35.2618 38.7191 27.4912 38.7613C27.3777 38.7863 27.2715 38.8357 27.1805 38.9059L26.8885 38.9294C26.6331 38.8374 26.3718 38.7613 26.1062 38.7016C25.3052 38.2696 24.9215 37.5647 24.7306 36.735C24.6913 36.5101 24.6913 36.2804 24.7306 36.0554C25.3033 33.9533 26.6733 32.2433 27.7476 30.3924C30.8768 25.0006 34.1108 19.6665 37.2494 14.2765C37.7042 13.5282 38.1309 12.7636 38.6063 12.0279C38.7822 11.7568 38.9057 11.4134 39.3418 11.4405C40.0904 12.3822 40.5545 13.4812 41.1927 14.4825C43.9607 19.1496 46.6932 23.8347 49.4518 28.5072C50.5598 30.3852 51.6378 32.2813 52.7963 34.1322C53.1849 34.7115 53.4502 35.3598 53.5767 36.0391C53.7059 37.0984 53.3634 37.9605 52.437 38.5697C52.3608 38.6197 52.2792 38.6615 52.1937 38.6944C51.9301 38.7429 51.6736 38.8224 51.4301 38.9312ZM29.1999 36.1151C35.8227 36.1151 42.4448 36.1151 49.0663 36.1151C49.3115 36.1151 49.5641 36.1621 49.8 36.0428C50.1743 35.665 49.7214 35.4481 49.5847 35.2149C47.4474 31.5601 45.2958 27.9137 43.1298 24.2757C41.8197 22.0742 40.5209 19.8726 39.1509 17.5626C38.3106 18.9471 37.5226 20.2215 36.7609 21.5084C34.0229 26.1375 31.2998 30.7756 28.5392 35.392C28.382 35.6541 28.2323 35.7933 28.4681 36.041C28.7021 36.1639 28.9566 36.1151 29.1999 36.1151Z" fill="white"/>
<path d="M51.112 38.7503H27.1562C27.422 38.4322 27.7926 38.5695 28.1164 38.5695C35.459 38.5623 42.8017 38.5623 50.1444 38.5695C50.4719 38.5695 50.8387 38.4376 51.112 38.7503Z" fill="white"/>
<path d="M28.4668 36.0391H49.8024C49.5497 36.2994 49.2203 36.2017 48.9209 36.2017C42.3967 36.2017 35.8731 36.2017 29.3502 36.2017C29.0507 36.2054 28.7195 36.3048 28.4668 36.0391Z" fill="white"/>
<path d="M12.7441 36.0157L24.9241 35.9868C24.9241 36.2417 24.911 36.4965 24.9054 36.7514C24.7014 36.2507 24.2897 36.1983 23.7825 36.2091C20.4137 36.2254 17.058 36.22 13.6949 36.2091C13.3823 36.2037 13.0118 36.332 12.7441 36.0157Z" fill="white"/>
<path d="M59.5336 38.7395C57.3682 38.7395 55.201 38.7395 53.0356 38.7395C52.7081 38.7395 52.3488 38.8552 52.0605 38.5895C52.1093 38.568 52.1623 38.5569 52.2159 38.5569C54.3326 38.5569 56.4493 38.5569 58.566 38.5696C58.8936 38.5696 59.2604 38.4394 59.5336 38.7395Z" fill="white"/>
<path d="M12.9322 56.786H12.1836C12.6066 56.5836 12.7544 56.289 12.7451 55.8064C12.717 52.8221 12.732 49.8415 12.7338 46.8555C13.0408 47.1212 12.9098 47.4736 12.921 47.7882C12.9322 50.7832 12.9322 53.7837 12.9322 56.786Z" fill="white"/>
<path d="M12.1836 54.2572C12.1836 51.7411 12.1836 49.2251 12.1836 46.709C12.484 49.2167 12.484 51.7495 12.1836 54.2572Z" fill="white"/>
<path d="M17.7981 53.8995L17.7812 46.8501C17.8636 46.8862 18.0171 46.9224 18.0171 46.9567C18.0058 49.2005 17.984 51.4436 17.9516 53.6862C17.9478 53.753 17.8505 53.829 17.7981 53.8995Z" fill="white"/>
<path d="M25.658 46.8428L25.6692 54.0729C25.454 53.9355 25.469 53.7204 25.469 53.5108V47.4158C25.4708 47.2043 25.4708 46.9946 25.658 46.8428Z" fill="white"/>
<path d="M21.3535 56.0703H22.2893C21.9805 56.3396 21.6698 56.3342 21.3535 56.0703Z" fill="white"/>
<path d="M44.731 56.6448C44.7018 56.6408 44.672 56.6425 44.6434 56.6496C44.6149 56.6567 44.588 56.6692 44.5645 56.6864V47.9434C44.7947 48.1241 44.7516 48.3699 44.7516 48.6031C44.7491 51.2843 44.7422 53.9649 44.731 56.6448Z" fill="white"/>
<path d="M44.6637 46.7577L41.6543 46.7739C42.6315 46.4677 43.683 46.462 44.6637 46.7577Z" fill="white"/>
</g>
<defs>
<filter id="filter0_d_751_3972" x="0.433594" y="0.461426" width="72.8672" height="64.7061" filterUnits="userSpaceOnUse" color-interpolation-filters="sRGB">
<feFlood flood-opacity="0" result="BackgroundImageFix"/>
<feColorMatrix in="SourceAlpha" type="matrix" values="0 0 0 0 0 0 0 0 0 0 0 0 0 0 0 0 0 0 127 0" result="hardAlpha"/>
<feOffset dy="4"/>
<feGaussianBlur stdDeviation="2"/>
<feComposite in2="hardAlpha" operator="out"/>
<feColorMatrix type="matrix" values="0 0 0 0 0 0 0 0 0 0 0 0 0 0 0 0 0 0 0.25 0"/>
<feBlend mode="normal" in2="BackgroundImageFix" result="effect1_dropShadow_751_3972"/>
<feBlend mode="normal" in="SourceGraphic" in2="effect1_dropShadow_751_3972" result="shape"/>
</filter>
<clipPath id="clip0_751_3972">
<rect width="64.8677" height="56.7058" fill="white" transform="translate(4.43359 0.461426)"/>
</clipPath>
</defs>
</svg>
