<svg width="56" height="52" viewBox="0 0 56 52" fill="none" xmlns="http://www.w3.org/2000/svg">
<rect x="13" y="12" width="29.2494" height="29.1797" rx="14.5898" fill="black" fill-opacity="0.46"/>
<g filter="url(#filter0_d_6138_31598)">
<path fill-rule="evenodd" clip-rule="evenodd" d="M24.5724 31.4816C24.5782 31.4877 24.5841 31.4936 24.59 31.4996C24.9174 31.8269 25.3639 31.9624 25.7899 31.9062C25.8183 31.9024 25.8467 31.8978 25.8748 31.8924C26.1454 31.84 26.4039 31.7091 26.6134 31.4995C26.6184 31.4945 26.6234 31.4895 26.6283 31.4844L34.7057 23.407C35.2644 22.8483 35.2644 21.9425 34.7057 21.3838C34.1471 20.8252 33.2413 20.8252 32.6826 21.3839L25.6018 28.4647L22.5671 25.4301C22.0085 24.8714 21.1027 24.8714 20.544 25.4301C19.9853 25.9888 19.9853 26.8946 20.544 27.4532L24.5724 31.4816Z" fill="#E84855"/>
</g>
<defs>
<filter id="filter0_d_6138_31598" x="0.125" y="0.964844" width="55" height="50.9531" filterUnits="userSpaceOnUse" color-interpolation-filters="sRGB">
<feFlood flood-opacity="0" result="BackgroundImageFix"/>
<feColorMatrix in="SourceAlpha" type="matrix" values="0 0 0 0 0 0 0 0 0 0 0 0 0 0 0 0 0 0 127 0" result="hardAlpha"/>
<feOffset/>
<feGaussianBlur stdDeviation="10"/>
<feComposite in2="hardAlpha" operator="out"/>
<feColorMatrix type="matrix" values="0 0 0 0 0.909804 0 0 0 0 0.282353 0 0 0 0 0.333333 0 0 0 1 0"/>
<feBlend mode="normal" in2="BackgroundImageFix" result="effect1_dropShadow_6138_31598"/>
<feBlend mode="normal" in="SourceGraphic" in2="effect1_dropShadow_6138_31598" result="shape"/>
</filter>
</defs>
</svg>
