<svg width="107" height="108" viewBox="0 0 107 108" fill="none" xmlns="http://www.w3.org/2000/svg">
<g clip-path="url(#clip0_751_4293)">
<path d="M97.0255 85.8298C97.0255 85.8298 98.7592 92.3922 99.6431 95.6691C99.7855 96.1943 99.7157 96.5581 99.2901 96.9615C97.9052 98.2794 96.5772 99.651 95.1353 101.099C94.0379 99.5165 92.9546 98.0316 91.9497 96.4958C84.6122 85.2678 77.3188 74.0101 69.93 62.8161C68.9023 61.259 67.4248 59.9964 66.148 58.6035C65.6071 58.0146 65.0478 57.4413 64.4799 56.8426C62.221 58.779 60.0104 60.7041 57.7672 62.5896C51.789 67.6119 45.8004 72.621 39.8013 77.6169C39.296 78.0415 39.1522 78.3756 39.3572 79.0324C41.5606 86.0973 43.7184 93.1778 45.9047 100.246C46.067 100.766 46.0072 101.095 45.6058 101.481C43.7739 103.259 41.9804 105.077 40.0987 106.955C39.1735 105.441 38.2782 103.983 37.3943 102.522C37.2953 102.359 37.2514 102.17 37.2691 101.981C37.3559 101.386 37.01 100.99 36.5801 100.772C36.1502 100.554 35.9211 100.347 36.0819 100.035C35.7133 99.6099 35.3816 99.3269 35.1567 98.9631C32.7284 95.0789 30.3087 91.188 27.8975 87.2906C27.7765 87.0952 27.6399 86.907 27.489 86.6848C22.9456 89.5342 18.3238 92.1402 13.1597 93.9394C14.9589 88.8123 17.5794 84.2203 20.4646 79.6623L0.0703125 67.142C2.05166 65.1829 3.95475 63.2804 5.89625 61.4176C6.05851 61.2633 6.50833 61.3029 6.78447 61.385C12.5653 63.1242 18.3423 64.8757 24.1156 66.6394C25.5204 67.0641 26.9338 67.4675 28.3216 67.9403C28.8469 68.1187 29.1258 67.9842 29.4603 67.5878C34.1157 62.0531 38.7821 56.5274 43.4593 51.0106C45.5859 48.5065 47.7608 46.0421 49.913 43.5606C50.0824 43.3653 50.246 43.1657 50.4595 42.9109C49.3465 41.8662 48.202 40.881 47.1601 39.7967C44.598 37.1355 41.3243 35.4596 38.2896 33.4552C28.0659 26.6937 17.8252 19.9553 7.56733 13.24C6.9382 12.8252 6.34885 12.3525 5.61866 11.8245C6.78726 10.692 7.99717 9.68844 9.00065 8.5093C9.92585 7.42076 10.8511 7.10649 12.1762 7.67978C13.2542 8.13354 14.3606 8.51749 15.4884 8.82921C16.1347 9.01465 16.8492 8.95801 17.4997 9.13354C22.9626 10.6085 28.4189 12.1038 33.8686 13.6193C34.3995 13.768 34.7226 13.676 35.0956 13.2895C36.4805 11.874 37.8996 10.4769 39.313 9.08115C40.977 7.43488 43.0466 7.42499 44.7219 9.06134C45.6186 9.93614 46.4983 10.8308 47.3893 11.7126C49.4162 13.7184 49.5727 15.1311 47.97 17.5021C49.4674 17.9268 50.9363 18.3515 52.4181 18.7266C52.5903 18.7691 52.8793 18.5426 53.0487 18.377C54.5845 16.868 56.1047 15.3449 57.632 13.8274C59.3073 12.1613 61.4068 12.1557 63.0963 13.819C64.0898 14.7985 65.0787 15.7827 66.0627 16.7717C67.8263 18.5482 67.8632 20.4238 66.1808 22.2583C66.1196 22.3249 66.0698 22.3999 65.9602 22.5414C66.8711 22.8033 67.718 23.0864 68.5877 23.2662C68.8027 23.3115 69.1357 23.0694 69.335 22.8769C73.7105 18.6912 78.0177 14.4375 82.4529 10.3127C87.3124 5.79148 92.9176 2.51735 99.4595 1.02821C100.758 0.756286 102.087 0.661046 103.411 0.745105C105.485 0.847023 106.838 2.42108 106.918 4.48776C107.043 7.74348 106.004 10.7161 104.767 13.6392C102.698 18.5312 99.5834 22.7198 95.8769 26.5021C92.0693 30.3863 88.2831 34.2875 84.4741 38.1717C84.1652 38.486 84.0713 38.7535 84.2293 39.1626C84.3959 39.6 84.4869 40.0671 84.6335 40.6036C84.8143 40.4748 84.9595 40.3785 85.0947 40.2724C86.558 39.1159 88.4639 39.1499 89.8332 40.4295C91.0431 41.5619 92.2206 42.725 93.366 43.9188C94.8036 45.4206 94.7752 47.5156 93.3148 48.9991C91.8231 50.5165 90.3072 52.0128 88.7841 53.5005C88.4625 53.8147 88.3486 54.0908 88.4895 54.5508C88.8952 55.8786 89.2382 57.2247 89.604 58.5539C89.6837 58.5539 89.7463 58.5723 89.7733 58.5539C91.759 57.2587 93.3048 57.4031 94.9943 59.0578C95.9746 60.0157 96.9472 60.9825 97.9123 61.9583C99.6203 63.688 99.6004 65.759 97.8852 67.4534C96.4889 68.8321 95.1096 70.2306 93.692 71.5867C93.3447 71.9208 93.3091 72.2166 93.4272 72.6413C94.0663 74.9344 95.2947 79.5321 95.2947 79.5321C95.753 82.1197 95.7544 82.1069 95.958 83.1615C95.9993 83.3767 96.1758 83.5663 96.311 83.8056C96.153 83.848 96.5159 84.7964 96.5159 84.7964C96.5159 84.7964 95.9637 84.3378 96.0761 84.3718C96.7807 84.6209 97.0084 85.8284 97.0084 85.8284L97.0255 85.8298ZM17.1566 89.7919L17.3246 89.9008L18.4106 89.3799C25.4791 85.9657 31.7478 81.3114 37.7758 76.4094C49.429 66.9339 60.9655 57.3167 71.9184 47.0216C80.0033 39.4216 88.0397 31.7834 95.585 23.6484C99.2972 19.6453 102.151 15.1311 103.854 9.92905C104.423 8.16954 104.85 6.39023 104.75 4.5189C104.695 3.48981 104.114 2.84151 103.095 2.87832C101.824 2.92645 100.523 2.98022 99.2987 3.28314C94.1336 4.54023 89.3661 7.06069 85.4293 10.6156C80.3051 15.2397 75.308 20.0024 70.4381 24.9039C65.136 30.266 60.0773 35.8644 54.9005 41.3482C54.5788 41.6893 54.1561 41.9342 53.7689 42.2315C53.581 42.5386 53.4301 43.1077 53.144 43.1869C52.29 43.4233 52.1391 44.1778 51.7434 44.7511C51.7306 44.7695 51.7121 44.7851 51.6965 44.8035C51.0759 45.5112 50.4496 46.219 49.8375 46.9268C45.63 51.8471 41.4197 56.7661 37.2064 61.6837C36.8591 62.0885 36.3253 62.3306 35.9054 62.6745C35.7452 62.8324 35.6192 63.0212 35.5354 63.2294C35.393 63.521 35.3589 63.8806 35.1639 64.1226C32.9462 66.8857 30.6304 69.5738 28.4911 72.395C25.3796 76.4929 22.1755 80.5357 19.7045 85.0767C18.8628 86.6527 18.0188 88.2253 17.1723 89.7947L17.1566 89.7919ZM8.97216 11.564C9.17001 11.7126 9.25686 11.7891 9.3565 11.8471C19.7785 18.6898 30.2029 25.5287 40.6297 32.3638C43.7981 34.4347 47.0349 36.391 49.6681 39.1725C50.3798 39.9213 51.1684 40.588 51.9583 41.3312L67.1373 25.1573C66.8057 25.0469 66.568 24.9549 66.3217 24.8856C50.9976 20.6276 35.6725 16.3683 20.3464 12.1076C18.4021 11.5654 16.4919 10.8973 14.5475 10.3551C13.4786 10.0579 12.374 9.89084 11.2738 9.69691C11.0708 9.6883 10.8728 9.76006 10.723 9.89649C10.1636 10.4231 9.60988 10.9723 8.98786 11.5668L8.97216 11.564ZM94.5403 80.5654C94.1987 80.3828 94.0393 80.2611 93.8599 80.2087C93.4144 80.0799 93.1397 79.8506 93.0059 79.3679C89.9229 68.0682 86.8313 56.7704 83.7311 45.4744C83.2657 43.7758 82.7874 42.0772 82.285 40.2738C76.8305 45.3499 71.4601 50.3481 66.0584 55.3704C66.9437 56.3061 67.7764 57.1752 68.5949 58.0599C69.5913 59.1343 70.737 60.111 71.5299 61.3156C78.8062 72.3841 86.0474 83.4753 93.2535 94.5891C93.9325 95.6309 94.6456 96.6487 95.4143 97.7825C96.0078 97.1682 96.56 96.6501 97.0355 96.074C97.1254 95.9535 97.1899 95.8161 97.2249 95.6701C97.2599 95.5241 97.2647 95.3725 97.239 95.2246C96.7608 93.2797 96.2426 91.3461 95.7245 89.4097C95.3217 87.8908 94.9146 86.3719 94.5146 84.8672C95.1352 84.553 95.205 84.1821 94.8093 83.4942L94.5688 84.134C94.2001 83.0653 93.83 81.9895 93.4614 80.9165L94.5403 80.5654ZM27.5815 69.9489C25.7553 69.394 24.0401 68.8746 22.3264 68.3522C17.3426 66.8357 12.3584 65.3235 7.3737 63.8155C7.10183 63.7334 6.66205 63.7093 6.49124 63.8636C5.49488 64.7525 4.54121 65.7038 3.50214 66.7074C9.64831 70.4755 15.6635 74.1672 21.71 77.8759C23.6886 75.2289 25.6001 72.6512 27.5971 69.9574L27.5815 69.9489ZM29.2995 85.4292L40.4987 103.483C41.468 102.516 42.3391 101.619 43.2444 100.755C43.5618 100.452 43.6116 100.189 43.4807 99.7643C41.7223 94.1021 39.9773 88.4311 38.2455 82.751C37.9309 81.7262 37.6107 80.7013 37.2662 79.5887L29.2995 85.4292ZM54.9347 19.4499C57.8497 20.2638 60.5556 21.0212 63.2657 21.7686C63.3307 21.7845 63.3986 21.7864 63.4644 21.7739C63.5302 21.7615 63.5926 21.735 63.6472 21.6964C64.1197 21.2349 64.6251 20.7904 65.0136 20.2638C65.4022 19.7373 65.314 19.1073 64.8599 18.6388C63.7098 17.4498 62.5369 16.2829 61.3413 15.1382C60.7292 14.555 59.9919 14.5876 59.3656 15.1623C58.8432 15.6407 58.3565 16.1532 57.8469 16.6514C56.9359 17.5545 56.0022 18.4477 54.9503 19.4584L54.9347 19.4499ZM87.6995 51.6008C89.1001 50.1853 90.4039 48.8915 91.685 47.5821C92.4778 46.7725 92.4621 46.0718 91.6494 45.2536C90.784 44.383 89.9086 43.521 89.0389 42.6533C87.5928 41.2137 87.1985 41.2264 85.7353 42.6533C85.4178 42.9647 85.3623 43.2379 85.479 43.6442C85.9231 45.1814 86.333 46.7286 86.7601 48.2715C87.0647 49.3388 87.3693 50.3948 87.7151 51.6094L87.6995 51.6008ZM37.0114 14.4602C39.4924 15.1481 41.9036 15.7441 44.2593 16.5056C45.2756 16.8326 45.8862 16.6005 46.4769 15.8219C46.9879 15.1495 47.0463 14.4644 46.4613 13.8529C45.3311 12.6828 44.1772 11.5352 42.9996 10.4103C42.4188 9.85687 41.6844 9.81582 41.1421 10.3382C39.7856 11.6688 38.4561 13.0361 37.0271 14.4687L37.0114 14.4602ZM92.6444 69.646C93.7831 68.5136 94.751 67.4435 95.8171 66.4781C97.4284 65.0201 97.3828 64.3548 95.8498 62.9308C94.9318 62.0814 94.0748 61.1613 93.171 60.2936C92.6813 59.8237 92.0437 59.6439 91.4914 60.0544C91.0431 60.3885 90.3769 61.0226 90.4566 61.3751C91.0886 64.0972 91.8658 66.7852 92.6444 69.646ZM50.7143 43.6739C51.426 44.1424 51.426 44.1424 51.9313 43.7319C51.4872 43.1232 51.2965 43.1077 50.7143 43.671V43.6739Z" fill="white" stroke="white" stroke-width="0.4" stroke-miterlimit="10"/>
</g>
<defs>
<clipPath id="clip0_751_4293">
<rect width="107" height="106.374" fill="white" transform="translate(0 0.666931)"/>
</clipPath>
</defs>
</svg>
