<svg width="82" height="80" viewBox="0 0 82 80" fill="none" xmlns="http://www.w3.org/2000/svg">
<path d="M73.4261 63.787C73.4261 63.787 74.7232 68.6535 75.3846 71.0836C75.4911 71.4731 75.4389 71.7429 75.1205 72.042C74.0843 73.0193 73.0907 74.0365 72.0119 75.1104C71.1908 73.9368 70.3804 72.8356 69.6285 71.6967C64.1388 63.3702 58.6821 55.0217 53.154 46.7205C52.3851 45.5658 51.2796 44.6294 50.3244 43.5965C49.9197 43.1598 49.5012 42.7347 49.0763 42.2906C47.3862 43.7267 45.7324 45.1543 44.054 46.5525C39.5813 50.277 35.1008 53.9916 30.6124 57.6965C30.2343 58.0114 30.1268 58.2591 30.2801 58.7462C31.9287 63.9854 33.5431 69.2361 35.1788 74.4774C35.3002 74.8637 35.2555 75.1072 34.9552 75.3938C33.5846 76.7123 32.2428 78.0601 30.835 79.4531C30.1427 78.3299 29.4729 77.2487 28.8116 76.1654C28.7375 76.0451 28.7047 75.9045 28.7179 75.7644C28.7828 75.3235 28.524 75.0295 28.2024 74.8679C27.8808 74.7062 27.7093 74.553 27.8297 74.321C27.5539 74.0061 27.3057 73.7961 27.1375 73.5264C25.3207 70.6459 23.5103 67.7605 21.7063 64.8703C21.6158 64.7254 21.5136 64.5858 21.4007 64.421C18.0014 66.5341 14.5435 68.4667 10.6799 69.8009C12.026 65.9988 13.9866 62.5934 16.1452 59.2133L0.886719 49.9285C2.36911 48.4756 3.79296 47.0648 5.24553 45.6834C5.36694 45.569 5.70348 45.5983 5.91008 45.6592C10.2352 46.949 14.5574 48.2478 18.8768 49.5558C19.9278 49.8707 20.9853 50.1699 22.0236 50.5205C22.4166 50.6528 22.6253 50.553 22.8756 50.2591C26.3586 46.1547 29.8499 42.0569 33.3493 37.9658C34.9403 36.1088 36.5675 34.2812 38.1777 32.441C38.3045 32.2962 38.4269 32.1482 38.5867 31.9592C37.7539 31.1845 36.8976 30.4539 36.1181 29.6498C34.2012 27.6763 31.7519 26.4335 29.4814 24.947C21.8323 19.9328 14.1705 14.9358 6.4958 9.95586C6.02509 9.64829 5.58416 9.29768 5.03785 8.90614C5.91216 8.06635 6.81739 7.3221 7.56817 6.44768C8.26038 5.64044 8.9526 5.40739 9.94406 5.83253C10.7506 6.16902 11.5784 6.45376 12.4222 6.68492C12.9057 6.82244 13.4402 6.78044 13.9269 6.9106C18.0142 8.00442 22.0964 9.11328 26.1737 10.2372C26.5709 10.3474 26.8127 10.2792 27.0917 9.99262C28.1279 8.94289 29.1896 7.90678 30.2471 6.87175C31.492 5.65092 33.0404 5.64358 34.2939 6.85707C34.9648 7.5058 35.6229 8.16922 36.2896 8.8232C37.8061 10.3107 37.9232 11.3583 36.724 13.1166C37.8444 13.4315 38.9434 13.7464 40.052 14.0246C40.1808 14.0561 40.397 13.8882 40.5238 13.7653C41.6728 12.6463 42.8102 11.5168 43.9529 10.3915C45.2063 9.15596 46.7771 9.15178 48.0412 10.3852C48.7845 11.1116 49.5243 11.8415 50.2605 12.5749C51.58 13.8923 51.6076 15.2832 50.3489 16.6437C50.3031 16.693 50.2658 16.7487 50.1838 16.8536C50.8654 17.0478 51.499 17.2578 52.1497 17.3911C52.3105 17.4247 52.5597 17.2452 52.7088 17.1024C55.9824 13.9984 59.2049 10.8439 62.5233 7.78503C66.159 4.4322 70.3527 2.00417 75.2472 0.899858C76.2184 0.698204 77.2129 0.627576 78.2034 0.689912C79.755 0.765493 80.7678 1.93278 80.8274 3.46539C80.9212 5.87976 80.1438 8.08421 79.2183 10.2519C77.6699 13.8798 75.3398 16.9859 72.5667 19.7908C69.718 22.6712 66.8852 25.5643 64.0355 28.4447C63.8044 28.6778 63.7341 28.8762 63.8523 29.1795C63.9769 29.5039 64.0451 29.8503 64.1548 30.2482C64.29 30.1526 64.3987 30.0813 64.4998 30.0025C65.5946 29.1449 67.0205 29.1701 68.045 30.1191C68.9502 30.9588 69.8312 31.8214 70.6882 32.7066C71.7638 33.8204 71.7425 35.374 70.6498 36.4741C69.5338 37.5994 68.3996 38.709 67.2601 39.8122C67.0195 40.0453 66.9343 40.25 67.0397 40.5911C67.3432 41.5758 67.5998 42.5741 67.8735 43.5597C67.9332 43.5597 67.98 43.5734 68.0002 43.5597C69.4858 42.5993 70.6424 42.7063 71.9064 43.9335C72.6398 44.6438 73.3675 45.3607 74.0896 46.0844C75.3675 47.3671 75.3526 48.9029 74.0693 50.1594C73.0246 51.1818 71.9927 52.219 70.932 53.2246C70.6722 53.4723 70.6456 53.6917 70.734 54.0066C71.2121 55.7072 72.1311 59.1167 72.1311 59.1167C72.474 61.0356 72.4751 61.0262 72.6274 61.8082C72.6583 61.9678 72.7904 62.1085 72.8915 62.2859C72.7733 62.3174 73.0449 63.0207 73.0449 63.0207C73.0449 63.0207 72.6317 62.6806 72.7158 62.7058C73.243 62.8905 73.4133 63.7859 73.4133 63.7859L73.4261 63.787ZM13.6702 66.7252L13.7959 66.806L14.6085 66.4197C19.897 63.8877 24.587 60.4362 29.097 56.801C37.8157 49.7742 46.4469 42.6423 54.6416 35.0076C60.6905 29.3716 66.7031 23.7073 72.3484 17.6745C75.1257 14.7059 77.261 11.3583 78.5347 7.50054C78.9606 6.19572 79.2801 4.87622 79.2055 3.48848C79.164 2.72533 78.7295 2.24457 77.967 2.27186C77.016 2.30755 76.0427 2.34743 75.1268 2.57207C71.2624 3.5043 67.6955 5.37342 64.7501 8.00966C60.9163 11.4388 57.1776 14.9708 53.5341 18.6056C49.5672 22.582 45.7824 26.7337 41.9092 30.8003C41.6686 31.0533 41.3523 31.2349 41.0626 31.4554C40.9221 31.6831 40.8092 32.1051 40.5951 32.1639C39.9561 32.3392 39.8433 32.8987 39.5472 33.3238C39.5376 33.3375 39.5238 33.3491 39.5121 33.3627C39.0478 33.8876 38.5792 34.4124 38.1213 34.9373C34.9733 38.5862 31.8232 42.234 28.671 45.8807C28.4112 46.1809 28.0118 46.3604 27.6976 46.6155C27.5778 46.7326 27.4835 46.8726 27.4208 47.027C27.3143 47.2432 27.2887 47.5099 27.1428 47.6894C25.4836 49.7385 23.751 51.7319 22.1504 53.824C19.8224 56.863 17.4253 59.861 15.5765 63.2285C14.9468 64.3972 14.3153 65.5635 13.682 66.7273L13.6702 66.7252ZM7.54685 8.71298C7.69488 8.8232 7.75986 8.87988 7.83441 8.92292C15.6319 13.9973 23.4311 19.0689 31.2322 24.1377C33.6027 25.6735 36.0244 27.1242 37.9945 29.1869C38.527 29.7422 39.117 30.2366 39.708 30.7877L51.0645 18.7935C50.8164 18.7116 50.6386 18.6434 50.4543 18.592C38.9892 15.4344 27.5233 12.2758 16.0568 9.11608C14.6021 8.71404 13.1729 8.21855 11.7182 7.81651C10.9184 7.59606 10.092 7.4722 9.26885 7.32839C9.11701 7.322 8.96884 7.37522 8.85676 7.47639C8.43824 7.86689 8.02398 8.27419 7.5586 8.71508L7.54685 8.71298ZM71.5667 59.883C71.3112 59.7476 71.1919 59.6574 71.0577 59.6185C70.7244 59.523 70.5189 59.3529 70.4188 58.995C68.1121 50.6153 65.799 42.2371 63.4796 33.8603C63.1314 32.6006 62.7735 31.3409 62.3976 30.0036C58.3168 33.7679 54.2987 37.4745 50.2573 41.1989C50.9197 41.8928 51.5427 42.5373 52.1551 43.1934C52.9005 43.9901 53.7577 44.7145 54.3509 45.6078C59.7949 53.8159 65.2126 62.0409 70.604 70.2827C71.112 71.0553 71.6456 71.8101 72.2206 72.6509C72.6647 72.1953 73.0779 71.8111 73.4336 71.3839C73.5009 71.2945 73.5491 71.1926 73.5753 71.0843C73.6015 70.9761 73.6051 70.8637 73.5859 70.754C73.228 69.3117 72.8404 67.8778 72.4528 66.4417C72.1514 65.3154 71.8468 64.189 71.5476 63.0732C72.0119 62.8401 72.0641 62.5651 71.768 62.0549L71.5881 62.5294C71.3122 61.7369 71.0353 60.9391 70.7595 60.1434L71.5667 59.883ZM21.4699 52.0101C20.1036 51.5986 18.8203 51.2133 17.5381 50.826C13.8094 49.7014 10.0803 48.5799 6.35093 47.4616C6.14752 47.4007 5.81849 47.3829 5.6907 47.4973C4.94524 48.1565 4.23173 48.8619 3.45432 49.6062C8.05273 52.4006 12.5532 55.1383 17.077 57.8885C18.5573 55.9255 19.9875 54.014 21.4816 52.0164L21.4699 52.0101ZM22.7553 63.4899L31.1342 76.8781C31.8594 76.1612 32.5112 75.4956 33.1885 74.8553C33.426 74.6307 33.4632 74.4354 33.3652 74.1205C32.0497 69.9216 30.7441 65.716 29.4484 61.5038C29.2131 60.7438 28.9735 59.9838 28.7157 59.1587L22.7553 63.4899ZM41.9348 14.561C44.1158 15.1646 46.1402 15.7262 48.1679 16.2805C48.2166 16.2923 48.2673 16.2937 48.3165 16.2844C48.3658 16.2752 48.4124 16.2556 48.4533 16.2269C48.8069 15.8847 49.1849 15.5551 49.4757 15.1646C49.7664 14.7741 49.7003 14.307 49.3606 13.9595C48.5002 13.0777 47.6226 12.2124 46.7281 11.3635C46.2702 10.9311 45.7185 10.9552 45.25 11.3814C44.8591 11.7362 44.4949 12.1162 44.1137 12.4857C43.4321 13.1554 42.7335 13.8178 41.9465 14.5673L41.9348 14.561ZM66.4486 38.4035C67.4965 37.3538 68.472 36.3943 69.4305 35.4233C70.0236 34.8229 70.0119 34.3033 69.4038 33.6965C68.7564 33.0509 68.1014 32.4117 67.4508 31.7682C66.3688 30.7006 66.0738 30.71 64.979 31.7682C64.7416 31.9991 64.7 32.2017 64.7873 32.503C65.1196 33.643 65.4263 34.7903 65.7458 35.9345C65.9737 36.726 66.2016 37.5091 66.4603 38.4098L66.4486 38.4035ZM28.5251 10.8607C30.3813 11.3709 32.1853 11.8128 33.9478 12.3776C34.7081 12.6201 35.165 12.4479 35.607 11.8706C35.9893 11.3719 36.0329 10.8639 35.5953 10.4104C34.7497 9.54263 33.8863 8.69164 33.0053 7.85746C32.5708 7.44702 32.0213 7.41657 31.6156 7.80392C30.6007 8.79067 29.606 9.8047 28.5368 10.867L28.5251 10.8607ZM70.1483 51.7854C71.0002 50.9456 71.7244 50.1521 72.522 49.4362C73.7275 48.3549 73.6934 47.8616 72.5465 46.8055C71.8596 46.1757 71.2185 45.4934 70.5423 44.8499C70.1759 44.5014 69.6988 44.368 69.2857 44.6725C68.9502 44.9202 68.4518 45.3905 68.5114 45.6519C68.9843 47.6705 69.5657 49.6639 70.1483 51.7854ZM38.7773 32.525C39.3097 32.8725 39.3097 32.8725 39.6878 32.5681C39.3555 32.1167 39.2128 32.1051 38.7773 32.5229V32.525Z" fill="#E84855" stroke="#E84855" stroke-width="0.4" stroke-miterlimit="10"/>
</svg>
