<svg width="71" height="78" viewBox="0 0 71 78" fill="none" xmlns="http://www.w3.org/2000/svg">
<g clip-path="url(#clip0_751_3873)" filter="url(#filter0_d_751_3873)">
<path d="M54.4851 9.86913C54.5249 12.1652 54.1595 14.4156 53.6244 16.6426C53.5362 17.0086 53.6099 17.1253 53.9976 17.2402C57.2533 18.1991 60.3734 19.4373 63.0844 21.4859C64.1361 22.2806 65.0443 23.1975 65.7179 24.3152C66.9266 26.3228 66.7298 28.56 65.2091 30.5079C63.9199 32.1569 62.2354 33.3399 60.4044 34.3531C58.4087 35.4567 56.2831 36.27 54.0887 36.9171C53.764 37.0105 53.6719 37.1114 53.7553 37.4624C54.2312 39.4775 54.5539 41.5103 54.5946 43.5869C54.6383 45.8279 54.4493 48.0222 53.4965 50.0933C52.6416 51.9505 51.2672 53.2522 49.097 53.5547C47.8854 53.7237 46.6864 53.579 45.5107 53.2494C42.8937 52.5155 40.644 51.1391 38.5097 49.5545C37.6151 48.8897 36.7718 48.1651 35.9508 47.4209C35.6659 47.1623 35.5418 47.2342 35.3053 47.4452C33.14 49.4005 30.7934 51.1111 28.095 52.3362C26.5529 53.0365 24.9487 53.5501 23.2273 53.5921C20.4833 53.6565 18.5748 52.4538 17.5086 50.0261C16.9494 48.7552 16.7003 47.42 16.5772 46.0492C16.3232 43.1985 16.771 40.4168 17.4262 37.6557C17.5115 37.3009 17.4718 37.1636 17.0773 37.0479C14.1453 36.1897 11.347 35.0478 8.84438 33.3128C7.6454 32.4809 6.55982 31.5387 5.7282 30.3454C4.08044 27.9905 4.14829 25.6598 5.94725 23.4048C7.14817 21.8996 8.70868 20.8034 10.3991 19.8678C12.5218 18.6922 14.7879 17.8462 17.1355 17.1982C17.4931 17.0992 17.5629 16.9787 17.4708 16.622C16.8437 14.1887 16.4657 11.717 16.52 9.2071C16.5617 7.29104 16.8011 5.39459 17.7228 3.64847C19.1079 1.02463 21.3275 0.277626 24.0328 0.640856C27.0259 1.0433 29.544 2.49342 31.9507 4.1499C33.1006 4.95108 34.1943 5.82448 35.2249 6.7644C35.4943 7.00625 35.6368 7.01558 35.9159 6.7644C38.0706 4.80352 40.3872 3.049 43.0711 1.79497C44.6791 1.04797 46.3511 0.487721 48.1665 0.495191C50.4288 0.501727 52.0717 1.50925 53.1349 3.41317C54.1459 5.22465 54.4512 7.193 54.4861 9.21737C54.488 9.43213 54.4851 9.6497 54.4851 9.86913ZM35.2326 36.6249C37.1159 36.6407 38.8412 36.6043 40.5636 36.5166C40.9852 36.4951 41.2905 36.3746 41.5076 36.0002C41.7742 35.5398 42.0979 35.1103 42.3906 34.664C43.9055 32.3514 45.2966 29.9657 46.5585 27.5161C46.7107 27.2211 46.7756 26.9689 46.606 26.6431C45.0425 23.6427 43.2894 20.7376 41.3564 17.9442C41.2469 17.7855 41.149 17.6594 40.9115 17.6492C39.8822 17.6071 38.8548 17.5128 37.8244 17.4895C35.2927 17.4316 32.762 17.4587 30.2341 17.6445C30.1239 17.648 30.0166 17.6788 29.9223 17.7339C29.8281 17.789 29.7502 17.8666 29.6962 17.9592C27.7419 20.7575 25.9852 23.6793 24.4379 26.7047C24.3755 26.8121 24.3428 26.9331 24.3428 27.0562C24.3428 27.1793 24.3755 27.3004 24.4379 27.4078C25.9904 30.4486 27.7556 33.3842 29.7214 36.1944C29.7797 36.2934 29.8643 36.3758 29.9664 36.4331C30.0686 36.4903 30.1847 36.5204 30.3029 36.5203C32.003 36.5847 33.6954 36.6547 35.2326 36.6249ZM7.20438 27.0324C7.25947 27.5136 7.4081 27.9805 7.64249 28.4088C8.20079 29.378 8.99267 30.1437 9.88827 30.8188C12.2882 32.6256 15.0457 33.7274 17.9206 34.5996C18.2113 34.6864 18.286 34.579 18.3616 34.3484C19.1556 31.9696 20.0893 29.6361 21.1579 27.3592C21.2071 27.2625 21.2321 27.156 21.2308 27.0483C21.2294 26.9406 21.2018 26.8348 21.1502 26.7392C20.0963 24.5408 19.1898 22.2796 18.4362 19.9695C18.3286 19.6352 18.1745 19.5652 17.843 19.667C16.3223 20.1339 14.8121 20.625 13.3718 21.2955C11.5777 22.1302 9.85435 23.0696 8.48284 24.4973C7.8092 25.2041 7.27999 25.995 7.20438 27.0324ZM19.1903 44.6579C19.1428 45.1015 19.232 45.7514 19.3057 46.3975C19.4181 47.3873 19.6352 48.3584 20.0966 49.2604C20.7004 50.4341 21.6329 51.0476 23.0267 51.0009C24.7364 50.9496 26.263 50.3473 27.7402 49.6003C29.8852 48.5209 31.7588 47.0792 33.5354 45.5077C33.7109 45.3517 33.7516 45.2453 33.5626 45.0576C33.1807 44.6794 32.8279 44.2742 32.4673 43.8764C31.1191 42.3908 29.8561 40.8389 28.661 39.2356C28.5515 39.0881 28.4536 38.9555 28.2132 38.934C25.6126 38.7535 23.0283 38.3974 20.4794 37.8686C20.1954 37.8098 20.1189 37.8892 20.0578 38.1385C19.547 40.2161 19.2116 42.3105 19.1903 44.6579ZM51.9631 43.9333C51.9049 43.2125 51.8555 42.3142 51.7557 41.4197C51.6243 40.2795 51.4188 39.1483 51.1402 38.033C51.0927 37.8397 51.0375 37.6856 50.7525 37.7528C48.2431 38.3308 45.69 38.653 43.1283 38.9051C42.757 38.9424 42.5641 39.0993 42.3693 39.372C40.99 41.3066 39.4812 43.1525 37.8525 44.8979C37.553 45.2154 37.6005 45.3723 37.8962 45.6374C39.7242 47.2734 41.6763 48.7515 43.8998 49.8515C45.344 50.5658 46.8454 51.1251 48.5222 51.0075C49.2899 50.9533 49.9179 50.6536 50.3909 50.0681C50.7165 49.6612 50.9793 49.2112 51.1712 48.7319C51.7809 47.2426 51.8923 45.6823 51.9631 43.9333ZM19.1903 9.69078C19.2556 11.7777 19.5388 13.853 20.0355 15.8853C20.147 16.3522 20.335 16.4017 20.7634 16.312C23.1848 15.799 25.6384 15.4393 28.1085 15.2354C28.1964 15.2356 28.283 15.2156 28.3612 15.1772C28.4394 15.1387 28.5069 15.0828 28.5583 15.0141C30.0394 12.978 31.6618 11.0407 33.4143 9.2155C33.6256 8.99794 33.5994 8.85694 33.3765 8.65525C32.3221 7.69143 31.1953 6.80383 30.0054 5.99966C28.157 4.75964 26.232 3.65874 23.9794 3.24229C21.881 2.85478 20.6045 3.4169 19.863 5.36284C19.3435 6.73826 19.2194 8.1725 19.1903 9.69078ZM48.1549 3.08915C47.2961 3.06581 46.5284 3.25256 45.786 3.51028C42.6417 4.60277 40.0896 6.55991 37.6645 8.70101C37.4416 8.89803 37.5327 9.02595 37.6975 9.19776C39.2995 10.8814 40.7888 12.6617 42.1561 14.5276C42.4885 14.9805 42.8103 15.34 43.4559 15.2746C43.7214 15.2475 43.9987 15.3157 44.27 15.3503C46.3753 15.6192 48.4757 15.9189 50.546 16.3774C50.8824 16.4511 50.9502 16.3559 51.0161 16.0711C51.5899 13.5799 51.9495 11.0718 51.7731 8.50772C51.7014 7.46565 51.5337 6.44133 51.1712 5.45622C50.5615 3.80814 49.6175 3.08915 48.1549 3.08915ZM63.8327 26.9736C63.807 26.5877 63.7064 26.2098 63.5361 25.8596C63.0515 24.9259 62.3061 24.1892 61.4648 23.5561C58.9874 21.6886 56.1338 20.5681 53.1563 19.6913C52.817 19.5914 52.7579 19.7099 52.6716 19.9714C51.923 22.2348 51.0236 24.4492 49.979 26.601C49.909 26.7284 49.8731 26.8707 49.8747 27.0148C49.8762 27.159 49.9151 27.3005 49.9877 27.4265C51.0618 29.5816 51.984 31.804 52.7482 34.0785C52.8926 34.5183 53.0593 34.5305 53.4519 34.4063C54.8492 33.9783 56.2153 33.4611 57.5412 32.8581C59.408 31.9851 61.1857 30.985 62.6027 29.4873C63.2754 28.7748 63.7959 27.9839 63.8327 26.9736ZM44.6151 36.1431C46.5042 35.9367 48.2402 35.6248 49.9732 35.2952C50.295 35.2345 50.2892 35.086 50.2019 34.8386C49.676 33.3384 49.0873 31.8612 48.4359 30.407C48.3904 30.3071 48.3904 30.1521 48.1985 30.1353C47.1061 32.1503 45.9159 34.1177 44.6141 36.1431H44.6151ZM22.8503 30.1316C22.1344 31.7347 21.5032 33.3718 20.9592 35.0366C20.8778 35.2803 21.0222 35.3634 21.25 35.4017C22.1369 35.5501 23.0199 35.7173 23.9068 35.8629C24.7576 36.0116 25.617 36.111 26.4802 36.1608C25.1716 34.1756 23.9959 32.2082 22.8503 30.1316ZM39.2444 39.1535C38.8712 39.1787 38.6493 39.2048 38.4263 39.2058C36.4607 39.2058 34.496 39.2058 32.5303 39.2114C32.3936 39.2114 32.2075 39.1367 32.1329 39.2823C32.0583 39.428 32.2298 39.5307 32.3132 39.6334C33.2825 40.8473 34.3215 42.0154 35.3693 43.1714C35.5689 43.3908 35.6911 43.3964 35.883 43.1714C36.4238 42.5365 36.9957 41.9248 37.5307 41.2862C38.0929 40.6139 38.6318 39.9219 39.2444 39.1525V39.1535ZM26.4191 18.0451C26.2577 18.035 26.0958 18.035 25.9345 18.0451C24.5048 18.2561 23.0732 18.4578 21.66 18.7585C20.8904 18.9228 20.8846 18.9303 21.1347 19.6539C21.6377 21.104 22.1834 22.5383 22.8415 24.0183C23.9639 21.9668 25.1203 20.0209 26.4191 18.0451ZM48.2276 24.0155C48.9438 22.4141 49.5496 20.865 50.0808 19.2879C50.1632 19.0423 50.0866 18.9144 49.8104 18.8668C48.6259 18.6585 47.4473 18.4158 46.259 18.2318C45.753 18.1543 45.2432 18.0152 44.65 18.0665C45.9285 20.0218 47.0974 21.9612 48.2324 24.0155H48.2276ZM39.0195 14.9712C39.0544 14.7601 38.9507 14.691 38.8867 14.6098C37.931 13.3959 36.9153 12.2315 35.882 11.0839C35.6213 10.7954 35.4759 10.8636 35.2481 11.1064C34.3506 12.0634 33.4812 13.043 32.6573 14.0598C32.4373 14.3315 32.1726 14.5762 32.003 14.973C34.3394 14.8288 36.683 14.8282 39.0195 14.9712Z" fill="white"/>
<path d="M23.7792 69.0018C23.155 69.0018 22.5317 69.0018 21.9095 69.0018C21.7282 69.0018 21.6691 68.8702 21.5867 68.7572C21.0216 67.9812 20.4439 67.2137 19.8953 66.4228C19.8296 66.3086 19.7298 66.2159 19.6089 66.1568C19.4879 66.0977 19.3514 66.0749 19.2169 66.0913C18.6525 66.1189 18.087 66.1189 17.5226 66.0913C17.0961 66.068 16.9197 66.1688 16.9488 66.6208C16.9914 67.2875 16.9488 67.9579 16.9643 68.6265C16.9711 68.9066 16.8945 69.0224 16.5863 69.0065C16.1666 68.9845 15.7459 68.9845 15.3262 69.0065C15.02 69.0214 14.9453 68.9038 14.9453 68.6265C14.9531 65.5469 14.9531 62.4671 14.9453 59.387C14.9453 59.0751 15.0558 58.992 15.3679 58.9957C16.8693 59.0125 18.3726 58.9901 19.8721 59.0191C21.705 59.0527 23.2093 60.0695 23.565 61.6196C23.9333 63.2275 23.5466 64.7075 21.8736 65.5413C21.4966 65.7281 21.6177 65.8887 21.7767 66.11C22.3809 66.9354 22.9828 67.7624 23.5824 68.591C23.6697 68.7077 23.7947 68.8001 23.7792 69.0018ZM16.9527 62.5496V64.1781C16.9527 64.3527 16.9371 64.5385 17.2076 64.5282C18.1701 64.4927 19.1393 64.6216 20.097 64.4404C21.1137 64.2453 21.7321 63.5188 21.7205 62.5374C21.7079 61.5757 21.0953 60.8856 20.0814 60.6942C19.1403 60.5159 18.1875 60.6419 17.2405 60.6008C16.9914 60.5906 16.9498 60.7204 16.9498 60.9202C16.9575 61.4636 16.9536 62.0071 16.9527 62.5496Z" fill="white"/>
<path d="M29.9309 65.7477C29.0431 65.7477 28.1543 65.7673 27.2674 65.7393C26.8477 65.7262 26.8535 65.8887 26.9824 66.1688C27.3469 66.9653 28.0031 67.3893 28.8754 67.5162C29.7904 67.6498 30.6385 67.5041 31.3519 66.8888C31.4905 66.7692 31.5923 66.7692 31.7105 66.9112C31.8627 67.0923 32.0352 67.2576 32.1874 67.4378C32.5751 67.9047 32.5867 67.928 32.0837 68.3025C30.938 69.1578 29.6198 69.2455 28.2638 69.0028C26.5618 68.6974 25.4248 67.7413 25.072 66.0876C24.4313 63.0884 26.808 60.952 29.7245 61.3096C31.4856 61.5234 33.2216 63.0314 33.0781 65.3677C33.0588 65.6777 32.9512 65.7589 32.6449 65.7533C31.7396 65.7365 30.8353 65.7477 29.9309 65.7477ZM28.9946 64.5422C29.6082 64.5422 30.2217 64.5273 30.8362 64.5469C31.2094 64.559 31.2918 64.4218 31.1823 64.1015C30.8915 63.2425 30.0095 62.7093 28.9307 62.7448C28.4763 62.7598 28.0384 62.9121 27.679 63.1803C27.3196 63.4484 27.0569 63.8188 26.9282 64.2388C26.8622 64.4703 26.9039 64.5469 27.155 64.5441C27.7675 64.5357 28.3811 64.5422 28.9946 64.5422Z" fill="white"/>
<path d="M39.4348 68.2734C38.2591 69.265 36.9516 69.3005 35.6198 68.8878C34.1931 68.4461 33.6212 66.9465 34.3336 65.7055C34.6544 65.1453 35.1972 64.8885 35.7962 64.712C36.7752 64.4226 37.7822 64.5561 38.7786 64.5337C39.4135 64.5187 39.4746 64.4478 39.2827 63.8576C39.0907 63.2675 38.6265 62.9295 38.011 62.8539C37.0795 62.7399 36.1694 62.8483 35.3591 63.3515C35.1003 63.5122 34.9258 63.5383 34.8173 63.218C34.8117 63.2033 34.8046 63.1892 34.7959 63.176C34.2144 62.1209 34.1998 62.0928 35.3533 61.6624C36.4996 61.2175 37.7623 61.1322 38.9618 61.4187C40.4642 61.7838 41.2522 62.8081 41.2716 64.4067C41.289 65.8073 41.2716 67.2079 41.2803 68.6086C41.2803 68.9008 41.2125 69.0474 40.879 69.0147C40.6531 69.002 40.4266 69.0004 40.2005 69.0101C39.4872 69.0045 39.4872 69.0045 39.4348 68.2734ZM38.1467 65.7373C37.633 65.7373 37.1154 65.7027 36.6133 65.8549C36.2256 65.9726 35.9658 66.2098 35.9135 66.6019C35.8872 66.7639 35.907 66.9298 35.9706 67.0818C36.0343 67.2339 36.1395 67.3665 36.275 67.4657C37.1222 68.1081 38.8116 67.7374 39.2797 66.812C39.3527 66.6642 39.3944 66.5038 39.4024 66.3403C39.4104 66.1768 39.3845 66.0134 39.3263 65.8596C39.2293 65.5963 38.8707 65.7709 38.6303 65.7392C38.4693 65.7282 38.3078 65.7276 38.1467 65.7373Z" fill="white"/>
<path d="M46.8421 69.0979C45.0857 69.0979 43.5466 67.9652 43.0929 66.0165C42.9705 65.4958 42.9618 64.9562 43.0672 64.432C43.1727 63.9079 43.39 63.4105 43.7055 62.9716C44.021 62.5326 44.4278 62.1616 44.9 61.8821C45.3722 61.6025 45.8995 61.4206 46.4485 61.3477C47.6456 61.1834 48.7602 61.3076 49.7712 61.9873C49.8515 62.0392 49.9286 62.0956 50.0019 62.1564C50.8141 62.8483 50.7908 63.0061 49.9049 63.5439C49.4988 63.7923 49.2526 63.8735 48.8387 63.4505C47.6485 62.2367 45.4735 62.8361 45.0247 64.4553C44.637 65.8559 45.2903 67.1435 46.6056 67.4563C47.5205 67.6739 48.3774 67.5329 49.0122 66.7756C49.1877 66.5665 49.3495 66.5188 49.5851 66.6692C49.7967 66.8111 50.0201 66.936 50.2529 67.0427C50.6658 67.2173 50.7085 67.4059 50.4206 67.7598C49.6219 68.7542 48.546 69.1184 46.8421 69.0979Z" fill="white"/>
<path d="M52.633 65.0323C52.633 64.4253 52.6243 63.8184 52.633 63.2124C52.633 62.9649 52.5778 62.8566 52.288 62.8464C51.2567 62.8099 51.2722 62.7987 51.2838 61.8127C51.2838 61.4915 51.4127 61.4271 51.7132 61.4261C52.6292 61.4261 52.6292 61.4112 52.6292 60.5073C52.6292 59.6763 52.6292 59.6763 53.5015 59.6763C54.4853 59.6763 54.4814 59.6763 54.4863 60.6324C54.4863 61.5307 54.3816 61.4243 55.3111 61.4317H55.5534C56.7039 61.4317 56.6952 61.4317 56.6196 62.5438C56.6031 62.7969 56.5004 62.8604 56.2649 62.8548C55.7967 62.8454 55.3286 62.8548 54.8604 62.8548C54.6414 62.8548 54.4795 62.8893 54.4814 63.1526C54.4892 64.2731 54.4388 65.3936 54.5105 66.5141C54.5735 67.4843 55.2665 67.8662 56.2067 67.4946C56.5944 67.3424 56.701 67.4012 56.8367 67.7663C57.1983 68.7327 57.1731 68.8495 56.0972 69.0437C54.8158 69.2752 53.5335 68.9923 52.9733 68.01C52.7468 67.6143 52.6288 67.1695 52.6301 66.7177C52.6311 66.1518 52.633 65.5916 52.633 65.0323Z" fill="white"/>
<path d="M35.478 32.3265C32.702 32.433 29.9367 30.1042 29.9532 26.9939C29.9687 24.0189 32.4248 21.6855 35.5488 21.6715C38.2695 21.6574 41.0406 23.7724 41.0455 26.9985C41.0552 30.1957 38.3218 32.4218 35.478 32.3265Z" fill="white"/>
</g>
<defs>
<filter id="filter0_d_751_3873" x="0.541016" y="0.492188" width="69.9629" height="76.644" filterUnits="userSpaceOnUse" color-interpolation-filters="sRGB">
<feFlood flood-opacity="0" result="BackgroundImageFix"/>
<feColorMatrix in="SourceAlpha" type="matrix" values="0 0 0 0 0 0 0 0 0 0 0 0 0 0 0 0 0 0 127 0" result="hardAlpha"/>
<feOffset dy="4"/>
<feGaussianBlur stdDeviation="2"/>
<feComposite in2="hardAlpha" operator="out"/>
<feColorMatrix type="matrix" values="0 0 0 0 0 0 0 0 0 0 0 0 0 0 0 0 0 0 0.25 0"/>
<feBlend mode="normal" in2="BackgroundImageFix" result="effect1_dropShadow_751_3873"/>
<feBlend mode="normal" in="SourceGraphic" in2="effect1_dropShadow_751_3873" result="shape"/>
</filter>
<clipPath id="clip0_751_3873">
<rect width="61.9632" height="68.6439" fill="white" transform="translate(4.54102 0.492188)"/>
</clipPath>
</defs>
</svg>
