<svg width="92" height="29" viewBox="0 0 92 29" fill="none" xmlns="http://www.w3.org/2000/svg">
<g clip-path="url(#clip0_751_3839)" filter="url(#filter0_d_751_3839)">
<path d="M53.8132 20.6524H48.5645V20.0606C48.5645 17.7253 48.5645 15.3901 48.5566 13.0537C48.5536 12.6446 48.5139 12.2364 48.4381 11.8337C48.3051 11.1155 47.9361 10.5494 47.1287 10.4167C46.2655 10.2797 45.4403 10.3728 44.8924 11.1412C44.3266 11.9279 44.2629 12.8397 44.2584 13.7526C44.2483 15.8567 44.2584 17.9608 44.2584 20.067V20.63H39.0723V6.78856H44.2483V8.55338C45.4246 6.98441 47.0214 6.34549 48.9603 6.39258C50.9261 6.44181 52.4524 7.16851 53.2496 9.10457C53.8535 8.10711 54.5915 7.38254 55.5867 6.92341C57.6441 5.97839 60.3948 6.27165 61.8239 7.60731C62.8738 8.59086 63.2641 9.86656 63.292 11.199C63.3569 14.3027 63.3188 17.4064 63.3211 20.5101C63.3117 20.5564 63.2971 20.6016 63.2775 20.6449H58.0902C58.0902 20.4587 58.0902 20.2704 58.0902 20.0809C58.0835 17.603 58.0761 15.125 58.0679 12.647C58.064 12.4159 58.0382 12.1856 57.9907 11.9589C57.7872 10.9261 57.3265 10.4606 56.4689 10.3867C55.3026 10.2915 54.4975 10.6896 54.1643 11.6571C53.9554 12.2637 53.8423 12.8968 53.8289 13.5353C53.7909 15.8834 53.8132 18.2358 53.8132 20.6524Z" fill="white"/>
<path d="M4.53906 4.86942V0.899913C4.6397 0.890281 4.72691 0.873157 4.81525 0.873157C8.16979 0.873157 11.5243 0.849615 14.8789 0.889213C16.5293 0.908478 18.1339 1.20386 19.5652 2.07503C21.1753 3.0543 22.033 4.4884 22.1537 6.27677C22.2226 7.15945 22.1471 8.04701 21.9301 8.90742C21.475 10.5963 20.2316 11.6141 18.4973 12.0957L18.1439 12.1952C18.2015 12.24 18.2637 12.2791 18.3296 12.3119C20.4004 12.847 21.3207 14.2586 21.4728 16.1915C21.5846 17.541 21.5846 18.8981 21.6248 20.2519C21.6218 20.3451 21.6132 20.438 21.5991 20.5302H16.1368C16.1368 19.3979 16.1502 18.2827 16.1301 17.1654C16.1229 16.7559 16.0746 16.3481 15.9859 15.9474C15.6929 14.6246 14.8755 14.0521 13.2463 14.0446C10.5627 14.0328 7.87906 14.0446 5.19543 14.0446H4.54576V9.97123H5.14176C7.80638 9.97123 10.471 9.98195 13.1356 9.96376C13.731 9.96345 14.325 9.90753 14.9091 9.7968C16.1972 9.54529 16.7932 8.84215 16.8513 7.61031C16.9072 6.40415 16.309 5.49122 15.1349 5.15516C14.5296 4.98323 13.9023 4.89246 13.2709 4.88546C10.5873 4.85657 7.90366 4.87263 5.22003 4.87263L4.53906 4.86942Z" fill="white"/>
<path d="M37.8284 14.297H27.8051C27.6698 15.2849 28.4033 16.2973 29.4678 16.643C31.059 17.1599 32.4276 16.75 33.4452 15.4775C33.4976 15.4248 33.561 15.3831 33.6313 15.3553C33.7016 15.3275 33.7772 15.3141 33.8533 15.3159C35.1314 15.4112 36.4072 15.53 37.7367 15.637C37.3118 17.3622 36.4396 18.7642 34.8451 19.5637C31.8663 21.0556 28.8137 21.0342 25.884 19.4567C23.802 18.3329 22.8213 16.46 22.6279 14.2125C22.468 12.3492 22.8247 10.5737 23.9921 9.04002C25.7812 6.6855 28.2657 5.7223 31.239 5.97059C35.2846 6.30772 37.7412 8.89448 37.8262 12.7891C37.8407 13.2653 37.8284 13.7427 37.8284 14.297ZM32.7966 11.8537C32.8078 10.5491 31.8372 9.59762 30.4954 9.54839C29.0004 9.49488 27.9392 10.3949 27.8118 11.8537H32.7966Z" fill="white"/>
<path d="M82.1021 13.4433L87.7736 20.7134C87.532 20.7316 87.38 20.754 87.2268 20.754C85.6434 20.754 84.059 20.7465 82.4756 20.7626C82.3309 20.7735 82.1858 20.7456 82.0567 20.6821C81.9275 20.6186 81.8194 20.5219 81.7443 20.403C80.9035 19.2707 80.0358 18.1555 79.1323 16.9782C78.7007 17.5337 78.2936 18.0485 77.8911 18.5761C77.4058 19.2076 76.9317 19.8475 76.4375 20.4694C76.3379 20.5956 76.1568 20.7401 76.0103 20.7423C74.333 20.7615 72.6647 20.754 70.8398 20.754L76.5068 13.6573L71.3486 6.8752C71.5056 6.84958 71.6638 6.83172 71.8227 6.82169C73.4251 6.82169 75.0274 6.8281 76.6309 6.81312C76.7761 6.80145 76.9217 6.82969 77.0506 6.89453C77.1796 6.95938 77.2865 7.05813 77.3588 7.17916C78.0409 8.15414 78.7499 9.11305 79.4834 10.1287C80.2382 9.1152 80.946 8.13593 81.6929 7.18556C81.7738 7.08824 81.8741 7.00725 81.9879 6.94718C82.1017 6.88712 82.2268 6.8492 82.356 6.83561C83.8644 6.80458 85.3751 6.81955 86.8824 6.82169C86.9942 6.82169 87.0948 6.83989 87.3073 6.86023L82.1021 13.4433Z" fill="white"/>
<path d="M70.2569 20.7444H65.1133V6.89551H70.2569V20.7444Z" fill="white"/>
<path d="M70.3114 5.51162H68.0124C67.157 5.51162 66.3016 5.51162 65.4406 5.51162C65.1901 5.51162 65.0134 5.48166 65.0156 5.17129C65.0268 3.83777 65.0156 2.50426 65.0156 1.12793H70.3024L70.3114 5.51162Z" fill="white"/>
<path d="M4.50781 20.5229C4.50781 19.61 4.50781 18.7378 4.50781 17.8655C4.50781 17.7788 4.51788 17.6922 4.52683 17.5627C4.72363 17.5498 4.90253 17.5284 5.08592 17.5273C6.70578 17.5273 8.32602 17.5273 9.94664 17.5273C11.161 17.5273 11.4416 17.8099 11.4428 18.9925V20.5229H4.50781Z" fill="white"/>
</g>
<defs>
<filter id="filter0_d_751_3839" x="0.509766" y="0.865723" width="91.2637" height="27.897" filterUnits="userSpaceOnUse" color-interpolation-filters="sRGB">
<feFlood flood-opacity="0" result="BackgroundImageFix"/>
<feColorMatrix in="SourceAlpha" type="matrix" values="0 0 0 0 0 0 0 0 0 0 0 0 0 0 0 0 0 0 127 0" result="hardAlpha"/>
<feOffset dy="4"/>
<feGaussianBlur stdDeviation="2"/>
<feComposite in2="hardAlpha" operator="out"/>
<feColorMatrix type="matrix" values="0 0 0 0 0 0 0 0 0 0 0 0 0 0 0 0 0 0 0.25 0"/>
<feBlend mode="normal" in2="BackgroundImageFix" result="effect1_dropShadow_751_3839"/>
<feBlend mode="normal" in="SourceGraphic" in2="effect1_dropShadow_751_3839" result="shape"/>
</filter>
<clipPath id="clip0_751_3839">
<rect width="83.263" height="19.8968" fill="white" transform="translate(4.50977 0.865723)"/>
</clipPath>
</defs>
</svg>
