<svg width="72" height="80" viewBox="0 0 72 80" fill="none" xmlns="http://www.w3.org/2000/svg">
<g clip-path="url(#clip0_751_3881)" filter="url(#filter0_d_751_3881)">
<path d="M57.11 23.1753L53.6665 24.3202C53.0774 24.5808 52.6847 24.2155 52.2639 23.9215C51.8852 23.6586 51.5041 23.5406 51.1231 23.9215C50.5878 24.4516 49.9098 24.8682 49.5989 25.5788C48.5236 28.029 46.5295 29.9113 45.0661 32.1255C44.3835 33.159 44.0445 34.353 43.245 35.3064C41.7652 35.1237 40.3041 34.8876 39.0745 33.9921C39.0161 33.2081 39.7758 32.8784 40.1919 32.4329C41.3599 31.1434 42.3904 29.7466 43.2684 28.2629C44.3203 26.5299 45.7837 25.0887 46.7749 23.3312C47.4482 22.1261 47.4505 22.1261 46.0082 21.7719C45.591 21.7672 45.1845 21.6456 44.8393 21.4222C44.4827 21.0909 44.0237 20.8777 43.5302 20.8141C41.673 20.4381 39.8421 19.9523 38.0483 19.3595C34.2541 18.1834 30.4179 17.132 26.5934 16.0182C25.2586 15.6284 23.9144 15.2764 22.5772 14.9044C21.3429 14.5503 21.0227 14.1315 21.0881 13.1692C21.1306 13.0899 21.1893 13.0195 21.2608 12.9621C21.3322 12.9047 21.415 12.8615 21.5042 12.8351C21.6879 12.8136 21.8742 12.839 22.0442 12.9086C25.102 13.9778 28.2532 14.7663 31.3624 15.6774C32.737 16.0783 34.0928 16.535 35.4464 16.9827C38.0179 17.8292 40.6758 18.3193 43.245 19.1769C45.2344 19.8451 47.3009 20.3218 49.3231 20.9589C50.1857 21.2329 51.1114 21.2774 52.0208 21.3286C53.7016 21.7229 55.2936 22.3511 56.9604 22.8255C57.0272 22.8548 57.0799 22.9073 57.1077 22.9722C57.1355 23.0372 57.1363 23.1098 57.11 23.1753Z" fill="white"/>
<path d="M45.6568 1.16064C47.6664 1.56543 49.6254 2.17172 51.5011 2.9694C52.67 3.77354 52.7144 4.04083 51.9897 5.21474C50.3267 7.96769 48.8297 10.8087 47.506 13.7239C47.3634 14.0335 47.2348 14.3409 46.8841 14.4924C45.2314 14.4924 43.8264 13.8241 42.4986 12.9732C41.657 11.4006 42.1362 9.94824 43.0643 8.61395C43.4336 8.07711 43.7656 7.59374 43.8778 6.94776C43.9829 6.24513 44.2895 5.58376 44.7638 5.03652C45.3669 4.35267 45.3927 3.46166 45.8228 2.72435C46.1431 2.16969 45.2805 1.72198 45.6568 1.16064Z" fill="white"/>
<path d="M60.6423 22.0615C60.2211 22.3361 59.7264 22.4906 59.2163 22.507C57.0937 22.9035 55.2703 21.9256 53.3977 21.2863C51.2938 20.5646 49.0543 20.2705 46.9947 19.4642C44.6313 18.5397 42.1229 18.1277 39.7151 17.3369C37.6322 16.6686 35.5072 15.8667 33.2396 15.8155C32.2657 15.1997 31.1344 14.8478 29.9668 14.7975C29.0037 14.753 28.1574 14.421 27.3275 14.0424C26.6058 13.6903 25.8432 13.4204 25.0553 13.2382C24.1973 13.06 23.5568 12.6257 23.6106 11.6545C24.0173 10.8726 24.9174 11.1577 25.5368 10.8414C25.8281 10.7461 26.1392 10.7186 26.4439 10.7612C31.1193 12.6569 36.094 13.686 40.8933 15.2319C43.203 15.9759 45.5033 17.0139 48.035 17.0874C48.1461 17.1098 48.2531 17.1473 48.3529 17.1988C49.7416 17.7579 51.1582 18.2435 52.6707 18.3682C53.372 18.444 54.0242 18.7113 54.6788 18.9318C54.849 19.0082 55.0397 19.0328 55.2251 19.0021C55.4104 18.9714 55.5813 18.8869 55.7144 18.7603C56.8482 18.7202 57.5846 19.4865 58.4308 20.001C58.9877 20.3012 59.5227 20.6368 60.0322 21.0056C60.3945 21.2752 60.7756 21.5402 60.6423 22.0615Z" fill="white"/>
<path d="M45.6567 1.16055C46.5544 1.89118 46.2365 2.56833 45.9676 3.57072C45.5492 5.1144 43.8988 6.14576 44.1606 7.89882C44.1531 8.00993 44.1209 8.11826 44.0661 8.21658C44.0113 8.31491 43.9351 8.40096 43.8427 8.46905C42.3068 9.59841 42.5172 11.1755 42.599 12.7259C42.5175 12.8312 42.4042 12.9102 42.2743 12.9524C42.1443 12.9946 42.004 12.998 41.872 12.962C40.3618 12.5499 38.7628 12.4118 37.3742 11.6255C36.1703 10.5585 36.4134 9.41575 37.1404 8.21288C38.2882 6.31503 39.3566 4.37709 40.4132 2.43246C40.8551 1.62164 40.3735 0.962289 40.28 0.233887C41.7884 0.263765 43.2843 0.500848 44.7216 0.937793C44.9263 1.07353 45.1745 1.13658 45.423 1.11598L45.6567 1.16055Z" fill="white"/>
<path d="M58.2707 20.2907L55.7226 18.9319C55.1101 18.9096 54.6005 18.7092 54.3036 18.1612C54.1562 17.8371 54.0801 17.4876 54.0801 17.1343C54.0801 16.7811 54.1562 16.4315 54.3036 16.1074C54.846 14.811 55.2107 13.4188 56.1528 12.3073C57.6466 10.5386 58.0557 8.31554 58.9861 6.31299C60.2963 6.90922 61.5562 7.60106 62.7545 8.38234C62.9041 8.72984 63.3038 8.76772 63.5657 8.9771C64.115 9.42261 64.2459 9.90821 63.8953 10.5364C62.4272 13.2228 60.9147 15.8824 59.6734 18.6869C59.3905 19.3173 59.2292 20.1593 58.2707 20.2907Z" fill="white"/>
<path d="M58.9772 6.31295C59.2671 6.93888 58.9562 7.45567 58.7949 8.06824C58.0398 10.8994 55.8003 13.0089 54.8465 15.7309C54.5698 16.4784 54.4615 17.2731 54.5286 18.0632C53.9512 18.4552 53.5187 18.0097 53.0605 17.8115C52.4004 17.5189 51.7657 17.177 51.1623 16.789C50.9244 16.634 50.7204 16.4366 50.5615 16.2076C49.6708 15.2208 49.9466 14.2474 50.6246 13.294C52.261 10.9908 53.0815 8.30657 54.4561 5.88302C54.7577 5.3551 54.4117 4.76926 54.7717 4.30371C56.2275 4.86554 57.6339 5.53743 58.9772 6.31295Z" fill="white"/>
<path d="M33.0374 0.48541C33.6802 0.211424 34.3605 0.200291 35.0431 0.211429C35.7257 0.222566 36.4247 0.146827 37.1143 0.124552C37.804 0.102276 38.0003 0.447543 37.9325 1.01556C37.8636 1.72227 37.5369 2.38359 37.0092 2.88446C36.5793 3.26502 36.3212 3.78966 36.2891 4.34794C36.2272 4.94038 35.974 5.49996 35.5644 5.94954C34.8906 6.764 34.4119 7.709 34.1618 8.71835C34.0099 9.31755 33.6686 9.8789 34.5055 10.3222C34.8982 10.5293 34.6597 10.8434 34.3138 10.9593C33.9846 11.072 33.6424 11.1468 33.2945 11.182C31.6581 11.2221 30.0498 10.9593 28.4227 11.0461C27.0411 10.9615 26.7746 10.6474 27.4268 9.48686C28.7734 7.10118 29.8394 4.5863 31.1672 2.19393C31.5973 1.40762 32.128 0.770534 33.0374 0.48541Z" fill="white"/>
<path d="M18.3125 16.938C18.4995 15.8599 19.1517 15.029 19.8858 14.2427C21.4567 15.5948 23.556 15.6661 25.4285 16.2653C27.8878 17.0494 30.3611 17.8401 32.8484 18.4928C35.3357 19.1455 37.8324 19.8561 40.3151 20.5711C40.7593 20.6981 41.2502 20.7248 41.5237 21.1525C41.5454 21.2624 41.5255 21.376 41.4676 21.4732C41.159 21.7829 40.7406 21.8341 40.3338 21.9187C39.927 22.0034 39.5296 21.9633 39.1649 22.1415C38.6202 22.3219 38.0405 22.391 37.5285 22.6316C37.1317 22.7782 36.708 22.8479 36.2825 22.8365C34.1318 22.3509 32.0746 21.5534 29.9333 21.0389C26.8171 20.2882 23.8272 19.1477 20.6993 18.4304C19.7689 18.221 18.6071 18.1453 18.3125 16.938Z" fill="white"/>
<path d="M50.7597 46.7669L50.4909 47.2124C49.7124 48.246 48.5646 48.1034 47.6459 47.7114C45.729 46.905 43.6063 46.8783 41.7057 46.1387C38.274 44.8022 34.5921 44.3567 31.0785 43.292C28.4345 42.4878 25.69 41.8931 22.9666 41.2872C21.412 40.9464 19.972 40.2514 18.4314 39.8504C18.1457 39.7775 17.8873 39.6294 17.686 39.4229C17.4846 39.2164 17.3484 38.9601 17.293 38.6832C17.5267 38.015 18.1813 37.9905 18.7307 37.7922C19.1982 37.7543 19.6284 37.4581 20.1333 37.6051C21.7837 38.9928 23.9882 38.8481 25.9074 39.4918C29.2036 40.6056 32.6331 41.2738 35.9736 42.2383C38.9051 43.0848 41.8647 43.8399 44.878 44.4191C46.65 44.7599 48.3425 45.4772 50.1192 45.8603C50.6615 45.994 50.7223 46.3415 50.7597 46.7669Z" fill="white"/>
<path d="M58.2715 20.2907C59.6881 17.8182 60.7144 15.1674 62.1474 12.7015C62.5963 11.933 62.7646 10.9885 63.5197 10.3604C64.0059 9.95273 63.8095 9.48495 63.4191 9.10404C63.1854 8.88129 62.8067 8.76323 62.7459 8.38232C64.2514 9.15082 65.6283 10.1087 67.0356 11.0219C67.3886 11.2447 67.5873 11.4229 67.2927 11.884C65.1888 15.1585 63.1433 18.453 61.0744 21.743C61.0361 21.8271 60.9766 21.9008 60.9011 21.9575C60.8256 22.0143 60.7366 22.0523 60.6419 22.0683C60.0388 21.2485 58.9868 20.9746 58.2715 20.2907Z" fill="white"/>
<path d="M54.7712 4.30353C55.2808 4.93169 55.178 5.47743 54.7852 6.19469C53.8805 7.85197 53.1044 9.58054 52.368 11.318C52.0688 12.0241 51.5522 12.5587 51.1618 13.1869C50.5984 14.0957 49.9508 14.9912 50.769 16.0693C49.5628 16.3233 47.2625 15.2941 46.7949 14.2873C47.4261 12.3516 48.4921 10.5918 49.4061 8.78531C50.0327 7.54903 50.6194 6.23702 51.5101 5.13439C52.1366 4.36589 52.3377 3.68205 51.4844 2.96924C52.6201 3.31836 53.7202 3.76495 54.7712 4.30353Z" fill="white"/>
<path d="M33.4778 10.7234L34.3661 10.6699C33.3749 10.4004 32.9939 10.2244 33.5432 9.01263C34.1557 7.65161 34.5905 6.25495 35.6705 5.13673C35.8926 4.91398 35.8506 4.5754 35.8412 4.28137C35.8178 3.56633 36.0072 2.9671 36.7132 2.58842C36.9743 2.42348 37.167 2.17692 37.2579 1.8912C37.9054 0.365348 37.7418 0.138158 36.0516 0.378731C35.7058 0.419826 35.355 0.361656 35.044 0.211666C36.7778 -0.0785612 38.5522 -0.0702656 40.2829 0.236166C41.3738 1.04105 41.4673 1.94988 40.5634 2.96266C40.4418 3.10077 40.2618 3.25447 40.2571 3.40816C40.2174 4.48406 39.6049 5.22583 38.775 5.85845C38.6909 5.92304 38.5927 6.06116 38.6114 6.14135C38.8452 7.10587 38.0293 7.60483 37.5992 8.28646C36.975 9.27548 36.4607 10.3113 37.4799 11.376C36.4233 11.9173 34.109 11.5409 33.4778 10.7234Z" fill="white"/>
<path d="M17.3737 38.7681C19.9451 40.2004 22.8205 40.8019 25.6608 41.5325C28.8261 42.3478 32.0405 42.9848 35.1637 43.9828C36.525 44.4224 37.9385 44.6985 39.3716 44.8047C40.3744 44.8738 41.2137 45.6957 42.3054 45.9185C42.995 46.0544 43.7407 46.3016 44.4234 46.364C45.9756 46.5199 47.2941 47.3419 48.8346 47.549C49.5359 47.6448 49.9333 47.2349 50.4991 47.2238L49.8983 48.1705C49.571 48.3398 49.4635 48.7007 49.1853 48.9123C49.0956 48.9681 48.9957 49.0074 48.8907 49.0281C47.3642 48.9568 45.992 48.273 44.4935 48.0614C41.8682 47.6916 39.4464 46.6001 36.8912 45.992C34.3361 45.3839 31.8324 44.602 29.2235 44.132C27.0822 43.7466 25.039 42.7821 22.886 42.3144C20.6885 41.8377 18.5168 41.2785 16.3217 40.7952C15.4217 40.5947 14.919 40.216 14.9681 39.3027C15.1692 38.8862 15.5993 38.8238 15.9897 38.7035C16.4456 38.7236 16.9295 38.3739 17.3737 38.7681Z" fill="white"/>
<path d="M48.9289 48.7916H49.1627C49.2096 48.8056 49.2507 48.8334 49.2801 48.871C49.3095 48.9086 49.3256 48.9541 49.3263 49.0009C48.8842 49.6713 48.264 50.2185 47.5286 50.587C47.0868 50.7028 46.6754 50.8097 46.1751 50.6983C43.8233 50.1214 41.3991 49.7539 39.1152 48.9943C36.6676 48.1812 34.1358 47.7134 31.6579 47.0452C28.4061 46.1698 25.1801 45.1852 21.8558 44.5169C19.3919 44.0202 16.9817 43.2027 14.5505 42.5122C13.6878 42.2716 12.8673 41.8729 11.9042 41.8684C11.2029 41.8684 10.5015 41.5543 10.7353 40.6054C10.9691 40.2178 11.3945 40.1599 11.7873 40.0329C12.0193 39.9993 12.2544 39.9896 12.4886 40.004C16.3809 41.1021 20.3199 42.0422 24.2169 43.1225C27.9339 44.1628 31.6976 45.0337 35.4216 46.0628C38.505 46.9138 41.5674 47.885 44.7467 48.4196C45.4732 48.5504 46.1842 48.7496 46.8694 49.0143C47.6128 49.3017 48.2977 49.2972 48.9289 48.7916Z" fill="white"/>
<path d="M41.4535 21.1706C39.5834 21.0971 37.9867 20.0791 36.1983 19.7762C35.1253 19.5935 34.1832 19.0545 33.0074 19.0634C32.2079 19.0634 31.3967 18.3951 30.506 18.1278C28.3202 17.4929 26.1415 16.7623 23.9417 16.2389C22.5391 15.9025 21.2323 15.056 19.6964 15.2432C19.666 14.8778 20.2832 14.6506 19.8858 14.243C19.8858 13.8465 20.3019 13.6839 20.4562 13.372C20.7344 13.2272 20.9401 12.8352 21.3492 13.1337C21.1154 14.0982 21.9757 14.3633 22.5484 14.4546C25.6693 14.9513 28.5283 16.2901 31.6538 16.8648C33.4515 17.1945 35.303 17.9786 37.1241 18.5555C39.3776 19.275 41.6709 19.8786 43.9596 20.489C44.1658 20.5276 44.3612 20.607 44.5331 20.7221C44.7051 20.8372 44.8498 20.9855 44.9578 21.1572C44.724 21.4847 44.3219 21.4802 43.9829 21.6027C43.1086 21.6361 42.2273 21.6807 41.4535 21.1706Z" fill="white"/>
<path d="M50.7606 46.767C50.5268 46.1589 49.8255 46.1723 49.3977 46.0876C47.2143 45.6421 45.1571 44.7355 42.9713 44.3947C40.9609 44.0806 39.0977 43.3589 37.1504 42.9268C34.4667 42.3298 31.8695 41.4522 29.1624 40.922C27.4325 40.579 25.7517 39.8884 24.0194 39.4741C23.0236 39.238 22.037 38.9662 21.0318 38.768C20.4801 38.6588 20.2697 38.3514 20.1973 37.877C20.3656 37.035 21.0669 37.1686 21.6817 37.1396C23.7109 38.0819 25.8896 38.5408 28.0917 38.9529C28.3255 38.9952 28.5897 38.9529 28.7673 39.0932C30.6936 40.5767 33.209 40.207 35.3831 41.0022C37.8236 41.8932 40.4536 42.3142 43.004 42.9335C45.5077 43.5393 47.9296 44.4616 50.5315 44.7021C51.2772 44.769 51.1299 45.3414 51.0434 45.8159C51.0011 46.0864 50.9226 46.3507 50.8097 46.6022C50.8221 46.6309 50.8241 46.6628 50.8152 46.6928C50.8063 46.7227 50.787 46.7489 50.7606 46.767Z" fill="white"/>
<path d="M10.8366 40.7729C10.8804 40.9695 10.9875 41.1482 11.143 41.284C11.2985 41.4198 11.4946 41.5059 11.7039 41.5303C15.0422 42.056 18.1934 43.2299 21.4405 44.0741C22.6094 44.377 23.832 44.5063 25.0032 44.8448C26.3404 45.2324 27.7407 45.3794 29.0217 45.9965C29.9428 46.442 31.0649 46.2548 32.0397 46.6647C34.0011 47.4911 36.2336 47.4844 38.1832 48.224C41.0072 49.2932 44.0462 49.4981 46.8608 50.5184C47.0797 50.5677 47.3046 50.5887 47.5294 50.5807C47.2192 50.9104 46.8118 51.1432 46.3606 51.249C44.8574 51.1844 43.3543 51.0708 41.9329 50.5807C39.9272 49.8835 37.8209 49.5672 35.7684 49.0437C32.5236 47.6538 28.9563 47.3575 25.604 46.3262C23.6497 45.7269 21.7 45.0721 19.6849 44.6822C16.7978 44.1231 14.0744 42.9804 11.1616 42.5438C10.1751 42.3968 9.13477 42.4436 8.62515 41.381C8.62212 41.2647 8.66558 41.1517 8.74671 41.0647C9.4153 40.7462 10.0465 40.2428 10.8366 40.7729Z" fill="white"/>
<path d="M40.3384 52.826C38.0498 53.2047 35.7892 52.9374 33.5286 52.5743C27.9649 51.6833 22.7635 49.83 17.8379 47.2282C18.275 46.7003 18.268 46.7493 19.119 46.8495C21.6741 47.1547 24.0515 48.0925 26.5248 48.6895C29.6691 49.4491 32.7408 50.5049 35.9248 51.0729C37.0937 51.2823 38.1269 51.9038 39.3519 51.9149C39.7984 51.9305 40.5441 52.0018 40.3384 52.826Z" fill="white"/>
<path d="M40.3381 52.8258C40.208 52.578 39.9907 52.3816 39.7241 52.2709C39.4575 52.1601 39.1585 52.1421 38.8794 52.2199C38.4423 52.3135 38.2459 52.1153 37.9233 52.0284C36.5464 51.6519 35.1437 51.3601 33.7481 51.0483C31.9121 50.6593 30.1018 50.1669 28.327 49.5736C26.7403 49.0438 25.1172 48.6189 23.4692 48.3017C22.3798 48.079 21.4097 47.3907 20.2642 47.4998C19.4203 47.5778 18.6956 46.8694 17.8376 47.2392C15.7051 46.3115 13.6699 45.1927 11.7596 43.8979C11.7344 43.8727 11.7159 43.8423 11.7053 43.809C11.6948 43.7757 11.6925 43.7406 11.6988 43.7063C11.7128 43.6417 11.7268 43.6083 11.7432 43.6083C11.8363 43.5485 11.9444 43.5132 12.0564 43.5059C14.6139 44.8869 17.5244 45.2879 20.2875 46.0185C24.084 47.0276 27.8617 48.1436 31.7423 48.9143C33.7738 49.3197 35.7165 50.0459 37.6988 50.6696C38.7298 51.0082 39.714 51.5272 40.8618 51.4114C41.2498 51.447 41.6239 51.5628 42.0119 51.6096C42.3626 51.8056 42.8301 51.7165 43.1294 52.0328C43.164 52.0789 43.1807 52.1351 43.1764 52.1917C43.1721 52.2482 43.1472 52.3016 43.106 52.3424C42.6805 52.6164 42.1943 52.5652 41.7197 52.5964C41.4532 52.5563 41.1867 52.5118 40.9904 52.7546L40.3381 52.8258Z" fill="white"/>
<path d="M4.70497 62.5579C4.89666 61.1768 5.8972 60.493 7.16424 60.1967C7.84353 60.0204 8.55585 59.9925 9.24804 60.1151C9.94022 60.2378 10.5944 60.5078 11.1617 60.9051C11.5358 61.1635 11.316 61.4085 11.1477 61.6624C10.9794 61.9164 10.7596 62.1302 10.409 61.8629C10.0541 61.6009 9.64832 61.4085 9.21496 61.2969C8.78161 61.1852 8.32932 61.1565 7.88426 61.2125C6.88372 61.2993 6.18942 61.8072 5.93227 62.7094C5.6985 63.5581 6.2502 64.1394 6.95385 64.5204C7.79543 64.977 8.70246 65.3223 9.56742 65.741C11.295 66.5764 11.9986 67.8349 11.5872 69.3051C11.1758 70.7753 9.85262 71.5326 7.98712 71.5126C6.89407 71.5204 5.82466 71.2095 4.92238 70.6216C4.56704 70.3988 4.34729 70.1761 4.63951 69.7172C4.93172 69.2583 5.18186 69.3809 5.57459 69.6036C6.57514 70.1761 7.59204 70.7574 8.8474 70.3609C9.59079 70.1248 10.1799 69.7617 10.2944 68.942C10.409 68.1223 10.1682 67.4986 9.43885 67.0219C8.53181 66.4271 7.47283 66.1309 6.5167 65.6453C5.70551 65.231 4.99718 64.7409 4.726 63.8499C4.84446 63.4256 4.83718 62.9784 4.70497 62.5579Z" fill="white"/>
<path d="M12.0078 43.6683H11.774C11.2106 43.6416 10.8997 43.1025 10.3527 43.0423C9.72385 42.6592 9.08565 42.2872 8.46615 41.8885C8.23238 41.7392 7.88874 41.5789 8.24641 41.2202C8.33644 41.2115 8.42728 41.226 8.50949 41.262C8.5917 41.298 8.66229 41.3544 8.71395 41.4252C9.97164 42.1692 11.5753 41.8172 12.7372 42.3162C14.1398 42.9243 15.7435 42.7951 17.0152 43.7017C17.8123 44.2697 18.8854 43.9712 19.8345 44.2564C23.4299 45.3345 27.0627 46.3034 30.7119 47.1989C32.4628 47.6288 34.2418 47.9229 35.8408 48.776C35.233 49.3262 34.5738 49.1792 33.9426 48.8495C33.3114 48.5198 32.6568 48.404 31.9976 48.8116C30.796 48.9587 29.7277 48.4263 28.6243 48.1434C26.6933 47.66 24.767 47.1633 22.8314 46.6955C21.2792 46.3213 19.7293 45.878 18.1864 45.4369C16.1245 44.8578 14.0019 44.4613 12.0078 43.6683Z" fill="white"/>
<path d="M10.8377 40.7729L8.73378 41.2407C8.5491 40.8664 8.8039 40.5902 9.00495 40.3497C11.3286 37.4761 13.3952 34.4222 15.7376 31.5598C16.5511 30.5664 17.0186 29.359 17.8415 28.3722L21.3481 27.2808C21.7572 27.4211 21.6356 27.6661 21.4533 27.88C18.5428 31.2814 16.121 35.0081 13.4677 38.5855C12.9837 39.2404 12.5326 39.9376 11.7541 40.3408L10.8377 40.7729Z" fill="white"/>
<path d="M11.7773 40.3274C12.7545 38.5877 14.094 37.0819 15.2629 35.4669C16.4317 33.852 17.3481 32.0031 18.8185 30.5664C19.8284 29.5751 20.2352 28.1718 21.3713 27.2741L22.4794 26.9622C22.5319 26.831 22.6304 26.7212 22.7583 26.6514C22.8861 26.5815 23.0354 26.556 23.1807 26.5791C23.9358 27.0246 23.342 27.4701 23.134 27.8844C22.1989 29.7333 20.7051 31.2257 19.5432 32.9164C18.0868 35.0526 16.6117 37.1799 14.9099 39.1535C14.7836 39.3005 14.8 39.5077 14.6901 39.6636C14.1034 40.3987 13.2314 40.2383 12.4319 40.314L11.7773 40.3274Z" fill="white"/>
<path d="M52.4356 23.6206L53.6653 24.3178C53.6653 24.3713 53.6653 24.427 53.6653 24.4827C53.5975 25.7924 52.7045 26.7703 51.8863 27.6012C50.7618 28.764 50.0629 30.145 49.1745 31.4214C48.4423 32.5455 47.6504 33.6332 46.8017 34.6803C46.3085 35.255 46.3202 36.0925 45.6002 36.4935C45.237 36.5201 44.8741 36.4391 44.5611 36.2617C44.2481 36.0843 44.0003 35.819 43.8515 35.5022C43.7604 34.9676 43.9474 34.5065 44.2045 34.0321C45.4131 31.8045 47.0659 29.831 48.5457 27.7683C49.3241 26.6879 50.2569 25.7011 50.9395 24.545C51.0795 24.2777 51.2921 24.0509 51.5552 23.8884C51.8183 23.7258 52.1223 23.6333 52.4356 23.6206Z" fill="white"/>
<path d="M45.6461 36.3178C45.6461 35.5961 46.0085 35.086 46.441 34.4934C47.2709 33.3596 48.0633 32.1634 48.8745 31.0318C49.6857 29.9003 50.2187 28.5348 51.3876 27.5458C52.3484 26.7372 52.9281 25.5187 53.6762 24.4829C53.9497 24.5074 53.8819 24.8104 54.0619 24.9128C54.3532 25.0791 54.5897 25.3199 54.7445 25.6078C54.8544 26.4988 54.3261 27.1537 53.8095 27.7997C51.9954 30.0963 50.3029 32.4775 48.6361 34.8699C48.061 35.6918 47.549 36.5561 46.9015 37.3335C46.7901 37.3646 46.6731 37.3737 46.5578 37.3603C46.1067 37.1397 45.5293 37.0061 45.6461 36.3178Z" fill="white"/>
<path d="M18.3548 21.3932C17.9597 20.2794 17.6839 19.1656 18.0579 18.0073C18.1985 18.0559 18.3236 18.1382 18.421 18.2463C18.5185 18.3544 18.5851 18.4846 18.6143 18.6243C18.6143 19.3861 18.9392 19.8406 19.7598 20.0544C22.6726 20.8207 25.5222 21.803 28.4561 22.5047C29.219 22.6515 29.9617 22.8809 30.6699 23.1886C31.1094 23.4113 31.4858 23.6497 31.3151 24.2154C30.567 25.053 29.5408 25.2089 28.4748 25.2713C26.4153 24.3335 24.1804 23.9103 22.011 23.2955C21.0525 23.0237 20.0707 22.8277 19.187 22.3532C19.087 22.3061 18.9941 22.2462 18.9112 22.175C18.6961 21.9411 18.5745 21.6382 18.3548 21.3932Z" fill="white"/>
<path d="M18.3198 18.7202C18.231 18.4841 18.1445 18.248 18.058 18.0097C18.058 17.6354 18.0229 17.2523 18.3128 16.9404C19.0725 17.5127 19.97 17.8954 20.924 18.0542C22.5137 18.2769 24.0472 18.796 25.534 19.2771C28.3392 20.1882 31.2076 20.8987 34.0479 21.6962C34.8241 21.919 35.4506 22.5182 36.3109 22.5159C36.3494 22.5618 36.3704 22.6187 36.3704 22.6774C36.3704 22.7361 36.3494 22.7931 36.3109 22.8389C36.003 23.0801 35.6472 23.2597 35.2648 23.3668C34.8824 23.474 34.4813 23.5066 34.0854 23.4626C32.2292 23.0684 30.4362 22.4447 28.6244 21.9256C26.2867 21.2574 23.9654 20.5401 21.6464 19.8184C21.1031 19.6182 20.5322 19.4944 19.9515 19.4509C19.6389 19.4566 19.3291 19.3937 19.0462 19.267C18.7632 19.1403 18.5147 18.9532 18.3198 18.7202Z" fill="white"/>
<path d="M17.8576 28.3564C17.8389 29.8155 16.7682 30.8067 15.9874 31.8826C14.2902 34.2549 12.3149 36.4424 10.7673 38.9194C10.225 39.7904 9.22441 40.3138 8.73115 41.2338C8.72913 41.2989 8.72132 41.3637 8.70778 41.4276L8.24023 41.2227C10.5031 37.3616 12.7629 33.5006 15.0196 29.6395C15.6578 28.597 16.8944 28.744 17.8576 28.3564Z" fill="white"/>
<path d="M33.2715 15.6016C34.8752 15.3053 36.3105 15.9714 37.7833 16.3634C39.761 16.8891 41.6709 17.6999 43.672 18.0786C45.437 18.4172 46.9682 19.3171 48.7215 19.6379C49.7766 19.8232 50.8194 20.0672 51.8446 20.3685C53.3688 20.814 54.9421 21.215 56.3471 21.9055C57.1653 22.3087 57.9835 21.8275 58.7012 22.2886C58.8652 22.3775 59.0373 22.4521 59.2155 22.5114C58.5563 22.8403 57.8459 23.0659 57.1115 23.1796C55.3162 22.9057 53.647 22.2508 51.9686 21.6204C49.1165 20.9276 46.358 19.9141 43.513 19.2146C41.6265 18.7535 39.7446 18.1722 37.8838 17.5618C36.7991 17.2076 35.6209 17.0985 34.5479 16.6708C34.0125 16.4659 33.3089 16.3835 33.2715 15.6016Z" fill="white"/>
<path d="M33.0373 0.48584C31.4524 1.86914 30.8562 3.81155 29.9399 5.56239C29.2689 6.84322 28.6448 8.14631 27.9458 9.416C27.7985 9.67885 26.5923 10.552 28.1655 10.728C28.19 10.7829 28.1955 10.8438 28.1812 10.9019C28.1669 10.96 28.1336 11.0122 28.086 11.051C27.5764 11.4742 26.9943 10.7948 26.48 11.1513L25.5777 11.1646C24.5958 11.443 24.6636 10.9419 25.0096 10.3983C25.6852 9.31577 26.1574 8.14185 26.7395 7.01917C27.6279 5.30175 28.397 3.52864 29.4209 1.87582L29.678 1.65306C30.1339 1.33675 30.7183 1.2521 31.1695 0.920197C31.7467 0.6351 32.3872 0.486151 33.0373 0.48584Z" fill="white"/>
<path d="M56.8927 27.853C57.2607 28.2222 57.5048 28.6875 57.594 29.1895C58.099 30.9203 56.7945 32.0386 55.9576 33.2347C54.4218 35.4044 52.7783 37.5094 51.191 39.6522C50.838 40.1289 50.5669 40.7014 49.8141 40.7103C49.1923 40.5321 48.9468 40.1022 48.9258 39.5186C49.0909 38.9486 49.3703 38.4146 49.7487 37.946C51.8526 35.0257 53.7952 32.0074 56.0605 29.2007C56.4111 28.744 56.0207 27.9288 56.8927 27.853Z" fill="white"/>
<path d="M36.2508 71.4032C35.9212 71.1003 36.0428 70.706 36.0404 70.3496C36.0241 67.3447 36.0404 64.3353 35.989 61.3348C35.9726 60.6264 36.2438 60.466 36.882 60.4438C37.6768 60.4259 37.3612 60.994 37.3495 61.2991C37.2864 64.0011 37.5693 66.7098 37.1789 69.4051C37.062 70.2003 37.3799 70.5679 38.2753 70.5189C39.402 70.4676 40.5335 70.5189 41.6626 70.5055C42.1769 70.5055 42.6304 70.5389 42.5206 71.2116C40.8982 71.4567 39.2665 71.254 37.6394 71.3208C37.1789 71.3564 36.709 71.2718 36.2508 71.4032Z" fill="white"/>
<path d="M58.0391 30.526C58.4275 31.6832 58.4103 32.9295 57.99 34.0766C56.1782 37.2954 53.9036 40.2335 51.8161 43.2853C51.608 43.5882 51.4748 43.9669 51.0025 44.0025C50.9163 43.9894 50.8337 43.9595 50.7601 43.9147C50.6865 43.8698 50.6234 43.811 50.5747 43.7419C50.3238 43.2408 50.1852 42.6953 50.168 42.1403C50.5864 40.4117 52.134 39.3603 52.9919 37.8835C53.9691 36.2062 55.3133 34.7427 56.4377 33.1455C56.8912 32.504 57.3728 31.8692 57.464 31.0561C57.5014 30.7955 57.5855 30.4413 58.0391 30.526Z" fill="white"/>
<path d="M58.04 30.5261C57.666 32.9162 55.8753 34.5357 54.5077 36.3734C53.7784 37.3624 53.1238 38.4026 52.4412 39.4228C52.336 39.5788 52.2705 39.757 52.17 39.9151C51.6627 40.7193 50.6108 41.1091 50.3489 42.1003C50.2466 42.067 50.1543 42.0104 50.0801 41.9355C49.8074 41.6129 49.6678 41.2066 49.6874 40.7928C49.7225 40.6962 49.7838 40.6101 49.865 40.5433C51.0339 39.4563 51.7586 38.0529 52.7147 36.8144C54.1454 34.9611 55.4942 33.0521 56.8828 31.1699C57.3044 30.5797 57.553 29.893 57.6029 29.1807C57.9017 29.5703 58.0555 30.0438 58.04 30.5261Z" fill="white"/>
<path d="M32.105 48.5688C32.299 48.4463 31.6561 47.7513 32.6613 48.0631C33.6665 48.375 34.6531 49.1123 35.843 48.7916C36.3947 48.5042 36.9581 48.8361 37.3882 48.9742C39.1368 49.5289 40.9883 49.7138 42.7018 50.4355C43.6603 50.8387 44.8642 50.5201 45.8647 51.0146L46.3674 51.2596C45.9004 51.6273 45.3324 51.8593 44.731 51.9279C44.2354 51.7564 43.7959 52.2019 43.3026 52.0527C41.8392 51.7208 40.481 50.9033 38.8843 51.1617C38.5196 51.0659 38.2298 50.7807 37.83 50.7718C36.245 50.235 34.7092 49.5556 33.0213 49.3083C32.6052 49.2526 32.0792 49.1769 32.105 48.5688Z" fill="white"/>
<path d="M56.8912 27.8528C56.8912 28.7193 56.4049 29.3831 55.8906 30.0514C54.9556 31.2609 53.8802 32.4282 53.1345 33.7001C52.0241 35.5957 50.591 37.2641 49.4432 39.1174C49.3542 39.237 49.2523 39.3475 49.1393 39.4471C48.77 39.6699 48.611 39.4471 48.4824 39.1598C48.4357 37.8411 49.2398 36.861 49.9552 35.8541C51.7809 33.2858 53.7119 30.7842 55.5657 28.2315C55.8252 27.8773 55.9678 27.4964 55.5073 27.1623C55.1057 26.7011 54.7787 26.1853 54.5371 25.632L54.0696 24.9214C55.3974 25.5607 56.1922 26.6566 56.8912 27.8528Z" fill="white"/>
<path d="M49.9979 65.9216C49.9979 67.443 49.9979 68.9644 49.9979 70.4858C49.9979 70.8979 50.1546 71.4414 49.3901 71.4347C48.7122 71.4347 48.8221 70.9447 48.8197 70.5571C48.8197 67.5143 48.8197 64.47 48.8197 61.4242C48.8197 61.275 48.8431 61.128 48.8454 60.9787C48.8454 60.6 48.96 60.3305 49.4392 60.3416C49.9185 60.3528 49.9909 60.6535 49.9909 61.0099C49.994 62.6538 49.9964 64.2911 49.9979 65.9216Z" fill="white"/>
<path d="M21.35 13.1511L20.457 13.3894C21.9578 10.5516 23.8257 7.91639 25.4387 5.14757C26.3871 3.46998 27.9174 2.15827 29.7681 1.43652C29.8005 1.45858 29.8268 1.48766 29.845 1.52136C29.8632 1.55506 29.8727 1.59242 29.8727 1.63032C29.8727 1.66821 29.8632 1.70554 29.845 1.73925C29.8268 1.77295 29.8005 1.80205 29.7681 1.82411C29.2024 2.32085 28.6507 2.83095 28.0499 3.29427C27.4491 3.7576 27.0915 4.38576 26.7759 5.0763C25.8408 7.17018 24.9524 9.29301 23.7181 11.2555C23.6468 11.3407 23.5952 11.4393 23.5666 11.5449C23.538 11.6504 23.5331 11.7605 23.5522 11.868C23.4493 12.4294 22.9023 12.5007 22.5049 12.739C22.23 12.9018 21.905 12.9702 21.5838 12.9328L21.35 13.1511Z" fill="white"/>
<path d="M51.0032 43.8912C52.1346 41.9376 53.6144 40.1979 54.809 38.2912C55.6926 36.8811 57.2332 35.8832 57.6025 34.1636C57.6423 33.9809 57.8363 34.0232 57.9906 34.0767C57.9088 34.3977 57.7961 34.7109 57.654 35.0123C55.3786 38.8807 53.0946 42.7418 50.8021 46.5954C50.8021 46.2858 50.8021 45.9761 50.8021 45.6665C51.2416 45.1208 50.3977 44.4347 51.0032 43.8912Z" fill="white"/>
<path d="M23.2228 26.7394L22.4795 26.9622C22.3766 26.3852 21.7781 26.2248 21.4228 25.8751C20.2539 24.7614 19.1646 23.5986 18.6035 22.0883C18.6274 22.057 18.6587 22.0316 18.6948 22.014C18.731 21.9964 18.771 21.9873 18.8116 21.9873C18.8522 21.9873 18.8922 21.9964 18.9283 22.014C18.9645 22.0316 18.9958 22.057 19.0196 22.0883C19.1272 22.193 19.3072 22.2621 19.3633 22.3779C20.3264 24.3203 22.4023 24.4072 24.165 24.9819C24.7494 25.1712 25.3736 25.287 25.6401 25.9241C25.5559 26.4209 25.0556 26.3941 24.7283 26.5924C24.2444 26.7684 23.7348 26.7394 23.2228 26.7394Z" fill="white"/>
<path d="M38.8809 51.0191C39.3087 50.5045 39.8487 50.6248 40.3373 50.8565C41.2957 51.302 42.5254 51.0547 43.3225 51.9101C43.355 51.936 43.381 51.9684 43.3989 52.005C43.4168 52.0415 43.4261 52.0814 43.4261 52.1217C43.4261 52.162 43.4168 52.2019 43.3989 52.2385C43.381 52.275 43.355 52.3074 43.3225 52.3333L43.0887 52.369V52.1328C42.7545 51.7943 42.3009 52.0259 41.9199 51.9101C41.5159 51.9448 41.11 51.8674 40.751 51.6873C40.0731 51.5938 39.3905 51.5203 38.8809 51.0191Z" fill="white"/>
<path d="M36.25 71.4034C37.8677 71.0157 39.5228 71.3187 41.1452 71.2296C41.6127 71.2051 42.0615 71.2296 42.5221 71.2296C41.9049 71.6974 41.1896 71.4256 40.5257 71.4524C39.102 71.4724 37.676 71.4212 36.25 71.4034Z" fill="white"/>
<path d="M43.3223 52.3226V51.9105C43.7898 51.886 44.2761 51.4472 44.7249 51.9395C44.3084 52.1987 43.8196 52.3322 43.3223 52.3226Z" fill="white"/>
<path d="M10.3535 43.0338C11.0548 42.8 11.3213 43.4103 11.7749 43.6598L11.7608 43.9093C11.2292 43.721 10.7483 43.4219 10.3535 43.0338Z" fill="white"/>
<path d="M29.7676 1.80634V1.41876C30.2094 1.196 30.6466 0.948759 31.1702 0.928711C30.8523 1.43659 30.2445 1.5279 29.7676 1.80634Z" fill="white"/>
<path d="M49.3199 48.9899C49.2661 48.9186 49.21 48.8496 49.1562 48.7805C49.39 48.5578 49.2661 47.9697 49.8833 48.1591C49.7862 48.4832 49.5901 48.7724 49.3199 48.9899Z" fill="white"/>
<path d="M40.9796 52.7699L40.7949 52.4113C40.9483 52.34 41.1228 52.321 41.2892 52.3575C41.4555 52.3939 41.6037 52.4837 41.709 52.6118C41.6065 52.6866 41.4883 52.7394 41.3624 52.7667C41.2365 52.794 41.106 52.7951 40.9796 52.7699Z" fill="white"/>
<path d="M4.70508 62.5581C4.84535 62.7471 4.92223 62.9721 4.92557 63.2035C4.9289 63.435 4.85854 63.6619 4.72377 63.8545C4.71676 63.4224 4.71209 62.9902 4.70508 62.5581Z" fill="white"/>
<path d="M19.0194 22.0613H18.6033L18.3555 21.3931C18.7599 21.4554 18.8628 21.7851 19.0194 22.0613Z" fill="white"/>
<path d="M17.5625 65.231C17.6962 65.3817 17.7695 65.5727 17.7695 65.77C17.7695 65.9673 17.6962 66.1583 17.5625 66.3091C17.5625 65.9437 17.5625 65.5918 17.5625 65.231Z" fill="white"/>
<path d="M45.4318 1.12253C45.0811 1.47671 44.9105 1.18267 44.7305 0.944322C44.8537 0.91529 44.9825 0.916402 45.1052 0.947557C45.2278 0.978713 45.3401 1.03891 45.4318 1.12253Z" fill="white"/>
<path d="M22.2943 12.4942L23.4631 11.826C23.4769 11.8089 23.4946 11.795 23.5148 11.7855C23.5351 11.776 23.5574 11.771 23.58 11.771C23.6026 11.771 23.6249 11.776 23.6452 11.7855C23.6654 11.795 23.6831 11.8089 23.6969 11.826C23.9101 12.182 24.2209 12.476 24.5961 12.6765C24.9712 12.877 25.3966 12.9765 25.8266 12.9642C26.7827 12.9642 27.477 13.686 28.3349 13.9956C29.1929 14.3052 30.1093 14.2183 30.9438 14.4946C31.7784 14.7708 32.7672 14.7173 33.2815 15.6083C34.6725 16.457 36.2995 16.6018 37.8097 17.0763C39.5326 17.6153 41.356 17.9138 43.0064 18.6823C44.4348 19.3505 46.1109 19.1924 47.5252 19.8517C48.9746 20.52 50.7232 20.52 51.9786 21.6182C50.6048 21.6906 49.2324 21.4549 47.9717 20.9299C47.6711 20.794 47.3581 20.6844 47.0366 20.6024C45.26 20.1725 43.5558 19.4753 41.7861 19.0855C40.3298 18.7647 38.9435 18.2346 37.4544 17.9717C35.7198 17.6799 34.0857 16.878 32.3605 16.4726C30.2565 15.9781 28.2882 15.0848 26.1234 14.6705C24.6998 14.3988 23.1499 13.951 21.8384 13.1469C21.6678 12.737 22.2849 12.8128 22.2943 12.4942Z" fill="white"/>
<path d="M46.1254 21.3931C48.1405 21.7071 48.1709 21.7851 47.175 23.458C46.6023 24.4181 46.1721 25.4761 45.0594 26.0241C44.6666 26.2179 44.8723 26.6255 44.6853 26.9151C43.4347 28.7996 42.2728 30.7309 40.6715 32.3881C40.1712 32.9049 40.087 33.8004 39.1169 33.8695C38.6493 34.3306 38.1818 34.2838 37.6839 33.9251C37.2678 33.2569 37.5857 32.6644 37.9854 32.1788C40.6037 29.0023 42.7637 25.5251 45.216 22.2395C45.4437 21.8922 45.7556 21.6019 46.1254 21.3931Z" fill="white"/>
<path d="M46.1252 21.3931C45.6857 22.6762 44.6711 23.6206 43.9464 24.7344C42.6163 26.7793 41.1061 28.7172 39.7198 30.7287C39.0489 31.7021 37.9338 32.3971 37.7094 33.649C37.4476 33.9831 37.0806 33.9942 36.6948 33.9519C35.512 33.4285 35.3904 33.1055 36.2273 32.1833C39.0816 29.0157 41.2137 25.3604 43.8459 22.0458C44.0984 21.7295 44.0493 21.4733 44.0259 21.1548H44.961L46.1252 21.3931Z" fill="white"/>
<path d="M36.5428 33.6448L37.7117 33.6626C38.1418 33.9722 38.6468 33.8364 39.1143 33.872C40.517 34.3175 41.9897 34.5403 43.3222 35.1885C43.384 35.1537 43.4532 35.1326 43.5247 35.1266C43.5961 35.1206 43.6681 35.1299 43.7353 35.1538C43.8026 35.1777 43.8633 35.2157 43.9132 35.2648C43.963 35.314 44.0007 35.3731 44.0235 35.438C44.5166 35.8148 45.0688 36.1155 45.6599 36.329L46.6231 37.1999C46.754 38.0909 46.0503 38.0263 45.5992 37.8682C43.757 37.1732 41.7676 37.064 39.8998 36.4181C38.3023 35.8793 36.6704 35.4381 35.014 35.0972C34.2051 34.9256 33.7984 34.4779 34.1116 33.6448C34.1875 33.543 34.2876 33.4598 34.4038 33.402C35.1706 32.9921 35.8275 33.5312 36.5428 33.6448Z" fill="white"/>
<path d="M44.0119 35.4265L43.3106 35.177C43.1353 34.0632 43.7781 33.1722 44.3813 32.377C45.8096 30.5059 47.1702 28.5902 48.5541 26.6901C49.2554 25.7234 49.8001 24.6497 50.658 23.7186C51.3757 22.93 51.8035 23.0726 52.4324 23.6183C51.5581 24.3601 51.0578 25.358 50.3915 26.2401C49.4822 27.4519 48.5214 28.6481 47.5863 29.851C46.2167 31.6003 45.0201 33.4668 44.0119 35.4265Z" fill="white"/>
<path d="M22.2931 12.4941C22.4895 12.9396 21.9004 12.8884 21.8256 13.1624L21.5918 12.9396L22.2931 12.4941Z" fill="white"/>
<path d="M28.1035 10.9238C28.1203 10.858 28.1414 10.7933 28.1666 10.73H33.4803L37.4801 11.3827L42.5997 12.7325C43.9568 13.3576 45.3639 13.879 46.8076 14.2918C48.0466 15.0558 49.4328 15.5281 50.7817 16.0738L51.275 16.5193C51.303 16.8178 51.9202 16.8089 51.7051 17.1876C51.5345 17.4905 51.1885 17.4393 50.8729 17.3546C49.5427 16.9938 48.1962 16.6864 46.8614 16.3612C46.1133 16.1741 45.3886 15.9157 44.6008 15.9691C41.5243 15.1026 38.49 14.1247 35.3808 13.3406C33.6207 12.9144 31.9006 12.3504 30.2379 11.6544C29.5365 11.3381 28.6412 11.6054 28.1035 10.9238Z" fill="white"/>
<path d="M28.1036 10.9238C30.5115 11.0597 32.7463 11.8148 34.883 12.8083C35.7316 13.207 36.641 13.2204 37.5036 13.4164C39.9769 13.9844 42.338 14.8376 44.7318 15.6128C45.6682 15.8755 46.58 16.2123 47.4576 16.6196C47.8153 16.7867 48.2898 16.8424 48.2361 17.3926C46.5482 17.2411 44.8183 17.2879 43.3479 16.2432C42.7611 15.8266 41.9803 16.1407 41.3024 15.9113C39.5351 15.3143 37.742 14.7864 35.963 14.2161C33.5131 13.432 31.1006 12.4764 28.5104 12.2403C27.5753 12.1557 27.3415 11.1911 26.4883 11.1533C26.9815 10.8169 27.5566 10.9639 28.1036 10.9238Z" fill="white"/>
<path d="M23.6991 11.8284H23.4653C22.7967 11.5477 23.3414 11.2069 23.4653 10.9574C24.4004 9.02612 25.5693 7.17059 26.2823 5.16581C26.7872 3.73128 27.7457 2.90041 28.9169 2.12746C29.1869 1.98755 29.4733 1.8784 29.7701 1.80225C28.3979 4.77377 26.9649 7.71187 25.3776 10.5898C25.2233 10.8727 24.8539 11.1801 25.5809 11.1601C25.0082 11.5299 24.2274 11.3695 23.6991 11.8284Z" fill="white"/>
<path d="M48.2292 17.3836C47.0604 16.8044 45.8144 16.3389 44.7227 15.6016C46.871 15.8243 48.9305 16.3834 50.9714 17.025C51.114 17.0695 51.2589 17.1029 51.4015 17.1408C51.6002 16.849 50.9667 16.7755 51.2612 16.4926L54.5341 18.0518L55.7286 18.9228C55.5416 19.2057 56.0629 19.2503 55.9624 19.4574C55.8198 19.718 55.5486 19.5777 55.3429 19.5198C54.4546 19.2614 53.5709 18.9852 52.6873 18.7156C51.2683 18.0518 49.73 17.7734 48.2292 17.3836Z" fill="white"/>
<path d="M48.2285 17.3838C49.907 17.2323 51.4055 17.6244 52.6702 18.7203C51.2255 18.7203 49.9514 18.0097 48.5558 17.8003C48.3407 17.7736 48.2729 17.5776 48.2285 17.3838Z" fill="white"/>
<path d="M36.5417 33.6444H34.2251C34.1882 33.6874 34.1428 33.723 34.0914 33.7493C34.04 33.7755 33.9836 33.7917 33.9256 33.7971C33.8676 33.8025 33.809 33.7969 33.7533 33.7806C33.6976 33.7643 33.6458 33.7377 33.6009 33.7023C33.3671 33.504 33.5004 33.2768 33.6593 33.1298C34.9544 31.9269 35.6207 30.3031 36.7451 28.9888C37.6547 27.9316 38.4219 26.7703 39.0291 25.5317C39.5457 24.4758 40.5953 23.8121 41.2125 22.8208C41.5094 22.3463 41.7198 21.9298 41.4463 21.3907C41.4463 21.3172 41.4463 21.2437 41.4463 21.168H44.0178C44.5274 21.413 44.6209 21.6692 44.2515 22.1793C42.0751 25.1931 39.8099 28.158 37.748 31.2453C37.3973 31.7688 36.7942 32.1853 36.3197 32.6642C35.8451 33.1432 36.0672 33.3993 36.5417 33.6444Z" fill="white"/>
<path d="M41.4518 21.393C42.4266 21.3039 42.3868 21.8118 42.0455 22.3909C41.6745 22.9947 41.2532 23.569 40.7855 24.1084C38.8522 26.3359 37.48 28.9332 35.7384 31.2855C35.2124 31.9961 34.7308 32.7556 34.0201 33.3393C33.4942 33.7714 34.1137 33.562 34.2259 33.6467C34.2259 33.7157 34.2072 33.7847 34.2002 33.856C33.6344 34.4641 32.877 34.4218 32.1289 34.4018C31.1401 34.1412 31.8624 33.5308 31.8274 33.0653C31.8585 32.9608 31.9066 32.8615 31.97 32.7712C33.2768 31.2766 34.3755 29.6416 35.4929 28.0177C36.2106 26.973 36.7179 25.7434 37.5969 24.8791C38.6371 23.87 39.2496 22.5936 40.2735 21.6069C40.6219 21.2995 41.052 21.4287 41.4518 21.393Z" fill="white"/>
<path d="M36.3105 22.7297V22.5069L37.4793 22.2842C38.3817 22.3555 38.6248 22.6874 38.1386 23.3021C37.1403 24.5607 36.2918 25.9195 35.3871 27.2293C34.0943 29.0982 32.7291 30.9203 31.4574 32.7981C31.067 33.3728 30.4708 33.8584 30.6041 34.6514C30.2418 35.3041 29.5241 35.2863 28.9116 35.4689C28.7437 35.5147 28.5696 35.5365 28.395 35.5335C27.4832 35.4355 27.3453 34.9053 27.7965 34.2995C28.582 33.2414 29.1547 32.0407 29.9986 31.0473C31.7636 28.969 33.2714 26.7326 34.7255 24.4627C35.1533 23.8056 35.6138 23.1752 36.3105 22.7297Z" fill="white"/>
<path d="M30.4764 34.5355C29.7751 33.4953 30.8434 32.9384 31.2899 32.3748C33.651 29.3832 35.603 26.1377 37.8963 23.1038C38.3008 22.5692 37.9875 22.3866 37.4779 22.2863C37.9758 21.9767 38.5439 21.9076 39.1143 21.8408C39.7595 21.9745 39.8156 22.0836 39.3761 22.6917C38.6608 23.6874 37.887 24.6431 37.1927 25.6543C35.5095 28.1046 33.7095 30.4747 32.1058 32.974V33.1968C31.8253 33.6066 31.2502 33.845 31.3086 34.4486C31.2567 34.5441 31.175 34.6219 31.0749 34.6714C30.9726 34.7104 30.8602 34.7184 30.753 34.694C30.6458 34.6697 30.5492 34.6143 30.4764 34.5355Z" fill="white"/>
<path d="M32.106 32.9766C31.8722 31.6801 33.0715 31.0675 33.6395 30.181C35.0141 28.0337 36.5944 26.0089 38.0041 23.8816C38.3781 23.3158 38.8667 22.8547 39.2337 22.2956C39.3786 22.0728 39.5072 21.9102 39.1145 21.8501C39.4535 21.5315 39.8836 21.6563 40.2834 21.6273C39.9998 22.8536 39.2897 23.9525 38.2682 24.7458C37.6067 25.2916 37.2841 26.0267 36.8259 26.6816C35.5518 28.5059 34.3198 30.357 33.0388 32.1769C32.8097 32.4843 32.4216 32.707 32.106 32.9766Z" fill="white"/>
<path d="M28.3644 24.957C29.3474 24.8205 30.2972 24.5188 31.1697 24.066C31.2477 23.9851 31.351 23.9303 31.4643 23.9098C31.5776 23.8893 31.6948 23.9043 31.7985 23.9524C32.266 24.6652 31.6512 25.133 31.3123 25.6075C28.7221 29.2562 26.1062 32.8878 23.4646 36.5023C23.3804 36.6181 23.3897 36.7874 23.3266 36.9255C22.9713 37.5158 22.3728 37.4223 21.8048 37.4089C21.2357 37.4451 20.6822 37.6019 20.1847 37.8678L18.8031 38.1106C18.2117 37.9168 18.6372 37.6406 18.7798 37.4579C20.2221 35.5846 21.4307 33.5664 22.824 31.6663C24.3692 29.5547 26.036 27.5142 27.2844 25.2065C27.5649 24.8189 28.0091 25.0684 28.3644 24.957Z" fill="white"/>
<path d="M27.429 25.4026C27.0058 27.0888 25.8113 28.3786 24.7593 29.6817C24.1936 30.3789 23.8078 31.1607 23.2631 31.8602C21.9657 33.5286 20.7641 35.2728 19.642 37.0548C19.3919 37.4535 18.8495 37.605 18.8028 38.1129L17.3721 38.7566L15.9929 38.9972C15.2798 38.7522 15.8456 38.4314 15.9929 38.2443C17.2599 36.6494 18.4124 34.9854 19.5742 33.3215C20.9278 31.3813 22.2322 29.4099 23.5881 27.472C23.8943 27.0265 24.3362 26.7302 24.6214 26.2936L25.5564 25.8481C26.0427 25.1798 26.6552 24.9771 27.429 25.4026Z" fill="white"/>
<path d="M12.4414 40.3051L14.5944 39.443C14.6216 39.4105 14.6561 39.3843 14.6953 39.3662C14.7346 39.3482 14.7776 39.3389 14.8212 39.3389C14.8648 39.3389 14.9078 39.3482 14.9471 39.3662C14.9863 39.3843 15.0208 39.4105 15.048 39.443C15.5553 40.167 15.5506 40.187 16.661 40.4499C18.7275 40.9377 20.8689 41.2874 22.8653 41.8666C24.6046 42.3678 26.4958 42.4903 28.1462 43.4904C29.1374 44.0918 30.5564 44.1386 31.8024 44.2433C32.7959 44.3257 33.6468 44.7089 34.5609 44.9673C36.2347 45.4417 37.8921 45.9942 39.6361 46.2191C39.7476 46.2489 39.8533 46.2955 39.9493 46.3572C42.0392 47.3819 44.3559 47.5757 46.6025 48.0301C47.4043 48.1927 48.0729 48.7608 48.9402 48.7942C48.6176 49.6852 48.15 49.9257 47.0981 49.5604C45.1492 48.8945 43.1394 48.403 41.0948 48.0925C39.414 47.8252 37.8875 47.0723 36.2324 46.6825C33.9975 46.1568 31.7112 45.718 29.5512 45.0074C26.7108 44.074 23.6905 43.7911 20.9227 42.6863C19.0525 41.9356 17 41.8287 15.1064 41.127C14.2555 40.7951 13.1918 41.0134 12.4414 40.3051Z" fill="white"/>
<path d="M15.0473 39.4361H14.5938C14.4208 39.2401 14.5821 39.0975 14.6873 38.9505C15.6948 37.5583 16.6579 36.1371 17.7263 34.7895C18.495 33.8063 19.1754 32.7631 19.7601 31.6709C19.9072 31.4599 20.0906 31.2739 20.3025 31.1207C21.6233 29.8733 22.4228 28.3074 23.2246 26.7414C23.6296 26.4529 24.1216 26.2967 24.6272 26.2959C24.7815 26.3271 25.0059 26.3939 24.861 26.5587C23.7108 27.9353 22.7571 29.4545 21.7495 30.9113C20.1131 33.2725 18.444 35.5891 16.8543 37.9793C16.5972 38.3646 15.8655 38.358 15.9894 38.9995L15.0473 39.4361Z" fill="white"/>
<path d="M17.5633 65.2312C17.6615 62.6985 19.7093 60.589 22.5216 60.1256C25.0931 59.7024 27.9568 61.2149 28.9713 63.5293C30.3436 66.6701 28.6043 70.3389 25.259 71.3546C21.9138 72.3704 18.4165 70.4458 17.6147 67.0778C17.5756 66.8233 17.5576 66.5664 17.5609 66.3093C17.6938 65.9612 17.6947 65.5798 17.5633 65.2312ZM28.1952 65.8214C28.242 63.3533 26.0726 61.2194 23.5198 61.2105C22.2454 61.2181 21.0263 61.7072 20.1301 62.5704C19.2338 63.4337 18.7335 64.6005 18.7391 65.8148C18.7672 68.4009 20.9109 70.5483 23.4637 70.5483C26.0165 70.5483 28.1438 68.3942 28.1952 65.8214Z" fill="white"/>
<path d="M23.1738 60.8605C23.2626 60.7881 23.3767 60.75 23.4935 60.7537C23.6103 60.7574 23.7215 60.8027 23.805 60.8806C23.7162 60.953 23.6022 60.9912 23.4853 60.9874C23.3685 60.9837 23.2574 60.9385 23.1738 60.8605Z" fill="white"/>
<path d="M57.4762 65.9148C57.4762 64.3957 57.5066 62.8765 57.4621 61.3596C57.4434 60.6245 57.6375 60.2725 58.4954 60.3104C59.9284 60.375 61.3638 60.2814 62.7921 60.5331C63.9623 60.7483 65.0217 61.3342 65.7984 62.1955C66.575 63.0568 67.0232 64.1431 67.0701 65.2778C67.2805 69.421 65.1789 70.7864 63.054 71.3366C61.9926 71.6106 60.8892 71.4814 59.8045 71.4881C57.4832 71.5015 57.4832 71.4881 57.4832 69.2606V65.9193L57.4762 65.9148ZM58.6707 61.4598V61.4375C58.437 61.7917 58.5235 62.1614 58.6146 62.5334C58.6146 64.3867 58.6146 66.2401 58.6146 68.1023C58.6146 70.7753 58.6146 70.7753 61.4549 70.5258C63.7716 70.3187 65.1532 69.2294 65.6512 67.2848C66.3081 64.7276 65.1836 61.8674 61.677 61.4175C60.6788 61.1168 59.6689 61.0432 58.6707 61.4509V61.4598ZM61.6957 61.2148C60.7162 60.8638 59.6362 60.8638 58.6567 61.2148C59.6615 61.3922 60.6922 61.3892 61.6957 61.2058V61.2148ZM58.6567 61.4598L61.6794 61.4108C61.6794 61.3462 61.6794 61.2816 61.6794 61.2148H58.6403C58.6707 61.2883 58.6707 61.3685 58.6707 61.4509L58.6567 61.4598ZM58.6099 62.5334L58.6661 61.4375C58.3318 61.7783 58.3481 62.157 58.6216 62.5246L58.6099 62.5334Z" fill="white"/>
<path d="M21.8047 37.4137L23.24 36.7677C23.3043 36.6728 23.3921 36.5945 23.4956 36.5398C23.5992 36.485 23.7154 36.4554 23.8338 36.4536C24.7993 36.6964 25.7975 36.8657 26.6391 37.4159C27.2633 37.8213 28.002 37.603 28.6776 37.7701C33.173 38.8839 37.6427 40.0845 42.0937 41.3341C44.4011 41.9801 46.7855 42.2652 49.0625 42.9869C49.661 43.1458 50.236 43.3764 50.7737 43.673L50.9934 43.8958C50.9583 44.495 51.1898 45.1187 50.7971 45.6778C50.7573 45.2546 50.956 44.9361 50.07 45.1009C49.184 45.2657 48.1157 44.6554 47.1128 44.4683C45.1675 44.0729 43.2469 43.5746 41.3597 42.9758C39.7233 42.4613 38.0308 42.2207 36.3967 41.7373C34.5008 41.176 32.6073 40.4164 30.5524 40.3874C30.3303 40.3874 30.0521 40.5077 29.8955 40.2872C29.0843 39.1467 27.7004 39.4162 26.5783 39.1111C25.2622 38.7547 23.9881 38.1733 22.5715 38.1688C22.0946 38.1666 22.0969 37.6364 21.8047 37.4137Z" fill="white"/>
<path d="M32.1052 48.569C33.5966 49.3508 35.3522 49.3441 36.8975 50.0079C37.2785 50.1705 37.5988 50.4022 37.9471 50.5715C38.0874 50.8254 37.9004 50.9212 37.7133 51.017C36.6663 50.8148 35.6423 50.5164 34.6556 50.126C33.5875 49.713 32.4716 49.4228 31.3314 49.2617C30.2607 49.0924 29.197 48.9343 28.2526 48.4286C27.0697 47.796 25.6811 48.188 24.4725 47.6133C23.2125 47.0141 21.8075 46.8337 20.4353 46.5464C19.063 46.259 17.7095 45.593 16.3022 45.3368C14.7289 45.0472 13.2632 44.6396 12.0078 43.6729C13.2657 43.7623 14.5038 44.0218 15.685 44.4436C16.9474 44.8579 18.2752 45.094 19.5703 45.4237C22.3756 46.1387 25.1575 46.876 27.9557 47.5844C29.3326 47.923 30.7212 48.2326 32.1052 48.569Z" fill="white"/>
<path d="M37.7129 51.0192C37.79 50.87 37.8672 50.723 37.9467 50.5737C38.3347 50.5737 38.5685 50.8722 38.8817 51.0192C39.5361 51.1536 40.1662 51.3788 40.7519 51.6875C39.5924 52.0528 38.6947 51.3601 37.7129 51.0192Z" fill="white"/>
<path d="M41.9199 51.9105C42.3758 51.6744 42.7942 51.6009 43.0888 52.1333C42.689 52.0932 42.2589 52.2201 41.9199 51.9105Z" fill="white"/>
<path d="M7.90625 60.9786C8.2008 60.6579 8.40184 60.8227 8.70574 60.7559C8.41119 61.0811 8.20548 60.9274 7.90625 60.9786Z" fill="white"/>
<path d="M31.1522 34.5198C31.1522 34.4507 31.1685 34.3817 31.1779 34.3148C31.3392 34.0275 31.6688 34.2369 31.8792 34.0921L34.1982 33.856C34.3525 35.0299 35.505 34.6133 36.1782 34.9363C36.5676 35.0844 36.9741 35.1876 37.3892 35.2437C39.7035 35.7115 41.8308 36.8988 44.2597 36.9077C44.6712 36.9077 44.926 37.273 45.2836 37.3844C45.7372 37.5269 46.2842 37.9524 46.6068 37.1884H46.8406C47.266 37.302 47.7149 37.3732 48.0281 37.7163C48.4208 38.0549 48.6944 38.4447 48.6055 38.9837C48.5775 39.7611 48.0515 39.7522 47.4577 39.6386C43.1914 38.83 39.0864 37.4423 34.8715 36.4466C33.8919 36.2238 32.8844 36.0768 31.975 35.6402C31.4958 35.4264 30.9044 35.2326 31.1522 34.5198Z" fill="white"/>
<path d="M47.7418 37.8905C47.4052 37.6989 47.0194 37.5697 46.8301 37.2022C47.2439 35.7231 48.3706 34.6294 49.1421 33.3441C49.9977 31.9207 51.3045 30.798 52.0362 29.2588C52.5318 28.2163 53.6726 27.5302 54.2032 26.4454C54.3318 26.1804 54.437 25.9019 54.5375 25.6279C55.0401 25.9843 55.5778 26.3118 55.7064 26.9644C55.7446 27.1083 55.7499 27.2583 55.7221 27.4044C55.6943 27.5504 55.6339 27.689 55.5451 27.8109C54.61 28.9848 53.7825 30.2211 52.8848 31.4128C51.5336 33.1948 50.1473 34.9769 48.9527 36.8925C48.6745 37.3358 48.5179 37.9707 47.7418 37.8905Z" fill="white"/>
<path d="M31.8722 24.0663H31.1709C30.8179 23.4493 30.1143 23.3 29.5345 23.2042C26.5446 22.7119 23.8165 21.3443 20.8101 20.901C20.1603 20.8052 19.5571 20.4109 18.8932 20.2171C18.1405 19.9944 18.2714 19.3083 18.3252 18.7202C20.7681 19.1189 23.1081 19.8563 25.4786 20.5357C27.4633 21.1059 29.4387 21.7519 31.4631 22.2375C32.2837 22.4335 33.2912 22.5137 33.9809 23.1753C34.0218 23.2173 34.0474 23.2708 34.0537 23.3279C34.06 23.3849 34.0468 23.4423 34.0159 23.4916C33.7489 23.7663 33.4074 23.9654 33.0291 24.0668C32.6508 24.1682 32.2504 24.1681 31.8722 24.0663Z" fill="white"/>
<path d="M27.4295 25.4025L25.5593 25.848C23.979 25.5072 22.5202 24.7922 20.8838 24.5516C19.8599 24.4024 19.4017 23.077 19.0137 22.0635C20.5722 22.4926 22.1236 22.9211 23.6681 23.3488C24.4652 23.5715 25.253 23.8232 26.0642 23.9747C26.9198 24.1351 27.7006 24.3868 28.3599 24.957L27.4295 25.4025Z" fill="white"/>
<path d="M33.9737 23.3978C33.9737 23.322 33.9737 23.2485 33.9737 23.175L36.3114 22.7295C35.3085 24.2888 34.2659 25.848 33.3168 27.4407C32.1947 29.3252 30.4087 30.762 29.4736 32.7868C29.1697 33.4395 28.5268 33.9451 28.0593 34.5332C27.7577 34.9096 27.7063 35.2215 28.3749 35.2014C28.244 36.1192 27.358 35.8964 26.7922 36.1548C26.5594 36.2247 26.312 36.2385 26.0722 36.1949C25.0343 35.8429 25.4714 35.2081 25.8384 34.698C26.6754 33.5018 27.5917 32.3547 28.4099 31.1473C29.8617 29.0067 31.449 26.9507 32.8142 24.7588C33.1275 24.2442 33.6581 23.919 33.9737 23.3978Z" fill="white"/>
<path d="M31.152 34.52C31.7131 35.5291 32.8516 35.6894 33.7937 35.8899C37.2605 36.6228 40.6969 37.4069 44.0188 38.6365C44.6804 38.8815 45.5103 38.7211 46.256 38.9394C46.7002 39.0708 47.1911 38.9105 47.6026 39.3426C47.8363 39.5898 48.3553 39.4562 48.4745 38.9572C48.4913 38.9438 48.5107 38.9336 48.5316 38.9275C48.5525 38.9213 48.5745 38.9192 48.5963 38.9212C48.6182 38.9233 48.6393 38.9295 48.6585 38.9396C48.6777 38.9496 48.6947 38.9631 48.7083 38.9795C48.7031 39.0955 48.7457 39.2088 48.8269 39.2954C48.9081 39.3819 49.0216 39.4348 49.1431 39.4428C49.2812 39.8669 49.5306 40.2502 49.8678 40.5566V40.7794C49.5966 41.5835 48.9023 41.7327 48.2922 41.3964C47.4108 40.9108 46.4384 40.8863 45.5196 40.6457C44.3952 40.3539 43.3222 39.8371 42.2468 39.6077C40.1289 39.1622 38.1254 38.3224 35.9677 38.0217C33.8965 37.7321 31.9492 36.9547 29.9107 36.5136C29.3239 36.3844 28.5922 36.0882 28.847 35.2083C29.3309 34.8408 30.0299 34.9611 30.4834 34.5401L31.152 34.52Z" fill="white"/>
<path d="M26.0464 35.872L26.7244 35.8564C30.4343 36.6316 34.0952 37.6229 37.7303 38.623C40.3556 39.347 43.0416 39.9039 45.6459 40.7459C47.1745 41.2285 48.7368 41.6081 50.3213 41.8819C50.3213 41.9532 50.34 42.0245 50.354 42.1046C50.5379 42.3206 50.6718 42.5711 50.7467 42.8399C50.8217 43.1087 50.836 43.3895 50.7888 43.6639C49.7579 43.9357 48.9374 43.2607 48.0023 43.0892C46.7212 42.8531 45.4542 42.539 44.145 42.4521C43.4694 42.4076 43.0042 41.9264 42.3988 41.7393C39.3247 40.7793 36.0565 40.4942 33.076 39.1665C32.0216 38.6965 30.7382 38.77 29.5437 38.4983C27.6151 38.0372 25.7215 37.5404 23.9121 36.7541C24.0407 35.9878 24.6906 35.9723 25.2867 35.9032C25.5321 35.872 25.7963 36.0725 26.0464 35.872Z" fill="white"/>
<path d="M50.3168 41.8865C49.9007 42.1649 49.5805 42.332 48.9797 42.0335C48.0304 41.5753 46.9813 41.3365 45.9173 41.3363C45.0383 41.3363 44.2434 40.8618 43.5141 40.5901C42.413 40.178 41.2605 40.2247 40.1898 39.8126C37.443 38.759 34.5115 38.3202 31.6619 37.6007C30.2592 37.251 28.8987 36.8211 27.5031 36.487C27.0986 36.3889 27.0028 36.0414 26.7246 35.8699C27.2109 35.5068 27.9098 35.6271 28.375 35.2017H28.8426C29.2867 36.1617 30.292 36.3154 31.1569 36.4424C32.1436 36.5879 33.1129 36.8252 34.051 37.1508C35.671 37.6943 37.4804 37.6297 39.0444 38.3269C40.4844 38.9707 42.1816 38.6833 43.5351 39.6968C44.4094 40.3517 45.7092 40.0644 46.7588 40.4987C47.1632 40.6658 47.6682 40.6725 48.0656 40.9153C48.7155 41.3096 49.3046 41.2427 49.8703 40.7727C50.048 41.1291 50.3075 41.461 50.3168 41.8865Z" fill="white"/>
<path d="M48.7053 38.9905L48.4716 38.9682C48.4178 38.496 47.9502 38.2777 47.7422 37.9012C49.0279 35.6893 50.9963 33.8917 52.0249 31.5238C52.2072 31.105 52.7052 30.9736 53.0184 30.6328C54.0774 29.519 54.5894 28.0377 55.7068 26.9663C56.6021 27.4118 56.3613 28.0132 55.9055 28.608C54.4631 30.4947 52.8875 32.299 51.6111 34.2815C50.7882 35.5601 49.5259 36.5825 49.0981 38.0973C48.9901 38.4037 48.8588 38.7022 48.7053 38.9905Z" fill="white"/>
<path d="M31.8803 34.0902C31.7872 34.1734 31.6763 34.2364 31.5552 34.2748C31.4341 34.3133 31.3058 34.3263 31.1789 34.313C30.8423 33.4532 31.6021 33.422 32.114 33.1992C32.474 33.5979 31.7704 33.7561 31.8803 34.0902Z" fill="white"/>
<path d="M26.0459 35.872L23.9093 36.763L23.2407 36.7786C22.7731 36.6783 22.9204 36.4311 23.1168 36.2217C24.0908 35.1473 24.8863 33.9371 25.4755 32.6331C25.6345 32.3035 26.0389 32.2456 26.3054 31.9805C27.5888 30.6885 28.2036 28.9956 29.4006 27.6234C30.3699 26.5346 31.1973 25.3378 31.8645 24.0594C32.4863 23.6139 33.2671 23.6139 33.9685 23.3911C34.0339 23.4319 34.0807 23.4948 34.0994 23.5672C34.118 23.6395 34.1072 23.7159 34.069 23.7809C32.3695 26.2312 30.6746 28.6815 28.9517 31.1073C27.9933 32.4594 26.974 33.7803 26.0062 35.1168C25.8589 35.3418 25.3914 35.6626 26.0459 35.872Z" fill="white"/>
</g>
<defs>
<filter id="filter0_d_751_3881" x="0.503906" y="0" width="70.9316" height="79.6284" filterUnits="userSpaceOnUse" color-interpolation-filters="sRGB">
<feFlood flood-opacity="0" result="BackgroundImageFix"/>
<feColorMatrix in="SourceAlpha" type="matrix" values="0 0 0 0 0 0 0 0 0 0 0 0 0 0 0 0 0 0 127 0" result="hardAlpha"/>
<feOffset dy="4"/>
<feGaussianBlur stdDeviation="2"/>
<feComposite in2="hardAlpha" operator="out"/>
<feColorMatrix type="matrix" values="0 0 0 0 0 0 0 0 0 0 0 0 0 0 0 0 0 0 0.25 0"/>
<feBlend mode="normal" in2="BackgroundImageFix" result="effect1_dropShadow_751_3881"/>
<feBlend mode="normal" in="SourceGraphic" in2="effect1_dropShadow_751_3881" result="shape"/>
</filter>
<clipPath id="clip0_751_3881">
<rect width="62.9313" height="71.6284" fill="white" transform="translate(4.50391)"/>
</clipPath>
</defs>
</svg>
