<svg width="63" height="74" viewBox="0 0 63 74" fill="none" xmlns="http://www.w3.org/2000/svg">
<g clip-path="url(#clip0_751_3808)" filter="url(#filter0_d_751_3808)">
<path d="M52.3669 14.1647C52.3669 17.1836 51.7491 19.424 50.4611 21.4843C50.2529 21.8164 50.2663 22.0633 50.421 22.4137C52.7365 27.6568 52.1765 32.5268 48.3327 36.9397C47.5635 37.8227 46.6295 38.5386 45.6243 39.1596C41.7649 41.5423 37.9121 43.9369 34.0394 46.2992C25.1728 51.7094 12.9189 46.3154 11.3103 36.2864C10.8038 33.1295 11.3482 30.1408 13.0658 27.3797C13.2506 27.0843 13.2718 26.8643 13.1159 26.5463C10.1203 20.4515 12.0784 13.1771 18.251 9.51141C21.9023 7.34863 25.5116 5.12044 29.079 2.82685C35.6958 -1.44481 44.6948 0.340625 49.4058 6.37075C51.3528 8.86345 52.3424 11.6526 52.3669 14.1647ZM17.5798 31.2805C16.9887 32.7058 16.8006 34.06 16.9787 35.4098C17.8124 41.6254 25.2419 45.0291 30.7254 41.689C34.5693 39.3483 38.4064 36.9969 42.2124 34.6001C44.9352 32.8858 46.1865 30.3953 45.9104 27.2622C45.3538 20.9118 37.7641 17.2763 32.1815 20.6617C31.5225 21.0617 30.8735 21.4779 30.2167 21.8822C29.3562 22.4115 28.5157 22.9743 27.6285 23.4574C26.3829 24.1366 24.7843 23.6827 24.0374 22.4935C23.3172 21.3453 23.6099 19.962 24.7843 19.2321C28.6211 16.8493 32.4653 14.4774 36.317 12.1162C36.7849 11.8143 37.3455 11.6766 37.9055 11.726C39.4717 11.878 40.4836 13.0068 40.4435 14.5292C40.438 14.7448 40.3745 14.9421 40.6951 15.0305C42.4986 15.5334 44.1858 16.3664 45.6655 17.4844C45.9271 17.6817 45.9939 17.5545 46.0696 17.3302C46.2922 16.6628 46.5026 15.9911 46.5438 15.2871C46.7486 11.7928 45.2837 9.078 42.2436 7.26777C39.2034 5.45755 35.9919 5.35512 32.9173 7.15996C28.9098 9.5168 24.9669 11.975 21.0541 14.4752C18.5126 16.0989 17.3349 18.514 17.5586 21.4401C18.0629 28.0568 25.7183 31.715 31.4957 28.1473C32.8861 27.2848 34.2665 26.4126 35.6691 25.5727C35.9748 25.3843 36.3163 25.2571 36.6735 25.1985C37.0307 25.1399 37.3965 25.1512 37.7491 25.2315C38.1018 25.3119 38.4343 25.4598 38.7271 25.6665C39.0199 25.8732 39.267 26.1346 39.4539 26.4352C40.2253 27.6492 39.8469 29.0163 38.4921 29.853C34.7896 32.1401 31.085 34.4244 27.3781 36.7057C27.1048 36.8883 26.8045 37.0297 26.4875 37.1251C24.7064 37.592 23.0222 36.282 23.0589 34.4686C23.0589 34.2529 23.1702 34.0039 22.8196 33.9079C20.9004 33.3958 19.1861 32.488 17.5798 31.2805Z" fill="white"/>
<path d="M28.0751 65.019C27.2035 65.019 26.3319 65.0061 25.4602 65.019C25.0461 65.0276 24.8591 64.9112 24.8613 64.4735C24.8769 61.6358 24.8769 58.7966 24.8613 55.956C24.8613 55.5593 24.9905 55.4245 25.4046 55.4288C27.0736 55.4475 28.7434 55.4475 30.4139 55.4288C30.8347 55.4288 31.0084 55.528 30.9995 55.9679C30.9816 56.8175 31.0061 56.8186 30.1256 56.8186C29.0881 56.8186 28.0484 56.8423 27.0087 56.8089C26.5066 56.7927 26.353 56.9663 26.3875 57.431C26.4154 57.8978 26.4154 58.3657 26.3875 58.8326C26.3708 59.1991 26.4988 59.3544 26.8963 59.3404C27.5263 59.3188 28.1575 59.3555 28.7887 59.3285C29.2117 59.3113 29.3642 59.4741 29.3174 59.8676C29.3023 60.011 29.3023 60.1555 29.3174 60.2988C29.3475 60.6363 29.1761 60.7301 28.8521 60.7301C28.1842 60.7161 27.5163 60.7376 26.8484 60.7226C26.5144 60.715 26.3831 60.8304 26.3898 61.1614C26.4042 61.8255 26.412 62.4907 26.3898 63.1549C26.3753 63.5484 26.5523 63.64 26.9207 63.6357C28.1998 63.6217 29.4811 63.653 30.759 63.6196C31.2722 63.6066 31.3434 63.8352 31.3156 64.2352C31.29 64.619 31.4202 65.0492 30.7445 65.0222C29.8562 64.9921 28.9657 65.019 28.0751 65.019Z" fill="white"/>
<path d="M52.467 60.2473C52.467 58.8295 52.4815 57.4106 52.4592 55.9939C52.4525 55.5735 52.5828 55.4333 53.0258 55.4387C54.6956 55.4613 56.3654 55.4646 58.0285 55.4387C58.5072 55.4311 58.6073 55.6317 58.5662 56.0177C58.5283 56.3745 58.7398 56.8522 58.0374 56.8381C56.8697 56.8144 55.6997 56.8543 54.5353 56.822C54.0333 56.8079 53.8763 56.9794 53.9153 57.443C53.9509 57.8545 53.9509 58.2681 53.9153 58.6796C53.8685 59.1842 54.0266 59.402 54.5832 59.3578C55.1398 59.3136 55.6964 59.3826 56.253 59.3384C56.8095 59.2942 56.9531 59.512 56.9209 60.0165C56.8819 60.7292 56.9108 60.7314 56.1973 60.7324C55.604 60.7324 55.0106 60.7443 54.4162 60.7324C54.0644 60.7238 53.9053 60.8467 53.9119 61.1982C53.9253 61.8623 53.9253 62.5265 53.9119 63.1906C53.9053 63.5507 54.0856 63.6488 54.4262 63.6456C55.7242 63.6359 57.0211 63.6607 58.3224 63.6327C58.7999 63.6219 58.9502 63.7912 58.9035 64.2246C58.8645 64.5922 59.0448 65.0408 58.3547 65.031C56.5736 65.0073 54.7925 65.0138 53.018 65.031C52.5728 65.031 52.4514 64.8585 52.4615 64.4521C52.4782 63.0451 52.467 61.6435 52.467 60.2473Z" fill="white"/>
<path d="M7.9659 55.3341C9.24495 55.2964 10.2246 55.6371 10.878 56.643C11.1173 57.0107 11.1151 57.2425 10.6108 57.3837C10.1422 57.5152 9.78484 57.677 9.37185 57.1681C8.91767 56.6085 7.83677 56.5352 7.14548 56.8446C6.45419 57.1541 6.31059 57.9001 6.85048 58.4392C7.21338 58.8015 7.68649 58.9589 8.15848 59.1206C8.78743 59.3362 9.42417 59.5346 10.0086 59.8516C11.6784 60.7605 12.1236 62.7626 10.8858 64.1082C10.1066 64.9567 9.04013 65.21 7.90022 65.127C6.58332 65.0311 5.52691 64.4801 4.8423 63.3481C4.62968 62.9966 4.57958 62.7152 5.11057 62.6171C5.25671 62.5906 5.39737 62.5411 5.5269 62.4704C5.85418 62.2904 6.03563 62.3982 6.25159 62.6861C6.97627 63.637 7.99372 63.9604 9.03455 63.6219C9.26051 63.5533 9.46448 63.4296 9.62693 63.2628C9.78937 63.0959 9.90485 62.8914 9.96228 62.6689C10.0197 62.4464 10.0172 62.2134 9.95492 61.9921C9.89266 61.7708 9.77277 61.5687 9.60673 61.4052C9.27278 61.0505 8.82082 60.8758 8.36776 60.712C7.64085 60.4467 6.89724 60.2268 6.21374 59.8494C5.36883 59.3891 4.95695 58.6786 4.95806 57.7762C4.95918 56.8737 5.44787 56.1816 6.25939 55.7201C6.76966 55.4149 7.36884 55.2794 7.9659 55.3341Z" fill="white"/>
<path d="M17.9055 62.9373C18.5278 61.0645 19.1234 59.2716 19.7178 57.4861C19.8814 56.9913 20.0629 56.4996 20.1942 55.9961C20.3056 55.58 20.5082 55.4204 20.9735 55.4333C21.9898 55.4625 21.9909 55.4333 21.6681 56.3541C20.723 59.0365 19.7612 61.7136 18.8439 64.4046C18.6758 64.8974 18.3987 64.9685 17.94 64.9588C17.4814 64.9491 17.1185 64.9588 16.927 64.3896C15.9764 61.595 14.9723 58.8187 13.9893 56.0349C13.7834 55.4517 13.789 55.4409 14.4346 55.4463C15.5478 55.456 15.3252 55.3029 15.678 56.3261C16.4228 58.5018 17.1452 60.6818 17.9055 62.9373Z" fill="white"/>
<path d="M46.6897 60.9459C46.6897 62.0952 46.6763 63.2434 46.6964 64.396C46.703 64.8025 46.5917 65.0192 46.1398 64.9577C46.0478 64.9453 45.9545 64.9453 45.8626 64.9577C45.385 65.0224 45.218 64.8499 45.2236 64.3626C45.2481 62.2278 45.2336 60.092 45.2336 57.9562C45.2336 56.8597 45.2336 56.8597 44.0748 56.8597C43.6863 56.8597 43.2956 56.8456 42.9082 56.8597C42.5742 56.8748 42.4284 56.7421 42.4551 56.4187C42.4708 56.2753 42.4708 56.1308 42.4551 55.9874C42.3983 55.5562 42.5887 55.4343 43.0228 55.4376C44.9872 55.457 46.9516 55.457 48.916 55.4376C49.3613 55.4376 49.486 55.5853 49.4793 55.9971C49.466 56.8543 49.486 56.8597 48.6211 56.8597C48.158 56.8597 47.6938 56.8791 47.2318 56.8597C46.8088 56.837 46.6852 57.0181 46.6897 57.3987C46.6997 58.5772 46.6897 59.7621 46.6897 60.9459Z" fill="white"/>
<path d="M36.4348 59.5032C36.4348 60.6698 36.4526 61.8374 36.4248 63.005C36.4147 63.4363 36.575 63.5592 37.0036 63.5517C38.2281 63.5301 39.4526 63.5689 40.6771 63.5323C41.256 63.515 41.2515 63.8244 41.2337 64.2104C41.2137 64.5673 41.3628 64.9748 40.7016 64.9651C38.9784 64.9349 37.2507 64.9457 35.5286 64.9651C35.1257 64.9651 34.972 64.8573 34.9787 64.4455C34.9921 61.6085 34.9921 58.7693 34.9787 55.928C34.9787 55.5421 35.1268 55.4094 35.5019 55.4472C35.6499 55.4624 35.7992 55.4624 35.9472 55.4472C36.3491 55.4019 36.4537 55.5863 36.4481 55.9485C36.4236 57.1323 36.4348 58.3172 36.4348 59.5032Z" fill="white"/>
</g>
<defs>
<filter id="filter0_d_751_3808" x="0.697266" y="0.481934" width="62.2168" height="72.6646" filterUnits="userSpaceOnUse" color-interpolation-filters="sRGB">
<feFlood flood-opacity="0" result="BackgroundImageFix"/>
<feColorMatrix in="SourceAlpha" type="matrix" values="0 0 0 0 0 0 0 0 0 0 0 0 0 0 0 0 0 0 127 0" result="hardAlpha"/>
<feOffset dy="4"/>
<feGaussianBlur stdDeviation="2"/>
<feComposite in2="hardAlpha" operator="out"/>
<feColorMatrix type="matrix" values="0 0 0 0 0 0 0 0 0 0 0 0 0 0 0 0 0 0 0.25 0"/>
<feBlend mode="normal" in2="BackgroundImageFix" result="effect1_dropShadow_751_3808"/>
<feBlend mode="normal" in="SourceGraphic" in2="effect1_dropShadow_751_3808" result="shape"/>
</filter>
<clipPath id="clip0_751_3808">
<rect width="54.2178" height="64.6645" fill="white" transform="translate(4.69727 0.481934)"/>
</clipPath>
</defs>
</svg>
