<svg width="86" height="58" viewBox="0 0 86 58" fill="none" xmlns="http://www.w3.org/2000/svg">
<g clip-path="url(#clip0_751_3857)" filter="url(#filter0_d_751_3857)">
<path d="M32.9609 9.96775C33.7924 7.05644 35.2945 4.54647 37.8993 2.70974C42.4464 -0.498324 51.692 -0.5663 56.6139 4.19873C57.5994 5.15174 58.6381 6.05768 59.6127 7.02507C63.7141 11.1195 68.9114 10.407 72.3176 6.58843C72.4539 6.43024 72.5385 6.19624 72.9556 6.18186C71.9455 9.6017 70.2731 12.4947 66.9772 14.2674C61.5809 17.1696 53.4762 16.3237 48.9481 11.9979C47.8495 10.9521 46.7673 9.87885 45.6196 8.88009C42.0961 5.81321 37.504 5.96747 34.17 9.23697C33.8619 9.54026 33.5934 9.88016 33.3071 10.2017L32.9609 9.96775Z" fill="white"/>
<path d="M19.5176 25.6524C19.9434 23.7773 20.8023 22.0177 22.031 20.5031C24.3482 17.5983 27.516 16.291 31.248 16.0871C33.5543 15.9563 35.8278 16.0609 38.0551 16.7616C40.7812 17.6192 42.8094 19.3762 44.7667 21.2704C46.112 22.5777 47.3892 24.0876 49.2021 24.7138C52.2689 25.7727 55.1995 25.2825 57.6816 23.1451C58.1996 22.698 58.5717 22.0992 59.1374 21.6757C59.4481 22.5333 59.0174 23.0823 58.772 23.6614C56.7275 28.5284 52.9246 31.0018 47.4806 31.3822C42.3487 31.743 38.0401 30.2279 34.5316 26.6185C33.4738 25.5296 32.3943 24.4432 31.124 23.5896C27.8145 21.3607 23.8834 21.7594 20.8779 24.5229C20.4813 24.8811 20.2073 25.3857 19.5176 25.6524Z" fill="white"/>
<path d="M69.521 49.1234C68.8868 49.1632 68.2507 49.0819 67.6495 48.8842C66.4228 48.4829 65.8067 47.6201 65.6309 46.4252C65.6118 46.2945 65.5518 46.1167 65.7276 46.0997C66.1365 46.0605 66.5455 46.118 66.9544 46.0526C67.5446 45.9559 67.5977 46.3272 67.7177 46.7128C68.083 47.8763 70.4561 47.7848 70.9454 47.139C71.0515 47.0038 71.1218 46.8459 71.1503 46.679C71.1787 46.512 71.1646 46.3409 71.1089 46.1803C71.0533 46.0198 70.9579 45.8746 70.8309 45.7571C70.7039 45.6397 70.5491 45.5536 70.3797 45.5062C69.6982 45.2996 68.9662 45.2173 68.2602 45.0669C66.5932 44.71 65.8667 43.9897 65.7944 42.6367C65.7331 41.4824 66.2483 40.6679 67.3715 40.2339C68.5602 39.7708 69.8831 39.7337 71.0981 40.1293C72.0795 40.4339 72.6751 41.1111 72.9191 42.0733C73.0063 42.4105 72.9532 42.6236 72.5102 42.5962C72.3262 42.5964 72.1429 42.6193 71.965 42.6642C71.4974 42.7557 71.1703 42.7949 70.9536 42.1857C70.6332 41.2968 68.5969 41.0811 67.9262 41.7935C67.4628 42.2877 67.7545 43.1217 68.5151 43.3335C69.2089 43.5256 69.9367 43.6028 70.6346 43.7845C71.7823 44.0839 72.8455 44.5061 73.0758 45.8265C73.3921 47.6266 72.3112 48.926 70.3307 49.1143C70.0676 49.1444 69.7936 49.1234 69.521 49.1234Z" fill="white"/>
<path d="M77.8749 49.1261C77.1944 49.1756 76.511 49.0759 75.8766 48.8346C74.7862 48.4215 74.2123 47.6162 74.0283 46.526C73.9765 46.2135 74.0283 46.0148 74.4373 46.0592C74.6407 46.0789 74.8458 46.0789 75.0493 46.0592C75.6027 46.0109 75.9434 46.0789 76.1397 46.7377C76.4259 47.7012 78.6245 47.9404 79.3061 47.1547C79.4194 47.0184 79.4953 46.857 79.527 46.6854C79.5587 46.5137 79.5452 46.3372 79.4876 46.1718C79.43 46.0064 79.3303 45.8575 79.1974 45.7385C79.0645 45.6195 78.9027 45.5343 78.7268 45.4906C78.0589 45.2971 77.3637 45.2147 76.6726 45.0696C74.8775 44.6866 74.1292 43.867 74.1728 42.3414C74.2001 41.3714 74.7058 40.6759 75.6067 40.3007C77.0189 39.7124 78.4692 39.685 79.884 40.3007C80.7332 40.6733 81.1639 41.3674 81.3138 42.2328C81.3288 42.3152 81.3547 42.4642 81.3316 42.4734C80.8436 42.6538 80.3202 42.6499 79.8104 42.7231C79.4478 42.7754 79.5064 42.476 79.4274 42.3008C78.9994 41.353 77.0611 41.0302 76.3278 41.7897C75.8507 42.2838 76.1206 43.1074 76.8853 43.3271C77.5764 43.5244 78.3042 43.5977 79.0021 43.7781C80.0435 44.05 81.0562 44.3899 81.4065 45.5416C81.9695 47.3861 80.8027 48.93 78.6982 49.117C78.4215 49.147 78.1475 49.1261 77.8749 49.1261Z" fill="white"/>
<path d="M29.2236 44.9416C28.9006 46.0567 28.5421 47.164 28.2695 48.2922C28.1482 48.7746 27.9614 48.9602 27.4203 48.9367C26.353 48.8909 26.3503 48.9249 26.0463 47.9261C25.5447 46.2829 25.0568 44.6357 24.5388 42.9977C24.4216 42.6278 24.3902 42.4748 24.9 42.4748C26.3312 42.4748 26.3271 42.45 26.6256 43.8095C26.8165 44.6789 27.0209 45.5469 27.2213 46.4136C27.2213 46.4254 27.2608 46.4293 27.3753 46.4672C27.7093 45.3835 28.0337 44.2998 28.3826 43.2226C28.4589 42.9912 28.3976 42.6173 28.7138 42.5689C29.164 42.5121 29.6199 42.5121 30.0701 42.5689C30.2391 42.5872 30.2473 42.8447 30.295 43.0121C30.6262 44.1572 30.9642 45.3011 31.3391 46.5823C31.6662 45.8829 31.6921 45.241 31.8584 44.6383C31.9402 44.3455 31.9947 44.0448 32.0547 43.7468C32.3273 42.45 32.3273 42.4683 33.7012 42.4735C34.1197 42.4735 34.2028 42.5885 34.0911 42.948C33.5104 44.8174 32.9284 46.6855 32.3723 48.5615C32.2837 48.8582 32.1405 48.9197 31.8516 48.9314C30.5021 48.9876 30.5035 48.9955 30.1518 47.7392C29.8915 46.8058 29.6257 45.8724 29.3613 44.9377L29.2236 44.9416Z" fill="white"/>
<path d="M56.5927 44.5233C56.6323 42.6631 57.1216 41.029 59.0967 40.2093C60.6996 39.5426 62.7156 39.8772 63.6929 40.9558C63.8326 41.0984 63.9531 41.2574 64.0514 41.429C64.279 41.8722 64.7152 42.4265 64.4521 42.803C64.189 43.1795 63.4407 42.9899 62.9173 43.1088C62.6774 43.1651 62.6447 42.9677 62.582 42.7951C62.2058 41.8055 61.786 41.4878 60.8973 41.4695C59.9431 41.4577 59.2371 41.8826 58.8963 42.7572C58.4437 43.8842 58.4437 45.1323 58.8963 46.2594C59.2889 47.2555 60.1926 47.7183 61.283 47.5523C61.9645 47.4477 62.413 47.0451 62.537 46.4228C62.6351 45.9326 62.8778 45.8267 63.3249 45.8816C63.5064 45.8928 63.6885 45.8928 63.8701 45.8816C64.8337 45.8816 64.8337 45.8816 64.5516 46.7562C63.9723 48.5694 62.0272 49.5276 59.8341 49.0805C57.9258 48.6883 56.7495 47.2948 56.5914 45.2397C56.5696 45.0005 56.5927 44.7599 56.5927 44.5233Z" fill="white"/>
<path d="M50.6041 48.2163C50.037 48.7483 49.4741 49.0843 48.7585 49.1314C47.2769 49.2177 46.3595 48.5967 45.9356 47.2162C45.6581 46.3382 45.6285 45.4053 45.8497 44.5127C46.4604 42.0564 49.147 41.757 50.5877 43.0957C50.5877 42.2106 50.6163 41.4197 50.5768 40.6328C50.5536 40.1909 50.7131 40.0981 51.1425 40.1098C52.3788 40.1255 52.3788 40.1098 52.3788 41.2864C52.3788 43.6395 52.361 45.9926 52.3924 48.3457C52.4006 48.8568 52.2343 49.0085 51.7436 48.9379C51.5856 48.9196 51.4259 48.9196 51.2679 48.9379C50.7785 48.968 50.4105 48.9013 50.6041 48.2163ZM50.6163 45.7324C50.5968 45.4301 50.5599 45.1289 50.5059 44.8304C50.3219 44.0461 49.8585 43.6735 49.0979 43.6669C48.4286 43.6669 47.9284 44.0722 47.7171 44.7978C47.5214 45.4502 47.5352 46.144 47.7567 46.7887C47.9488 47.3496 48.3264 47.7038 48.9998 47.7117C49.6935 47.7195 50.1733 47.4385 50.4323 46.8267C50.5618 46.476 50.6241 46.1057 50.6163 45.7338V45.7324Z" fill="white"/>
<path d="M15.206 48.1693C14.3459 48.9537 13.4599 49.2713 12.3927 49.0243C11.4385 48.8046 10.9042 48.2765 10.8033 47.3954C10.7443 46.9822 10.83 46.5619 11.0472 46.2006C11.2643 45.8392 11.6005 45.5573 12.0028 45.3992C12.8043 45.0541 13.6671 45.0266 14.5217 44.9403C14.7371 44.9181 15.0806 45.1038 15.1542 44.7835C15.236 44.4253 15.2074 44.0462 14.8325 43.7873C14.2873 43.4122 13.355 43.5337 12.9406 44.0488C12.7416 44.292 11.489 44.3939 11.2709 44.1795C11.1523 44.0645 11.2382 43.9403 11.2709 43.8174C11.5176 42.9873 12.2822 42.4395 13.3809 42.3415C13.7654 42.3118 14.1514 42.3057 14.5367 42.3232C15.9216 42.365 16.7871 43.054 16.8771 44.3717C16.9739 45.7796 16.9084 47.198 16.9289 48.6112C16.9289 48.8896 16.7926 48.9419 16.5568 48.9288C16.3753 48.9144 16.193 48.9144 16.0116 48.9288C15.5181 48.9785 15.1092 48.9301 15.206 48.1693ZM13.5703 47.8033C14.5067 47.8033 15.206 47.181 15.1692 46.3888C15.161 46.2149 15.1924 46.0175 14.8966 46.0646C14.3636 46.1509 13.813 46.0646 13.2855 46.2528C12.8179 46.4163 12.5562 46.7117 12.6162 47.1784C12.6884 47.6935 13.111 47.8046 13.5758 47.8033H13.5703Z" fill="white"/>
<path d="M40.0596 43.3804C40.7902 42.5882 41.5017 42.264 42.4027 42.3058C43.6295 42.362 44.3873 42.9595 44.4473 44.136C44.5141 45.6119 44.4718 47.0917 44.4841 48.569C44.4841 48.8043 44.4282 48.9507 44.1474 48.9232C44.1252 48.9213 44.1029 48.9213 44.0806 48.9232C42.6903 49.0187 42.6903 49.0187 42.6903 47.697C42.6903 46.7819 42.6999 45.8668 42.6903 44.9583C42.6781 44.0667 42.3918 43.7477 41.6517 43.7504C40.8338 43.7504 40.2395 44.2497 40.2259 45.0053C40.2041 46.1139 40.1877 47.2277 40.2341 48.331C40.2545 48.8435 40.0746 48.9442 39.5839 48.935C38.3572 48.9115 38.3572 48.935 38.3572 47.7284C38.3572 46.1845 38.3763 44.6406 38.3463 43.098C38.3367 42.6261 38.4444 42.3921 38.9746 42.481C39.0872 42.4966 39.2015 42.4966 39.314 42.481C39.8661 42.4038 40.3009 42.4692 40.0596 43.3804Z" fill="white"/>
<path d="M6.86327 45.2696C6.86327 44.2473 6.84692 43.225 6.87145 42.204C6.88099 41.8118 6.78968 41.6576 6.35078 41.6811C5.7633 41.719 5.17174 41.6693 4.57881 41.6981C4.19716 41.7177 4.08675 41.6027 4.08402 41.2314C4.08402 40.1045 4.05949 40.1045 5.23989 40.1045C7.14816 40.1045 9.05642 40.1202 10.9538 40.0928C11.4404 40.0928 11.6885 40.1738 11.5917 40.6876C11.569 40.8174 11.569 40.9499 11.5917 41.0797C11.6667 41.5451 11.5195 41.7556 10.9797 41.702C10.4863 41.6536 9.98057 41.7242 9.48033 41.6837C8.95965 41.6419 8.78109 41.787 8.79063 42.3204C8.82471 44.3192 8.79063 46.3206 8.81653 48.3208C8.82471 48.8123 8.68704 48.943 8.17589 48.9326C6.85646 48.9051 6.85646 48.9326 6.85646 47.6802L6.86327 45.2696Z" fill="white"/>
<path d="M23.5828 44.4865C23.5828 45.7702 23.565 47.0539 23.5937 48.3364C23.6032 48.7704 23.5092 48.9417 23.0089 48.9351C21.7726 48.9168 21.7726 48.943 21.7726 47.7311C21.7726 45.4042 21.7863 43.0759 21.7617 40.7477C21.7617 40.2627 21.8503 40.0718 22.4146 40.094C23.5814 40.1372 23.5828 40.1031 23.5828 41.2235V44.4865Z" fill="white"/>
<path d="M20.1988 45.7117C20.1988 46.6464 20.1879 47.5824 20.1988 48.5158C20.1988 48.8217 20.1157 48.9171 19.7899 48.9315C18.4078 48.9903 18.4078 49.0034 18.4078 47.683C18.4078 46.1392 18.4255 44.5953 18.3969 43.0527C18.3887 42.6043 18.5073 42.4605 18.9925 42.4696C20.1988 42.4932 20.1988 42.4696 20.1988 43.6253V45.7117Z" fill="white"/>
<path d="M36.8285 45.7298C36.8285 46.62 36.8122 47.5129 36.8367 48.4032C36.8463 48.7731 36.7904 48.9365 36.3338 48.9352C35.0375 48.9352 35.0375 48.9575 35.0375 47.7312C35.0375 46.1873 35.0538 44.6434 35.0279 43.0995C35.0198 42.6459 35.0879 42.4459 35.6413 42.4668C36.8272 42.506 36.8285 42.4668 36.8285 43.6434V45.7298Z" fill="white"/>
<path d="M19.2086 41.6786C18.9741 41.5897 18.5175 41.8681 18.4112 41.5374C18.2844 41.1452 18.373 40.6772 18.3853 40.2445C18.3853 40.0981 18.5379 40.1138 18.6456 40.1138C18.8719 40.1138 19.0981 40.1138 19.3271 40.1138C20.2172 40.1138 20.2172 40.1138 20.2172 40.9622C20.2145 41.6786 20.2145 41.6786 19.2086 41.6786Z" fill="white"/>
<path d="M35.9246 41.6788C35.0332 41.6788 35.0332 41.6788 35.0332 40.8316C35.0332 40.1074 35.0414 40.178 36.1236 40.0852C37.0233 40.0041 36.8461 40.5153 36.8461 40.9872C36.842 41.6787 36.8406 41.6788 35.9246 41.6788Z" fill="white"/>
</g>
<defs>
<filter id="filter0_d_751_3857" x="0.0859375" y="0.44043" width="85.4531" height="56.7471" filterUnits="userSpaceOnUse" color-interpolation-filters="sRGB">
<feFlood flood-opacity="0" result="BackgroundImageFix"/>
<feColorMatrix in="SourceAlpha" type="matrix" values="0 0 0 0 0 0 0 0 0 0 0 0 0 0 0 0 0 0 127 0" result="hardAlpha"/>
<feOffset dy="4"/>
<feGaussianBlur stdDeviation="2"/>
<feComposite in2="hardAlpha" operator="out"/>
<feColorMatrix type="matrix" values="0 0 0 0 0 0 0 0 0 0 0 0 0 0 0 0 0 0 0.25 0"/>
<feBlend mode="normal" in2="BackgroundImageFix" result="effect1_dropShadow_751_3857"/>
<feBlend mode="normal" in="SourceGraphic" in2="effect1_dropShadow_751_3857" result="shape"/>
</filter>
<clipPath id="clip0_751_3857">
<rect width="77.4539" height="48.7471" fill="white" transform="translate(4.08594 0.44043)"/>
</clipPath>
</defs>
</svg>
