<svg width="61" height="72" viewBox="0 0 61 72" fill="none" xmlns="http://www.w3.org/2000/svg">
<g clip-path="url(#clip0_751_3847)" filter="url(#filter0_d_751_3847)">
<path d="M56.0891 0.479094C55.7728 1.12111 55.4899 1.78028 55.138 2.40269C47.1509 16.5433 39.1582 30.6816 31.16 44.8173C30.9674 45.1604 30.7558 45.4936 30.5465 45.8416C30.09 45.5745 29.9712 45.1065 29.7596 44.7438C21.6472 30.4872 13.5436 16.2264 5.4487 1.96161C5.1824 1.49357 4.99693 0.981433 4.77344 0.479094H15.2349C15.0304 0.454589 14.9282 0.55996 15.0114 0.748643C15.1461 1.04344 15.2961 1.33055 15.4607 1.60874C20.2444 10.1036 25.0313 18.5919 29.8214 27.0737C30.0139 27.4119 30.1233 27.8333 30.5965 28.0539L34.5457 20.9868C38.1786 14.4931 41.8084 7.99785 45.4351 1.50092C45.5944 1.21422 46.1079 0.925073 45.6347 0.479094H56.0891Z" fill="white"/>
<path d="M45.0532 0.479105C45.5073 0.910382 45.0128 1.18973 44.8583 1.45928C41.3711 7.7373 37.8673 14.0088 34.3469 20.2737C33.0788 22.5478 31.8053 24.8242 30.5261 27.1031C30.0696 26.8826 29.9626 26.4758 29.7771 26.1499C25.1504 17.9573 20.5291 9.76218 15.9134 1.56465C15.7535 1.29628 15.6083 1.01895 15.4783 0.733953C15.3999 0.552621 15.4973 0.452146 15.6947 0.4742H24.411C26.256 3.67447 28.0993 6.87638 29.9412 10.0799C30.2408 10.6019 30.5071 10.6533 30.8281 10.0922C32.6588 6.8821 34.4951 3.67611 36.3369 0.4742L45.0532 0.479105Z" fill="white"/>
<path d="M37.5571 63.1513C37.5119 62.7298 37.4905 62.2936 37.9755 62.1343C38.9266 61.828 38.9266 61.0316 38.9266 60.2524C38.9456 58.047 38.9266 55.8563 38.9456 53.6583C38.9456 53.1682 38.8267 52.4526 39.5828 52.4575C40.3389 52.4624 40.2105 53.1682 40.2129 53.6828C40.2272 55.9617 40.1819 58.243 40.2295 60.5195C40.2509 61.5144 39.8039 62.3108 39.4568 63.1635L37.5571 63.1513Z" fill="white"/>
<path d="M18.5229 56.9052C19.2362 54.4768 19.9114 52.1832 20.5866 49.8896C20.6717 49.5759 20.7741 49.2675 20.8933 48.9658C20.916 48.8867 20.9539 48.8131 21.0048 48.7495C21.0558 48.6858 21.1186 48.6334 21.1897 48.5954C21.2607 48.5575 21.3385 48.5346 21.4183 48.5284C21.4981 48.5221 21.5783 48.5326 21.6542 48.559C21.81 48.595 21.9463 48.6915 22.0349 48.8284C22.1234 48.9653 22.1574 49.1321 22.1297 49.2942C22.1032 49.5362 22.0538 49.7751 21.9822 50.0072C21.1168 52.9331 20.245 55.8564 19.3669 58.7773C19.2028 59.3262 19.065 59.9389 18.3327 59.907C17.6574 59.8776 17.5742 59.2625 17.4268 58.7749C16.5209 55.778 15.6341 52.7738 14.7425 49.772C14.5974 49.2819 14.4215 48.7624 15.0658 48.5468C15.7102 48.3311 15.8814 48.858 16.0169 49.3432C16.6398 51.4481 17.2484 53.5579 17.8856 55.6604C18.0069 56.0451 17.9927 56.4911 18.5229 56.9052Z" fill="white"/>
<path d="M29.4719 56.0451C29.4719 53.3692 30.946 51.8597 33.093 52.3523C33.5425 52.4378 33.964 52.6383 34.3188 52.9355C34.6736 53.2326 34.9502 53.6168 35.1234 54.0529C35.7844 55.6506 35.2138 56.5572 33.5424 56.5817C32.948 56.5817 32.3536 56.5817 31.7639 56.5817C31.4525 56.5817 31.0863 56.5523 30.9484 56.9248C30.8903 57.1005 30.8818 57.2895 30.9239 57.47C30.966 57.6505 31.057 57.8149 31.1862 57.9442C31.4456 58.2556 31.786 58.484 32.1672 58.6026C32.5485 58.7211 32.9546 58.7248 33.3379 58.6131C33.6019 58.5311 33.8601 58.4304 34.1106 58.3117C34.472 58.177 34.8239 58.1402 35.0426 58.5568C35.2614 58.9734 34.9808 59.265 34.6717 59.4561C34.1465 59.7885 33.5477 59.9774 32.932 60.0048C32.3163 60.0322 31.7039 59.8974 31.1529 59.6129C30.6522 59.4071 30.2239 59.0496 29.9246 58.5875C29.6253 58.1255 29.4691 57.5807 29.4766 57.0253C29.4671 56.6969 29.4719 56.371 29.4719 56.0451ZM32.4558 55.5819C32.898 55.2511 33.8705 55.952 33.9204 54.9105C33.9656 54.0161 33.2642 53.5652 32.4011 53.5701C31.5951 53.5701 30.9389 53.9916 30.9389 54.8419C30.9389 55.9324 31.8923 55.3099 32.4558 55.5819Z" fill="white"/>
<path d="M28.314 55.337C28.314 55.9055 28.3378 56.4764 28.314 57.0523C28.2792 57.7665 28.0041 58.4459 27.5359 58.9736C27.0676 59.5013 26.4356 59.8444 25.7485 59.9438C25.0561 60.0419 24.3527 59.8779 23.7686 59.4823C23.1845 59.0867 22.7594 58.4863 22.5721 57.7923C22.1702 56.2387 22.3961 54.6386 22.4271 53.0605C22.4245 52.9678 22.4421 52.8756 22.4785 52.7907C22.515 52.7059 22.5694 52.6305 22.6378 52.5701C22.7062 52.5098 22.7868 52.4659 22.8738 52.4418C22.9607 52.4177 23.0518 52.4139 23.1403 52.4307C23.5635 52.4773 23.7466 52.791 23.7538 53.1977C23.7728 54.1779 23.7704 55.1581 23.7751 56.1383C23.7751 57.7678 24.3529 58.6524 25.3895 58.6451C26.4262 58.6377 26.9373 57.7605 26.9469 56.0893C26.9469 55.1924 26.9468 54.298 26.9706 53.3938C26.9849 52.938 27.061 52.443 27.6506 52.4381C28.2403 52.4332 28.3021 52.9282 28.3116 53.3864C28.3235 54.0333 28.3164 54.6851 28.314 55.337Z" fill="white"/>
<path d="M43.6789 59.9683C43.0032 60 42.3357 59.8048 41.7768 59.4121C41.4202 59.167 41.2157 58.7921 41.4606 58.3608C41.7055 57.9296 42.074 58.1158 42.3831 58.3167C42.8873 58.6515 43.4922 58.7865 44.0855 58.6966C44.4992 58.6255 44.8534 58.4515 44.9247 57.9614C44.9627 57.7573 44.9281 57.5459 44.8273 57.3659C44.7264 57.1859 44.5661 57.0494 44.3756 56.9813C43.8311 56.7362 43.2605 56.5696 42.7112 56.3343C41.8601 55.9692 41.3607 55.3125 41.4368 54.3421C41.4577 53.9091 41.6085 53.4934 41.8682 53.1524C42.128 52.8114 42.484 52.5618 42.8872 52.4381C43.3196 52.2856 43.7769 52.2225 44.2331 52.2523C44.6892 52.2822 45.1351 52.4044 45.5453 52.6121C45.8401 52.7542 46.1112 52.9699 46.0066 53.3644C45.8877 53.8079 45.5548 53.8766 45.1577 53.7957C44.7378 53.6909 44.3112 53.6172 43.881 53.5751C43.3817 53.5531 42.9086 53.7001 42.8158 54.3103C42.7303 54.869 43.1154 55.1067 43.5291 55.2782C43.8239 55.3934 44.1307 55.4816 44.4302 55.587C45.8568 56.0917 46.4845 56.9764 46.2729 58.1624C46.0613 59.3484 45.1292 59.9928 43.6789 59.9683Z" fill="white"/>
<path d="M36.9474 59.9315C36.8396 59.9357 36.732 59.9167 36.6317 59.8757C36.5313 59.8346 36.4404 59.7725 36.3648 59.6931C36.2891 59.6137 36.2304 59.519 36.1924 59.4149C36.1543 59.3108 36.1378 59.1996 36.1438 59.0885C36.1414 58.9801 36.1598 58.8722 36.1979 58.7711C36.2361 58.67 36.2931 58.5776 36.3659 58.4992C36.4386 58.4208 36.5256 58.358 36.6219 58.3142C36.7182 58.2705 36.822 58.2468 36.9272 58.2443C37.0324 58.2419 37.1371 58.2609 37.2352 58.3002C37.3333 58.3394 37.4229 58.3982 37.499 58.4732C37.5751 58.5482 37.6361 58.6379 37.6785 58.7371C37.7209 58.8364 37.7439 58.9433 37.7463 59.0518C37.7439 59.559 37.4325 59.8433 36.9474 59.9315Z" fill="white"/>
<path d="M39.5591 50.6246C39.1145 50.5658 38.8149 50.3207 38.7935 49.8478C38.7852 49.7452 38.7978 49.6419 38.8307 49.5447C38.8635 49.4474 38.9158 49.3584 38.9841 49.2833C39.0525 49.2082 39.1355 49.1488 39.2275 49.1088C39.3196 49.0689 39.4187 49.0493 39.5186 49.0514C39.6277 49.0328 39.7396 49.0405 39.8453 49.0741C39.9509 49.1076 40.0476 49.166 40.1276 49.2447C40.2076 49.3234 40.2688 49.4201 40.3063 49.5273C40.3438 49.6346 40.3566 49.7493 40.3436 49.8625C40.3294 50.333 40.0132 50.5682 39.5591 50.6246Z" fill="white"/>
</g>
<defs>
<filter id="filter0_d_751_3847" x="0.773438" y="0.476562" width="59.3125" height="70.6748" filterUnits="userSpaceOnUse" color-interpolation-filters="sRGB">
<feFlood flood-opacity="0" result="BackgroundImageFix"/>
<feColorMatrix in="SourceAlpha" type="matrix" values="0 0 0 0 0 0 0 0 0 0 0 0 0 0 0 0 0 0 127 0" result="hardAlpha"/>
<feOffset dy="4"/>
<feGaussianBlur stdDeviation="2"/>
<feComposite in2="hardAlpha" operator="out"/>
<feColorMatrix type="matrix" values="0 0 0 0 0 0 0 0 0 0 0 0 0 0 0 0 0 0 0.25 0"/>
<feBlend mode="normal" in2="BackgroundImageFix" result="effect1_dropShadow_751_3847"/>
<feBlend mode="normal" in="SourceGraphic" in2="effect1_dropShadow_751_3847" result="shape"/>
</filter>
<clipPath id="clip0_751_3847">
<rect width="51.3132" height="62.6749" fill="white" transform="translate(4.77344 0.476562)"/>
</clipPath>
</defs>
</svg>
