<svg xmlns="http://www.w3.org/2000/svg" xmlns:xlink="http://www.w3.org/1999/xlink" width="356.336" height="64.001" viewBox="0 0 356.336 64.001">
  <defs>
    <linearGradient id="linear-gradient" x1="0.5" x2="0.5" y2="1" gradientUnits="objectBoundingBox">
      <stop offset="0" stop-color="#f4cc3a"/>
      <stop offset="0.537" stop-color="#f26419"/>
      <stop offset="1" stop-color="#e84855"/>
    </linearGradient>
  </defs>
  <path id="União_1" data-name="União 1" d="M763.163,538.991a10.059,10.059,0,0,1-4.08-3.027,16.121,16.121,0,0,1,0-19.4,10.072,10.072,0,0,1,4.08-3.072,16.715,16.715,0,0,1,11.517,0,10.072,10.072,0,0,1,4.08,3.072,16.122,16.122,0,0,1,0,19.4,10.066,10.066,0,0,1-4.08,3.027,16.939,16.939,0,0,1-11.517,0Zm6.019-4.64a5.32,5.32,0,0,0,4.225-2.114,12.167,12.167,0,0,0,0-11.965,5.913,5.913,0,0,0-9.029,0,12.083,12.083,0,0,0,0,11.965,5.352,5.352,0,0,0,4.242,2.114c.092,0,.186,0,.279-.007S769.088,534.351,769.182,534.351Zm-95.04,4.64a10.055,10.055,0,0,1-4.081-3.027,16.121,16.121,0,0,1,0-19.4,10.069,10.069,0,0,1,4.081-3.072,16.712,16.712,0,0,1,11.516,0,10.06,10.06,0,0,1,4.08,3.072,16.122,16.122,0,0,1,0,19.4,10.054,10.054,0,0,1-4.08,3.027,16.936,16.936,0,0,1-11.516,0Zm6.017-4.64a5.32,5.32,0,0,0,4.225-2.114,12.161,12.161,0,0,0,0-11.965,5.913,5.913,0,0,0-9.029,0,12.083,12.083,0,0,0,0,11.965,5.353,5.353,0,0,0,4.242,2.114c.092,0,.186,0,.279-.007S680.066,534.351,680.16,534.351Zm-31.12,4.158a8.265,8.265,0,0,1-1.775-1.706.4.4,0,0,0-.444-.131.406.406,0,0,0-.27.378v1.04a1.007,1.007,0,0,1-1,1.01H641a1.007,1.007,0,0,1-1-1.01V505.27a1.007,1.007,0,0,1,1-1.01h4.665a1.007,1.007,0,0,1,1,1.01v2.259q0,1.38,0,2.759v.024c0,1.8,0,3.662,0,5.493a.3.3,0,0,0,.193.283.281.281,0,0,0,.105.02.3.3,0,0,0,.225-.1,10.9,10.9,0,0,1,2.271-2.085,8.254,8.254,0,0,1,4.267-1.19c.112,0,.224,0,.335.006.143-.006.287-.009.428-.009a9.446,9.446,0,0,1,7.473,3.677,15.026,15.026,0,0,1,2.853,9.467A16.741,16.741,0,0,1,662,535.834a9.116,9.116,0,0,1-7.5,3.96c-.12,0-.241,0-.361-.007-.144.007-.291.011-.435.011A9.082,9.082,0,0,1,649.039,538.509Zm-1.878-16.545a12.56,12.56,0,0,0-.7,4.592,9.636,9.636,0,0,0,1.455,5.491,4.969,4.969,0,0,0,4.114,2.189c.107,0,.216,0,.324-.011.054,0,.109,0,.163,0a4.568,4.568,0,0,0,3.852-2.111,9.632,9.632,0,0,0,1.432-5.539,12.523,12.523,0,0,0-.7-4.544,4.9,4.9,0,0,0-4.665-3.415c-.088,0-.178,0-.266.007s-.205-.009-.308-.009A4.989,4.989,0,0,0,647.161,521.964ZM747.87,539.1a.82.82,0,0,1-.816-.823V514.125a.82.82,0,0,1,.816-.823h5.153a.82.82,0,0,1,.817.823v24.152a.82.82,0,0,1-.817.823Zm-11.121,0a.82.82,0,0,1-.816-.823V532.87a.819.819,0,0,1,.816-.823h5.481a.819.819,0,0,1,.816.823v5.407a.827.827,0,0,1-.239.582.815.815,0,0,1-.578.241Zm-14.56,0a1.125,1.125,0,0,1-1.121-1.129v-23.54a1.128,1.128,0,0,1,1.121-1.13h4.146a1.117,1.117,0,0,1,.792.331,1.134,1.134,0,0,1,.328.8q0,1.152,0,2.3a.3.3,0,0,0,.216.294.3.3,0,0,0,.34-.129,11.321,11.321,0,0,1,2.144-2.628c.1-.085.2-.165.305-.242a7.432,7.432,0,0,1,4.355-1.343,1.118,1.118,0,0,1,.792.333,1.133,1.133,0,0,1,.325.8q0,2.3,0,4.6a1.139,1.139,0,0,1-.357.823,1.121,1.121,0,0,1-.84.3c-.243-.014-.486-.023-.729-.023q-4.038,0-5.423,2.651a10.375,10.375,0,0,0-.775,4.592v11.2a1.125,1.125,0,0,1-1.12,1.129Zm-10.141-.071a.816.816,0,0,1-.578-.241.83.83,0,0,1-.239-.582V523.337a6.945,6.945,0,0,0-.7-3.362,3.528,3.528,0,0,0-3.475-1.8,4.765,4.765,0,0,0-4.027,1.786,8.225,8.225,0,0,0-1.373,5.1v12.954a1.018,1.018,0,0,1-.293.715,1,1,0,0,1-.709.3h-4.664a1,1,0,0,1-.708-.3,1.014,1.014,0,0,1-.293-.715V505.271a1.014,1.014,0,0,1,.293-.715,1,1,0,0,1,.708-.3h4.664a1.007,1.007,0,0,1,1,1.011v10.374a.3.3,0,0,0,.531.192,7.685,7.685,0,0,1,2.838-2.381,9.472,9.472,0,0,1,4.027-.887,10.953,10.953,0,0,1,4.1.744,7.885,7.885,0,0,1,3.641,2.986,6.558,6.558,0,0,1,1.035,2.6,36.862,36.862,0,0,1,.235,4.982v14.324a.821.821,0,0,1-.817.823Zm35.823-28.805a.819.819,0,0,1-.816-.823v-4.579a.819.819,0,0,1,.816-.823h5.153a.82.82,0,0,1,.817.823V509.4a.82.82,0,0,1-.817.823Z" transform="translate(-426.164 -490)" fill="#333" stroke="rgba(0,0,0,0)" stroke-miterlimit="10" stroke-width="1"/>
  <path id="Shape" d="M32.045,64A31.9,31.9,0,0,1,21.977,62.37,26.782,26.782,0,0,1,13.2,57.925a.6.6,0,0,1-.043-.863,10.9,10.9,0,0,0,1.168-1.282.6.6,0,0,1,.844-.157,29.063,29.063,0,0,0,33.637.036.587.587,0,0,1,.35-.117.572.572,0,0,1,.1.009.584.584,0,0,1,.388.257,5.065,5.065,0,0,0,1.065,1.264.6.6,0,0,1-.043.934A31.931,31.931,0,0,1,32.046,64h0Zm-.014-7.977h-.049a1.5,1.5,0,0,1,0-3h.046a1.5,1.5,0,0,1,0,3Zm5.128-.575a.6.6,0,0,1-.6-.646,4.568,4.568,0,0,0-.193-1.6.583.583,0,0,1,.443-.736A21.337,21.337,0,0,0,50.876,41.3,21.01,21.01,0,0,0,36.81,11.549a.582.582,0,0,1-.442-.737,4.554,4.554,0,0,0,.194-1.579.6.6,0,0,1,.729-.625A23.481,23.481,0,0,1,54.167,22.7,24.009,24.009,0,0,1,37.28,55.437.6.6,0,0,1,37.159,55.45Zm-10.259,0a.6.6,0,0,1-.121-.012,23.991,23.991,0,0,1-.012-46.829.6.6,0,0,1,.73.625,4.532,4.532,0,0,0,.194,1.579.583.583,0,0,1-.443.737A21.094,21.094,0,0,0,13.182,41.3,21.336,21.336,0,0,0,27.248,52.467a.583.583,0,0,1,.442.736,4.568,4.568,0,0,0-.193,1.6.6.6,0,0,1-.6.646Zm26.669-.356a1.5,1.5,0,0,1-1.058-2.566l.029-.028a1.5,1.5,0,0,1,2.122,2.123l-.035.035A1.493,1.493,0,0,1,53.568,55.094Zm-43.158,0a1.5,1.5,0,0,1-.792-.227,1.474,1.474,0,0,1-.482-.482,1.506,1.506,0,0,1,.212-1.854A1.5,1.5,0,1,1,10.41,55.09ZM6.527,51H6.5a.6.6,0,0,1-.422-.205A26.782,26.782,0,0,1,1.63,42.023,31.933,31.933,0,0,1,5.993,13.329a.6.6,0,0,1,.457-.247h.029a.6.6,0,0,1,.448.2,5.043,5.043,0,0,0,1.265,1.065.582.582,0,0,1,.148.84,29.066,29.066,0,0,0,.036,33.637.6.6,0,0,1-.157.844,10.9,10.9,0,0,0-1.282,1.168A.6.6,0,0,1,6.527,51Zm50.993-.084a.6.6,0,0,1-.448-.2,5.025,5.025,0,0,0-1.264-1.065.584.584,0,0,1-.149-.84,29.064,29.064,0,0,0-.036-33.637.6.6,0,0,1,.157-.844,10.9,10.9,0,0,0,1.282-1.168A.6.6,0,0,1,57.473,13h.03a.6.6,0,0,1,.422.205,26.782,26.782,0,0,1,4.445,8.773,31.933,31.933,0,0,1-4.363,28.694.6.6,0,0,1-.457.247ZM31.991,42.011A10.007,10.007,0,1,1,42,32,10.018,10.018,0,0,1,31.991,42.011ZM10.407,11.932A1.5,1.5,0,0,1,9.342,9.374l.036-.035A1.5,1.5,0,0,1,11.5,11.462l-.028.028A1.491,1.491,0,0,1,10.407,11.932Zm43.159-.01a1.53,1.53,0,0,1-.815-.235l-.006-.007c-.064-.077-.136-.149-.205-.219a2.962,2.962,0,0,0-.22-.205l-.007-.007a1.5,1.5,0,0,1,1.26-2.323,1.5,1.5,0,0,1,1.061,2.563A1.524,1.524,0,0,1,53.566,11.923ZM31.986,11a1.5,1.5,0,0,1,0-3h.049a1.5,1.5,0,0,1,0,3h-.045ZM49.173,8.487a.594.594,0,0,1-.347-.111A29.066,29.066,0,0,0,15.19,8.34a.582.582,0,0,1-.84-.149,5.044,5.044,0,0,0-1.065-1.265.6.6,0,0,1,.043-.934A31.931,31.931,0,0,1,42.023,1.63,26.782,26.782,0,0,1,50.8,6.075a.6.6,0,0,1,.043.863A10.9,10.9,0,0,0,49.671,8.22a.6.6,0,0,1-.5.267Z" transform="translate(129.836 0)" fill="url(#linear-gradient)"/>
  <path id="news" d="M17.273-26.156a9.861,9.861,0,0,1,6.48,2.074q2.52,2.074,2.52,6.879V0H19.43V-15.539a7.091,7.091,0,0,0-.539-3.094,3.792,3.792,0,0,0-3.75-1.969,4.651,4.651,0,0,0-4.664,2.883,9.9,9.9,0,0,0-.656,3.891V0H3.164V-25.5H9.609v3.727a11.339,11.339,0,0,1,2.438-2.836A8.471,8.471,0,0,1,17.273-26.156Zm23.242,5.438a4.537,4.537,0,0,0-3.6,1.453,7.253,7.253,0,0,0-1.605,3.938H45.7a5.815,5.815,0,0,0-1.605-4.02A4.985,4.985,0,0,0,40.516-20.719Zm0-5.508a13.389,13.389,0,0,1,5.742,1.2,10.059,10.059,0,0,1,4.219,3.773,12.875,12.875,0,0,1,1.945,5.273,34.057,34.057,0,0,1,.211,5.063H35.148q.141,3.844,2.414,5.391a5.686,5.686,0,0,0,3.328.961,4.79,4.79,0,0,0,3.352-1.172A5.566,5.566,0,0,0,45.484-7.5H52.3a8.473,8.473,0,0,1-2.367,4.617Q46.656.844,40.75.844a12.955,12.955,0,0,1-8.6-3.141q-3.727-3.141-3.727-10.219,0-6.633,3.363-10.172A11.5,11.5,0,0,1,40.516-26.227Zm26.664.68h6.773l3.891,18.4,3.984-18.4h6.961L81.383,0H74.516L70.508-18.609,66.453,0H59.516L52.344-25.547h7.172L63.5-7.219ZM95.672-8.156a4.46,4.46,0,0,0,.914,2.531q1.242,1.336,4.594,1.336a7,7,0,0,0,3.129-.586,1.878,1.878,0,0,0,1.16-1.758,1.9,1.9,0,0,0-.937-1.711q-.937-.586-6.961-2.016-4.336-1.078-6.117-2.7a5.843,5.843,0,0,1-1.781-4.594,7.968,7.968,0,0,1,2.777-6.082q2.777-2.543,7.816-2.543a14.34,14.34,0,0,1,7.793,1.91q3.012,1.91,3.457,6.6h-6.68a3.951,3.951,0,0,0-.727-2.039,4.571,4.571,0,0,0-3.75-1.359,5.388,5.388,0,0,0-3.105.68,1.956,1.956,0,0,0-.926,1.594,1.744,1.744,0,0,0,.984,1.664,42.614,42.614,0,0,0,6.961,1.852,12.785,12.785,0,0,1,5.977,2.836,6.439,6.439,0,0,1,1.969,4.8,7.763,7.763,0,0,1-2.824,6.2q-2.824,2.4-8.73,2.4-6.023,0-8.895-2.543A8.273,8.273,0,0,1,88.9-8.156Z" transform="translate(-3.164 49)" fill="#333"/>
</svg>
