<svg width="16" height="10" viewBox="0 0 16 10" fill="none" xmlns="http://www.w3.org/2000/svg">
<path opacity="0.5" fill-rule="evenodd" clip-rule="evenodd" d="M6.87593 9.28663C6.88724 9.29869 6.89877 9.31061 6.91054 9.32238C6.94782 9.35969 6.98653 9.39469 7.0265 9.42737C7.62931 9.92516 8.52339 9.89194 9.08734 9.32756C9.09907 9.31582 9.11058 9.30393 9.12186 9.2919L15.5495 2.8529C16.1504 2.25091 16.1501 1.27594 15.5489 0.674245C14.9466 0.0714664 13.9695 0.0717106 13.3675 0.674788L7.99119 6.06062L2.62002 0.679978C2.02086 0.0797653 1.04839 0.079525 0.448939 0.679443C-0.149438 1.27829 -0.149677 2.24863 0.448405 2.84777L6.87593 9.28663Z" fill="white"/>
</svg>
