<svg xmlns="http://www.w3.org/2000/svg" xmlns:xlink="http://www.w3.org/1999/xlink" width="16" height="16" viewBox="0 0 16 16">
  <defs>
    <clipPath id="clip-Artboard_1">
      <rect width="16" height="16"/>
    </clipPath>
  </defs>
  <g id="Artboard_1" data-name="Artboard – 1" clip-path="url(#clip-Artboard_1)">
    <rect width="16" height="16" fill="#fff"/>
    <path id="Union_1" data-name="Union 1" d="M-6499.646,5416.189a.5.5,0,0,1,0-.708l2.709-2.71-2.709-2.711a.5.5,0,0,1,0-.706.5.5,0,0,1,.707,0l3.063,3.063a.5.5,0,0,1,.146.354.5.5,0,0,1-.146.354l-3.063,3.063a.5.5,0,0,1-.354.147A.494.494,0,0,1-6499.646,5416.189Z" transform="translate(6506.127 -5404.771)" fill="#55dde0" stroke="rgba(0,0,0,0)" stroke-miterlimit="10" stroke-width="1"/>
  </g>
</svg>
