<svg xmlns="http://www.w3.org/2000/svg" width="10.243" height="17.039" viewBox="0 0 10.243 17.039">
  <path id="Union_1" data-name="Union 1" d="M-5802.2,3596.176a1.125,1.125,0,0,1,0-1.592l6.1-6.1-6.1-6.1a1.123,1.123,0,0,1,0-1.59,1.124,1.124,0,0,1,1.591,0l6.894,6.894a1.123,1.123,0,0,1,.329.8,1.12,1.12,0,0,1-.329.794l-6.9,6.9a1.122,1.122,0,0,1-.795.329A1.122,1.122,0,0,1-5802.2,3596.176Z" transform="translate(5803.132 -3579.966)" fill="#365c73" stroke="rgba(0,0,0,0)" stroke-miterlimit="10" stroke-width="1"/>
</svg>
