<svg xmlns="http://www.w3.org/2000/svg" xmlns:xlink="http://www.w3.org/1999/xlink" width="113.37" height="32" viewBox="0 0 113.37 32">
  <defs>
    <linearGradient id="linear-gradient" x1="0.5" x2="0.5" y2="1" gradientUnits="objectBoundingBox">
      <stop offset="0" stop-color="#f4cc3a"/>
      <stop offset="0.537" stop-color="#f26419"/>
      <stop offset="1" stop-color="#e84855"/>
    </linearGradient>
  </defs>
  <g id="Group" transform="translate(-0.001 0)">
    <path id="Exclusão_1" data-name="Exclusão 1" d="M2691.344,1330.825a5.964,5.964,0,0,1-4.909-2,7.936,7.936,0,0,1,0-9.6,6.958,6.958,0,0,1,9.82,0,7.935,7.935,0,0,1,0,9.6A5.965,5.965,0,0,1,2691.344,1330.825Zm-.014-10.805a2.962,2.962,0,0,0-2.253,1.037,5.961,5.961,0,0,0,0,5.924,2.678,2.678,0,0,0,2.116,1.047c.047,0,.094,0,.139,0s.087,0,.141,0a2.661,2.661,0,0,0,2.109-1.047,6,6,0,0,0,0-5.924A2.963,2.963,0,0,0,2691.329,1320.019Zm-44.415,10.805a5.965,5.965,0,0,1-4.91-2,7.935,7.935,0,0,1,0-9.6,6.958,6.958,0,0,1,9.82,0,7.935,7.935,0,0,1,0,9.6A5.964,5.964,0,0,1,2646.915,1330.825Zm-.015-10.805a2.962,2.962,0,0,0-2.253,1.037,5.959,5.959,0,0,0,0,5.924,2.678,2.678,0,0,0,2.116,1.047c.047,0,.094,0,.139,0s.087,0,.141,0a2.661,2.661,0,0,0,2.109-1.047,6,6,0,0,0,0-5.924A2.962,2.962,0,0,0,2646.9,1320.019Zm-13.064,10.7a4.555,4.555,0,0,1-2.323-.638,4.134,4.134,0,0,1-.887-.844.2.2,0,0,0-.355.122v.515a.5.5,0,0,1-.5.5h-2.27a.5.5,0,0,1-.5-.5v-16.25a.5.5,0,0,1,.5-.5h2.328a.5.5,0,0,1,.5.5v1.118q0,.683,0,1.366c0,.833,0,1.8,0,2.732a.148.148,0,0,0,.148.15.148.148,0,0,0,.113-.052,5.424,5.424,0,0,1,1.133-1.032,4.137,4.137,0,0,1,2.127-.589c.057,0,.115,0,.17,0,.071,0,.143,0,.214,0a4.7,4.7,0,0,1,3.73,1.821,7.406,7.406,0,0,1,1.424,4.687,8.186,8.186,0,0,1-1.407,4.934,4.561,4.561,0,0,1-3.746,1.96c-.059,0-.119,0-.18,0S2633.907,1330.724,2633.835,1330.724Zm-.919-10.486a2.488,2.488,0,0,0-2.342,1.656,6.182,6.182,0,0,0-.352,2.273,4.736,4.736,0,0,0,.728,2.719,2.483,2.483,0,0,0,2.051,1.084c.054,0,.107,0,.163-.005h.082a2.283,2.283,0,0,0,1.922-1.045,4.732,4.732,0,0,0,.715-2.741,6.172,6.172,0,0,0-.351-2.25,2.442,2.442,0,0,0-2.327-1.691c-.045,0-.09,0-.134,0S2632.967,1320.238,2632.916,1320.238Zm50.494,10.141h-2.572a.408.408,0,0,1-.407-.408v-11.958a.408.408,0,0,1,.407-.408h2.572a.408.408,0,0,1,.408.408v11.958A.408.408,0,0,1,2683.409,1330.379Zm-5.386,0h-2.736a.408.408,0,0,1-.408-.408v-2.677a.408.408,0,0,1,.408-.407h2.736a.407.407,0,0,1,.407.407v2.677a.407.407,0,0,1-.407.408Zm-7.758,0h-2.245a.56.56,0,0,1-.56-.559v-11.656a.562.562,0,0,1,.56-.559h2.069a.563.563,0,0,1,.4.164.556.556,0,0,1,.164.4c0,.38,0,.76,0,1.14a.15.15,0,0,0,.15.152.151.151,0,0,0,.128-.07,5.6,5.6,0,0,1,1.069-1.3c.045-.037.1-.08.153-.12a3.705,3.705,0,0,1,2.122-.665h.052a.557.557,0,0,1,.557.561v2.279a.56.56,0,0,1-.559.558h-.038c-.141-.007-.256-.011-.364-.011a2.781,2.781,0,0,0-2.707,1.312,5.136,5.136,0,0,0-.387,2.274v5.547A.56.56,0,0,1,2670.265,1330.379Zm-4.711-.035h-2.595a.412.412,0,0,1-.289-.12.4.4,0,0,1-.119-.288v-7.362a3.434,3.434,0,0,0-.352-1.664,1.764,1.764,0,0,0-1.734-.891c-.05,0-.1,0-.15,0a2.38,2.38,0,0,0-1.86.889,4.067,4.067,0,0,0-.686,2.526v6.414a.5.5,0,0,1-.5.5h-2.327a.5.5,0,0,1-.5-.5v-16.214a.5.5,0,0,1,.147-.354.5.5,0,0,1,.354-.147h2.327a.5.5,0,0,1,.5.5v5.136a.149.149,0,0,0,.1.141.148.148,0,0,0,.167-.047,3.842,3.842,0,0,1,1.417-1.178,4.788,4.788,0,0,1,2-.44h.076a5.494,5.494,0,0,1,1.985.369,3.915,3.915,0,0,1,1.818,1.479,3.265,3.265,0,0,1,.517,1.287,18.316,18.316,0,0,1,.117,2.467v7.093A.408.408,0,0,1,2665.553,1330.344Zm17.856-14.262h-2.572a.407.407,0,0,1-.407-.407v-2.267a.408.408,0,0,1,.407-.408h2.572a.408.408,0,0,1,.408.408v2.267A.408.408,0,0,1,2683.409,1316.082Z" transform="translate(-2585 -1305.91)" fill="#333" stroke="rgba(0,0,0,0)" stroke-miterlimit="10" stroke-width="1"/>
    <path id="Shape" d="M16.024,32h0a15.937,15.937,0,0,1-5.035-.815A13.378,13.378,0,0,1,6.6,28.963a.3.3,0,0,1-.023-.432,5.487,5.487,0,0,0,.584-.641.3.3,0,0,1,.423-.078,14.537,14.537,0,0,0,16.818.018.292.292,0,0,1,.419.074,2.521,2.521,0,0,0,.532.633.3.3,0,0,1-.021.467A15.876,15.876,0,0,1,16.024,32Zm-.008-3.988H15.99a.751.751,0,0,1,0-1.5h.023a.751.751,0,0,1,0,1.5Zm2.565-.287a.3.3,0,0,1-.3-.324,2.257,2.257,0,0,0-.1-.8.292.292,0,0,1,.221-.369,10.665,10.665,0,0,0,7.033-5.585A10.5,10.5,0,0,0,18.405,5.774a.292.292,0,0,1-.221-.368,2.269,2.269,0,0,0,.1-.789.3.3,0,0,1,.3-.32.292.292,0,0,1,.067.008,11.742,11.742,0,0,1,8.438,7.043A12.005,12.005,0,0,1,18.64,27.719.3.3,0,0,1,18.58,27.725Zm-5.131,0a.3.3,0,0,1-.059-.006A12,12,0,0,1,13.384,4.3a.3.3,0,0,1,.065-.007.3.3,0,0,1,.3.32,2.272,2.272,0,0,0,.1.79.291.291,0,0,1-.22.368A10.547,10.547,0,0,0,6.591,20.649a10.666,10.666,0,0,0,7.033,5.585.292.292,0,0,1,.192.136.3.3,0,0,1,.03.233,2.278,2.278,0,0,0-.1.8.3.3,0,0,1-.1.248A.3.3,0,0,1,13.449,27.725Zm13.336-.178a.75.75,0,0,1-.529-1.283l.013-.014a.751.751,0,0,1,1.062,1.062l-.018.017A.746.746,0,0,1,26.784,27.547Zm-21.579,0a.751.751,0,0,1-.4-.114.742.742,0,0,1-.24-.24.751.751,0,1,1,.637.354ZM3.263,25.5H3.249a.3.3,0,0,1-.211-.1A13.4,13.4,0,0,1,.815,21.011,15.965,15.965,0,0,1,3,6.665a.294.294,0,0,1,.228-.123h.015a.3.3,0,0,1,.225.1,2.526,2.526,0,0,0,.632.533A.29.29,0,0,1,4.17,7.6a14.558,14.558,0,0,0,.018,16.818.3.3,0,0,1,.051.228.3.3,0,0,1-.129.194,5.347,5.347,0,0,0-.641.584A.3.3,0,0,1,3.263,25.5Zm25.5-.041h0a.3.3,0,0,1-.226-.1,2.531,2.531,0,0,0-.632-.532.291.291,0,0,1-.075-.419,14.555,14.555,0,0,0-.018-16.818.3.3,0,0,1,.078-.423,5.487,5.487,0,0,0,.641-.584.3.3,0,0,1,.2-.081h.016a.3.3,0,0,1,.212.1,13.378,13.378,0,0,1,2.222,4.387A15.963,15.963,0,0,1,29,25.335a.3.3,0,0,1-.229.124ZM16,21a5,5,0,1,1,5-5A5.006,5.006,0,0,1,16,21ZM5.2,5.966a.75.75,0,0,1-.533-1.279l.018-.018A.751.751,0,0,1,5.75,5.73l-.014.014A.743.743,0,0,1,5.2,5.966Zm21.579,0a.764.764,0,0,1-.408-.118h0l0,0a1.464,1.464,0,0,0-.1-.11,1.5,1.5,0,0,0-.11-.1h0l0,0a.752.752,0,0,1,.63-1.161.753.753,0,0,1,.726.556.753.753,0,0,1-.194.725A.762.762,0,0,1,26.783,5.961ZM16.016,5.5H16A.75.75,0,1,1,15.99,4h.025a.75.75,0,0,1,0,1.5Zm8.572-1.253h0a.294.294,0,0,1-.174-.056A14.54,14.54,0,0,0,7.6,4.17a.287.287,0,0,1-.176.059.3.3,0,0,1-.05,0A.291.291,0,0,1,7.176,4.1a2.526,2.526,0,0,0-.533-.632.3.3,0,0,1-.1-.239A.294.294,0,0,1,6.665,3,15.964,15.964,0,0,1,21.011.815,13.4,13.4,0,0,1,25.4,3.038a.3.3,0,0,1,.022.432,5.346,5.346,0,0,0-.584.641.3.3,0,0,1-.194.129A.305.305,0,0,1,24.587,4.244Z" transform="translate(0)" fill="url(#linear-gradient)"/>
  </g>
</svg>
