<?xml version="1.0" encoding="utf-8"?>
<!-- Generator: Adobe Illustrator 23.0.0, SVG Export Plug-In . SVG Version: 6.00 Build 0)  -->
<svg version="1.1" id="Camada_1" xmlns="http://www.w3.org/2000/svg" xmlns:xlink="http://www.w3.org/1999/xlink" x="0px" y="0px"
	 viewBox="0 0 113.4 36" style="enable-background:new 0 0 113.4 36;" xml:space="preserve">
<style type="text/css">
	.st0{fill:#FFFFFF;}
	.st1{fill:url(#Shape_1_);}
	.st2{fill:#F4CC3A;}
</style>
<g id="Group" transform="translate(-0.001 0)">
	<path id="Exclusão_1" class="st0" d="M106.3,26.9c-1.9,0.1-3.7-0.6-4.9-2c-2.2-2.8-2.2-6.8,0-9.6c2.7-2.7,7.1-2.7,9.8,0
		c2.2,2.8,2.2,6.8,0,9.6C110,26.3,108.2,27.1,106.3,26.9z M106.3,16.1c-0.9,0-1.7,0.4-2.3,1c-1.1,1.8-1.1,4.1,0,5.9
		c0.5,0.7,1.3,1,2.1,1c0,0,0.1,0,0.1,0s0.1,0,0.1,0c0.8,0,1.6-0.4,2.1-1c1-1.8,1-4.1,0-5.9C108,16.5,107.2,16.1,106.3,16.1
		L106.3,16.1z M61.9,26.9c-1.9,0.1-3.7-0.6-4.9-2c-2.2-2.8-2.2-6.8,0-9.6c2.7-2.7,7.1-2.7,9.8,0c2.2,2.8,2.2,6.8,0,9.6
		C65.6,26.3,63.8,27.1,61.9,26.9z M61.9,16.1c-0.9,0-1.7,0.4-2.3,1c-1.1,1.8-1.1,4.1,0,5.9c0.5,0.7,1.3,1,2.1,1c0,0,0.1,0,0.1,0
		s0.1,0,0.1,0c0.8,0,1.6-0.4,2.1-1c1-1.8,1-4.1,0-5.9C63.6,16.5,62.8,16.1,61.9,16.1L61.9,16.1z M48.8,26.8c-0.8,0-1.6-0.2-2.3-0.6
		c-0.3-0.2-0.6-0.5-0.9-0.8c-0.1-0.1-0.2-0.1-0.3,0c0,0-0.1,0.1-0.1,0.2V26c0,0.3-0.2,0.5-0.5,0.5h-2.3c-0.3,0-0.5-0.2-0.5-0.5V9.7
		c0-0.3,0.2-0.5,0.5-0.5h2.3c0.3,0,0.5,0.2,0.5,0.5v1.1c0,0.5,0,0.9,0,1.4c0,0.8,0,1.8,0,2.7c0,0.1,0.1,0.1,0.1,0.2c0,0,0,0,0,0
		c0,0,0.1,0,0.1-0.1c0.3-0.4,0.7-0.7,1.1-1c0.6-0.4,1.4-0.6,2.1-0.6c0.1,0,0.1,0,0.2,0c0.1,0,0.1,0,0.2,0c1.5,0,2.8,0.7,3.7,1.8
		c1,1.4,1.5,3,1.4,4.7c0.1,1.8-0.4,3.5-1.4,4.9c-0.9,1.2-2.3,2-3.7,2c-0.1,0-0.1,0-0.2,0S48.9,26.8,48.8,26.8L48.8,26.8z M47.9,16.3
		c-1.1,0-2,0.7-2.3,1.7c-0.3,0.7-0.4,1.5-0.4,2.3c0,1,0.2,1.9,0.7,2.7c0.5,0.7,1.2,1.1,2.1,1.1c0.1,0,0.1,0,0.2,0h0.1
		c0.8,0,1.5-0.4,1.9-1c0.5-0.8,0.8-1.8,0.7-2.7c0-0.8-0.1-1.5-0.4-2.3c-0.3-1-1.3-1.7-2.3-1.7c0,0-0.1,0-0.1,0S48,16.3,47.9,16.3
		L47.9,16.3z M98.4,26.5h-2.6c-0.2,0-0.4-0.2-0.4-0.4v-12c0-0.2,0.2-0.4,0.4-0.4h2.6c0.2,0,0.4,0.2,0.4,0.4v12
		C98.8,26.3,98.6,26.5,98.4,26.5C98.4,26.5,98.4,26.5,98.4,26.5L98.4,26.5z M93,26.5h-2.7c-0.2,0-0.4-0.2-0.4-0.4v-2.7
		c0-0.2,0.2-0.4,0.4-0.4H93c0.2,0,0.4,0.2,0.4,0.4v2.7C93.4,26.3,93.3,26.5,93,26.5C93,26.5,93,26.5,93,26.5z M85.3,26.5H83
		c-0.3,0-0.6-0.3-0.6-0.6V14.2c0-0.3,0.3-0.6,0.6-0.6h2.1c0.1,0,0.3,0.1,0.4,0.2c0.1,0.1,0.2,0.3,0.2,0.4c0,0.4,0,0.8,0,1.1
		c0,0.1,0.1,0.2,0.1,0.2c0,0,0,0,0,0c0.1,0,0.1,0,0.1-0.1c0.3-0.5,0.6-0.9,1.1-1.3c0,0,0.1-0.1,0.2-0.1c0.6-0.4,1.4-0.7,2.1-0.7h0.1
		c0.3,0,0.6,0.2,0.6,0.6c0,0,0,0,0,0v2.3c0,0.3-0.3,0.6-0.6,0.6h0c-0.1,0-0.3,0-0.4,0c-1.1-0.1-2.1,0.4-2.7,1.3
		c-0.3,0.7-0.4,1.5-0.4,2.3v5.5C85.8,26.2,85.6,26.5,85.3,26.5C85.3,26.5,85.3,26.5,85.3,26.5L85.3,26.5z M80.6,26.4H78
		c-0.1,0-0.2,0-0.3-0.1c-0.1-0.1-0.1-0.2-0.1-0.3v-7.4c0-0.6-0.1-1.1-0.4-1.7c-0.3-0.6-1-1-1.7-0.9c-0.1,0-0.1,0-0.1,0
		c-0.7,0-1.4,0.3-1.9,0.9c-0.5,0.7-0.7,1.6-0.7,2.5v6.4c0,0.3-0.2,0.5-0.5,0.5h-2.3c-0.3,0-0.5-0.2-0.5-0.5V9.7
		c0-0.1,0.1-0.3,0.1-0.4c0.1-0.1,0.2-0.1,0.4-0.1h2.3c0.3,0,0.5,0.2,0.5,0.5v5.1c0,0.1,0,0.1,0.1,0.1c0.1,0,0.1,0,0.2,0
		c0.4-0.5,0.9-0.9,1.4-1.2c0.6-0.3,1.3-0.4,2-0.4h0.1c0.7,0,1.4,0.1,2,0.4c0.7,0.3,1.4,0.8,1.8,1.5c0.3,0.4,0.4,0.8,0.5,1.3
		c0.1,0.8,0.1,1.6,0.1,2.5V26C81,26.3,80.8,26.4,80.6,26.4C80.6,26.4,80.6,26.4,80.6,26.4L80.6,26.4z M98.4,12.2h-2.6
		c-0.2,0-0.4-0.2-0.4-0.4V9.5c0-0.2,0.2-0.4,0.4-0.4h2.6c0.2,0,0.4,0.2,0.4,0.4v2.3C98.8,12,98.6,12.2,98.4,12.2
		C98.4,12.2,98.4,12.2,98.4,12.2L98.4,12.2z"/>
	
		<linearGradient id="Shape_1_" gradientUnits="userSpaceOnUse" x1="-912.0569" y1="988.2802" x2="-912.0569" y2="987.2802" gradientTransform="matrix(31.9951 0 0 -31.9989 29197.3066 31625.8926)">
		<stop  offset="0" style="stop-color:#F4CC3A"/>
		<stop  offset="0.537" style="stop-color:#F26419"/>
		<stop  offset="1" style="stop-color:#E84855"/>
	</linearGradient>
	<path id="Shape" class="st1" d="M16,34L16,34c-1.7,0-3.4-0.3-5-0.8C9.4,32.7,7.9,32,6.6,31c-0.1-0.1-0.1-0.3,0-0.4c0,0,0,0,0,0
		c0.2-0.2,0.4-0.4,0.6-0.6c0.1-0.1,0.3-0.2,0.4-0.1c0,0,0,0,0,0c5,3.6,11.8,3.6,16.8,0c0.1-0.1,0.3-0.1,0.4,0.1c0,0,0,0,0,0
		c0.1,0.2,0.3,0.5,0.5,0.6c0.1,0.1,0.1,0.3,0,0.4c0,0,0,0,0,0C22.6,33,19.4,34,16,34z M16,30L16,30c-0.4,0-0.8-0.4-0.7-0.8
		c0-0.4,0.3-0.7,0.7-0.7h0c0.4,0,0.7,0.4,0.7,0.8C16.7,29.7,16.4,30,16,30L16,30z M18.6,29.7c-0.2,0-0.3-0.1-0.3-0.3c0,0,0,0,0,0
		c0-0.3,0-0.5-0.1-0.8c0-0.2,0-0.3,0.2-0.4c0,0,0,0,0,0c3.1-0.7,5.6-2.8,7-5.6c2.6-5.2,0.4-11.5-4.8-14.1c-0.7-0.4-1.5-0.6-2.3-0.8
		c-0.2,0-0.3-0.2-0.2-0.3c0,0,0,0,0,0c0.1-0.3,0.1-0.5,0.1-0.8c0-0.2,0.1-0.3,0.3-0.3c0,0,0,0,0,0c0,0,0,0,0.1,0
		c3.8,0.8,7,3.4,8.4,7c2.6,6.1-0.3,13.1-6.4,15.7C20,29.3,19.3,29.6,18.6,29.7C18.6,29.7,18.6,29.7,18.6,29.7L18.6,29.7z M13.5,29.7
		C13.4,29.7,13.4,29.7,13.5,29.7c-6.5-1.5-10.6-7.9-9.1-14.3c1-4.5,4.6-8.1,9.1-9.1c0,0,0,0,0.1,0c0.2,0,0.3,0.1,0.3,0.3
		c0,0,0,0,0,0c0,0.3,0,0.5,0.1,0.8c0,0.2,0,0.3-0.2,0.4c0,0,0,0,0,0c-5.7,1.3-9.2,7-7.8,12.7C6,21.2,6.3,22,6.6,22.6
		c1.4,2.8,4,4.8,7,5.6c0.1,0,0.1,0.1,0.2,0.1c0,0.1,0.1,0.2,0,0.2c-0.1,0.3-0.1,0.5-0.1,0.8c0,0.1,0,0.2-0.1,0.2
		C13.6,29.7,13.5,29.7,13.5,29.7L13.5,29.7z M26.8,29.5c-0.4,0-0.8-0.3-0.8-0.7c0-0.2,0.1-0.4,0.2-0.5l0,0c0.3-0.3,0.8-0.3,1.1,0
		c0.3,0.3,0.3,0.8,0,1l0,0C27.2,29.5,27,29.5,26.8,29.5L26.8,29.5z M5.2,29.5c-0.1,0-0.3,0-0.4-0.1c-0.1-0.1-0.2-0.1-0.2-0.2
		c-0.2-0.4-0.1-0.8,0.2-1c0.4-0.2,0.8-0.1,1,0.2s0.1,0.8-0.2,1C5.5,29.5,5.3,29.5,5.2,29.5L5.2,29.5z M3.3,27.5L3.3,27.5
		c-0.1,0-0.2,0-0.2-0.1c-1-1.3-1.8-2.8-2.2-4.4C-0.8,18.2,0,12.8,3,8.7c0.1-0.1,0.1-0.1,0.2-0.1h0c0.1,0,0.2,0,0.2,0.1
		C3.6,8.9,3.9,9,4.1,9.2c0.1,0.1,0.2,0.3,0.1,0.4c0,0,0,0,0,0c-3.6,5-3.6,11.8,0,16.8c0,0.1,0.1,0.1,0.1,0.2c0,0.1-0.1,0.1-0.1,0.2
		c-0.2,0.2-0.4,0.4-0.6,0.6C3.4,27.5,3.3,27.5,3.3,27.5z M28.8,27.5L28.8,27.5c-0.1,0-0.2,0-0.2-0.1c-0.2-0.2-0.4-0.4-0.6-0.5
		c-0.1-0.1-0.2-0.3-0.1-0.4c0,0,0,0,0,0c3.6-5,3.6-11.8,0-16.8c-0.1-0.1-0.1-0.3,0.1-0.4c0,0,0,0,0,0c0.2-0.2,0.4-0.4,0.6-0.6
		c0.1-0.1,0.1-0.1,0.2-0.1h0c0.1,0,0.2,0,0.2,0.1c1,1.3,1.8,2.8,2.2,4.4c1.6,4.9,0.8,10.2-2.2,14.3C28.9,27.4,28.9,27.5,28.8,27.5
		L28.8,27.5z M16,23c-2.8,0-5-2.2-5-5s2.2-5,5-5s5,2.2,5,5C21,20.8,18.8,23,16,23z M5.2,8C4.8,8,4.4,7.6,4.4,7.2
		c0-0.2,0.1-0.4,0.2-0.5l0,0c0.3-0.3,0.8-0.3,1.1,0C6,7,6,7.4,5.8,7.7l0,0C5.6,7.9,5.4,8,5.2,8z M26.8,8c-0.1,0-0.3,0-0.4-0.1l0,0
		l0,0c0,0-0.1-0.1-0.1-0.1c0,0-0.1-0.1-0.1-0.1l0,0l0,0c-0.2-0.3-0.1-0.8,0.2-1c0.1-0.1,0.3-0.1,0.4-0.1c0.3,0,0.6,0.2,0.7,0.6
		c0.1,0.3,0,0.5-0.2,0.7C27.2,7.9,27,8,26.8,8L26.8,8z M16,7.5L16,7.5c-0.4,0-0.8-0.3-0.8-0.7S15.6,6,16,6h0c0.4,0,0.8,0.3,0.8,0.8
		S16.4,7.5,16,7.5L16,7.5z M24.6,6.2L24.6,6.2c-0.1,0-0.1,0-0.2-0.1c-5-3.6-11.8-3.6-16.8,0c-0.1,0-0.1,0.1-0.2,0.1c0,0,0,0-0.1,0
		c-0.1,0-0.2-0.1-0.2-0.1C7,5.9,6.9,5.6,6.6,5.5C6.6,5.4,6.5,5.3,6.5,5.2c0-0.1,0-0.2,0.1-0.2c4.2-3,9.5-3.8,14.3-2.2
		C22.6,3.3,24.1,4,25.4,5c0.1,0.1,0.1,0.3,0,0.4c0,0,0,0,0,0c-0.2,0.2-0.4,0.4-0.6,0.6C24.8,6.2,24.7,6.2,24.6,6.2
		C24.6,6.2,24.6,6.2,24.6,6.2L24.6,6.2z"/>
</g>
<g>
	<path class="st2" d="M91.9,30.1c0.5,0.6,0.7,1.4,0.7,2.3c0,1-0.2,1.8-0.7,2.5c-0.5,0.7-1.1,1-2,1c-0.5,0-1-0.1-1.3-0.3
		c-0.2-0.1-0.4-0.3-0.6-0.7v0.8h-1.6v-8.6h1.7v3.1c0.2-0.3,0.4-0.5,0.7-0.7c0.3-0.2,0.7-0.3,1.2-0.3C90.8,29.2,91.4,29.5,91.9,30.1z
		 M90.5,34c0.2-0.3,0.4-0.8,0.4-1.4c0-0.5-0.1-0.8-0.2-1.1c-0.2-0.6-0.6-0.8-1.2-0.8c-0.6,0-1,0.3-1.3,0.8c-0.1,0.3-0.2,0.7-0.2,1.1
		c0,0.5,0.1,1,0.4,1.4s0.6,0.5,1.1,0.5C89.9,34.6,90.3,34.4,90.5,34z"/>
	<path class="st2" d="M98.8,29.5c0.4,0.2,0.8,0.5,1.1,0.9c0.3,0.4,0.4,0.8,0.5,1.3c0,0.3,0.1,0.7,0.1,1.3h-4.7
		c0,0.6,0.2,1.1,0.7,1.3c0.3,0.2,0.6,0.2,0.9,0.2c0.4,0,0.7-0.1,0.9-0.3c0.1-0.1,0.2-0.3,0.3-0.4h1.7c0,0.4-0.3,0.8-0.6,1.2
		c-0.6,0.6-1.4,0.9-2.4,0.9c-0.8,0-1.6-0.3-2.2-0.8c-0.7-0.5-1-1.4-1-2.6c0-1.1,0.3-2,0.9-2.5c0.6-0.6,1.3-0.9,2.3-0.9
		C97.9,29.2,98.4,29.3,98.8,29.5z M96.3,30.9c-0.2,0.2-0.4,0.6-0.4,1h2.9c0-0.4-0.2-0.8-0.4-1c-0.3-0.2-0.6-0.3-1-0.3
		C96.9,30.6,96.6,30.7,96.3,30.9z"/>
	<path class="st2" d="M101.6,30.6v-1.2h0.9v-1.8h1.7v1.8h1v1.2h-1V34c0,0.3,0,0.4,0.1,0.5s0.3,0.1,0.6,0.1c0.1,0,0.1,0,0.2,0
		s0.1,0,0.2,0v1.2l-0.8,0c-0.8,0-1.3-0.1-1.6-0.4c-0.2-0.2-0.3-0.5-0.3-0.9v-3.9H101.6z"/>
	<path class="st2" d="M109.7,31.9c0.3,0,0.5-0.1,0.7-0.1c0.2-0.1,0.4-0.3,0.4-0.5c0-0.3-0.1-0.4-0.3-0.5c-0.2-0.1-0.5-0.1-0.8-0.1
		c-0.4,0-0.7,0.1-0.8,0.3c-0.1,0.1-0.2,0.3-0.2,0.6h-1.6c0-0.6,0.2-1,0.5-1.4c0.4-0.6,1.2-0.8,2.3-0.8c0.7,0,1.3,0.1,1.9,0.4
		c0.5,0.3,0.8,0.8,0.8,1.6v2.9c0,0.2,0,0.4,0,0.7c0,0.2,0,0.4,0.1,0.4s0.1,0.1,0.2,0.2v0.2h-1.8c-0.1-0.1-0.1-0.3-0.1-0.4
		s0-0.2,0-0.4c-0.2,0.3-0.5,0.5-0.8,0.6c-0.4,0.2-0.8,0.3-1.2,0.3c-0.6,0-1.1-0.2-1.4-0.5c-0.4-0.3-0.6-0.8-0.6-1.4
		c0-0.8,0.3-1.4,0.9-1.7c0.3-0.2,0.8-0.3,1.5-0.4L109.7,31.9z M110.7,32.7c-0.1,0.1-0.2,0.1-0.3,0.2c-0.1,0-0.3,0.1-0.4,0.1
		l-0.4,0.1c-0.4,0.1-0.6,0.1-0.8,0.2c-0.3,0.2-0.4,0.4-0.4,0.7c0,0.3,0.1,0.5,0.2,0.6c0.2,0.1,0.4,0.2,0.6,0.2c0.4,0,0.7-0.1,1-0.3
		c0.3-0.2,0.5-0.6,0.5-1.2V32.7z"/>
</g>
</svg>
