<svg width="20" height="21" viewBox="0 0 20 21" fill="none" xmlns="http://www.w3.org/2000/svg">
<path fill-rule="evenodd" clip-rule="evenodd" d="M17.0833 16.6709C17.2619 16.8521 17.2619 17.1427 17.0833 17.3239C16.8992 17.5068 16.6014 17.5061 16.4182 17.3223C16.235 17.1385 16.2357 16.8413 16.4198 16.6584C16.5091 16.5715 16.6295 16.5239 16.7542 16.5262C16.8788 16.5286 16.9974 16.5807 17.0833 16.6709ZM2.92993 3.18605C2.74671 3.36982 2.74741 3.66707 2.9315 3.84997C3.11558 4.03288 3.41335 4.03218 3.59658 3.84841C3.76894 3.66376 3.76385 3.376 3.58507 3.19753C3.40629 3.01906 3.11804 3.01399 2.93306 3.18605H2.92993ZM10.0203 2.76464H10.0046C9.74534 2.76464 9.53516 2.97446 9.53516 3.23329C9.53516 3.49212 9.74534 3.70194 10.0046 3.70194C10.2639 3.70194 10.4741 3.49212 10.4741 3.23329C10.4741 2.97446 10.2639 2.76464 10.0046 2.76464H10.0203ZM10.0163 16.8243C9.75706 16.8243 9.54688 17.0341 9.54688 17.2929C9.54688 17.5517 9.75706 17.7616 10.0163 17.7616H10.032C10.2913 17.7616 10.5015 17.5517 10.5015 17.2929C10.5015 17.0341 10.2913 16.8243 10.032 16.8243H10.0163ZM2.92173 16.6709C2.7682 16.825 2.74099 17.0643 2.85601 17.2489C2.89279 17.3106 2.94443 17.3621 3.00624 17.3989C3.21467 17.5287 3.4881 17.4761 3.63335 17.2783C3.7786 17.0805 3.74655 16.8044 3.55984 16.6451C3.37313 16.4857 3.0949 16.4969 2.92173 16.6709ZM16.4209 3.19576C16.2669 3.35372 16.241 3.59636 16.3583 3.78313C16.3922 3.83769 16.4382 3.88367 16.4929 3.91748C16.6803 4.03343 16.9226 4.0077 17.0813 3.85499C17.2069 3.73816 17.2586 3.56221 17.2161 3.39616C17.1736 3.23011 17.0438 3.10045 16.8774 3.05805C16.7111 3.01564 16.5348 3.06725 16.4178 3.19263L16.4209 3.19576ZM4.12083 7.36346C5.00147 5.61081 6.61156 4.33505 8.52132 3.8767C8.57117 3.86574 8.61426 3.83468 8.64035 3.79088C8.66644 3.74708 8.6732 3.69445 8.65903 3.6455C8.61019 3.4857 8.58902 3.31876 8.59643 3.15185C8.6009 3.09343 8.57728 3.03637 8.5328 2.99814C8.48833 2.95991 8.4283 2.94506 8.37109 2.95814C8.11445 3.0175 7.86093 3.07687 7.61055 3.16122C4.4213 4.23718 2.33865 7.29994 2.51421 10.656C2.68977 14.012 5.08066 16.8415 8.36483 17.58C8.423 17.5921 8.48346 17.576 8.52787 17.5366C8.57228 17.4972 8.59538 17.4392 8.59017 17.3801C8.57859 17.2122 8.59876 17.0437 8.64964 16.8833C8.66381 16.8344 8.65705 16.7817 8.63096 16.7379C8.60487 16.6941 8.56178 16.6631 8.51193 16.6521C6.60332 16.1914 4.99412 14.9163 4.11144 13.1653C3.22247 11.3332 3.22247 9.19562 4.11144 7.36346H4.12083ZM15.2481 17.649C12.0991 19.8841 7.87785 19.8841 4.72888 17.649C4.6875 17.6204 4.63636 17.6096 4.58694 17.619C4.53752 17.6284 4.49394 17.6572 4.46598 17.699C4.35379 17.841 4.23141 17.9746 4.09979 18.0989C4.06346 18.1342 4.04297 18.1826 4.04297 18.2332C4.04297 18.2839 4.06346 18.3323 4.09979 18.3676C4.92149 18.9953 5.85194 19.4666 6.84462 19.7579C9.88194 20.7605 13.2163 20.2543 15.8177 18.3957C15.8626 18.3602 15.8888 18.3061 15.8888 18.2489C15.8888 18.1917 15.8626 18.1376 15.8177 18.102C15.6865 17.9888 15.5735 17.856 15.4828 17.7084C15.4303 17.633 15.3302 17.6077 15.2481 17.649ZM16.347 3.78358C16.3809 3.83813 16.4269 3.88412 16.4816 3.91792L16.4159 3.84919L16.347 3.78358ZM9.99307 7.13924C8.26454 7.13924 6.86328 8.53805 6.86328 10.2636C6.86328 11.9891 8.26454 13.3879 9.99307 13.3879C11.7216 13.3879 13.1229 11.9891 13.1229 10.2636C13.1229 8.54292 11.7292 7.14612 10.0056 7.13924H9.99307ZM16.5637 10.2632C16.5672 11.2689 16.3391 12.262 15.897 13.1657C15.0143 14.9167 13.4051 16.1918 11.4965 16.6525C11.4467 16.6634 11.4036 16.6945 11.3775 16.7383C11.3514 16.7821 11.3447 16.8347 11.3588 16.8837C11.4082 17.0444 11.4283 17.2126 11.4183 17.3804C11.4131 17.4395 11.4362 17.4976 11.4806 17.537C11.525 17.5764 11.5855 17.5925 11.6436 17.5804C13.8143 17.0951 15.6578 15.6745 16.6776 13.7011C17.6975 11.7277 17.7887 9.40459 16.9267 7.35757C16.0834 5.39228 14.453 3.87016 12.4323 3.16159C12.1835 3.08111 11.9307 3.01333 11.6749 2.95851C11.6174 2.94567 11.5573 2.9605 11.5124 2.99856C11.4675 3.03663 11.4431 3.09351 11.4465 3.15222C11.4565 3.31899 11.4364 3.48622 11.387 3.64586C11.3728 3.69482 11.3796 3.74744 11.4057 3.79124C11.4318 3.83504 11.4748 3.86611 11.5247 3.87706C13.4345 4.33542 15.0445 5.61118 15.9252 7.36382C16.3614 8.26787 16.5842 9.25976 16.5762 10.2632H16.5637ZM17.4405 15.7713C17.5884 15.8618 17.7214 15.9745 17.8348 16.1056C17.8722 16.1485 17.9273 16.1719 17.9842 16.1688C18.0411 16.1658 18.0934 16.1367 18.1259 16.09C19.9888 13.4936 20.497 10.165 19.4936 7.13249C19.2018 6.14154 18.7296 5.21271 18.1008 4.39244C18.0655 4.35618 18.0169 4.33572 17.9663 4.33572C17.9156 4.33572 17.867 4.35618 17.8317 4.39244C17.7072 4.52383 17.5733 4.646 17.4311 4.75799C17.3892 4.78591 17.3604 4.82941 17.351 4.87874C17.3416 4.92808 17.3524 4.97912 17.381 5.02043C19.62 8.16392 19.62 12.3778 17.381 15.5213C17.3298 15.607 17.3562 15.7177 17.4405 15.7713ZM2.55858 4.75181C2.40996 4.6623 2.27679 4.54941 2.16423 4.41751C2.12688 4.37456 2.07176 4.35122 2.01487 4.35428C1.95797 4.35733 1.90568 4.38643 1.87316 4.43313C0.0102568 7.02951 -0.497985 10.3581 0.505437 13.3906C0.797277 14.3815 1.2694 15.3104 1.8982 16.1306C1.93355 16.1669 1.98209 16.1874 2.03278 16.1874C2.08347 16.1874 2.132 16.1669 2.16736 16.1306C2.29107 15.9994 2.42503 15.8783 2.56797 15.7682C2.61 15.7397 2.63891 15.6957 2.64831 15.6458C2.65771 15.596 2.64682 15.5445 2.61805 15.5027C0.379015 12.3592 0.379015 8.14525 2.61805 5.00176C2.66922 4.91611 2.64287 4.80535 2.55858 4.75181ZM4.75044 2.87715C7.89942 0.642026 12.1207 0.642026 15.2697 2.87715C15.3111 2.90572 15.3622 2.91651 15.4116 2.90711C15.461 2.89772 15.5046 2.86891 15.5326 2.82717C15.6448 2.68517 15.7671 2.55151 15.8988 2.42725C15.9351 2.39196 15.9556 2.34351 15.9556 2.2929C15.9556 2.2423 15.9351 2.19385 15.8988 2.15856C15.0771 1.53086 14.1466 1.05956 13.1539 0.768228C10.1161 -0.233445 6.78174 0.273911 4.18082 2.13356C4.13404 2.16603 4.10489 2.21823 4.10183 2.27502C4.09877 2.33182 4.12215 2.38684 4.16517 2.42413C4.29731 2.53649 4.41039 2.66943 4.50006 2.81779C4.55366 2.90232 4.66574 2.92749 4.75044 2.87403V2.87715Z" fill="white"/>
</svg>
