<svg xmlns="http://www.w3.org/2000/svg" width="96" height="96" viewBox="0 0 96 96">
  <path id="Combined_Shape" data-name="Combined Shape" d="M48,96A48.013,48.013,0,0,1,29.316,3.772,48.013,48.013,0,0,1,66.684,92.228,47.7,47.7,0,0,1,48,96Zm-19.32-21.55a.705.705,0,0,0-.122.012.675.675,0,0,0-.437.29,12.211,12.211,0,0,1-1.314,1.442.677.677,0,0,0,.049.972,30.154,30.154,0,0,0,9.87,5A35.919,35.919,0,0,0,69,77.257a.673.673,0,0,0,.048-1.051,5.675,5.675,0,0,1-1.2-1.422.656.656,0,0,0-.437-.289.684.684,0,0,0-.113-.01.654.654,0,0,0-.4.132,32.7,32.7,0,0,1-37.841-.04A.671.671,0,0,0,28.679,74.451Zm19.3-2.8A1.691,1.691,0,0,0,46.3,73.333a1.689,1.689,0,0,0,1.683,1.694h.056a1.689,1.689,0,0,0,0-3.377h-.051ZM53.8,21.668a.672.672,0,0,0-.67.719,5.14,5.14,0,0,1-.218,1.777.656.656,0,0,0,.5.829A23.731,23.731,0,0,1,69.235,58.46,24,24,0,0,1,53.411,71.025a.656.656,0,0,0-.5.828,5.144,5.144,0,0,1,.218,1.8.679.679,0,0,0,.227.559.67.67,0,0,0,.446.168.686.686,0,0,0,.136-.013,27.009,27.009,0,0,0,19-36.834A26.414,26.414,0,0,0,53.952,21.685.655.655,0,0,0,53.8,21.668Zm-11.54,0a.64.64,0,0,0-.149.017,26.99,26.99,0,0,0,.013,52.682.686.686,0,0,0,.136.013.675.675,0,0,0,.673-.727,5.128,5.128,0,0,1,.217-1.8.656.656,0,0,0-.5-.828A23.731,23.731,0,0,1,26.829,37.558,24,24,0,0,1,42.654,24.992a.656.656,0,0,0,.5-.829,5.1,5.1,0,0,1-.218-1.777.672.672,0,0,0-.671-.719ZM72.268,70.6a1.679,1.679,0,0,0-1.162.465l-.032.032a1.689,1.689,0,0,0,2.381,2.4l.04-.04A1.691,1.691,0,0,0,72.268,70.6Zm-48.557,0a1.69,1.69,0,0,0-1.433,2.581,1.659,1.659,0,0,0,.542.542,1.688,1.688,0,1,0,.891-3.123ZM19.289,26.717h-.032a.665.665,0,0,0-.514.277,35.915,35.915,0,0,0-4.91,32.28,30.148,30.148,0,0,0,5,9.87.678.678,0,0,0,.476.23h.036a.668.668,0,0,0,.46-.183,12.213,12.213,0,0,1,1.442-1.314.671.671,0,0,0,.176-.95,32.7,32.7,0,0,1-.041-37.841.656.656,0,0,0-.166-.945,5.676,5.676,0,0,1-1.422-1.2A.67.67,0,0,0,19.289,26.717Zm57.365-.094a.668.668,0,0,0-.46.183,12.212,12.212,0,0,1-1.442,1.314.671.671,0,0,0-.176.95,32.7,32.7,0,0,1,.04,37.841.656.656,0,0,0,.167.945,5.663,5.663,0,0,1,1.422,1.2.67.67,0,0,0,.5.23h.032A.665.665,0,0,0,77.257,69a35.915,35.915,0,0,0,4.91-32.28,30.148,30.148,0,0,0-5-9.87.678.678,0,0,0-.476-.23ZM38.437,46.312a1.688,1.688,0,0,0,0,3.375h7.875v7.875a1.688,1.688,0,1,0,3.375,0V49.687h7.875a1.688,1.688,0,1,0,0-3.375H49.687V38.437a1.688,1.688,0,0,0-3.375,0v7.875ZM23.711,22.043a1.681,1.681,0,0,0-1.162.463l-.04.04a1.689,1.689,0,1,0,2.4,2.381l.031-.032a1.688,1.688,0,0,0-1.226-2.85Zm48.558,0a1.679,1.679,0,0,0-1.2.495,1.7,1.7,0,0,0-.222,2.118l.007.008c.08.065.154.138.226.209l.022.022.022.022c.071.072.144.146.209.226l.008.007a1.723,1.723,0,0,0,2.118-.222,1.689,1.689,0,0,0-1.193-2.884Zm-24.29-1.049A1.689,1.689,0,0,0,46.3,22.686a1.694,1.694,0,0,0,1.694,1.683h.045a1.689,1.689,0,0,0,0-3.377Zm0-5.618a32.685,32.685,0,0,1,18.949,6.048.671.671,0,0,0,.391.125.7.7,0,0,0,.122-.011.675.675,0,0,0,.437-.29,12.212,12.212,0,0,1,1.314-1.442.677.677,0,0,0-.049-.972,30.149,30.149,0,0,0-9.87-5,35.922,35.922,0,0,0-32.28,4.91.673.673,0,0,0-.048,1.051,5.675,5.675,0,0,1,1.2,1.422.656.656,0,0,0,.436.289.683.683,0,0,0,.113.01.654.654,0,0,0,.4-.132,32.676,32.676,0,0,1,18.892-6.007Z" fill="#fff"/>
</svg>
