<svg width="20" height="17" viewBox="0 0 20 17" fill="none" xmlns="http://www.w3.org/2000/svg">
<path d="M0.000753275 11.7883C-0.00667122 8.15478 1.01283 4.93834 2.867 1.98311C2.98012 1.79775 3.14655 1.65362 3.34295 1.57091C4.52345 1.04002 5.74888 0.669002 7.01065 0.41587C7.14625 0.388417 7.21346 0.42677 7.26895 0.550309C7.38618 0.812323 7.52568 1.06424 7.6347 1.32949C7.69566 1.47806 7.77069 1.50268 7.91644 1.48048C9.29654 1.2688 10.6993 1.26785 12.0796 1.47765C12.2285 1.50026 12.3141 1.48452 12.3754 1.32141C12.4794 1.05415 12.6201 0.80223 12.7369 0.540216C12.7893 0.421926 12.8565 0.389628 12.9815 0.414659C14.3059 0.670587 15.5969 1.0849 16.8286 1.64923C16.9007 1.67861 16.9627 1.72948 17.0068 1.79538C18.3815 3.90845 19.3361 6.20118 19.7581 8.71635C20.0027 10.1738 20.052 11.6421 19.95 13.1193C19.9289 13.4237 19.8199 13.5949 19.5889 13.7616C18.1869 14.7804 16.6411 15.5695 15.0061 16.1012C14.8888 16.1392 14.8228 16.1266 14.7493 16.0164C14.4242 15.5287 14.1268 15.0245 13.8506 14.5061C13.7724 14.3587 13.8189 14.3087 13.9463 14.2594C14.409 14.0791 14.8568 13.8605 15.2855 13.6058C15.4683 13.498 15.4539 13.5045 15.3011 13.3486C15.1307 13.175 14.9842 13.1787 14.7712 13.2756C12.8174 14.1637 10.7772 14.5009 8.65381 14.2445C7.45736 14.0963 6.28878 13.7657 5.18618 13.2635C4.9568 13.1605 4.74579 13.2231 4.60394 13.4282C4.5297 13.5364 4.63169 13.5557 4.68483 13.5864C5.05759 13.8066 5.44368 14.0017 5.84071 14.1706C6.23147 14.3345 6.23147 14.3353 6.02867 14.7245C5.7917 15.173 5.52903 15.6064 5.24206 16.0225C5.17407 16.123 5.1135 16.14 5.00096 16.1032C3.27826 15.5448 1.65599 14.698 0.19887 13.5965C0.16338 13.5743 0.133657 13.5436 0.112277 13.5068C0.0908971 13.4701 0.0785038 13.4286 0.0761703 13.3858C0.0324048 12.8238 -0.0058897 12.2606 0.000753275 11.7883ZM15.1276 9.06234C15.1314 8.79243 15.0888 8.52396 15.0018 8.26944C14.5829 7.02356 13.1855 6.57381 12.2563 7.38489C11.3489 8.17699 11.2879 9.72646 12.13 10.5965C12.8221 11.3107 13.8517 11.3143 14.5383 10.5965C14.9424 10.1722 15.1202 9.64976 15.1276 9.06234ZM8.48149 9.06759C8.48719 8.91223 8.47366 8.75675 8.44124 8.60493C8.42132 8.49267 8.39364 8.38204 8.3584 8.27388C7.93324 6.9953 6.47062 6.55928 5.55545 7.43374C4.71492 8.23835 4.6606 9.67559 5.43822 10.5476C6.10604 11.2977 7.17321 11.33 7.87307 10.6122C8.28493 10.1887 8.47015 9.66187 8.48031 9.06678L8.48149 9.06759Z" fill="white"/>
</svg>
