<svg width="20" height="20" viewBox="0 0 20 20" fill="none" xmlns="http://www.w3.org/2000/svg">
<path d="M7.52387 17.636C7.52387 18.246 7.53769 18.8592 7.51854 19.4718C7.50684 19.8543 7.17918 20.0207 6.75471 19.8822C5.69243 19.5357 4.70154 19.0033 3.82912 18.3103C1.76579 16.681 0.504596 14.5702 0.114164 11.989C-0.27394 9.46733 0.335816 6.89466 1.81628 4.80738C3.29675 2.7201 5.53365 1.27931 8.06058 0.785444C13.5245 -0.276541 18.7964 3.2613 19.8294 8.69502C20.7294 13.4302 17.9921 18.1865 13.4176 19.8316C13.3035 19.8775 13.1839 19.9083 13.0617 19.9233C12.6931 19.9533 12.4968 19.7689 12.4963 19.3965C12.4963 18.5189 12.492 17.6408 12.5016 16.7626C12.5091 16.0747 12.3654 15.4404 11.8692 14.9015C12.3053 14.8146 12.7277 14.7493 13.1405 14.645C15.0453 14.1646 16.1501 12.8539 16.3362 10.9149C16.4229 10.012 16.4331 9.12381 16.0097 8.2915C15.8634 8.00441 15.6554 7.74892 15.4937 7.4692C15.4405 7.3786 15.4048 7.24375 15.432 7.14893C15.6522 6.36824 15.5852 5.60757 15.3256 4.84954C15.2724 4.6915 15.1692 4.68466 15.0416 4.68571C14.4514 4.69012 13.8769 4.87401 13.3958 5.21249C12.7878 5.63865 12.2085 5.66657 11.4989 5.51591C10.2463 5.25252 8.97921 5.36262 7.73131 5.65656C7.59913 5.68064 7.46261 5.65789 7.34567 5.59229C6.73661 5.23092 6.12544 4.88219 5.4201 4.73417C4.81318 4.60669 4.77329 4.62882 4.61584 5.21354C4.43385 5.85888 4.43716 6.54169 4.62541 7.18527C4.63593 7.22785 4.63739 7.27213 4.6297 7.3153C4.62201 7.35847 4.60533 7.39957 4.58073 7.43602C3.77752 8.37632 3.57327 9.47939 3.68231 10.6646C3.76636 11.5749 3.98284 12.4441 4.55307 13.1932C5.20148 14.0444 6.10682 14.468 7.12226 14.7024C7.45631 14.7798 7.7978 14.8283 8.17068 14.8963C7.83823 15.2508 7.65792 15.6685 7.57015 16.131C7.55845 16.1927 7.45578 16.2559 7.38185 16.2848C6.268 16.7226 5.31372 16.4155 4.67168 15.4188C4.42487 15.0353 4.13339 14.6813 3.69721 14.5185C3.44295 14.4237 3.1472 14.4058 2.87113 14.41C2.65251 14.4132 2.60942 14.5644 2.75145 14.7351C2.81169 14.8112 2.88497 14.8763 2.96794 14.9273C3.54136 15.2466 3.88072 15.7702 4.10466 16.3417C4.4802 17.2994 5.2217 17.6587 6.17225 17.6998C6.60045 17.7193 7.0345 17.6618 7.52387 17.636Z" fill="white"/>
</svg>
