<svg xmlns="http://www.w3.org/2000/svg" width="16" height="16" viewBox="0 0 16 16">
  <path id="Fill_4" data-name="Fill 4" d="M8,0A8.1,8.1,0,0,0,0,8.2a8.188,8.188,0,0,0,5.471,7.783c.4.076.546-.178.546-.4,0-.194-.007-.71-.011-1.395-2.225.5-2.695-1.1-2.695-1.1a2.159,2.159,0,0,0-.888-1.2c-.726-.509.055-.5.055-.5a1.685,1.685,0,0,1,1.225.845,1.68,1.68,0,0,0,2.328.681,1.77,1.77,0,0,1,.508-1.1C4.763,11.621,2.9,10.917,2.9,7.774a3.215,3.215,0,0,1,.824-2.2A3.016,3.016,0,0,1,3.8,3.4s.671-.221,2.2.841a7.393,7.393,0,0,1,4.006,0C11.53,3.181,12.2,3.4,12.2,3.4a3.017,3.017,0,0,1,.08,2.171,3.209,3.209,0,0,1,.822,2.2c0,3.151-1.871,3.845-3.652,4.047a1.986,1.986,0,0,1,.543,1.519c0,1.1-.01,1.981-.01,2.25,0,.22.144.475.55.395A8.19,8.19,0,0,0,16,8.2,8.1,8.1,0,0,0,8,0" fill="#202020"/>
</svg>
