<svg width="24" height="20" viewBox="0 0 24 20" fill="none" xmlns="http://www.w3.org/2000/svg">
<g opacity="0.1">
<path d="M23.5 10C23.5 10.1295 23.4493 10.3223 23.2988 10.5797C23.1507 10.8331 22.923 11.1199 22.6152 11.4277C21.9998 12.0431 21.1028 12.7042 20.0072 13.3129C17.8139 14.5314 14.897 15.5 12 15.5C9.10302 15.5 6.1861 14.5314 3.99282 13.3129C2.89719 12.7042 2.0002 12.0431 1.3848 11.4277C1.077 11.1199 0.849291 10.8331 0.701217 10.5797C0.550742 10.3223 0.5 10.1295 0.5 10C0.5 9.87055 0.550742 9.67773 0.701217 9.42025C0.849291 9.16688 1.077 8.88011 1.3848 8.5723C2.0002 7.9569 2.89719 7.29576 3.99282 6.68708C6.1861 5.46859 9.10302 4.5 12 4.5C14.897 4.5 17.8139 5.46859 20.0072 6.68708C21.1028 7.29576 21.9998 7.9569 22.6152 8.5723C22.923 8.88011 23.1507 9.16688 23.2988 9.42025C23.4493 9.67773 23.5 9.87055 23.5 10Z" stroke="white"/>
<circle cx="12" cy="10" r="6" fill="white"/>
<circle cx="12" cy="10" r="5" fill="black"/>
<circle cx="12" cy="10" r="3" fill="white"/>
<circle cx="13.5" cy="8.5" r="1.5" fill="black"/>
<rect x="19.1426" width="4.04061" height="24.2437" rx="2" transform="rotate(45 19.1426 0)" fill="black"/>
<rect x="20.1523" y="1.01025" width="1.01015" height="24.2437" rx="0.505076" transform="rotate(45 20.1523 1.01025)" fill="white"/>
</g>
</svg>
