<svg xmlns="http://www.w3.org/2000/svg" width="32" height="32" viewBox="0 0 32 32">
  <path id="Shape" d="M16,32c-4.31,0-4.879-.018-6.6-.1A11.816,11.816,0,0,1,5.52,31.16a7.835,7.835,0,0,1-2.834-1.845A7.85,7.85,0,0,1,.84,26.481,11.828,11.828,0,0,1,.1,22.6C.018,20.9,0,20.333,0,16s.018-4.9.1-6.6A11.819,11.819,0,0,1,.84,5.52,7.841,7.841,0,0,1,2.686,2.686,7.841,7.841,0,0,1,5.52.84,11.819,11.819,0,0,1,9.4.1C11.1.018,11.667,0,16,0s4.9.018,6.6.1A11.828,11.828,0,0,1,26.481.84a7.85,7.85,0,0,1,2.834,1.846A7.835,7.835,0,0,1,31.16,5.52,11.816,11.816,0,0,1,31.9,9.4c.078,1.718.1,2.287.1,6.6s-.018,4.878-.1,6.6a11.825,11.825,0,0,1-.744,3.883,8.176,8.176,0,0,1-4.679,4.679A11.825,11.825,0,0,1,22.6,31.9C20.879,31.982,20.309,32,16,32ZM16,2.883c-4.276,0-4.781.016-6.466.094a8.862,8.862,0,0,0-2.971.551,4.95,4.95,0,0,0-1.84,1.2,4.95,4.95,0,0,0-1.2,1.84,8.862,8.862,0,0,0-.551,2.971C2.9,11.219,2.883,11.724,2.883,16s.016,4.781.094,6.466a8.876,8.876,0,0,0,.551,2.971,4.955,4.955,0,0,0,1.2,1.84,4.963,4.963,0,0,0,1.84,1.2,8.862,8.862,0,0,0,2.971.551c1.687.077,2.193.093,6.466.093s4.778-.016,6.466-.093a8.876,8.876,0,0,0,2.971-.551,5.3,5.3,0,0,0,3.037-3.037,8.876,8.876,0,0,0,.551-2.971c.077-1.688.093-2.194.093-6.466s-.016-4.778-.093-6.466a8.862,8.862,0,0,0-.551-2.971,4.963,4.963,0,0,0-1.2-1.84,4.955,4.955,0,0,0-1.84-1.2,8.876,8.876,0,0,0-2.971-.551C20.782,2.9,20.276,2.883,16,2.883Zm0,21.334A8.216,8.216,0,1,1,24.216,16,8.225,8.225,0,0,1,16,24.216Zm0-13.55A5.333,5.333,0,1,0,21.334,16,5.339,5.339,0,0,0,16,10.667Zm8.541-1.288a1.92,1.92,0,1,1,1.92-1.92A1.922,1.922,0,0,1,24.541,9.379Z" fill="#fff"/>
</svg>
