<svg width="20" height="21" viewBox="0 0 20 21" fill="none" xmlns="http://www.w3.org/2000/svg">
<path d="M8.94629 0.263672H11.0564C11.0483 0.272736 11.0408 0.28226 11.0338 0.292197C11.0363 0.297944 11.0409 0.302539 11.0467 0.305093C11.3015 0.34417 11.5586 0.376213 11.8114 0.427013C14.7375 1.01512 16.9954 2.57625 18.5651 5.11196C19.3189 6.33116 19.7636 7.66486 19.9293 9.09038C19.934 9.12946 19.8867 9.22676 20.0016 9.20762V11.3178C19.9887 11.3107 19.9824 11.2787 19.9601 11.3064C19.9558 11.3115 19.9488 11.3158 19.948 11.3209C19.8972 11.6409 19.8644 11.9649 19.7941 12.2806C19.1243 15.2838 17.4479 17.5403 14.7649 19.0499C13.6496 19.6752 12.4456 20.0448 11.1737 20.1914C11.1346 20.1961 11.0381 20.1496 11.0564 20.2637H8.94629C8.95332 20.2508 8.98537 20.2441 8.95762 20.2219C8.95254 20.218 8.94824 20.2109 8.94277 20.2101C8.62312 20.1593 8.29878 20.1269 7.98343 20.0566C4.92969 19.3727 2.6519 17.6568 1.15004 14.909C0.559973 13.8277 0.212187 12.6632 0.0722915 11.4381C0.0676023 11.3963 0.111369 11.3029 0 11.3186V9.2084C0.00885025 9.21659 0.0182496 9.22416 0.0281343 9.23106C0.0339274 9.22844 0.0386264 9.22388 0.0414215 9.21817C0.0804985 8.99543 0.114495 8.77269 0.15279 8.54995C0.452901 6.79617 1.17114 5.2284 2.31687 3.87361C4.02845 1.84785 6.20504 0.65874 8.84508 0.335182C8.88728 0.330884 8.96544 0.35902 8.94629 0.263672ZM10.6266 8.24867C10.6266 7.93605 10.6203 7.62343 10.6293 7.31082C10.6332 7.17874 10.6024 7.13224 10.4601 7.1338C9.73799 7.14109 9.01572 7.14109 8.29331 7.1338C8.15185 7.1338 8.12333 7.17757 8.12372 7.31004C8.1271 10.1082 8.1271 12.9065 8.12372 15.7049C8.12372 15.8468 8.15302 15.8929 8.30386 15.891C8.96074 15.882 9.61841 15.887 10.2757 15.887C10.6274 15.887 10.6274 15.887 10.6274 15.5279C10.6274 13.9727 10.6274 12.4173 10.6274 10.8617C10.6274 10.2412 10.9009 9.84574 11.4089 9.69803C11.6286 9.63514 11.8588 9.61798 12.0853 9.64762C12.7352 9.72968 13.0951 10.1259 13.1213 10.7809C13.126 10.8981 13.124 11.0153 13.124 11.1325C13.124 12.6555 13.1231 14.1783 13.1213 15.701C13.1213 15.8359 13.1389 15.8933 13.2971 15.8913C14.0193 15.882 14.743 15.8859 15.4639 15.8886C15.5691 15.8886 15.6277 15.8816 15.6269 15.7468C15.6191 14.0872 15.6269 12.4276 15.6089 10.7684C15.6015 10.0994 15.5308 9.43231 15.3154 8.7891C15.022 7.91221 14.4436 7.36201 13.5179 7.19906C12.9972 7.11079 12.4651 7.11383 11.9454 7.20805C11.3249 7.31707 10.8321 7.59022 10.6262 8.24867H10.6266ZM6.87521 11.5147C6.87521 10.1158 6.87286 8.71681 6.87872 7.31785C6.87872 7.17053 6.83965 7.1338 6.69506 7.13536C5.97956 7.14318 5.26367 7.14201 4.54778 7.13536C4.41492 7.13536 4.37193 7.16467 4.37193 7.30535C4.3761 10.11 4.3761 12.9146 4.37193 15.719C4.37193 15.857 4.40906 15.8929 4.54505 15.8913C5.25429 15.8847 5.96393 15.8835 6.67318 15.8913C6.82949 15.8913 6.8799 15.8581 6.87911 15.6913C6.87286 14.3001 6.87599 12.9074 6.87599 11.5147H6.87521ZM6.87521 5.2542C6.87388 5.08968 6.8401 4.92705 6.77581 4.77561C6.71152 4.62417 6.61797 4.48691 6.50054 4.37169C6.3831 4.25647 6.24409 4.16556 6.09146 4.10416C5.93882 4.04276 5.77557 4.01209 5.61106 4.01389C5.28207 4.0179 4.96791 4.15142 4.73669 4.38549C4.50547 4.61956 4.37582 4.93534 4.37584 5.26436C4.37646 5.59649 4.50895 5.91478 4.74416 6.14926C4.97938 6.38375 5.29808 6.51523 5.63021 6.51482C5.79477 6.51385 5.95752 6.48047 6.10917 6.41658C6.26082 6.3527 6.3984 6.25956 6.51405 6.1425C6.6297 6.02543 6.72116 5.88673 6.78319 5.73431C6.84523 5.5819 6.87663 5.41875 6.8756 5.2542H6.87521Z" fill="white"/>
</svg>
