<svg width="12" height="12" viewBox="0 0 12 12" fill="none" xmlns="http://www.w3.org/2000/svg">
<path d="M9.58579 11.4142C9.21071 11.7893 8.70201 12 8.17157 12H3.82843C3.29799 12 2.78929 11.7893 2.41421 11.4142L0.585786 9.58579C0.210714 9.21071 0 8.70201 0 8.17157V3.82843C0 3.29799 0.210714 2.78929 0.585787 2.41421L2.41421 0.585786C2.78929 0.210714 3.29799 0 3.82843 0H8.17157C8.70201 0 9.21071 0.210714 9.58579 0.585787L11.4142 2.41421C11.7893 2.78929 12 3.29799 12 3.82843V8.17157C12 8.70201 11.7893 9.21071 11.4142 9.58579L9.58579 11.4142Z" fill="url(#paint0_linear_3790_14516)"/>
<path fill-rule="evenodd" clip-rule="evenodd" d="M3.00135 8.32956L3.66797 8.99576L5.99773 6.66746L8.33284 9.00117L8.99945 8.33496L6.66434 6.00126L9.00088 3.6662L8.33427 3L5.99774 5.33506L3.66661 3.00533L3 3.67154L5.33112 6.00126L3.00135 8.32956Z" fill="white"/>
<defs>
<linearGradient id="paint0_linear_3790_14516" x1="0" y1="0" x2="0" y2="12" gradientUnits="userSpaceOnUse">
<stop stop-color="#F26419"/>
<stop offset="1" stop-color="#E84855"/>
</linearGradient>
</defs>
</svg>
