<svg width="541" height="543" viewBox="0 0 541 543" fill="none" xmlns="http://www.w3.org/2000/svg">
<path fill-rule="evenodd" clip-rule="evenodd" d="M109.336 299.009C110.479 300.168 110.479 302.028 109.336 303.188C108.158 304.358 106.252 304.354 105.08 303.178C103.907 302.002 103.912 300.099 105.09 298.929C105.661 298.373 106.432 298.068 107.23 298.083C108.028 298.098 108.786 298.431 109.336 299.009ZM18.7574 212.704C17.5848 213.88 17.5893 215.782 18.7674 216.953C19.9456 218.124 21.8513 218.119 23.024 216.943C24.1271 215.761 24.0946 213.92 22.9504 212.777C21.8062 211.635 19.9613 211.603 18.7775 212.704H18.7574ZM64.1087 210.007H64.0085C62.3491 210.007 61.0039 211.35 61.0039 213.006C61.0039 214.663 62.3491 216.006 64.0085 216.006C65.668 216.006 67.0132 214.663 67.0132 213.006C67.0132 211.35 65.668 210.007 64.0085 210.007H64.1087ZM64.1062 299.988C62.4468 299.988 61.1016 301.331 61.1016 302.988C61.1016 304.644 62.4468 305.987 64.1062 305.987H64.2064C65.8658 305.987 67.211 304.644 67.211 302.988C67.211 301.331 65.8658 299.988 64.2064 299.988H64.1062ZM18.6993 299.009C17.7167 299.995 17.5425 301.527 18.2786 302.708C18.5141 303.103 18.8446 303.433 19.2401 303.668C20.5741 304.498 22.3241 304.162 23.2537 302.896C24.1833 301.631 23.9782 299.863 22.7832 298.843C21.5882 297.823 19.8076 297.895 18.6993 299.009ZM26.3728 239.439C32.009 228.222 42.3136 220.057 54.5363 217.124C54.8553 217.054 55.1311 216.855 55.2981 216.575C55.465 216.294 55.5083 215.957 55.4176 215.644C55.105 214.621 54.9695 213.553 55.017 212.485C55.0456 212.111 54.8944 211.746 54.6098 211.501C54.3251 211.256 53.9409 211.161 53.5748 211.245C51.9322 211.625 50.3097 212.005 48.7073 212.545C28.2959 219.431 14.9668 239.033 16.0904 260.511C17.214 281.989 32.5158 300.099 53.5347 304.825C53.907 304.902 54.294 304.799 54.5782 304.547C54.8624 304.295 55.0103 303.923 54.9769 303.545C54.9028 302.471 55.0319 301.392 55.3575 300.366C55.4482 300.053 55.4049 299.716 55.238 299.436C55.071 299.155 54.7952 298.956 54.4762 298.886C42.2609 295.938 31.9619 287.777 26.3127 276.571C20.6233 264.845 20.6233 251.165 26.3127 239.439H26.3728ZM97.6004 305.267C77.4467 319.572 50.4302 319.572 30.2766 305.267C30.0117 305.084 29.6845 305.015 29.3682 305.075C29.0519 305.136 28.773 305.32 28.594 305.587C27.876 306.496 27.0927 307.351 26.2504 308.146C26.0179 308.372 25.8867 308.682 25.8867 309.006C25.8867 309.33 26.0179 309.64 26.2504 309.866C31.5093 313.883 37.4643 316.9 43.8175 318.764C63.2565 325.181 84.5966 321.941 101.246 310.046C101.533 309.819 101.701 309.472 101.701 309.106C101.701 308.74 101.533 308.394 101.246 308.167C100.406 307.442 99.6829 306.592 99.1027 305.647C98.7666 305.165 98.1261 305.003 97.6004 305.267ZM104.629 216.524C104.846 216.874 105.141 217.168 105.491 217.384L105.07 216.944L104.629 216.524ZM63.9518 238C52.889 238 43.9209 246.952 43.9209 257.995C43.9209 269.039 52.889 277.991 63.9518 277.991C75.0145 277.991 83.9827 269.039 83.9827 257.995C83.9827 246.983 75.0634 238.044 64.0319 238H63.9518ZM106.013 257.998C106.036 264.434 104.576 270.79 101.747 276.574C96.0973 287.78 85.7983 295.94 73.5831 298.889C73.264 298.959 72.9883 299.158 72.8213 299.438C72.6543 299.718 72.611 300.055 72.7017 300.369C73.0176 301.397 73.1464 302.474 73.0823 303.548C73.049 303.926 73.1969 304.298 73.4811 304.55C73.7653 304.802 74.1523 304.905 74.5245 304.828C88.4167 301.722 100.215 292.63 106.742 280C113.269 267.37 113.853 252.503 108.337 239.402C102.939 226.824 92.505 217.082 79.5723 212.547C77.9796 212.032 76.3617 211.599 74.7248 211.248C74.357 211.166 73.9718 211.26 73.6844 211.504C73.3971 211.748 73.2409 212.112 73.2626 212.487C73.3269 213.555 73.198 214.625 72.882 215.647C72.7913 215.96 72.8346 216.297 73.0016 216.577C73.1685 216.858 73.4443 217.056 73.7634 217.126C85.986 220.06 96.2906 228.225 101.927 239.442C104.719 245.228 106.144 251.576 106.093 257.998H106.013ZM121.625 213.25C122.572 213.829 123.423 214.551 124.149 215.389C124.388 215.664 124.741 215.814 125.105 215.794C125.469 215.775 125.804 215.588 126.012 215.289C137.935 198.673 141.187 177.37 134.765 157.962C132.898 151.62 129.876 145.675 125.852 140.426C125.625 140.193 125.315 140.062 124.99 140.062C124.666 140.062 124.355 140.193 124.129 140.426C123.332 141.266 122.475 142.048 121.565 142.765C121.297 142.944 121.113 143.222 121.052 143.538C120.992 143.854 121.061 144.18 121.245 144.445C135.575 164.563 135.575 191.532 121.245 211.65C120.917 212.198 121.086 212.907 121.625 213.25ZM16.3751 222.723C15.4239 222.15 14.5716 221.427 13.8512 220.583C13.6122 220.308 13.2594 220.159 12.8953 220.178C12.5312 220.198 12.1965 220.384 11.9883 220.683C0.0656442 237.3 -3.18714 258.603 3.23483 278.011C5.10263 284.353 8.12425 290.297 12.1486 295.547C12.3748 295.779 12.6855 295.91 13.0099 295.91C13.3343 295.91 13.645 295.779 13.8712 295.547C14.663 294.707 15.5204 293.932 16.4352 293.228C16.7042 293.045 16.8892 292.763 16.9494 292.444C17.0095 292.125 16.9398 291.795 16.7557 291.528C2.42572 271.41 2.42572 244.441 16.7557 224.322C17.0832 223.774 16.9146 223.065 16.3751 222.723Z" fill="url(#paint0_linear_2207_13514)"/>
<rect opacity="0.3" x="122" y="89" width="1" height="48" fill="#D9D9D9"/>
<path fill-rule="evenodd" clip-rule="evenodd" d="M283.658 1.17118C285.652 0.173832 287.999 1.62432 287.999 3.85447V351H257.999V15.8545C257.999 14.7181 258.641 13.6794 259.658 13.1712L283.658 1.17118ZM262.999 19.0883C262.999 17.548 263.884 16.1446 265.273 15.4799L277.273 9.73964C279.928 8.46964 282.999 10.405 282.999 13.348V30.653C282.999 33.5961 279.928 35.5314 277.273 34.2614L265.273 28.5212C263.884 27.8565 262.999 26.4531 262.999 24.9128V19.0883ZM262.999 63.0883C262.999 61.548 263.884 60.1446 265.273 59.4799L277.273 53.7396C279.928 52.4696 282.999 54.405 282.999 57.348V74.653C282.999 77.5961 279.928 79.5314 277.273 78.2614L265.273 72.5212C263.884 71.8565 262.999 70.4531 262.999 68.9128V63.0883ZM280.725 37.4799C282.115 38.1446 282.999 39.548 282.999 41.0883V46.9128C282.999 48.4531 282.115 49.8565 280.725 50.5212L268.725 56.2614C266.071 57.5314 262.999 55.5961 262.999 52.653V35.348C262.999 32.405 266.071 30.4696 268.725 31.7396L280.725 37.4799ZM282.999 85.0883C282.999 83.548 282.115 82.1446 280.725 81.4799L268.725 75.7396C266.071 74.4696 262.999 76.405 262.999 79.3481V96.653C262.999 99.5961 266.071 101.531 268.725 100.261L280.725 94.5212C282.115 93.8565 282.999 92.4531 282.999 90.9128V85.0883ZM265.273 103.48C263.884 104.145 262.999 105.548 262.999 107.088V112.913C262.999 114.453 263.884 115.856 265.273 116.521L277.273 122.261C279.928 123.531 282.999 121.596 282.999 118.653V101.348C282.999 98.405 279.928 96.4696 277.273 97.7396L265.273 103.48ZM282.999 129.088C282.999 127.548 282.115 126.145 280.725 125.48L268.725 119.74C266.071 118.47 262.999 120.405 262.999 123.348V140.653C262.999 143.596 266.071 145.531 268.725 144.261L280.725 138.521C282.115 137.857 282.999 136.453 282.999 134.913V129.088ZM265.273 147.48C263.884 148.145 262.999 149.548 262.999 151.088V156.913C262.999 158.453 263.884 159.857 265.273 160.521L277.273 166.261C279.928 167.531 282.999 165.596 282.999 162.653V145.348C282.999 142.405 279.928 140.47 277.273 141.74L265.273 147.48ZM282.999 173.088C282.999 171.548 282.115 170.145 280.725 169.48L268.725 163.74C266.071 162.47 262.999 164.405 262.999 167.348V184.653C262.999 187.596 266.071 189.531 268.725 188.261L280.725 182.521C282.115 181.857 282.999 180.453 282.999 178.913V173.088ZM265.273 191.48C263.884 192.145 262.999 193.548 262.999 195.088V200.913C262.999 202.453 263.884 203.857 265.273 204.521L277.273 210.261C279.928 211.531 282.999 209.596 282.999 206.653V189.348C282.999 186.405 279.928 184.47 277.273 185.74L265.273 191.48ZM282.999 217.088C282.999 215.548 282.115 214.145 280.725 213.48L268.725 207.74C266.071 206.47 262.999 208.405 262.999 211.348V228.653C262.999 231.596 266.071 233.531 268.725 232.261L280.725 226.521C282.115 225.857 282.999 224.453 282.999 222.913V217.088ZM265.273 235.48C263.884 236.145 262.999 237.548 262.999 239.088V244.913C262.999 246.453 263.884 247.857 265.273 248.521L277.273 254.261C279.928 255.531 282.999 253.596 282.999 250.653V233.348C282.999 230.405 279.928 228.47 277.273 229.74L265.273 235.48ZM282.999 261.088C282.999 259.548 282.115 258.145 280.725 257.48L268.725 251.74C266.071 250.47 262.999 252.405 262.999 255.348V272.653C262.999 275.596 266.071 277.531 268.725 276.261L280.725 270.521C282.115 269.857 282.999 268.453 282.999 266.913V261.088ZM265.273 279.48C263.884 280.145 262.999 281.548 262.999 283.088V288.913C262.999 290.453 263.884 291.857 265.273 292.521L277.273 298.261C279.928 299.531 282.999 297.596 282.999 294.653V277.348C282.999 274.405 279.928 272.47 277.273 273.74L265.273 279.48ZM282.999 305.088C282.999 303.548 282.115 302.145 280.725 301.48L268.725 295.74C266.071 294.47 262.999 296.405 262.999 299.348V316.653C262.999 319.596 266.071 321.531 268.725 320.261L280.725 314.521C282.115 313.857 282.999 312.453 282.999 310.913V305.088ZM265.273 323.48C263.884 324.145 262.999 325.548 262.999 327.088V341.001C262.999 343.21 264.79 345.001 266.999 345.001H278.999C281.209 345.001 282.999 343.21 282.999 341.001V321.348C282.999 318.405 279.928 316.47 277.273 317.74L265.273 323.48ZM109.17 82.6584C108.173 84.6531 109.623 87 111.853 87L256.999 87V57L123.853 57C122.717 57 121.678 57.642 121.17 58.6584L109.17 82.6584ZM123.479 64.2739C124.144 62.8844 125.547 62 127.087 62H132.912C134.452 62 135.856 62.8844 136.52 64.2739L142.26 76.2739C143.53 78.9289 141.595 82 138.652 82H121.347C118.404 82 116.469 78.9289 117.739 76.2739L123.479 64.2739ZM167.479 64.2739C168.144 62.8844 169.547 62 171.087 62H176.912C178.452 62 179.856 62.8844 180.52 64.2739L186.26 76.2739C187.53 78.9289 185.595 82 182.652 82H165.347C162.404 82 160.469 78.9288 161.739 76.2739L167.479 64.2739ZM149.087 82C147.547 82 146.144 81.1156 145.479 79.7261L139.739 67.7261C138.469 65.0711 140.404 62 143.347 62H160.652C163.595 62 165.53 65.0711 164.26 67.7261L158.52 79.7261C157.856 81.1156 156.452 82 154.912 82H149.087ZM189.479 79.7261C190.144 81.1156 191.547 82 193.087 82L198.912 82C200.452 82 201.856 81.1156 202.52 79.7261L208.26 67.7261C209.53 65.0711 207.595 62 204.652 62H187.347C184.404 62 182.469 65.0711 183.739 67.7261L189.479 79.7261ZM215.087 62C213.547 62 212.144 62.8844 211.479 64.2739L205.739 76.2739C204.469 78.9288 206.404 82 209.347 82H226.652C229.595 82 231.53 78.9289 230.26 76.2739L224.52 64.2739C223.856 62.8844 222.452 62 220.912 62H215.087ZM233.479 79.7261C234.144 81.1156 235.547 82 237.087 82H248C250.209 82 252 80.2091 252 78V66C252 63.7909 250.209 62 248 62H231.347C228.404 62 226.469 65.0711 227.739 67.7261L233.479 79.7261ZM368.145 87C370.375 87 371.826 84.6531 370.829 82.6584L358.829 58.6584C358.32 57.642 357.282 57 356.145 57L288.999 57V87L368.145 87ZM356.52 64.2739C355.855 62.8844 354.452 62 352.911 62H347.087C345.547 62 344.143 62.8844 343.479 64.2739L337.738 76.2739C336.468 78.9289 338.404 82 341.347 82H358.652C361.595 82 363.53 78.9289 362.26 76.2739L356.52 64.2739ZM312.52 64.2739C311.855 62.8844 310.452 62 308.911 62L297.999 62C295.79 62 293.999 63.7909 293.999 66V78C293.999 80.2091 295.79 82 297.999 82H314.652C317.595 82 319.53 78.9288 318.26 76.2739L312.52 64.2739ZM330.911 82C332.452 82 333.855 81.1156 334.52 79.7261L340.26 67.7261C341.53 65.0711 339.595 62 336.652 62H319.347C316.404 62 314.468 65.0711 315.738 67.7261L321.479 79.7261C322.143 81.1156 323.547 82 325.087 82H330.911Z" fill="url(#paint1_linear_2207_13514)"/>
<path fill-rule="evenodd" clip-rule="evenodd" d="M332 90C332 88.8954 332.895 88 334 88H366C367.105 88 368 88.8954 368 90V94C368 95.1046 367.105 96 366 96H334C332.895 96 332 95.1046 332 94V90ZM332 99C332 97.8954 332.895 97 334 97H366C367.105 97 368 97.8954 368 99V103C368 104.105 367.105 105 366 105H334C332.895 105 332 104.105 332 103V99ZM334 106C332.895 106 332 106.895 332 108V112C332 113.105 332.895 114 334 114H366C367.105 114 368 113.105 368 112V108C368 106.895 367.105 106 366 106H334Z" fill="#D9D9D9"/>
<path d="M210.755 113.265C209.892 110.675 211.819 108 214.55 108H253C255.209 108 257 109.791 257 112V164C257 166.209 255.209 168 253 168H231.883C230.161 168 228.633 166.898 228.088 165.265L210.755 113.265Z" fill="url(#paint2_linear_2207_13514)"/>
<path d="M213.877 113.632C213.446 112.337 214.41 111 215.775 111H252C253.105 111 254 111.895 254 113V133C254 134.105 253.105 135 252 135H222.442C221.581 135 220.816 134.449 220.544 133.632L213.877 113.632Z" fill="url(#paint3_linear_2207_13514)"/>
<path d="M247 351H541V543H199L247 351Z" fill="url(#paint4_linear_2207_13514)"/>
<line opacity="0.3" x1="127.867" y1="53.518" x2="254.867" y2="18.518" stroke="#CCCCCC"/>
<line opacity="0.3" x1="351.694" y1="54.3954" x2="289.694" y2="6.39536" stroke="#CCCCCC"/>
<defs>
<linearGradient id="paint0_linear_2207_13514" x1="0.113071" y1="194.05" x2="0.113071" y2="321.924" gradientUnits="userSpaceOnUse">
<stop stop-color="#F4CD3B"/>
<stop offset="0.54" stop-color="#F16622"/>
<stop offset="1" stop-color="#E84856"/>
</linearGradient>
<linearGradient id="paint1_linear_2207_13514" x1="108.85" y1="0.850586" x2="108.85" y2="351" gradientUnits="userSpaceOnUse">
<stop stop-color="#F26419"/>
<stop offset="1" stop-color="#E84855"/>
</linearGradient>
<linearGradient id="paint2_linear_2207_13514" x1="209" y1="108" x2="209" y2="168" gradientUnits="userSpaceOnUse">
<stop stop-color="#F4CC3A"/>
<stop offset="1" stop-color="#F6AE2D"/>
</linearGradient>
<linearGradient id="paint3_linear_2207_13514" x1="213" y1="111" x2="213" y2="135" gradientUnits="userSpaceOnUse">
<stop stop-color="#55DDE0"/>
<stop offset="1" stop-color="#365C73"/>
</linearGradient>
<linearGradient id="paint4_linear_2207_13514" x1="63.9998" y1="351" x2="63.9998" y2="543" gradientUnits="userSpaceOnUse">
<stop/>
<stop offset="1" stop-opacity="0"/>
</linearGradient>
</defs>
</svg>
