<svg width="10" height="12" viewBox="0 0 10 12" fill="none" xmlns="http://www.w3.org/2000/svg">
<path fill-rule="evenodd" clip-rule="evenodd" d="M3.49993 1.99948L5.49989 0.499512V1.52512C8.0265 1.77597 9.99981 3.90771 9.99981 6.50033C9.99981 9.2617 7.76127 11.5002 4.9999 11.5002C2.26103 11.5002 0.0365073 9.29803 0.000444761 6.56771H0.00456486C0.00155472 6.54553 0 6.52288 0 6.49986C0 6.22373 0.223853 5.99987 0.49999 5.99987C0.776127 5.99987 0.999981 6.22373 0.999981 6.49986C0.999981 6.52288 0.998426 6.54553 0.995416 6.56771H1.00054C1.03652 8.74572 2.81332 10.5002 4.9999 10.5002C7.209 10.5002 8.99983 8.70941 8.99983 6.50031C8.99983 4.46054 7.47301 2.77738 5.49989 2.53134V3.49945L3.49993 1.99948Z" fill="url(#paint0_linear_1875_12615)"/>
<defs>
<linearGradient id="paint0_linear_1875_12615" x1="0" y1="0.499512" x2="0" y2="11.5002" gradientUnits="userSpaceOnUse">
<stop stop-color="#55DDE0"/>
<stop offset="1" stop-color="#53DD6C"/>
</linearGradient>
</defs>
</svg>
