<svg width="16" height="16" viewBox="0 0 16 16" fill="none" xmlns="http://www.w3.org/2000/svg">
<path fill-rule="evenodd" clip-rule="evenodd" d="M2.34315 2.34315C-0.781052 5.46736 -0.781052 10.5327 2.34315 13.6569C5.4673 16.781 10.5327 16.781 13.6569 13.6569C16.781 10.5327 16.781 5.46736 13.6569 2.34315C10.5327 -0.781052 5.4673 -0.781052 2.34315 2.34315ZM10.8284 3.75728C11.219 3.36678 11.8522 3.36678 12.2427 3.75728C12.6332 4.14784 12.6332 4.78102 12.2427 5.17152L9.4142 7.99995L12.2427 10.8284C12.6332 11.2189 12.6332 11.8521 12.2427 12.2426C11.8522 12.6331 11.219 12.6331 10.8284 12.2426L8.00002 9.41414L5.17165 12.2426C4.78102 12.6331 4.14784 12.6331 3.75734 12.2426C3.36684 11.8521 3.36684 11.2189 3.75734 10.8284L6.58583 7.99995L3.75734 5.17152C3.36684 4.78102 3.36684 4.14784 3.75734 3.75728C4.14784 3.36678 4.78102 3.36678 5.17165 3.75728L8.00002 6.58571L10.8284 3.75728Z" fill="url(#paint0_linear_1358_6674)"/>
<defs>
<linearGradient id="paint0_linear_1358_6674" x1="0" y1="0" x2="0" y2="16" gradientUnits="userSpaceOnUse">
<stop stop-color="#F6AE2D"/>
<stop offset="0.151491" stop-color="#F26419"/>
<stop offset="1" stop-color="#E84855"/>
</linearGradient>
</defs>
</svg>
