<svg width="109" height="150" viewBox="0 0 109 150" fill="none" xmlns="http://www.w3.org/2000/svg">
<path opacity="0.25" fill-rule="evenodd" clip-rule="evenodd" d="M93.9009 124.45C105.972 107.443 105.972 84.6445 93.9009 67.6373L93.9178 67.6373C93.6291 67.1798 93.765 66.5745 94.2215 66.285C95.0228 65.8008 95.7407 65.19 96.3476 64.4764C96.549 64.244 96.8461 64.1177 97.1529 64.1342C97.4596 64.1508 97.7415 64.3082 97.9169 64.5609C107.96 78.608 110.7 96.6166 105.291 113.023C103.717 118.385 101.172 123.41 97.7819 127.848C97.5913 128.044 97.3296 128.155 97.0563 128.155C96.783 128.155 96.5213 128.044 96.3307 127.848C95.6596 127.137 94.9378 126.476 94.1709 125.87C93.9454 125.719 93.7899 125.484 93.7391 125.217C93.6884 124.95 93.7467 124.674 93.9009 124.45ZM94.5081 96.0015C94.5081 94.6012 93.3749 93.466 91.977 93.466C90.5791 93.466 89.4459 94.6012 89.4459 96.0015C89.4459 97.4019 90.5791 98.5371 91.977 98.5371C93.3749 98.5371 94.5081 97.4019 94.5081 96.0015ZM19.4025 134.255C18.4241 135.219 16.8544 135.219 15.8759 134.255C14.8881 133.26 14.8919 131.652 15.8844 130.663C16.8769 129.673 18.4822 129.677 19.47 130.671C19.9394 131.153 20.1964 131.804 20.1837 132.477C20.1711 133.15 19.8897 133.791 19.4025 134.255ZM16.0475 93.5506C17.4453 93.5506 18.5785 94.6858 18.5785 96.0861L18.5785 96.1706C18.5785 97.571 17.4453 98.7062 16.0475 98.7062C14.6496 98.7062 13.5164 97.571 13.5164 96.1706L13.5164 96.0861C13.5164 94.6858 14.6496 93.5506 16.0475 93.5506ZM92.1795 130.671C91.3264 129.839 90.016 129.699 89.0072 130.333C88.9588 130.363 88.9116 130.395 88.8658 130.428L89.005 130.282C88.7104 130.465 88.462 130.714 88.2795 131.009L88.3823 130.91C88.3469 130.959 88.3133 131.008 88.2817 131.059C87.6555 132.071 87.7944 133.38 88.6191 134.237C89.2501 134.916 90.2004 135.195 91.0972 134.966C91.994 134.736 92.6942 134.035 92.9232 133.136C93.1523 132.238 92.8735 131.286 92.1964 130.654L92.1795 130.671ZM88.3823 130.91L88.6507 130.654L88.8658 130.428C88.681 130.563 88.518 130.726 88.3823 130.91ZM88.5024 88.0063C86.0269 77.6919 79.1369 68.9961 69.6714 64.2399L69.6714 64.1892C59.7763 59.3879 48.2319 59.3879 38.3369 64.1891C28.8803 68.9564 21.994 77.6474 19.5059 87.9556C19.4467 88.2248 19.2789 88.4575 19.0424 88.5984C18.8058 88.7393 18.5216 88.7759 18.2572 88.6993C17.391 88.4245 16.4808 88.3156 15.5743 88.3782C15.2552 88.4063 14.9417 88.2815 14.7288 88.0417C14.516 87.8018 14.4291 87.4753 14.4944 87.1611C18.4828 69.4238 33.7645 56.5109 51.8894 55.5627C70.0144 54.6146 86.5555 65.8626 92.3665 83.0873C92.8221 84.4396 93.1427 85.8088 93.4633 87.1949C93.5339 87.5039 93.4537 87.8281 93.2472 88.0683C93.0408 88.3085 92.7326 88.4361 92.4171 88.412C91.5157 88.3719 90.6141 88.4862 89.751 88.75C89.4867 88.8266 89.2024 88.7901 88.9659 88.6492C88.7293 88.5083 88.5615 88.2755 88.5024 88.0063ZM14.121 124.349C2.04963 107.342 2.04963 84.5431 14.121 67.5359C14.2752 67.3124 14.3335 67.0362 14.2828 66.7693C14.232 66.5024 14.0765 66.267 13.851 66.116C13.0841 65.5101 12.3622 64.8491 11.6911 64.1383C11.5005 63.9421 11.2389 63.8314 10.9656 63.8314C10.6923 63.8314 10.4306 63.9421 10.24 64.1383C6.84998 68.5761 4.30461 73.6014 2.73122 78.9627C-2.68338 95.3668 0.0503973 113.375 10.0881 127.425C10.2802 127.668 10.5722 127.809 10.8812 127.809C11.1902 127.809 11.4822 127.668 11.6743 127.425C12.2857 126.716 13.0029 126.106 13.8004 125.617C14.2075 125.333 14.3442 124.792 14.121 124.349ZM70.8859 95.9507C70.8859 86.6152 63.3313 79.0472 54.0122 79.0472C44.6932 79.0472 37.1385 86.6152 37.1385 95.9507C37.1385 105.286 44.6932 112.854 54.0122 112.854C63.305 112.854 70.8488 105.328 70.8859 96.0184L70.8859 95.9507ZM38.3376 127.848C43.2183 130.236 48.5817 131.468 54.0133 131.448L54.0133 131.516C59.4326 131.559 64.7895 130.356 69.6721 128C79.1376 123.244 86.0276 114.548 88.5031 104.234C88.5622 103.964 88.73 103.732 88.9666 103.591C89.2031 103.45 89.4874 103.413 89.7518 103.49C90.6139 103.757 91.5171 103.865 92.4178 103.811C92.7348 103.793 93.0421 103.925 93.2476 104.167C93.4532 104.409 93.5333 104.735 93.464 105.045C93.1679 106.426 92.8018 107.792 92.3672 109.136C88.5404 120.049 80.3198 128.855 69.7058 133.409C58.6504 138.065 46.1039 137.572 35.4462 132.064C24.7885 126.556 17.1158 116.599 14.4951 104.876C14.4298 104.562 14.5168 104.235 14.7296 103.995C14.9424 103.756 15.2559 103.631 15.575 103.659C16.4813 103.713 17.3899 103.604 18.2579 103.338C18.5223 103.261 18.8065 103.298 19.0431 103.439C19.2796 103.58 19.4474 103.812 19.5066 104.081C21.9947 114.39 28.881 123.081 38.3376 127.848ZM24.2623 136.182C23.7736 136.98 23.1646 137.699 22.4568 138.311C22.2248 138.513 22.0988 138.811 22.1153 139.118C22.1318 139.425 22.289 139.708 22.5412 139.883C36.5635 149.945 54.5402 152.69 70.918 147.27C76.2699 145.694 81.2862 143.144 85.7163 139.748C85.9121 139.557 86.0226 139.295 86.0226 139.021C86.0226 138.748 85.9121 138.485 85.7163 138.295C85.0067 137.622 84.3468 136.899 83.742 136.131C83.5913 135.905 83.3563 135.749 83.0899 135.698C82.8234 135.648 82.5478 135.706 82.3247 135.86C65.3475 147.953 42.5893 147.953 25.6122 135.86C25.1496 135.584 24.5514 135.726 24.2623 136.182Z" fill="url(#paint0_linear_2713_13522)"/>
<path fill-rule="evenodd" clip-rule="evenodd" d="M41.2598 0.737631C40.4273 -0.0915945 39.135 -0.238557 38.1381 0.382656C37.8049 0.581337 37.5265 0.860232 37.3282 1.19403C36.6272 2.31973 36.911 3.79649 37.9791 4.58097C39.0473 5.36545 40.5385 5.19233 41.3993 4.18394C42.26 3.17554 42.1992 1.67289 41.2598 0.737631ZM68.3308 0.739711C67.3383 -0.249861 65.733 -0.246077 64.7452 0.748162C63.7573 1.7424 63.7611 3.3506 64.7536 4.34017C65.7509 5.27108 67.3049 5.24361 68.2688 4.27804C69.2327 3.31247 69.2601 1.75565 68.3308 0.756614V0.739711ZM85.5795 23.6902C84.8671 24.2981 84.2574 25.0173 83.774 25.8201C83.4848 26.2753 82.8867 26.4176 82.4241 26.1412C65.447 14.0485 42.6887 14.0485 25.7116 26.1412C25.4859 26.2966 25.2076 26.3554 24.9384 26.3047C24.6692 26.2539 24.4313 26.0977 24.2774 25.8708C23.6831 25.0988 23.0286 24.3753 22.32 23.7071C22.1242 23.5162 22.0137 23.254 22.0137 22.9803C22.0137 22.7065 22.1242 22.4443 22.32 22.2534C26.7501 18.8574 31.7664 16.3075 37.1182 14.7313C53.496 9.31197 71.4728 12.0569 85.4951 22.1182C85.7473 22.2938 85.9045 22.5763 85.921 22.8835C85.9375 23.1908 85.8114 23.4885 85.5795 23.6902Z" fill="url(#paint1_linear_2713_13522)"/>
<defs>
<linearGradient id="paint0_linear_2713_13522" x1="54.0083" y1="55.5071" x2="54.0083" y2="150" gradientUnits="userSpaceOnUse">
<stop stop-color="#F4CD3B"/>
<stop offset="0.54" stop-color="#F16622"/>
<stop offset="1" stop-color="#E84856"/>
</linearGradient>
<linearGradient id="paint1_linear_2713_13522" x1="54.007" y1="-1.91034e-07" x2="54.007" y2="50.2564" gradientUnits="userSpaceOnUse">
<stop stop-color="#F4CD3B"/>
<stop offset="0.54" stop-color="#F16622"/>
<stop offset="1" stop-color="#E84856"/>
</linearGradient>
</defs>
</svg>
