<svg width="16" height="16" viewBox="0 0 16 16" fill="none" xmlns="http://www.w3.org/2000/svg">
<path fill-rule="evenodd" clip-rule="evenodd" d="M16.0003 6C16.0003 9.31372 13.314 12 10.0003 12C9.07303 12 8.19498 11.7897 7.41104 11.4141L3.41422 15.411C2.63321 16.192 1.36685 16.192 0.585846 15.411C-0.195282 14.6299 -0.195282 13.3636 0.585846 12.5826L4.58389 8.58447C4.20975 7.80179 4.00027 6.92535 4.00027 6C4.00027 2.68628 6.68655 0 10.0003 0C13.314 0 16.0003 2.68628 16.0003 6ZM14.0003 6C14.0003 8.20914 12.2094 10 10.0003 10C7.79117 10 6.00027 8.20914 6.00027 6C6.00027 3.79086 7.79117 2 10.0003 2C12.2094 2 14.0003 3.79086 14.0003 6Z" fill="#666666"/>
</svg>
