<svg width="24" height="12" viewBox="0 0 24 12" fill="none" xmlns="http://www.w3.org/2000/svg">
<g opacity="0.1">
<path d="M23.5 6C23.5 6.12945 23.4493 6.32227 23.2988 6.57975C23.1507 6.83312 22.923 7.11989 22.6152 7.4277C21.9998 8.04309 21.1028 8.70424 20.0072 9.31292C17.8139 10.5314 14.897 11.5 12 11.5C9.10302 11.5 6.1861 10.5314 3.99282 9.31292C2.89719 8.70424 2.0002 8.04309 1.3848 7.4277C1.077 7.11989 0.849291 6.83312 0.701217 6.57975C0.550742 6.32227 0.5 6.12945 0.5 6C0.5 5.87055 0.550742 5.67773 0.701217 5.42025C0.849291 5.16688 1.077 4.88011 1.3848 4.5723C2.0002 3.9569 2.89719 3.29576 3.99282 2.68708C6.1861 1.46859 9.10302 0.5 12 0.5C14.897 0.5 17.8139 1.46859 20.0072 2.68708C21.1028 3.29576 21.9998 3.9569 22.6152 4.5723C22.923 4.88011 23.1507 5.16688 23.2988 5.42025C23.4493 5.67773 23.5 5.87055 23.5 6Z" stroke="white"/>
<circle cx="12" cy="6" r="6" fill="white"/>
<circle cx="12" cy="6" r="5" fill="black"/>
<circle cx="12" cy="6" r="3" fill="white"/>
<circle cx="13.5" cy="4.5" r="1.5" fill="black"/>
</g>
</svg>
