<svg xmlns="http://www.w3.org/2000/svg" width="32" height="32" viewBox="0 0 32 26">
  <path id="Path" d="M32,3.078a13.15,13.15,0,0,1-3.77,1.033A6.581,6.581,0,0,0,31.116.479a13.109,13.109,0,0,1-4.169,1.592A6.569,6.569,0,0,0,15.591,6.566a6.7,6.7,0,0,0,.169,1.493A18.645,18.645,0,0,1,2.228,1.2,6.573,6.573,0,0,0,4.26,9.964a6.551,6.551,0,0,1-2.974-.821v.085a6.567,6.567,0,0,0,5.267,6.436,6.667,6.667,0,0,1-2.965.113,6.569,6.569,0,0,0,6.133,4.556,13.177,13.177,0,0,1-8.154,2.811A13.393,13.393,0,0,1,0,23.051,18.571,18.571,0,0,0,10.063,26C22.14,26,28.743,16,28.743,7.326c0-.282-.007-.566-.02-.848A13.345,13.345,0,0,0,32,3.083Z" fill="#FFF"/>
</svg>
