<svg width="20" height="16" viewBox="0 0 20 16" fill="none" xmlns="http://www.w3.org/2000/svg">
<path d="M0 9.56704V6.8648C0.0722939 6.5827 0.0570537 6.29159 0.0738571 6.00499C0.122704 5.16197 0.19109 4.321 0.353654 3.49272C0.585385 2.31519 1.39195 1.47832 2.44783 1.2998C3.26417 1.16183 4.0891 1.09755 4.91247 1.05988C6.06956 1.00665 7.22782 0.975944 8.3857 0.947694C10.1368 0.90675 11.8871 0.942371 13.6374 1.00501C14.9117 1.05046 16.1837 1.10696 17.4482 1.29612C18.4982 1.45334 19.3419 2.20874 19.5975 3.27408C19.7991 4.11546 19.8644 4.97732 19.9246 5.83958C19.9492 6.19538 19.9297 6.55445 20 6.90656V9.52692C19.9218 9.85119 19.9496 10.1845 19.9285 10.5128C19.8738 11.362 19.8081 12.2083 19.6487 13.0443C19.4232 14.2243 18.6889 14.9998 17.5776 15.2213C16.6233 15.4117 15.6542 15.4506 14.6882 15.4956C12.9531 15.5775 11.2168 15.6097 9.47909 15.5922C7.21024 15.5681 4.94138 15.5488 2.68347 15.261C1.55022 15.1169 0.645174 14.3463 0.395467 13.2413C0.200078 12.3712 0.133255 11.4807 0.0738571 10.5935C0.0523643 10.2508 0.0726846 9.90482 0 9.56704ZM8.01719 11.4025L13.2145 8.26751L8.01719 5.13208V11.4025Z" fill="white"/>
</svg>
