<?xml version="1.0" standalone="no"?>
<!DOCTYPE svg PUBLIC "-//W3C//DTD SVG 1.1//EN" "http://www.w3.org/Graphics/SVG/1.1/DTD/svg11.dtd" >
<svg xmlns="http://www.w3.org/2000/svg" xmlns:xlink="http://www.w3.org/1999/xlink" version="1.1">
<metadata>
Created by FontForge 20161013 at Sat Jul  9 00:14:27 2016
 By ,,,
Copyright (c) 2015 by Radomir Tinkov. All rights reserved.
</metadata>
<defs>
<font id="Gilroy-UltraLightItalic" horiz-adv-x="570" >
  <font-face 
    font-family="Gilroy UltraLight Italic"
    font-weight="250"
    font-style="italic"
    font-stretch="normal"
    units-per-em="1000"
    panose-1="0 0 3 0 0 0 0 0 0 0"
    ascent="800"
    descent="-200"
    x-height="500"
    cap-height="700"
    bbox="-286 -240 1040.88 960"
    underline-thickness="50"
    underline-position="-200"
    slope="-10"
    unicode-range="U+0020-FB02"
  />
<missing-glyph horiz-adv-x="500" 
d="M410 800v-1000h-317v1000h317zM333 733h-165v-33h65v-37h-66v-33h166v33h-66v37h66v33zM267 604h-100v-104h166v34h-66v70zM233 570v-36h-33v36h33zM333 473h-166v-33h66v-37h-66v-33h100v70h66v33zM333 413h-33v-66h-133v-34h166v100zM333 291h-100v-56h34v23h33v-47
h-100v80h-33v-113h166v113zM333 118h-166v-113h166v113zM300 85v-47h-100v47h100zM333 -18h-166v-33h70l-70 -47v-33h166v33h-102l70 47h32v33z" />
    <glyph glyph-name="fi" unicode="fi" horiz-adv-x="505" 
d="M381 677q-80 0 -122.5 -34.5t-56.5 -109.5l-6 -33h269l-88 -500h-35l82 467h-234l-82 -467h-35l82 467h-88l5 33h89l6 33q31 178 220 178q50 0 97 -11l-6 -32q-45 9 -97 9z" />
    <glyph glyph-name="fl" unicode="fl" horiz-adv-x="505" 
d="M387 711q55 0 113 -11l-123 -700h-35l118 673q-36 6 -78 6q-80 0 -123 -35.5t-57 -110.5l-6 -33h124l-6 -33h-124l-82 -467h-35l82 467h-88l5 33h89l6 33q31 178 220 178z" />
    <glyph glyph-name="f_f" unicode="ff" horiz-adv-x="575" 
d="M438 543q15 92 71.5 138.5t148.5 39.5l-5 -34q-152 13 -180 -144l-8 -43h154l-5 -33h-154l-83 -467h-35l83 467h-235l-82 -467h-35l82 467h-88l5 33h89l6 33q16 92 71.5 138.5t148.5 39.5l-6 -34q-150 13 -179 -144l-6 -33h234z" />
    <glyph glyph-name="f_f_i" unicode="ffi" horiz-adv-x="774" 
d="M653 687q-81 0 -123.5 -34.5t-56.5 -109.5l-8 -43h270l-88 -500h-36l82 467h-233l-83 -467h-35l83 467h-235l-82 -467h-35l82 467h-88l5 33h89l6 33q16 92 71.5 138.5t148.5 39.5l-6 -34q-150 13 -179 -144l-6 -33h234l8 43q29 178 220 178q50 0 97 -11l-5 -32
q-45 9 -97 9z" />
    <glyph glyph-name="f_f_l" unicode="ffl" horiz-adv-x="774" 
d="M658 721q56 0 114 -11l-125 -710h-36l120 683q-36 6 -78 6q-80 0 -123 -35.5t-57 -110.5l-8 -43h124l-5 -33h-124l-83 -467h-35l83 467h-235l-82 -467h-35l82 467h-88l5 33h89l6 33q16 92 71.5 138.5t148.5 39.5l-6 -34q-150 13 -179 -144l-6 -33h234l8 43
q29 178 220 178z" />
    <glyph glyph-name=".notdef" horiz-adv-x="500" 
d="M410 800v-1000h-317v1000h317zM333 733h-165v-33h65v-37h-66v-33h166v33h-66v37h66v33zM267 604h-100v-104h166v34h-66v70zM233 570v-36h-33v36h33zM333 473h-166v-33h66v-37h-66v-33h100v70h66v33zM333 413h-33v-66h-133v-34h166v100zM333 291h-100v-56h34v23h33v-47
h-100v80h-33v-113h166v113zM333 118h-166v-113h166v113zM300 85v-47h-100v47h100zM333 -18h-166v-33h70l-70 -47v-33h166v33h-102l70 47h32v33z" />
    <glyph glyph-name=".null" horiz-adv-x="0" 
 />
    <glyph glyph-name="nonmarkingreturn" horiz-adv-x="333" 
 />
    <glyph glyph-name="space" unicode=" " horiz-adv-x="283" 
 />
    <glyph glyph-name="exclam" unicode="!" horiz-adv-x="210" 
d="M76 170l53 330l35 200h40l-35 -200l-63 -330h-30zM60 -10q-15 0 -23 10.5t-6 25.5q3 15 14.5 24.5t26.5 9.5t23.5 -10.5t5.5 -25.5q-7 -34 -41 -34z" />
    <glyph glyph-name="quotedbl" unicode="&#x22;" horiz-adv-x="277" 
d="M109 527l27 173h36l-33 -173h-30zM235 527l27 173h37l-34 -173h-30z" />
    <glyph glyph-name="numbersign" unicode="#" horiz-adv-x="608" 
d="M590 423h-119l-50 -146h119l-12 -34h-118l-66 -193h-36l66 193h-176l-66 -193h-36l66 193h-120l12 34h119l50 146h-120l11 34h120l66 193h36l-66 -193h176l66 193h36l-66 -193h119zM385 277l50 146h-176l-50 -146h176z" />
    <glyph glyph-name="dollar" unicode="$" horiz-adv-x="554" 
d="M513 570q-31 93 -131 104l-55 -309q41 -16 68.5 -31t55.5 -39t38.5 -57.5t2.5 -76.5q-15 -79 -76.5 -123.5t-154.5 -48.5l-16 -89h-33l16 89q-81 4 -134.5 41t-67.5 99l33 17q10 -56 56 -88t119 -34l56 317q-41 16 -68 30.5t-54.5 38.5t-38 57.5t-2.5 76.5
q15 76 79.5 121.5t147.5 45.5h1l16 89h33l-16 -91q60 -7 101 -40t56 -83zM164 540q-12 -63 24.5 -99t107.5 -64l53 299q-71 -1 -122.5 -39.5t-62.5 -96.5zM455 165q12 62 -24 98.5t-110 65.5l-54 -304q79 4 127.5 42t60.5 98z" />
    <glyph glyph-name="percent" unicode="%" horiz-adv-x="723" 
d="M250 413q-65 0 -102 44.5t-26 107.5t61.5 104.5t117.5 41.5q64 0 101 -44.5t26 -107.5t-61 -104.5t-117 -41.5zM254 445q52 0 91.5 33.5t47.5 83.5q9 50 -18.5 83.5t-78.5 33.5t-91 -33.5t-48 -83.5q-9 -50 18.5 -83.5t78.5 -33.5zM77 85l575 543l26 -15l-575 -543z
M458 -11q-65 0 -102 44.5t-26 107.5t61.5 104.5t117.5 41.5q64 0 101 -44.5t26 -107.5t-61 -104.5t-117 -41.5zM462 21q52 0 91.5 33.5t47.5 83.5q9 50 -18.5 83.5t-78.5 33.5t-91 -33.5t-48 -83.5q-9 -50 18.5 -83.5t78.5 -33.5z" />
    <glyph glyph-name="ampersand" unicode="&#x26;" horiz-adv-x="658" 
d="M583 270q-31 -93 -80 -156l84 -105l-31 -16l-76 95q-94 -99 -230 -99q-99 0 -154.5 56.5t-39.5 145.5q12 65 60 116.5t121 85.5q-47 69 -35 145q13 77 72.5 125t140.5 48q67 0 114.5 -33.5t68.5 -93.5l-32 -17q-37 109 -153 109q-66 0 -115 -39.5t-60 -100.5
q-8 -47 7 -82.5t51 -81.5l185 -231q45 59 74 148zM252 24q122 0 207 91l-189 236l-12 15q-68 -29 -111.5 -76t-53.5 -102q-13 -75 32.5 -119.5t126.5 -44.5z" />
    <glyph glyph-name="quotesingle" unicode="'" horiz-adv-x="143" 
d="M109 527l27 173h36l-33 -173h-30z" />
    <glyph glyph-name="parenleft" unicode="(" horiz-adv-x="236" 
d="M108 -100q-70 226 -30 453q42 237 189 447h36q-149 -219 -189 -450t30 -450h-36z" />
    <glyph glyph-name="parenright" unicode=")" horiz-adv-x="235" 
d="M163 800q70 -226 30 -453q-42 -237 -189 -447h-36q149 219 189 450t-30 450h36z" />
    <glyph glyph-name="asterisk" unicode="*" horiz-adv-x="382" 
d="M379 613l-6 -31l-99 2l40 -84l-29 -16l-37 86l-64 -86l-28 17l68 83l-99 -2l6 31l98 -2l-39 84l29 16l36 -87l65 87l28 -17l-69 -83z" />
    <glyph glyph-name="plus" unicode="+" horiz-adv-x="527" 
d="M480 367l-5 -34h-179l-32 -180h-35l32 180h-180l6 34h179l32 180h35l-32 -180h179z" />
    <glyph glyph-name="comma" unicode="," horiz-adv-x="207" 
d="M108 52l-81 -192h-33l70 192h44z" />
    <glyph glyph-name="hyphen" unicode="-" horiz-adv-x="547" 
d="M101 292l6 34h360l-6 -34h-360z" />
    <glyph glyph-name="period" unicode="." horiz-adv-x="197" 
d="M52 -10q-14 0 -22.5 10.5t-5.5 25.5q7 34 41 34q14 0 22.5 -10.5t5.5 -25.5q-7 -34 -41 -34z" />
    <glyph glyph-name="slash" unicode="/" horiz-adv-x="523" 
d="M16 -100h-31l557 900h32z" />
    <glyph glyph-name="zero" unicode="0" horiz-adv-x="631" 
d="M271 -11q-120 0 -172.5 100.5t-23.5 264.5q29 165 113 261t207 96q120 0 172.5 -100.5t23.5 -264.5q-29 -165 -113 -261t-207 -96zM275 24q103 0 177.5 86.5t101.5 239.5t-16.5 239.5t-146.5 86.5t-178 -87t-101 -239q-28 -152 16 -239t147 -87z" />
    <glyph glyph-name="one" unicode="1" horiz-adv-x="324" 
d="M280 700h30l-123 -700h-37l116 659l-175 -54l-5 32z" />
    <glyph glyph-name="two" unicode="2" horiz-adv-x="528" 
d="M3 0l5 33l310 274q141 124 155 210q13 71 -26.5 115t-111.5 44q-125 0 -198 -113l-28 18q40 62 100 96t130 34q85 0 135.5 -54.5t34.5 -143.5q-10 -58 -52.5 -112.5t-115.5 -118.5l-279 -247h382l-6 -35h-435z" />
    <glyph glyph-name="three" unicode="3" horiz-adv-x="549" 
d="M537 700l-5 -34l-217 -256q88 -8 137.5 -65.5t33.5 -146.5q-17 -96 -91.5 -152.5t-175.5 -56.5q-75 0 -127.5 34t-68.5 95l32 17q13 -53 56.5 -82t111.5 -29q87 0 150 49.5t77 127.5t-31.5 127.5t-132.5 49.5h-11l-11 24l223 264h-352l6 34h396z" />
    <glyph glyph-name="four" unicode="4" horiz-adv-x="563" 
d="M530 187l-5 -34h-90l-27 -153h-37l27 153h-383l5 34l361 513h42l-361 -513h342l40 226h36l-39 -226h89z" />
    <glyph glyph-name="five" unicode="5" horiz-adv-x="544" 
d="M545 666h-332l-62 -253h146q96 0 153.5 -60.5t40.5 -155.5t-91.5 -151.5t-175.5 -56.5q-76 0 -128.5 35.5t-68.5 97.5l32 17q12 -54 56 -84.5t113 -30.5q88 0 150.5 49t76.5 127q14 79 -30.5 128.5t-133.5 49.5h-184l79 322h365z" />
    <glyph glyph-name="six" unicode="6" horiz-adv-x="544" 
d="M307 449q100 0 156 -66t38 -167q-19 -102 -95 -164.5t-180 -62.5q-101 0 -156.5 66.5t-37.5 168.5q15 82 67 138l298 338h43l-236 -269q48 18 103 18zM465 220q15 85 -29.5 140t-134.5 55q-91 0 -154.5 -55t-78.5 -140q-15 -86 29 -141t135 -55t154.5 55t78.5 141z" />
    <glyph glyph-name="seven" unicode="7" horiz-adv-x="490" 
d="M106 700h416l-5 -34l-395 -666h-40l396 666h-378z" />
    <glyph glyph-name="eight" unicode="8" horiz-adv-x="553" 
d="M532 523q-10 -58 -49 -100t-96 -62q59 -21 88 -69.5t18 -112.5q-16 -90 -87 -140t-176 -50q-101 0 -156 54.5t-39 143.5q11 66 56 111.5t114 64.5q-49 22 -73 66t-14 101q15 84 81.5 132.5t156.5 48.5q87 0 139 -52t37 -136zM298 377q78 0 132 42t65 108q12 67 -27 108
t-117 41q-77 0 -131 -41t-65 -108q-12 -66 27.5 -108t115.5 -42zM457 183q12 73 -31.5 116.5t-133.5 43.5t-149 -43.5t-71 -116.5q-13 -72 30.5 -115.5t133.5 -43.5q91 0 149 43t72 116z" />
    <glyph glyph-name="nine" unicode="9" horiz-adv-x="544" 
d="M353 711q101 0 156.5 -66.5t37.5 -168.5q-15 -81 -68 -139l-296 -337h-44l236 269q-48 -18 -103 -18q-100 0 -156 66.5t-38 167.5t94.5 163.5t180.5 62.5zM511 480q15 86 -29 141t-135 55t-154.5 -55t-78.5 -141q-15 -85 29 -140t135 -55t154.5 55t78.5 140z" />
    <glyph glyph-name="colon" unicode=":" horiz-adv-x="197" 
d="M128 420q-14 0 -22.5 10.5t-5.5 25.5q7 34 41 34q14 0 22.5 -10.5t5.5 -25.5q-7 -34 -41 -34zM52 -10q-14 0 -22.5 10.5t-5.5 25.5q7 34 41 34q14 0 22.5 -10.5t5.5 -25.5q-7 -34 -41 -34z" />
    <glyph glyph-name="semicolon" unicode=";" horiz-adv-x="215" 
d="M146 420q-14 0 -22.5 10.5t-5.5 25.5q7 34 41 34q14 0 22.5 -10.5t5.5 -25.5q-7 -34 -41 -34zM108 52l-81 -192h-33l70 192h44z" />
    <glyph glyph-name="less" unicode="&#x3c;" horiz-adv-x="533" 
d="M519 548l-7 -40l-388 -160l331 -160l-6 -36l-368 180l4 18l2 18z" />
    <glyph glyph-name="equal" unicode="=" horiz-adv-x="533" 
d="M99 433l6 34h400l-6 -34h-400zM63 233l7 34h400l-7 -34h-400z" />
    <glyph glyph-name="greater" unicode="&#x3e;" horiz-adv-x="533" 
d="M120 548l367 -180l-6 -36l-431 -180l6 40l389 160l-332 160z" />
    <glyph glyph-name="question" unicode="?" horiz-adv-x="528" 
d="M216 170q9 49 36.5 92t61.5 75t68 61.5t60 65t32 72.5q12 64 -24.5 102t-113.5 38q-61 0 -113 -30.5t-78 -80.5l-30 18q32 59 94.5 93.5t132.5 34.5q85 0 134.5 -48.5t34.5 -130.5q-7 -41 -33.5 -78.5t-60.5 -67.5t-68.5 -61t-61.5 -71t-35 -84h-36zM202 -10
q-14 0 -22.5 10.5t-5.5 25.5q7 34 41 34q14 0 22.5 -10.5t5.5 -25.5q-7 -34 -41 -34z" />
    <glyph glyph-name="at" unicode="@" horiz-adv-x="822" 
d="M482 612q63 0 116.5 -20t88 -54t58 -78.5t28.5 -93.5t-2 -99q-19 -106 -66.5 -154t-104.5 -48q-43 0 -64 26.5t-17 69.5q-53 -71 -142 -71q-68 0 -107 47.5t-27 115.5t65 112.5t124 44.5q42 0 72.5 -20.5t45.5 -55.5l12 69h34l-41 -229q-15 -86 53 -86q49 0 86.5 46.5
t53.5 135.5q23 136 -54.5 228.5t-215.5 92.5q-144 0 -260 -98t-141 -242q-26 -147 59 -244.5t239 -97.5q99 0 175 27l1 -21q-79 -27 -179 -27q-164 0 -255 105t-63 262q26 151 148.5 254t279.5 103zM383 122q52 0 94.5 33t55.5 84l3 21q6 51 -24.5 84.5t-82.5 33.5
q-55 0 -98.5 -36.5t-53.5 -91.5t21 -91.5t85 -36.5z" />
    <glyph glyph-name="A" unicode="A" horiz-adv-x="629" 
d="M527 0l-39 185h-367l-105 -185h-40l397 700h41l151 -700h-38zM140 219h341l-93 438z" />
    <glyph glyph-name="B" unicode="B" horiz-adv-x="627" 
d="M597 518q-9 -53 -44 -95t-86 -62q55 -17 83 -65.5t18 -110.5q-12 -77 -73.5 -131t-148.5 -54h-297l123 700h263q79 0 126.5 -53t35.5 -129zM391 374q59 0 109.5 42.5t60.5 103.5q11 60 -26 103t-100 43h-232l-51 -292h239zM532 187q11 63 -25 108t-98 45h-263l-54 -306
h258q67 0 119 44.5t63 108.5z" />
    <glyph glyph-name="C" unicode="C" horiz-adv-x="757" 
d="M369 -11q-154 0 -238.5 106.5t-58.5 259.5q26 152 144 254t269 102q97 0 170 -45t109 -121l-32 -17q-32 68 -96 108t-152 40q-140 0 -246 -94.5t-130 -231.5q-24 -136 50.5 -231t212.5 -95q89 0 167.5 41.5t130.5 113.5l30 -19q-56 -77 -143.5 -124t-186.5 -47z" />
    <glyph glyph-name="D" unicode="D" horiz-adv-x="734" 
d="M429 700q140 0 217 -104.5t51 -251.5t-135 -245.5t-256 -98.5h-257l123 700h257zM661 349q24 133 -43 225t-195 92h-220l-111 -632h220q129 0 227.5 91t121.5 224z" />
    <glyph glyph-name="E" unicode="E" horiz-adv-x="537" 
d="M558 666h-355l-52 -296h330l-6 -34h-330l-53 -302h360l-6 -34h-397l123 700h392z" />
    <glyph glyph-name="F" unicode="F" horiz-adv-x="522" 
d="M548 666h-345l-53 -302h337l-6 -34h-337l-58 -330h-37l123 700h382z" />
    <glyph glyph-name="G" unicode="G" horiz-adv-x="811" 
d="M769 320l-3 -19q-26 -135 -131 -223.5t-251 -88.5q-162 0 -249.5 108.5t-61.5 262.5q24 148 142 249.5t271 101.5q100 0 172 -46t108 -120l-32 -17q-32 67 -96 107.5t-154 40.5q-140 0 -246.5 -93t-128.5 -229q-23 -138 54.5 -234t222.5 -96q128 0 221 75t120 187h-314
l6 34h350z" />
    <glyph glyph-name="H" unicode="H" horiz-adv-x="693" 
d="M642 700h37l-123 -700h-37l60 343h-433l-60 -343h-37l123 700h37l-57 -323h433z" />
    <glyph glyph-name="I" unicode="I" horiz-adv-x="223" 
d="M172 700h37l-123 -700h-37z" />
    <glyph glyph-name="J" unicode="J" horiz-adv-x="554" 
d="M212 -11q-75 0 -125 30.5t-66 86.5l33 17q26 -99 160 -99q82 0 138.5 44t69.5 118l90 514h37l-90 -515q-17 -93 -85.5 -144.5t-161.5 -51.5z" />
    <glyph glyph-name="K" unicode="K" horiz-adv-x="563" 
d="M624 700l-434 -343l319 -357h-44l-317 352l-62 -352h-37l123 700h37l-58 -331l421 331h52z" />
    <glyph glyph-name="L" unicode="L" horiz-adv-x="497" 
d="M92 34h340l-6 -34h-377l123 700h37z" />
    <glyph glyph-name="M" unicode="M" horiz-adv-x="813" 
d="M799 700l-123 -700h-37l113 644l-348 -443h-9l-195 449l-114 -650h-37l123 700h44l191 -439l345 439h47z" />
    <glyph glyph-name="N" unicode="N" horiz-adv-x="693" 
d="M49 0l123 700h32l327 -634l111 634h37l-123 -700h-31l-327 634l-112 -634h-37z" />
    <glyph glyph-name="O" unicode="O" horiz-adv-x="829" 
d="M370 -11q-150 0 -237.5 108t-60.5 258q26 150 148 253t273 103q149 0 237 -109t62 -259q-26 -149 -148 -251.5t-274 -102.5zM375 24q137 0 246.5 94t134.5 230q23 136 -54.5 232t-213.5 96t-246 -95t-134 -231q-24 -135 54 -230.5t213 -95.5z" />
    <glyph glyph-name="P" unicode="P" horiz-adv-x="583" 
d="M395 700q96 0 147 -61t36 -152t-87 -152.5t-174 -61.5h-183l-48 -273h-37l123 700h223zM542 490q14 77 -28 126.5t-121 49.5h-190l-63 -359h180q86 0 147 52t75 131z" />
    <glyph glyph-name="Q" unicode="Q" horiz-adv-x="834" 
d="M792 343q-13 -78 -55.5 -145.5t-105.5 -116.5l67 -80l-26 -23l-69 83q-109 -72 -233 -72q-150 0 -237.5 108t-60.5 258q26 150 148 253t273 103q149 0 237 -109t62 -259zM609 108q120 94 147 240q23 136 -54.5 232t-213.5 96t-246 -95t-134 -231q-24 -135 54 -230.5
t213 -95.5q108 0 206 64l-131 157l26 22z" />
    <glyph glyph-name="R" unicode="R" horiz-adv-x="617" 
d="M446 700q82 0 131.5 -62.5t35.5 -146.5q-13 -71 -66 -124t-124 -69l123 -298h-38l-120 293h-14h-237l-51 -293h-37l123 700h274zM577 497q13 70 -27.5 119.5t-109.5 49.5h-237l-60 -339h237q70 0 127.5 50t69.5 120z" />
    <glyph glyph-name="S" unicode="S" horiz-adv-x="562" 
d="M253 -11q-94 0 -154.5 43t-76.5 117l32 17q12 -66 63.5 -104t136.5 -38q89 0 143.5 38t67.5 101q8 37 -2 65.5t-38.5 49t-54.5 33t-69 27.5q-99 37 -136 70q-60 53 -44 137q14 77 78.5 121.5t147.5 44.5q82 0 134 -40t71 -104l-32 -16q-39 125 -174 125q-71 0 -124 -37
t-65 -98q-7 -37 3.5 -65.5t41 -49.5t53.5 -31.5t67 -26.5q18 -7 30 -12t29 -12.5t28 -13.5t26 -15.5t23 -18t19 -20.5t14.5 -23.5t9.5 -27t3.5 -31t-3.5 -35.5q-16 -82 -83.5 -126t-164.5 -44z" />
    <glyph glyph-name="T" unicode="T" horiz-adv-x="540" 
d="M592 700l-5 -34h-226l-117 -666h-36l117 666h-225l6 34h486z" />
    <glyph glyph-name="U" unicode="U" horiz-adv-x="673" 
d="M297 -11q-117 0 -176.5 67.5t-40.5 172.5l83 471h37l-83 -471q-16 -90 30 -147.5t150 -57.5t170 58t82 147l83 471h37l-83 -471q-19 -109 -97 -174.5t-192 -65.5z" />
    <glyph glyph-name="V" unicode="V" horiz-adv-x="601" 
d="M237 0l-141 700h36l130 -656l361 656h41l-387 -700h-40z" />
    <glyph glyph-name="W" unicode="W" horiz-adv-x="987" 
d="M196 0l-80 700h35l74 -653l324 653h43l95 -653l303 653h39l-326 -700h-44l-95 653l-324 -653h-44z" />
    <glyph glyph-name="X" unicode="X" horiz-adv-x="567" 
d="M608 700l-285 -344l173 -356h-38l-159 327l-272 -327h-44l299 361l-165 339h38l151 -311l258 311h44z" />
    <glyph glyph-name="Y" unicode="Y" horiz-adv-x="565" 
d="M627 700l-313 -372l-57 -328h-37l58 328l-182 372h38l166 -339l285 339h42z" />
    <glyph glyph-name="Z" unicode="Z" horiz-adv-x="527" 
d="M559 700l-6 -34l-502 -632h401l-6 -34h-443l6 34l502 632h-381l6 34h423z" />
    <glyph glyph-name="bracketleft" unicode="[" horiz-adv-x="273" 
d="M345 766h-152l-147 -832h152l-7 -34h-186l159 900h186z" />
    <glyph glyph-name="backslash" unicode="\" horiz-adv-x="523" 
d="M386 -100l-242 900h28l243 -900h-29z" />
    <glyph glyph-name="bracketright" unicode="]" horiz-adv-x="273" 
d="M304 800l-159 -900h-187l7 34h150l147 832h-151l6 34h187z" />
    <glyph glyph-name="asciicircum" unicode="^" horiz-adv-x="504" 
d="M347 700l123 -300h-37l-107 260l-197 -260h-43l227 300h34z" />
    <glyph glyph-name="underscore" unicode="_" horiz-adv-x="493" 
d="M-26 -126l5 34h414l-6 -34h-413z" />
    <glyph glyph-name="grave" unicode="`" horiz-adv-x="162" 
d="M198 570l-60 123h-40l68 -123h32z" />
    <glyph glyph-name="a" unicode="a" horiz-adv-x="654" 
d="M579 500h36l-88 -500h-36l21 118q-39 -61 -103 -95t-140 -34q-107 0 -173 81.5t-47 191.5q20 113 102.5 181t189.5 68q76 0 134 -43t78 -114zM276 23q91 0 162 56.5t93 145.5l5 33q10 94 -47.5 156.5t-148.5 62.5q-93 0 -165.5 -60t-90.5 -159q-17 -96 39.5 -165.5
t152.5 -69.5z" />
    <glyph glyph-name="b" unicode="b" horiz-adv-x="653" 
d="M386 511q106 0 172 -80.5t47 -189.5q-20 -111 -103 -181.5t-195 -70.5q-76 0 -131.5 43.5t-74.5 113.5l-26 -146h-36l123 700h36l-56 -321q40 62 104 97t140 35zM570 245q17 96 -39.5 164t-151.5 68q-93 0 -165.5 -60t-91.5 -152l-3 -16q-13 -93 43 -159.5t149 -66.5
q96 0 169 63t90 159z" />
    <glyph glyph-name="c" unicode="c" horiz-adv-x="571" 
d="M263 -11q-111 0 -173 77.5t-42 189.5q20 110 106.5 182.5t198.5 72.5q72 0 125.5 -34t73.5 -91l-31 -16q-16 50 -61 78.5t-111 28.5q-97 0 -173 -65t-93 -161t35.5 -162t149.5 -66q65 0 121 29.5t89 79.5l28 -18q-38 -59 -102 -92t-141 -33z" />
    <glyph glyph-name="d" unicode="d" horiz-adv-x="654" 
d="M614 700h36l-123 -700h-36l21 118q-39 -61 -103 -95t-140 -34q-107 0 -173 81.5t-47 191.5q20 113 102.5 181t189.5 68q76 0 134 -43t78 -114zM276 23q91 0 161.5 56t92.5 145l7 35q9 94 -49 156t-148 62q-94 0 -166.5 -60.5t-89.5 -158.5q-17 -96 39.5 -165.5
t152.5 -69.5z" />
    <glyph glyph-name="e" unicode="e" horiz-adv-x="593" 
d="M344 511q112 0 167.5 -77.5t36.5 -184.5q0 -3 -2 -9t-2 -9h-464q-10 -94 41 -151t145 -57q64 0 117 26t84 71l28 -18q-37 -53 -99 -83t-135 -30q-114 0 -174 76t-40 190q20 111 102.5 183.5t194.5 72.5zM85 264h430q12 98 -36.5 155.5t-136.5 57.5q-94 0 -165 -59
t-92 -154z" />
    <glyph glyph-name="f" unicode="f" horiz-adv-x="306" 
d="M167 533q16 92 71.5 138.5t148.5 39.5l-6 -34q-150 13 -179 -144l-6 -33h154l-6 -33h-154l-82 -467h-35l82 467h-88l5 33h89z" />
    <glyph glyph-name="g" unicode="g" horiz-adv-x="661" 
d="M586 500h35l-83 -473q-19 -111 -96 -174.5t-191 -63.5q-84 0 -140 33.5t-76 86.5l31 16q15 -44 62.5 -73t124.5 -29q101 0 167 54t83 150l16 93q-39 -61 -102 -96t-136 -35q-113 0 -178 80t-48 193q18 109 101.5 179t187.5 70q79 0 137.5 -42.5t78.5 -114.5zM286 23
q92 0 165 61.5t89 156.5q18 101 -40.5 168.5t-154.5 67.5q-92 0 -165.5 -61.5t-88.5 -157.5q-17 -98 40 -166.5t155 -68.5z" />
    <glyph glyph-name="h" unicode="h" horiz-adv-x="569" 
d="M350 511q87 0 132 -54.5t29 -142.5l-55 -314h-35l55 314q12 73 -22 118t-109 45q-78 0 -138 -50.5t-81 -139.5l-51 -287h-36l123 700h36l-53 -303q36 57 90 85.5t115 28.5z" />
    <glyph glyph-name="i" unicode="i" horiz-adv-x="202" 
d="M169 636q-13 0 -20.5 9.5t-5.5 21.5q8 32 37 32q13 0 20.5 -9.5t5.5 -22.5t-12.5 -22t-24.5 -9zM39 0l88 500h36l-88 -500h-36z" />
    <glyph glyph-name="j" unicode="j" horiz-adv-x="216" 
d="M194 699q13 0 20.5 -9.5t5.5 -22.5t-12.5 -22t-24.5 -9q-13 0 -20.5 9.5t-5.5 21.5q8 32 37 32zM40 -73l101 573h36l-101 -573q-28 -153 -177 -138l6 34q115 -13 135 104z" />
    <glyph glyph-name="k" unicode="k" horiz-adv-x="472" 
d="M483 500l-326 -241l244 -259h-44l-238 252l-44 -252h-36l123 700h36l-75 -429l308 229h52z" />
    <glyph glyph-name="l" unicode="l" horiz-adv-x="203" 
d="M40 0l55 314l73 416h36l-74 -416l-54 -314h-36z" />
    <glyph glyph-name="m" unicode="m" horiz-adv-x="866" 
d="M665 511q75 0 117.5 -49.5t26.5 -139.5l-56 -322h-36l57 322q12 75 -19.5 115t-95.5 40q-72 0 -125.5 -50.5t-70.5 -145.5l-49 -281h-36l57 322q12 75 -18 115t-93 40q-68 0 -121.5 -44.5t-74.5 -128.5l-53 -304h-36l88 500h36l-16 -93q67 104 184 104q56 0 94.5 -29.5
t46.5 -85.5q34 58 85.5 86.5t107.5 28.5z" />
    <glyph glyph-name="n" unicode="n" horiz-adv-x="569" 
d="M350 511q87 0 132 -54.5t29 -142.5l-55 -314h-35l55 314q12 73 -22 118t-109 45q-77 0 -137 -50t-82 -138l-51 -289h-36l88 500h36l-18 -103q36 57 90 85.5t115 28.5z" />
    <glyph glyph-name="o" unicode="o" horiz-adv-x="617" 
d="M265 -11q-108 0 -173 75.5t-44 189.5q20 114 109 185.5t197 71.5q107 0 171 -76t44 -189q-20 -114 -107.5 -185.5t-196.5 -71.5zM268 23q94 0 171.5 64.5t94.5 163.5q18 98 -37 162t-148 64q-94 0 -171 -64t-95 -163q-17 -99 37.5 -163.5t147.5 -63.5z" />
    <glyph glyph-name="p" unicode="p" horiz-adv-x="654" 
d="M385 511q106 0 172.5 -81.5t47.5 -191.5q-20 -113 -102.5 -181t-189.5 -68q-76 0 -134 42.5t-78 113.5l-61 -345h-36l123 700h36l-21 -118q40 61 103.5 95t139.5 34zM570 242q17 96 -39.5 165.5t-152.5 69.5q-91 0 -161.5 -56t-92.5 -145l-7 -35q-9 -94 49 -156t148 -62
q94 0 166.5 60.5t89.5 158.5z" />
    <glyph glyph-name="q" unicode="q" horiz-adv-x="654" 
d="M579 500h36l-123 -700h-36l56 318q-40 -61 -103 -95t-140 -34q-107 0 -173 81.5t-47 191.5q20 113 102.5 181t189.5 68q76 0 134 -43t78 -114zM276 23q91 0 162 56.5t93 146.5l5 31q10 94 -47.5 157t-148.5 63q-93 0 -165.5 -60t-90.5 -159q-17 -96 39.5 -165.5
t152.5 -69.5z" />
    <glyph glyph-name="r" unicode="r" horiz-adv-x="322" 
d="M145 399q36 57 87.5 83.5t107.5 24.5l-6 -34q-74 0 -134 -50.5t-76 -144.5l-49 -278h-36l88 500h36z" />
    <glyph glyph-name="s" unicode="s" horiz-adv-x="469" 
d="M204 -11q-140 0 -177 110l32 16q27 -92 148 -92q59 0 101.5 25.5t50.5 71.5q7 36 -12 60.5t-52.5 35.5t-72 24.5t-71 27t-51 43t-10.5 72.5q10 58 60 93t121 35q56 0 99 -26.5t61 -71.5l-31 -16q-13 38 -49 59t-82 21q-54 0 -94.5 -25.5t-49.5 -74.5q-7 -40 21.5 -64.5
t72.5 -37.5t88 -27.5t70.5 -47.5t17.5 -85q-11 -59 -63 -92.5t-128 -33.5z" />
    <glyph glyph-name="t" unicode="t" horiz-adv-x="378" 
d="M215 467l-61 -349q-11 -63 21.5 -80t117.5 -7l-6 -31q-97 -15 -139.5 13t-29.5 105l61 349h-114l6 33h114l23 129l37 11l-24 -140h154l-6 -33h-154z" />
    <glyph glyph-name="u" unicode="u" horiz-adv-x="569" 
d="M494 500h36l-88 -500h-36l18 103q-36 -57 -90 -85.5t-115 -28.5q-87 0 -132 54.5t-29 142.5l55 314h35l-55 -314q-12 -73 22 -118t109 -45q77 0 137 50t82 138z" />
    <glyph glyph-name="v" unicode="v" horiz-adv-x="485" 
d="M472 500h40l-293 -500h-41l-117 500h35l107 -463z" />
    <glyph glyph-name="w" unicode="w" horiz-adv-x="770" 
d="M739 500h38l-248 -500h-39l-70 452l-228 -452h-39l-72 500h34l64 -454l230 454h37l69 -455z" />
    <glyph glyph-name="x" unicode="x" horiz-adv-x="503" 
d="M510 500l-236 -245l159 -255h-40l-143 230l-222 -230h-45l249 259l-150 241h39l135 -216l208 216h46z" />
    <glyph glyph-name="y" unicode="y" horiz-adv-x="510" 
d="M498 500h39l-312 -546q-44 -76 -102 -117.5t-121 -36.5l6 33q50 -5 98 30t84 99l13 22l-142 516h35l130 -476z" />
    <glyph glyph-name="z" unicode="z" horiz-adv-x="477" 
d="M467 500l-4 -22l-397 -445h329l-6 -33h-380l4 22l398 445h-309l5 33h360z" />
    <glyph glyph-name="braceleft" unicode="{" horiz-adv-x="344" 
d="M260 -109q-76 -7 -108.5 28.5t-20.5 105.5l37 209q10 55 -13.5 77.5t-83.5 22.5l6 34q60 0 91 22.5t41 77.5l37 208q27 149 176 134l-5 -33q-116 12 -136 -101l-37 -208q-18 -103 -101 -119q77 -17 60 -115l-36 -209q-11 -59 13 -83t86 -17z" />
    <glyph glyph-name="bar" unicode="|" horiz-adv-x="222" 
d="M14 -200l162 920h36l-162 -920h-36z" />
    <glyph glyph-name="braceright" unicode="}" horiz-adv-x="344" 
d="M119 811q76 7 108.5 -28.5t20.5 -105.5l-37 -209q-10 -55 13.5 -77.5t83.5 -22.5l-6 -34q-60 0 -91 -22.5t-41 -77.5l-37 -208q-27 -149 -176 -134l5 33q116 -12 136 101l37 208q18 103 101 119q-77 17 -60 115l36 209q11 59 -13 83t-86 17z" />
    <glyph glyph-name="asciitilde" unicode="~" horiz-adv-x="580" 
d="M107 293l-30 14q12 28 32 51t49.5 40.5t71.5 10t88 -43.5q39 -31 72.5 -38t56.5 8t37 32t24 40l31 -14q-12 -28 -31.5 -51t-48.5 -40t-71.5 -10t-89.5 43q-39 31 -73 37.5t-57 -8t-36.5 -31.5t-24.5 -40z" />
    <glyph glyph-name="exclamdown" unicode="&#xa1;" horiz-adv-x="210" 
d="M150 510q15 0 23 -10.5t6 -25.5q-3 -15 -14.5 -24.5t-26.5 -9.5t-23.5 10.5t-5.5 25.5q7 34 41 34zM134 330l-53 -330l-35 -200h-40l35 200l63 330h30z" />
    <glyph glyph-name="cent" unicode="&#xa2;" horiz-adv-x="571" 
d="M538 470q-23 70 -98 96l-218 -434q28 -9 63 -9q65 0 121 29.5t89 79.5l28 -18q-38 -59 -102 -92t-141 -33q-39 0 -75 11l-50 -100h-32l56 111q-66 30 -97 96.5t-17 148.5q20 110 106.5 182.5t198.5 72.5q31 0 58 -6l48 95h32l-52 -104q85 -31 113 -110zM195 142l217 431
q-19 4 -46 4q-97 0 -173 -65t-93 -161q-12 -70 13.5 -126.5t81.5 -82.5z" />
    <glyph glyph-name="sterling" unicode="&#xa3;" horiz-adv-x="595" 
d="M415 676q-71 0 -119 -43t-60 -116l-33 -187h249l-5 -33h-250l-47 -262h389l-6 -35h-530l6 35h104l47 262h-85l6 33h85l33 187q16 91 74.5 142.5t144.5 51.5q63 0 108 -34t66 -94l-30 -16q-42 109 -147 109z" />
    <glyph glyph-name="currency" unicode="&#xa4;" horiz-adv-x="553" 
d="M561 560l-83 -71q43 -62 28 -142q-15 -82 -76 -138l57 -70l-22 -18l-58 69q-69 -51 -149 -51q-78 0 -129 51l-82 -70l-18 20l83 70q-44 62 -29 143q15 82 77 139l-58 69l22 18l58 -69q69 51 149 51q78 0 129 -51l83 70zM471 350q13 75 -29 126t-116 51t-134.5 -51
t-73.5 -126t29 -126t116 -51t134.5 51t73.5 126z" />
    <glyph glyph-name="yen" unicode="&#xa5;" horiz-adv-x="565" 
d="M627 700l-303 -360h183l-5 -31h-191l-16 -93h191l-6 -32h-191l-32 -184h-37l33 184h-189l5 32h189l17 93h-190l6 31h181l-176 360h38l166 -339l285 339h42z" />
    <glyph glyph-name="brokenbar" unicode="&#xa6;" horiz-adv-x="222" 
d="M111 350l65 370h36l-65 -370h-36zM14 -200l65 370h36l-65 -370h-36z" />
    <glyph glyph-name="section" unicode="&#xa7;" horiz-adv-x="508" 
d="M331 677q-58 0 -99.5 -29.5t-49.5 -79.5q-6 -35 15 -64.5t41 -41.5t74 -38q8 -5 13 -7q37 -18 57 -30.5t44 -33t32.5 -46.5t2.5 -58q-13 -73 -92 -115q43 -46 32 -109q-11 -62 -62.5 -99.5t-130.5 -37.5q-70 0 -117 33t-63 95l31 16q25 -111 153 -111q61 0 103 28.5
t52 78.5q5 28 -4 51t-32 42t-46 32t-60 30q-35 16 -57 29t-46 33t-33 46.5t-3 58.5q14 74 93 115q-43 45 -32 107t62 100.5t126 38.5q58 0 101.5 -30t62.5 -84l-30 -17q-33 97 -138 97zM425 252q9 47 -21.5 75t-98.5 60q-75 35 -103 57q-71 -33 -81 -98q-7 -47 24.5 -75
t98.5 -58q71 -33 102 -58q69 35 79 97z" />
    <glyph glyph-name="dieresis" unicode="&#xa8;" horiz-adv-x="267" 
d="M107 578q-12 0 -19 8.5t-5 20.5q2 11 12 19.5t22 8.5t18.5 -8.5t4.5 -19.5q-2 -12 -11.5 -20.5t-21.5 -8.5zM277 578q-12 0 -19 8.5t-5 20.5q2 11 12 19.5t22 8.5t18.5 -8.5t4.5 -19.5q-2 -12 -11.5 -20.5t-21.5 -8.5z" />
    <glyph glyph-name="copyright" unicode="&#xa9;" horiz-adv-x="831" 
d="M369 -11q-148 0 -236 108t-61 258q26 150 149 253t276 103q148 0 236 -108t62 -258q-27 -150 -150 -253t-276 -103zM373 11q141 0 257 99t142 240q24 141 -57.5 240t-221.5 99q-141 0 -257 -99t-141 -240t56.5 -240t221.5 -99zM403 158q-82 0 -128.5 57t-32.5 138t77 135
t147 54q51 0 91 -25.5t59 -67.5l-30 -16q-34 76 -126 76q-69 0 -120 -46t-63 -113q-11 -66 25 -112.5t105 -46.5q44 0 83.5 20.5t64.5 56.5l27 -17q-30 -43 -77 -68t-102 -25z" />
    <glyph glyph-name="guillemotleft" unicode="&#xab;" horiz-adv-x="450" 
d="M278 476l-135 -170l73 -164h-42l-74 167l133 167h45zM400 476l-136 -170l73 -164h-41l-75 167l134 167h45z" />
    <glyph glyph-name="logicalnot" unicode="&#xac;" horiz-adv-x="520" 
d="M476 382l-29 -167h-35l23 134h-351l6 33h386z" />
    <glyph glyph-name="registered" unicode="&#xae;" horiz-adv-x="831" 
d="M497 711q148 0 236 -108t62 -258q-27 -150 -150 -253t-276 -103q-148 0 -236 108t-61 258q26 150 149 253t276 103zM772 350q24 141 -57.5 240t-221.5 99q-141 0 -257 -99t-141 -240t56.5 -240t221.5 -99q141 0 257 99t142 240zM471 535q63 0 91.5 -35t20.5 -80
q-16 -86 -102 -105l65 -150h-36l-62 146q-5 -1 -17 -1h-75l-25 -145h-34l65 370h109zM549 423q6 35 -15 57.5t-67 22.5h-77l-28 -161h76q96 0 111 81z" />
    <glyph glyph-name="macron" unicode="&#xaf;" horiz-adv-x="287" 
d="M81 594l5 30h247l-6 -30h-246z" />
    <glyph glyph-name="degree" unicode="&#xb0;" horiz-adv-x="386" 
d="M241 523q-60 0 -95.5 43t-25.5 103q11 60 59.5 100.5t112.5 40.5q62 0 97 -43t24 -103q-11 -61 -58 -101t-114 -40zM247 555q49 0 86 32t45 80q8 47 -18 79t-74 32q-47 0 -85 -32t-46 -79q-8 -48 18 -80t74 -32z" />
    <glyph glyph-name="plusminus" unicode="&#xb1;" horiz-adv-x="527" 
d="M312 428h180l-6 -33h-179l-31 -175h-35l31 175h-179l5 33h180l31 175h34zM40 97l6 33h393l-6 -33h-393z" />
    <glyph glyph-name="acute" unicode="&#xb4;" horiz-adv-x="160" 
d="M76 570h35l107 123h-42z" />
    <glyph glyph-name="uni00B5" unicode="&#xb5;" horiz-adv-x="609" 
d="M470 80q-8 -47 37 -47h27l-6 -33h-29q-34 0 -52.5 22t-11.5 58l4 23q-73 -114 -205 -114q-111 0 -145 88l-49 -277h-36l123 700h36l-58 -332q-6 -65 28.5 -105t104.5 -40q83 0 144.5 56t79.5 155l47 266h35z" />
    <glyph glyph-name="paragraph" unicode="&#xb6;" horiz-adv-x="560" 
d="M592 700l-5 -33h-61l-152 -867h-34l152 867h-151l-152 -867h-35l93 527q-78 1 -122.5 57.5t-30.5 132.5q13 78 76.5 130.5t141.5 52.5h280z" />
    <glyph glyph-name="periodcentered" unicode="&#xb7;" horiz-adv-x="196" 
d="M107 305q-14 0 -22.5 10.5t-5.5 25.5q7 34 41 34q14 0 22.5 -10.5t5.5 -25.5q-7 -34 -41 -34z" />
    <glyph glyph-name="cedilla" unicode="&#xb8;" horiz-adv-x="225" 
d="M59 -68q36 -2 59.5 -20.5t17.5 -49.5q-14 -88 -197 -69l5 29q151 -16 161 43q5 22 -16.5 34t-65.5 9l16 92h32z" />
    <glyph glyph-name="guillemotright" unicode="&#xbb;" horiz-adv-x="451" 
d="M175 476l75 -167l-134 -167h-45l136 170l-73 164h41zM297 476l74 -167l-133 -167h-45l135 170l-73 164h42z" />
    <glyph glyph-name="onequarter" unicode="&#xbc;" horiz-adv-x="836" 
d="M144 300l63 358l-115 -38l-5 31l138 49h24l-71 -400h-34zM628 700h37l-533 -700h-37zM786 116l-5 -31h-59l-15 -85h-34l15 85h-220l6 31l202 284h37l-201 -284h181l20 113h34l-20 -113h59z" />
    <glyph glyph-name="onehalf" unicode="&#xbd;" horiz-adv-x="824" 
d="M144 300l63 358l-115 -38l-5 31l138 49h24l-71 -400h-34zM628 700h37l-533 -700h-37zM787 294q-8 -60 -77 -117l-178 -145h217l-6 -32h-270l4 27l212 173q58 48 65 96q6 35 -15.5 59.5t-63.5 24.5q-36 0 -66 -19.5t-47 -51.5l-28 16q20 39 59 63t86 24q56 0 85.5 -34
t22.5 -84z" />
    <glyph glyph-name="threequarters" unicode="&#xbe;" horiz-adv-x="936" 
d="M332 410q-9 -54 -51 -88t-107 -34q-96 0 -121 77l30 16q17 -61 95 -61q50 0 82 26.5t39 67.5q6 40 -16 66.5t-72 26.5h-3l-12 25l124 136h-203l5 32h245l-5 -32l-123 -134q51 -7 76 -41.5t17 -82.5zM728 700h37l-533 -700h-37zM886 116l-5 -31h-59l-15 -85h-34l15 85
h-220l6 31l202 284h37l-201 -284h181l20 113h34l-20 -113h59z" />
    <glyph glyph-name="questiondown" unicode="&#xbf;" horiz-adv-x="528" 
d="M326 510q14 0 22.5 -10.5t5.5 -25.5q-7 -34 -41 -34q-14 0 -22.5 10.5t-5.5 25.5q7 34 41 34zM312 330q-9 -49 -36.5 -92t-61.5 -75t-68 -61.5t-60 -65t-32 -72.5q-12 -64 24.5 -102t113.5 -38q61 0 113 30.5t78 80.5l30 -18q-32 -59 -94.5 -93.5t-132.5 -34.5
q-85 0 -134.5 48.5t-34.5 130.5q7 41 33.5 78.5t60.5 67.5t68.5 61t61.5 71t35 84h36z" />
    <glyph glyph-name="Agrave" unicode="&#xc0;" horiz-adv-x="629" 
d="M436 770h-32l-68 123h40zM527 0l-39 185h-367l-105 -185h-40l397 700h41l151 -700h-38zM140 219h341l-93 438z" />
    <glyph glyph-name="Aacute" unicode="&#xc1;" horiz-adv-x="629" 
d="M515 893l-107 -123h-35l100 123h42zM527 0l-39 185h-367l-105 -185h-40l397 700h41l151 -700h-38zM140 219h341l-93 438z" />
    <glyph glyph-name="Acircumflex" unicode="&#xc2;" horiz-adv-x="629" 
d="M425 872l-108 -102h-42l131 123h41l88 -123h-37zM527 0l-39 185h-367l-105 -185h-40l397 700h41l151 -700h-38zM140 219h341l-93 438z" />
    <glyph glyph-name="Atilde" unicode="&#xc3;" horiz-adv-x="629" 
d="M411 818q-38 43 -66 34.5t-38 -65.5h-31q13 76 58 94t88 -33q37 -42 65.5 -33.5t38.5 64.5h31q-13 -76 -58 -93.5t-88 32.5zM527 0l-39 185h-367l-105 -185h-40l397 700h41l151 -700h-38zM140 219h341l-93 438z" />
    <glyph glyph-name="Adieresis" unicode="&#xc4;" horiz-adv-x="629" 
d="M322 778q-12 0 -19 8.5t-5 20.5q2 11 12 19.5t22 8.5t18.5 -8.5t4.5 -19.5q-2 -12 -11.5 -20.5t-21.5 -8.5zM492 778q-12 0 -19 8.5t-5 20.5q2 11 12 19.5t22 8.5t18.5 -8.5t4.5 -19.5q-2 -12 -11.5 -20.5t-21.5 -8.5zM527 0l-39 185h-367l-105 -185h-40l397 700h41
l151 -700h-38zM140 219h341l-93 438z" />
    <glyph glyph-name="Aring" unicode="&#xc5;" horiz-adv-x="629" 
d="M527 0l-39 185h-367l-105 -185h-40l388 683q-32 8 -46.5 33t-9.5 58q7 40 38.5 66t74.5 26q44 0 67.5 -26.5t16.5 -67.5q-6 -34 -29.5 -58t-57.5 -31l147 -683h-38zM338 773q-5 -29 10.5 -47.5t46.5 -18.5t53 18.5t27 47.5q5 30 -11 48t-46 18t-52 -18t-28 -48zM140 219
h341l-93 438z" />
    <glyph glyph-name="AE" unicode="&#xc6;" horiz-adv-x="865" 
d="M887 666h-329l-52 -296h307l-6 -34h-307l-53 -302h334l-6 -34h-370l34 193h-280l-152 -193h-44l551 700h379zM185 227h260l75 425z" />
    <glyph glyph-name="Ccedilla" unicode="&#xc7;" horiz-adv-x="757" 
d="M484 676q-140 0 -246 -94.5t-130 -231.5q-24 -136 50.5 -231t212.5 -95q89 0 167.5 41.5t130.5 113.5l30 -19q-53 -74 -135.5 -120.5t-176.5 -50.5l-10 -57q36 -2 59.5 -20.5t17.5 -49.5q-14 -88 -197 -69l5 29q151 -16 161 43q5 22 -16.5 34t-65.5 9l14 81
q-148 5 -228.5 111t-54.5 255q26 152 144 254t269 102q97 0 170 -45t109 -121l-32 -17q-32 68 -96 108t-152 40z" />
    <glyph glyph-name="Egrave" unicode="&#xc8;" horiz-adv-x="537" 
d="M408 770h-32l-68 123h40zM558 666h-355l-52 -296h330l-6 -34h-330l-53 -302h360l-6 -34h-397l123 700h392z" />
    <glyph glyph-name="Eacute" unicode="&#xc9;" horiz-adv-x="537" 
d="M487 893l-107 -123h-35l100 123h42zM558 666h-355l-52 -296h330l-6 -34h-330l-53 -302h360l-6 -34h-397l123 700h392z" />
    <glyph glyph-name="Ecircumflex" unicode="&#xca;" horiz-adv-x="537" 
d="M397 872l-108 -102h-42l131 123h41l88 -123h-37zM558 666h-355l-52 -296h330l-6 -34h-330l-53 -302h360l-6 -34h-397l123 700h392z" />
    <glyph glyph-name="Edieresis" unicode="&#xcb;" horiz-adv-x="537" 
d="M294 778q-12 0 -19 8.5t-5 20.5q2 11 12 19.5t22 8.5t18.5 -8.5t4.5 -19.5q-2 -12 -11.5 -20.5t-21.5 -8.5zM464 778q-12 0 -19 8.5t-5 20.5q2 11 12 19.5t22 8.5t18.5 -8.5t4.5 -19.5q-2 -12 -11.5 -20.5t-21.5 -8.5zM558 666h-355l-52 -296h330l-6 -34h-330l-53 -302
h360l-6 -34h-397l123 700h392z" />
    <glyph glyph-name="Igrave" unicode="&#xcc;" horiz-adv-x="223" 
d="M234 770l-60 123h-40l68 -123h32zM172 700h37l-123 -700h-37z" />
    <glyph glyph-name="Iacute" unicode="&#xcd;" horiz-adv-x="223" 
d="M171 770h35l107 123h-42zM172 700h37l-123 -700h-37z" />
    <glyph glyph-name="Icircumflex" unicode="&#xce;" horiz-adv-x="223" 
d="M333 770h-37l-73 102l-108 -102h-42l131 123h41zM49 0l123 700h37l-123 -700h-37z" />
    <glyph glyph-name="Idieresis" unicode="&#xcf;" horiz-adv-x="223" 
d="M120 778q-12 0 -19 8.5t-5 20.5q2 11 12 19.5t22 8.5t18.5 -8.5t4.5 -19.5q-2 -12 -11.5 -20.5t-21.5 -8.5zM290 778q-12 0 -19 8.5t-5 20.5q2 11 12 19.5t22 8.5t18.5 -8.5t4.5 -19.5q-2 -12 -11.5 -20.5t-21.5 -8.5zM172 700h37l-123 -700h-37z" />
    <glyph glyph-name="Eth" unicode="&#xd0;" horiz-adv-x="754" 
d="M449 700q140 0 217 -104.5t51 -251.5t-135 -245.5t-256 -98.5h-257l59 333h-63l6 34h62l59 333h257zM681 349q24 133 -43 225t-195 92h-220l-53 -299h261l-6 -34h-260l-53 -299h220q129 0 227.5 91t121.5 224z" />
    <glyph glyph-name="Ntilde" unicode="&#xd1;" horiz-adv-x="693" 
d="M309 787q13 76 58 94t88 -33q37 -42 65.5 -33.5t38.5 64.5h31q-13 -76 -58 -93.5t-88 32.5q-38 43 -66 34.5t-38 -65.5h-31zM49 0l123 700h32l327 -634l111 634h37l-123 -700h-31l-327 634l-112 -634h-37z" />
    <glyph glyph-name="Ograve" unicode="&#xd2;" horiz-adv-x="829" 
d="M536 770l-60 123h-40l68 -123h32zM370 -11q-150 0 -237.5 108t-60.5 258q26 150 148 253t273 103q149 0 237 -109t62 -259q-26 -149 -148 -251.5t-274 -102.5zM375 24q137 0 246.5 94t134.5 230q23 136 -54.5 232t-213.5 96t-246 -95t-134 -231q-24 -135 54 -230.5
t213 -95.5z" />
    <glyph glyph-name="Oacute" unicode="&#xd3;" horiz-adv-x="829" 
d="M473 770h35l107 123h-42zM370 -11q-150 0 -237.5 108t-60.5 258q26 150 148 253t273 103q149 0 237 -109t62 -259q-26 -149 -148 -251.5t-274 -102.5zM375 24q137 0 246.5 94t134.5 230q23 136 -54.5 232t-213.5 96t-246 -95t-134 -231q-24 -135 54 -230.5t213 -95.5z
" />
    <glyph glyph-name="Ocircumflex" unicode="&#xd4;" horiz-adv-x="829" 
d="M525 872l-108 -102h-42l131 123h41l88 -123h-37zM493 711q149 0 237 -109t62 -259q-26 -149 -148 -251.5t-274 -102.5q-150 0 -237.5 108t-60.5 258q26 150 148 253t273 103zM756 348q23 136 -54.5 232t-213.5 96t-246 -95t-134 -231q-24 -135 54 -230.5t213 -95.5
q137 0 246.5 94t134.5 230z" />
    <glyph glyph-name="Otilde" unicode="&#xd5;" horiz-adv-x="829" 
d="M376 787q13 76 58 94t88 -33q37 -42 65.5 -33.5t38.5 64.5h31q-13 -76 -58 -93.5t-88 32.5q-38 43 -66 34.5t-38 -65.5h-31zM370 -11q-150 0 -237.5 108t-60.5 258q26 150 148 253t273 103q149 0 237 -109t62 -259q-26 -149 -148 -251.5t-274 -102.5zM375 24
q137 0 246.5 94t134.5 230q23 136 -54.5 232t-213.5 96t-246 -95t-134 -231q-24 -135 54 -230.5t213 -95.5z" />
    <glyph glyph-name="Odieresis" unicode="&#xd6;" horiz-adv-x="829" 
d="M422 778q-12 0 -19 8.5t-5 20.5q2 11 12 19.5t22 8.5t18.5 -8.5t4.5 -19.5q-2 -12 -11.5 -20.5t-21.5 -8.5zM592 778q-12 0 -19 8.5t-5 20.5q2 11 12 19.5t22 8.5t18.5 -8.5t4.5 -19.5q-2 -12 -11.5 -20.5t-21.5 -8.5zM370 -11q-150 0 -237.5 108t-60.5 258
q26 150 148 253t273 103q149 0 237 -109t62 -259q-26 -149 -148 -251.5t-274 -102.5zM375 24q137 0 246.5 94t134.5 230q23 136 -54.5 232t-213.5 96t-246 -95t-134 -231q-24 -135 54 -230.5t213 -95.5z" />
    <glyph glyph-name="multiply" unicode="&#xd7;" horiz-adv-x="466" 
d="M447 497l-173 -148l121 -146l-26 -22l-121 146l-170 -146l-23 22l173 148l-121 146l25 22l121 -146l170 146z" />
    <glyph glyph-name="Oslash" unicode="&#xd8;" horiz-adv-x="839" 
d="M731 613q98 -110 71 -270q-26 -149 -148 -251.5t-274 -102.5q-123 0 -208 77l-68 -66l-25 16l72 71q-46 51 -64.5 121t-4.5 147q26 150 148 253t273 103q124 0 208 -78l68 67l25 -16zM118 350q-26 -141 60 -238l507 496q-74 68 -187 68q-136 0 -246 -95t-134 -231z
M766 348q24 143 -61 240l-507 -496q74 -68 187 -68q137 0 246.5 94t134.5 230z" />
    <glyph glyph-name="Ugrave" unicode="&#xd9;" horiz-adv-x="673" 
d="M456 770l-60 123h-40l68 -123h32zM297 -11q-117 0 -176.5 67.5t-40.5 172.5l83 471h37l-83 -471q-16 -90 30 -147.5t150 -57.5t170 58t82 147l83 471h37l-83 -471q-19 -109 -97 -174.5t-192 -65.5z" />
    <glyph glyph-name="Uacute" unicode="&#xda;" horiz-adv-x="673" 
d="M393 770h35l107 123h-42zM297 -11q-117 0 -176.5 67.5t-40.5 172.5l83 471h37l-83 -471q-16 -90 30 -147.5t150 -57.5t170 58t82 147l83 471h37l-83 -471q-19 -109 -97 -174.5t-192 -65.5z" />
    <glyph glyph-name="Ucircumflex" unicode="&#xdb;" horiz-adv-x="673" 
d="M445 872l-108 -102h-42l131 123h41l88 -123h-37zM632 700h37l-83 -471q-19 -109 -97 -174.5t-192 -65.5q-117 0 -176.5 67.5t-40.5 172.5l83 471h37l-83 -471q-16 -90 30 -147.5t150 -57.5t170 58t82 147z" />
    <glyph glyph-name="Udieresis" unicode="&#xdc;" horiz-adv-x="673" 
d="M342 778q-12 0 -19 8.5t-5 20.5q2 11 12 19.5t22 8.5t18.5 -8.5t4.5 -19.5q-2 -12 -11.5 -20.5t-21.5 -8.5zM512 778q-12 0 -19 8.5t-5 20.5q2 11 12 19.5t22 8.5t18.5 -8.5t4.5 -19.5q-2 -12 -11.5 -20.5t-21.5 -8.5zM297 -11q-117 0 -176.5 67.5t-40.5 172.5l83 471h37
l-83 -471q-16 -90 30 -147.5t150 -57.5t170 58t82 147l83 471h37l-83 -471q-19 -109 -97 -174.5t-192 -65.5z" />
    <glyph glyph-name="Yacute" unicode="&#xdd;" horiz-adv-x="565" 
d="M482 893l-107 -123h-35l100 123h42zM627 700l-313 -372l-57 -328h-37l58 328l-182 372h38l166 -339l285 339h42z" />
    <glyph glyph-name="Thorn" unicode="&#xde;" horiz-adv-x="583" 
d="M371 563q96 0 147 -61t37 -152q-15 -91 -87 -152t-174 -61h-184l-24 -137h-37l123 700h37l-24 -137h186zM519 353q13 78 -28.5 127t-120.5 49h-191l-63 -358h181q85 0 146.5 51.5t75.5 130.5z" />
    <glyph glyph-name="germandbls" unicode="&#xdf;" horiz-adv-x="517" 
d="M245 -4l7 32q75 -5 125 25.5t58 87.5q5 35 -12 71.5t-39.5 62.5t-40.5 58t-14 59q3 25 31.5 53t58.5 59.5t36 65.5q8 48 -23 77.5t-89 29.5q-67 0 -115 -40.5t-61 -116.5l-92 -520h-36l93 522q16 92 74 140.5t142 48.5q73 0 113 -42.5t29 -102.5q-5 -28 -25.5 -56.5
t-41.5 -47t-39 -39.5t-19 -36q-2 -22 16 -51.5t40 -55t38 -64.5t11 -79q-10 -71 -70 -109.5t-155 -31.5z" />
    <glyph glyph-name="agrave" unicode="&#xe0;" horiz-adv-x="654" 
d="M394 570h-32l-68 123h40zM579 500h36l-88 -500h-36l21 118q-39 -61 -103 -95t-140 -34q-107 0 -173 81.5t-47 191.5q20 113 102.5 181t189.5 68q76 0 134 -43t78 -114zM276 23q91 0 162 56.5t93 145.5l5 33q10 94 -47.5 156.5t-148.5 62.5q-93 0 -165.5 -60t-90.5 -159
q-17 -96 39.5 -165.5t152.5 -69.5z" />
    <glyph glyph-name="aacute" unicode="&#xe1;" horiz-adv-x="654" 
d="M473 693l-107 -123h-35l100 123h42zM579 500h36l-88 -500h-36l21 118q-39 -61 -103 -95t-140 -34q-107 0 -173 81.5t-47 191.5q20 113 102.5 181t189.5 68q76 0 134 -43t78 -114zM276 23q91 0 162 56.5t93 145.5l5 33q10 94 -47.5 156.5t-148.5 62.5q-93 0 -165.5 -60
t-90.5 -159q-17 -96 39.5 -165.5t152.5 -69.5z" />
    <glyph glyph-name="acircumflex" unicode="&#xe2;" horiz-adv-x="654" 
d="M383 672l-108 -102h-42l131 123h41l88 -123h-37zM579 500h36l-88 -500h-36l21 118q-39 -61 -103 -95t-140 -34q-107 0 -173 81.5t-47 191.5q20 113 102.5 181t189.5 68q76 0 134 -43t78 -114zM276 23q91 0 162 56.5t93 145.5l5 33q10 94 -47.5 156.5t-148.5 62.5
q-93 0 -165.5 -60t-90.5 -159q-17 -96 39.5 -165.5t152.5 -69.5z" />
    <glyph glyph-name="atilde" unicode="&#xe3;" horiz-adv-x="654" 
d="M369 618q-38 43 -66 34.5t-38 -65.5h-31q13 76 58 94t88 -33q37 -42 65.5 -33.5t38.5 64.5h31q-13 -76 -58 -93.5t-88 32.5zM579 500h36l-88 -500h-36l21 118q-39 -61 -103 -95t-140 -34q-107 0 -173 81.5t-47 191.5q20 113 102.5 181t189.5 68q76 0 134 -43t78 -114z
M276 23q91 0 162 56.5t93 145.5l5 33q10 94 -47.5 156.5t-148.5 62.5q-93 0 -165.5 -60t-90.5 -159q-17 -96 39.5 -165.5t152.5 -69.5z" />
    <glyph glyph-name="adieresis" unicode="&#xe4;" horiz-adv-x="654" 
d="M280 578q-12 0 -19 8.5t-5 20.5q2 11 12 19.5t22 8.5t18.5 -8.5t4.5 -19.5q-2 -12 -11.5 -20.5t-21.5 -8.5zM450 578q-12 0 -19 8.5t-5 20.5q2 11 12 19.5t22 8.5t18.5 -8.5t4.5 -19.5q-2 -12 -11.5 -20.5t-21.5 -8.5zM579 500h36l-88 -500h-36l21 118q-39 -61 -103 -95
t-140 -34q-107 0 -173 81.5t-47 191.5q20 113 102.5 181t189.5 68q76 0 134 -43t78 -114zM276 23q91 0 162 56.5t93 145.5l5 33q10 94 -47.5 156.5t-148.5 62.5q-93 0 -165.5 -60t-90.5 -159q-17 -96 39.5 -165.5t152.5 -69.5z" />
    <glyph glyph-name="aring" unicode="&#xe5;" horiz-adv-x="654" 
d="M363 557q-45 0 -68 27t-16 67t38.5 66t74.5 26q44 0 67.5 -26.5t16.5 -67.5t-38.5 -66.5t-74.5 -25.5zM309 650q-5 -29 10.5 -47.5t46.5 -18.5t53 18.5t27 47.5q5 30 -11 48t-46 18t-52 -18t-28 -48zM579 500h36l-88 -500h-36l21 118q-39 -61 -103 -95t-140 -34
q-107 0 -173 81.5t-47 191.5q20 113 102.5 181t189.5 68q76 0 134 -43t78 -114zM276 23q91 0 162 56.5t93 145.5l5 33q10 94 -47.5 156.5t-148.5 62.5q-93 0 -165.5 -60t-90.5 -159q-17 -96 39.5 -165.5t152.5 -69.5z" />
    <glyph glyph-name="ae" unicode="&#xe6;" horiz-adv-x="1081" 
d="M836 511q109 0 164 -78t36 -184q-3 -13 -4 -18h-464q-10 -94 40.5 -151t144.5 -57q65 0 118 26t85 71l27 -18q-38 -53 -99.5 -83t-133.5 -30q-79 0 -131.5 39.5t-69.5 107.5l-24 -136h-34l22 124q-42 -63 -108 -99t-143 -36q-107 0 -170 78t-44 188q20 114 106 185
t193 71q74 0 130.5 -39.5t77.5 -106.5l24 135h34l-23 -132q39 66 103 104.5t143 38.5zM269 23q92 0 167 60t96 151l5 28q12 94 -43.5 154.5t-146.5 60.5q-93 0 -169.5 -63.5t-94.5 -161.5q-17 -96 37 -162.5t149 -66.5zM574 264h429q11 98 -37 155.5t-136 57.5
q-93 0 -164 -59t-92 -154z" />
    <glyph glyph-name="ccedilla" unicode="&#xe7;" horiz-adv-x="571" 
d="M349 477q-97 0 -173 -65t-93 -161t35.5 -162t149.5 -66q65 0 121 29.5t89 79.5l28 -18q-37 -56 -97 -89t-132 -36l-10 -57q36 -2 59.5 -20.5t17.5 -49.5q-14 -88 -197 -69l5 29q151 -16 161 43q5 22 -16.5 34t-65.5 9l14 82q-103 7 -159.5 83t-37.5 183
q20 110 106.5 182.5t198.5 72.5q72 0 125.5 -34t73.5 -91l-31 -16q-16 50 -61 78.5t-111 28.5z" />
    <glyph glyph-name="egrave" unicode="&#xe8;" horiz-adv-x="593" 
d="M388 570h-32l-68 123h40zM344 511q112 0 167.5 -77.5t36.5 -184.5q0 -3 -2 -9t-2 -9h-464q-10 -94 41 -151t145 -57q64 0 117 26t84 71l28 -18q-37 -53 -99 -83t-135 -30q-114 0 -174 76t-40 190q20 111 102.5 183.5t194.5 72.5zM85 264h430q12 98 -36.5 155.5
t-136.5 57.5q-94 0 -165 -59t-92 -154z" />
    <glyph glyph-name="eacute" unicode="&#xe9;" horiz-adv-x="593" 
d="M467 693l-107 -123h-35l100 123h42zM344 511q112 0 167.5 -77.5t36.5 -184.5q0 -3 -2 -9t-2 -9h-464q-10 -94 41 -151t145 -57q64 0 117 26t84 71l28 -18q-37 -53 -99 -83t-135 -30q-114 0 -174 76t-40 190q20 111 102.5 183.5t194.5 72.5zM85 264h430q12 98 -36.5 155.5
t-136.5 57.5q-94 0 -165 -59t-92 -154z" />
    <glyph glyph-name="ecircumflex" unicode="&#xea;" horiz-adv-x="593" 
d="M377 672l-108 -102h-42l131 123h41l88 -123h-37zM344 511q112 0 167.5 -77.5t36.5 -184.5q0 -3 -2 -9t-2 -9h-464q-10 -94 41 -151t145 -57q64 0 117 26t84 71l28 -18q-37 -53 -99 -83t-135 -30q-114 0 -174 76t-40 190q20 111 102.5 183.5t194.5 72.5zM85 264h430
q12 98 -36.5 155.5t-136.5 57.5q-94 0 -165 -59t-92 -154z" />
    <glyph glyph-name="edieresis" unicode="&#xeb;" horiz-adv-x="593" 
d="M274 578q-12 0 -19 8.5t-5 20.5q2 11 12 19.5t22 8.5t18.5 -8.5t4.5 -19.5q-2 -12 -11.5 -20.5t-21.5 -8.5zM444 578q-12 0 -19 8.5t-5 20.5q2 11 12 19.5t22 8.5t18.5 -8.5t4.5 -19.5q-2 -12 -11.5 -20.5t-21.5 -8.5zM344 511q112 0 167.5 -77.5t36.5 -184.5q0 -3 -2 -9
t-2 -9h-464q-10 -94 41 -151t145 -57q64 0 117 26t84 71l28 -18q-37 -53 -99 -83t-135 -30q-114 0 -174 76t-40 190q20 111 102.5 183.5t194.5 72.5zM85 264h430q12 98 -36.5 155.5t-136.5 57.5q-94 0 -165 -59t-92 -154z" />
    <glyph glyph-name="igrave" unicode="&#xec;" horiz-adv-x="202" 
d="M179 570l-39 123h-40l46 -123h33zM75 0h-36l88 500h36z" />
    <glyph glyph-name="iacute" unicode="&#xed;" horiz-adv-x="202" 
d="M135 570h33l89 123h-41zM39 0l88 500h36l-88 -500h-36z" />
    <glyph glyph-name="icircumflex" unicode="&#xee;" horiz-adv-x="202" 
d="M262 570h-40l-48 95l-80 -95h-40l105 123h41zM39 0l88 500h36l-88 -500h-36z" />
    <glyph glyph-name="idieresis" unicode="&#xef;" horiz-adv-x="202" 
d="M96 578q-11 0 -18 8.5t-5 20.5q1 11 11.5 19.5t21.5 8.5q12 0 18.5 -8.5t4.5 -19.5q-2 -12 -11.5 -20.5t-21.5 -8.5zM222 578q-11 0 -18 8.5t-5 20.5q1 11 11.5 19.5t21.5 8.5q12 0 18.5 -8.5t4.5 -19.5q-2 -12 -11.5 -20.5t-21.5 -8.5zM39 0l88 500h36l-88 -500h-36z
" />
    <glyph glyph-name="eth" unicode="&#xf0;" horiz-adv-x="589" 
d="M514 366q36 -63 22 -150q-20 -107 -96.5 -167t-179.5 -60t-168.5 73t-45.5 181q17 101 93.5 160t174.5 59q76 0 129 -36l-93 166l-144 -80l6 35l124 69l-47 84h35l39 -69l123 68l-6 -35l-103 -57zM501 220q14 78 -14 127q-48 84 -173 84q-89 0 -153.5 -52.5t-79.5 -138.5
q-17 -92 36 -154.5t148 -62.5q90 0 155 53.5t81 143.5z" />
    <glyph glyph-name="ntilde" unicode="&#xf1;" horiz-adv-x="569" 
d="M344 618q-38 43 -66 34.5t-38 -65.5h-31q13 76 58 94t88 -33q37 -42 65.5 -33.5t38.5 64.5h31q-13 -76 -58 -93.5t-88 32.5zM350 511q87 0 132 -54.5t29 -142.5l-55 -314h-35l55 314q12 73 -22 118t-109 45q-77 0 -137 -50t-82 -138l-51 -289h-36l88 500h36l-18 -103
q36 57 90 85.5t115 28.5z" />
    <glyph glyph-name="ograve" unicode="&#xf2;" horiz-adv-x="617" 
d="M390 570l-60 123h-40l68 -123h32zM265 -11q-108 0 -173 75.5t-44 189.5q20 114 109 185.5t197 71.5q107 0 171 -76t44 -189q-20 -114 -107.5 -185.5t-196.5 -71.5zM268 23q94 0 171.5 64.5t94.5 163.5q18 98 -37 162t-148 64q-94 0 -171 -64t-95 -163
q-17 -99 37.5 -163.5t147.5 -63.5z" />
    <glyph glyph-name="oacute" unicode="&#xf3;" horiz-adv-x="617" 
d="M327 570h35l107 123h-42zM265 -11q-108 0 -173 75.5t-44 189.5q20 114 109 185.5t197 71.5q107 0 171 -76t44 -189q-20 -114 -107.5 -185.5t-196.5 -71.5zM268 23q94 0 171.5 64.5t94.5 163.5q18 98 -37 162t-148 64q-94 0 -171 -64t-95 -163q-17 -99 37.5 -163.5
t147.5 -63.5z" />
    <glyph glyph-name="ocircumflex" unicode="&#xf4;" horiz-adv-x="617" 
d="M379 672l-108 -102h-42l131 123h41l88 -123h-37zM354 511q107 0 171 -76t44 -189q-20 -114 -107.5 -185.5t-196.5 -71.5q-108 0 -173 75.5t-44 189.5q20 114 109 185.5t197 71.5zM534 251q18 98 -37 162t-148 64q-94 0 -171 -64t-95 -163q-17 -99 37.5 -163.5
t147.5 -63.5q94 0 171.5 64.5t94.5 163.5z" />
    <glyph glyph-name="otilde" unicode="&#xf5;" horiz-adv-x="617" 
d="M230 587q13 76 58 94t88 -33q37 -42 65.5 -33.5t38.5 64.5h31q-13 -76 -58 -93.5t-88 32.5q-38 43 -66 34.5t-38 -65.5h-31zM265 -11q-108 0 -173 75.5t-44 189.5q20 114 109 185.5t197 71.5q107 0 171 -76t44 -189q-20 -114 -107.5 -185.5t-196.5 -71.5zM268 23
q94 0 171.5 64.5t94.5 163.5q18 98 -37 162t-148 64q-94 0 -171 -64t-95 -163q-17 -99 37.5 -163.5t147.5 -63.5z" />
    <glyph glyph-name="odieresis" unicode="&#xf6;" horiz-adv-x="617" 
d="M276 578q-12 0 -19 8.5t-5 20.5q2 11 12 19.5t22 8.5t18.5 -8.5t4.5 -19.5q-2 -12 -11.5 -20.5t-21.5 -8.5zM446 578q-12 0 -19 8.5t-5 20.5q2 11 12 19.5t22 8.5t18.5 -8.5t4.5 -19.5q-2 -12 -11.5 -20.5t-21.5 -8.5zM265 -11q-108 0 -173 75.5t-44 189.5
q20 114 109 185.5t197 71.5q107 0 171 -76t44 -189q-20 -114 -107.5 -185.5t-196.5 -71.5zM268 23q94 0 171.5 64.5t94.5 163.5q18 98 -37 162t-148 64q-94 0 -171 -64t-95 -163q-17 -99 37.5 -163.5t147.5 -63.5z" />
    <glyph glyph-name="divide" unicode="&#xf7;" horiz-adv-x="580" 
d="M334 502q-14 0 -22.5 11t-5.5 25q2 15 14 24.5t27 9.5q14 0 22.5 -11t6.5 -25q-3 -15 -14.5 -24.5t-27.5 -9.5zM81 333l6 34h447l-6 -34h-447zM268 128q-14 0 -22.5 11t-5.5 25q2 15 14 24.5t27 9.5q14 0 22.5 -11t6.5 -25q-3 -15 -14.5 -24.5t-27.5 -9.5z" />
    <glyph glyph-name="oslash" unicode="&#xf8;" horiz-adv-x="617" 
d="M585 487l-58 -54q61 -77 42 -187q-20 -114 -107.5 -185.5t-196.5 -71.5q-93 0 -156 58l-53 -49l-23 15l58 53q-64 77 -43 188q20 114 109 185.5t197 71.5q93 0 154 -59l54 50zM83 250q-16 -96 34 -159l365 337q-54 49 -133 49q-94 0 -171 -64t-95 -163zM534 251
q16 93 -34 158l-365 -338q53 -48 133 -48q94 0 171.5 64.5t94.5 163.5z" />
    <glyph glyph-name="ugrave" unicode="&#xf9;" horiz-adv-x="569" 
d="M365 570h-32l-68 123h40zM494 500h36l-88 -500h-36l18 103q-36 -57 -90 -85.5t-115 -28.5q-87 0 -132 54.5t-29 142.5l55 314h35l-55 -314q-12 -73 22 -118t109 -45q77 0 137 50t82 138z" />
    <glyph glyph-name="uacute" unicode="&#xfa;" horiz-adv-x="569" 
d="M444 693l-107 -123h-35l100 123h42zM494 500h36l-88 -500h-36l18 103q-36 -57 -90 -85.5t-115 -28.5q-87 0 -132 54.5t-29 142.5l55 314h35l-55 -314q-12 -73 22 -118t109 -45q77 0 137 50t82 138z" />
    <glyph glyph-name="ucircumflex" unicode="&#xfb;" horiz-adv-x="569" 
d="M354 672l-108 -102h-42l131 123h41l88 -123h-37zM494 500h36l-88 -500h-36l18 103q-36 -57 -90 -85.5t-115 -28.5q-87 0 -132 54.5t-29 142.5l55 314h35l-55 -314q-12 -73 22 -118t109 -45q77 0 137 50t82 138z" />
    <glyph glyph-name="udieresis" unicode="&#xfc;" horiz-adv-x="569" 
d="M251 578q-12 0 -19 8.5t-5 20.5q2 11 12 19.5t22 8.5t18.5 -8.5t4.5 -19.5q-2 -12 -11.5 -20.5t-21.5 -8.5zM421 578q-12 0 -19 8.5t-5 20.5q2 11 12 19.5t22 8.5t18.5 -8.5t4.5 -19.5q-2 -12 -11.5 -20.5t-21.5 -8.5zM494 500h36l-88 -500h-36l18 103q-36 -57 -90 -85.5
t-115 -28.5q-87 0 -132 54.5t-29 142.5l55 314h35l-55 -314q-12 -73 22 -118t109 -45q77 0 137 50t82 138z" />
    <glyph glyph-name="yacute" unicode="&#xfd;" horiz-adv-x="510" 
d="M407 693l-107 -123h-35l100 123h42zM498 500h39l-312 -546q-44 -76 -102 -117.5t-121 -36.5l6 33q50 -5 98 30t84 99l13 22l-142 516h35l130 -476z" />
    <glyph glyph-name="thorn" unicode="&#xfe;" horiz-adv-x="654" 
d="M385 511q106 0 172.5 -81.5t47.5 -191.5q-20 -113 -102.5 -181t-189.5 -68q-76 0 -134 43t-78 114l-61 -346h-36l158 900h36l-56 -319q40 61 103.5 95.5t139.5 34.5zM570 242q17 96 -39.5 165.5t-152.5 69.5q-91 0 -162 -56.5t-93 -145.5l-5 -33q-10 -94 47.5 -156.5
t148.5 -62.5q94 0 166.5 60.5t89.5 158.5z" />
    <glyph glyph-name="ydieresis" unicode="&#xff;" horiz-adv-x="510" 
d="M214 578q-12 0 -19 8.5t-5 20.5q2 11 12 19.5t22 8.5t18.5 -8.5t4.5 -19.5q-2 -12 -11.5 -20.5t-21.5 -8.5zM384 578q-12 0 -19 8.5t-5 20.5q2 11 12 19.5t22 8.5t18.5 -8.5t4.5 -19.5q-2 -12 -11.5 -20.5t-21.5 -8.5zM498 500h39l-312 -546q-44 -76 -102 -117.5
t-121 -36.5l6 33q50 -5 98 30t84 99l13 22l-142 516h35l130 -476z" />
    <glyph glyph-name="Amacron" unicode="&#x100;" horiz-adv-x="629" 
d="M539 824l-6 -30h-246l5 30h247zM527 0l-39 185h-367l-105 -185h-40l397 700h41l151 -700h-38zM140 219h341l-93 438z" />
    <glyph glyph-name="amacron" unicode="&#x101;" horiz-adv-x="654" 
d="M497 624l-6 -30h-246l5 30h247zM579 500h36l-88 -500h-36l21 118q-39 -61 -103 -95t-140 -34q-107 0 -173 81.5t-47 191.5q20 113 102.5 181t189.5 68q76 0 134 -43t78 -114zM276 23q91 0 162 56.5t93 145.5l5 33q10 94 -47.5 156.5t-148.5 62.5q-93 0 -165.5 -60
t-90.5 -159q-17 -96 39.5 -165.5t152.5 -69.5z" />
    <glyph glyph-name="Abreve" unicode="&#x102;" horiz-adv-x="629" 
d="M408 769q-57 0 -88 30.5t-22 82.5h34q-7 -39 14.5 -61t64.5 -22t71.5 22t35.5 61h34q-10 -53 -48 -83t-96 -30zM527 0l-39 185h-367l-105 -185h-40l397 700h41l151 -700h-38zM140 219h341l-93 438z" />
    <glyph glyph-name="abreve" unicode="&#x103;" horiz-adv-x="654" 
d="M366 569q-57 0 -88 30.5t-22 82.5h34q-7 -39 14.5 -61t64.5 -22t71.5 22t35.5 61h34q-10 -53 -48 -83t-96 -30zM579 500h36l-88 -500h-36l21 118q-39 -61 -103 -95t-140 -34q-107 0 -173 81.5t-47 191.5q20 113 102.5 181t189.5 68q76 0 134 -43t78 -114zM276 23
q91 0 162 56.5t93 145.5l5 33q10 94 -47.5 156.5t-148.5 62.5q-93 0 -165.5 -60t-90.5 -159q-17 -96 39.5 -165.5t152.5 -69.5z" />
    <glyph glyph-name="Aogonek" unicode="&#x104;" horiz-adv-x="629" 
d="M451 -137q-4 -20 6.5 -32t31.5 -12q24 0 45 9l-5 -29q-20 -10 -51 -10q-33 0 -50.5 20.5t-11.5 52.5q11 64 110 141l-38 182h-367l-105 -185h-40l397 700h41l151 -700q-105 -79 -114 -137zM140 219h341l-93 438z" />
    <glyph glyph-name="aogonek" unicode="&#x105;" horiz-adv-x="654" 
d="M527 0q-106 -80 -114 -137q-4 -21 6.5 -32.5t31.5 -11.5q26 0 45 9l-5 -30q-24 -9 -51 -9q-34 0 -51 20.5t-11 52.5q11 66 115 148l19 108q-39 -61 -103 -95t-140 -34q-107 0 -173 81.5t-47 191.5q20 113 102.5 181t189.5 68q76 0 134 -43t78 -114l26 146h36zM276 23
q91 0 162 56.5t93 145.5l5 33q10 94 -47.5 156.5t-148.5 62.5q-93 0 -165.5 -60t-90.5 -159q-17 -96 39.5 -165.5t152.5 -69.5z" />
    <glyph glyph-name="Cacute" unicode="&#x106;" horiz-adv-x="757" 
d="M474 770h35l107 123h-42zM369 -11q-154 0 -238.5 106.5t-58.5 259.5q26 152 144 254t269 102q97 0 170 -45t109 -121l-32 -17q-32 68 -96 108t-152 40q-140 0 -246 -94.5t-130 -231.5q-24 -136 50.5 -231t212.5 -95q89 0 167.5 41.5t130.5 113.5l30 -19
q-56 -77 -143.5 -124t-186.5 -47z" />
    <glyph glyph-name="cacute" unicode="&#x107;" horiz-adv-x="571" 
d="M325 570h35l107 123h-42zM263 -11q-111 0 -173 77.5t-42 189.5q20 110 106.5 182.5t198.5 72.5q72 0 125.5 -34t73.5 -91l-31 -16q-16 50 -61 78.5t-111 28.5q-97 0 -173 -65t-93 -161t35.5 -162t149.5 -66q65 0 121 29.5t89 79.5l28 -18q-38 -59 -102 -92t-141 -33z" />
    <glyph glyph-name="Cdotaccent" unicode="&#x10a;" horiz-adv-x="757" 
d="M508 777q-17 0 -26 11t-6 27t15.5 27t29.5 11q16 0 25 -11t7 -27q-3 -16 -16 -27t-29 -11zM369 -11q-154 0 -238.5 106.5t-58.5 259.5q26 152 144 254t269 102q97 0 170 -45t109 -121l-32 -17q-32 68 -96 108t-152 40q-140 0 -246 -94.5t-130 -231.5q-24 -136 50.5 -231
t212.5 -95q89 0 167.5 41.5t130.5 113.5l30 -19q-56 -77 -143.5 -124t-186.5 -47z" />
    <glyph glyph-name="cdotaccent" unicode="&#x10b;" horiz-adv-x="571" 
d="M359 577q-17 0 -26 11t-6 27t15.5 27t29.5 11q16 0 25 -11t7 -27q-3 -16 -16 -27t-29 -11zM263 -11q-111 0 -173 77.5t-42 189.5q20 110 106.5 182.5t198.5 72.5q72 0 125.5 -34t73.5 -91l-31 -16q-16 50 -61 78.5t-111 28.5q-97 0 -173 -65t-93 -161t35.5 -162
t149.5 -66q65 0 121 29.5t89 79.5l28 -18q-38 -59 -102 -92t-141 -33z" />
    <glyph glyph-name="Ccaron" unicode="&#x10c;" horiz-adv-x="757" 
d="M485 770l-89 123h38l72 -101l109 101h42l-131 -123h-41zM484 676q-140 0 -246 -94.5t-130 -231.5q-24 -136 50.5 -231t212.5 -95q89 0 167.5 41.5t130.5 113.5l30 -19q-56 -77 -143.5 -124t-186.5 -47q-154 0 -238.5 106.5t-58.5 259.5q26 152 144 254t269 102
q97 0 170 -45t109 -121l-32 -17q-32 68 -96 108t-152 40z" />
    <glyph glyph-name="ccaron" unicode="&#x10d;" horiz-adv-x="571" 
d="M336 570l-89 123h38l72 -101l109 101h42l-131 -123h-41zM349 477q-97 0 -173 -65t-93 -161t35.5 -162t149.5 -66q65 0 121 29.5t89 79.5l28 -18q-38 -59 -102 -92t-141 -33q-111 0 -173 77.5t-42 189.5q20 110 106.5 182.5t198.5 72.5q72 0 125.5 -34t73.5 -91l-31 -16
q-16 50 -61 78.5t-111 28.5z" />
    <glyph glyph-name="Dcaron" unicode="&#x10e;" horiz-adv-x="734" 
d="M410 770l-89 123h38l72 -101l109 101h42l-131 -123h-41zM429 700q140 0 217 -104.5t51 -251.5t-135 -245.5t-256 -98.5h-257l123 700h257zM661 349q24 133 -43 225t-195 92h-220l-111 -632h220q129 0 227.5 91t121.5 224z" />
    <glyph glyph-name="dcaron" unicode="&#x10f;" horiz-adv-x="692" 
d="M553 354l61 346h36l-123 -700h-36l21 118q-39 -61 -103 -95t-140 -34q-107 0 -173 81.5t-47 191.5q20 113 102.5 181t189.5 68q76 0 134 -43t78 -114zM739 700h35l-49 -170h-26zM276 23q91 0 161.5 56t92.5 145l7 35q9 94 -49 156t-148 62q-94 0 -166.5 -60.5
t-89.5 -158.5q-17 -96 39.5 -165.5t152.5 -69.5z" />
    <glyph glyph-name="Dcroat" unicode="&#x110;" horiz-adv-x="754" 
d="M449 700q140 0 217 -104.5t51 -251.5t-135 -245.5t-256 -98.5h-257l59 333h-63l6 34h62l59 333h257zM681 349q24 133 -43 225t-195 92h-220l-53 -299h261l-6 -34h-260l-53 -299h220q129 0 227.5 91t121.5 224z" />
    <glyph glyph-name="dcroat" unicode="&#x111;" horiz-adv-x="659" 
d="M701 618l-5 -29h-67l-103 -589h-35l21 118q-39 -61 -103 -95t-140 -34q-107 0 -173 81.5t-47 191.5q20 113 102.5 181t189.5 68q76 0 134 -43t78 -114l41 235h-218l5 29h219l14 82h35l-14 -82h66zM276 23q91 0 161.5 55.5t92.5 144.5l7 36q9 93 -49 155.5t-148 62.5
q-93 0 -165.5 -60t-90.5 -159q-17 -96 39.5 -165.5t152.5 -69.5z" />
    <glyph glyph-name="Emacron" unicode="&#x112;" horiz-adv-x="537" 
d="M511 824l-6 -30h-246l5 30h247zM558 666h-355l-52 -296h330l-6 -34h-330l-53 -302h360l-6 -34h-397l123 700h392z" />
    <glyph glyph-name="emacron" unicode="&#x113;" horiz-adv-x="593" 
d="M491 624l-6 -30h-246l5 30h247zM344 511q112 0 167.5 -77.5t36.5 -184.5q0 -3 -2 -9t-2 -9h-464q-10 -94 41 -151t145 -57q64 0 117 26t84 71l28 -18q-37 -53 -99 -83t-135 -30q-114 0 -174 76t-40 190q20 111 102.5 183.5t194.5 72.5zM85 264h430q12 98 -36.5 155.5
t-136.5 57.5q-94 0 -165 -59t-92 -154z" />
    <glyph glyph-name="Edotaccent" unicode="&#x116;" horiz-adv-x="537" 
d="M379 777q-17 0 -26 11t-6 27t15.5 27t29.5 11q16 0 25 -11t7 -27q-3 -16 -16 -27t-29 -11zM558 666h-355l-52 -296h330l-6 -34h-330l-53 -302h360l-6 -34h-397l123 700h392z" />
    <glyph glyph-name="edotaccent" unicode="&#x117;" horiz-adv-x="593" 
d="M359 577q-17 0 -26 11t-6 27t15.5 27t29.5 11q16 0 25 -11t7 -27q-3 -16 -16 -27t-29 -11zM344 511q112 0 167.5 -77.5t36.5 -184.5q0 -3 -2 -9t-2 -9h-464q-10 -94 41 -151t145 -57q64 0 117 26t84 71l28 -18q-37 -53 -99 -83t-135 -30q-114 0 -174 76t-40 190
q20 111 102.5 183.5t194.5 72.5zM85 264h430q12 98 -36.5 155.5t-136.5 57.5q-94 0 -165 -59t-92 -154z" />
    <glyph glyph-name="Eogonek" unicode="&#x118;" horiz-adv-x="538" 
d="M558 666h-355l-52 -296h330l-6 -34h-330l-53 -302h360l-6 -34q-104 -76 -114 -135q-4 -20 7.5 -33t32.5 -13q22 0 45 9l-5 -30q-22 -9 -51 -9q-35 0 -52 22t-11 54q11 66 109 135h-358l123 700h392z" />
    <glyph glyph-name="eogonek" unicode="&#x119;" horiz-adv-x="593" 
d="M344 511q112 0 167.5 -77.5t36.5 -184.5q0 -3 -2 -9t-2 -9h-464q-10 -94 41 -151t145 -57q64 0 117 26t84 71l28 -18q-15 -21 -38 -43q-93 -79 -132.5 -122t-45.5 -74q-7 -44 43 -44q22 0 42 8l-5 -29q-24 -9 -48 -9q-37 0 -54.5 20.5t-11.5 52.5q12 61 112 141
q-47 -14 -96 -14q-114 0 -174 76t-40 190q20 111 102.5 183.5t194.5 72.5zM85 264h430q12 98 -36.5 155.5t-136.5 57.5q-94 0 -165 -59t-92 -154z" />
    <glyph glyph-name="Ecaron" unicode="&#x11a;" horiz-adv-x="537" 
d="M356 770l-89 123h38l72 -101l109 101h42l-131 -123h-41zM558 666h-355l-52 -296h330l-6 -34h-330l-53 -302h360l-6 -34h-397l123 700h392z" />
    <glyph glyph-name="ecaron" unicode="&#x11b;" horiz-adv-x="593" 
d="M336 570l-89 123h38l72 -101l109 101h42l-131 -123h-41zM344 511q112 0 167.5 -77.5t36.5 -184.5q0 -3 -2 -9t-2 -9h-464q-10 -94 41 -151t145 -57q64 0 117 26t84 71l28 -18q-37 -53 -99 -83t-135 -30q-114 0 -174 76t-40 190q20 111 102.5 183.5t194.5 72.5zM85 264
h430q12 98 -36.5 155.5t-136.5 57.5q-94 0 -165 -59t-92 -154z" />
    <glyph glyph-name="Gbreve" unicode="&#x11e;" horiz-adv-x="811" 
d="M505 769q-57 0 -88 30.5t-22 82.5h34q-7 -39 14.5 -61t64.5 -22t71.5 22t35.5 61h34q-10 -53 -48 -83t-96 -30zM769 320l-3 -19q-26 -135 -131 -223.5t-251 -88.5q-162 0 -249.5 108.5t-61.5 262.5q24 148 142 249.5t271 101.5q100 0 172 -46t108 -120l-32 -17
q-32 67 -96 107.5t-154 40.5q-140 0 -246.5 -93t-128.5 -229q-23 -138 54.5 -234t222.5 -96q128 0 221 75t120 187h-314l6 34h350z" />
    <glyph glyph-name="gbreve" unicode="&#x11f;" horiz-adv-x="661" 
d="M381 569q-57 0 -88 30.5t-22 82.5h34q-7 -39 14.5 -61t64.5 -22t71.5 22t35.5 61h34q-10 -53 -48 -83t-96 -30zM586 500h35l-83 -473q-19 -111 -96 -174.5t-191 -63.5q-84 0 -140 33.5t-76 86.5l31 16q15 -44 62.5 -73t124.5 -29q101 0 167 54t83 150l16 93
q-39 -61 -102 -96t-136 -35q-113 0 -178 80t-48 193q18 109 101.5 179t187.5 70q79 0 137.5 -42.5t78.5 -114.5zM286 23q92 0 165 61.5t89 156.5q18 101 -40.5 168.5t-154.5 67.5q-92 0 -165.5 -61.5t-88.5 -157.5q-17 -98 40 -166.5t155 -68.5z" />
    <glyph glyph-name="Gdotaccent" unicode="&#x120;" horiz-adv-x="811" 
d="M504 777q-17 0 -26 11t-6 27t15.5 27t29.5 11q16 0 25 -11t7 -27q-3 -16 -16 -27t-29 -11zM769 320l-3 -19q-26 -135 -131 -223.5t-251 -88.5q-162 0 -249.5 108.5t-61.5 262.5q24 148 142 249.5t271 101.5q100 0 172 -46t108 -120l-32 -17q-32 67 -96 107.5t-154 40.5
q-140 0 -246.5 -93t-128.5 -229q-23 -138 54.5 -234t222.5 -96q128 0 221 75t120 187h-314l6 34h350z" />
    <glyph glyph-name="gdotaccent" unicode="&#x121;" horiz-adv-x="661" 
d="M380 577q-17 0 -26 11t-6 27t15.5 27t29.5 11q16 0 25 -11t7 -27q-3 -16 -16 -27t-29 -11zM586 500h35l-83 -473q-19 -111 -96 -174.5t-191 -63.5q-84 0 -140 33.5t-76 86.5l31 16q15 -44 62.5 -73t124.5 -29q101 0 167 54t83 150l16 93q-39 -61 -102 -96t-136 -35
q-113 0 -178 80t-48 193q18 109 101.5 179t187.5 70q79 0 137.5 -42.5t78.5 -114.5zM286 23q92 0 165 61.5t89 156.5q18 101 -40.5 168.5t-154.5 67.5q-92 0 -165.5 -61.5t-88.5 -157.5q-17 -98 40 -166.5t155 -68.5z" />
    <glyph glyph-name="Gcommaaccent" unicode="&#x122;" horiz-adv-x="811" 
d="M769 320l-3 -19q-26 -135 -131 -223.5t-251 -88.5q-162 0 -249.5 108.5t-61.5 262.5q24 148 142 249.5t271 101.5q100 0 172 -46t108 -120l-32 -17q-32 67 -96 107.5t-154 40.5q-140 0 -246.5 -93t-128.5 -229q-23 -138 54.5 -234t222.5 -96q128 0 221 75t120 187h-314
l6 34h350zM317 -240l40 170h35l-49 -170h-26z" />
    <glyph glyph-name="gcommaaccent" unicode="&#x123;" horiz-adv-x="661" 
d="M431 760l-40 -170h-35l49 170h26zM586 500h35l-83 -473q-19 -111 -96 -174.5t-191 -63.5q-84 0 -140 33.5t-76 86.5l31 16q15 -44 62.5 -73t124.5 -29q101 0 167 54t83 150l16 93q-39 -61 -102 -96t-136 -35q-113 0 -178 80t-48 193q18 109 101.5 179t187.5 70
q79 0 137.5 -42.5t78.5 -114.5zM286 23q92 0 165 61.5t89 156.5q18 101 -40.5 168.5t-154.5 67.5q-92 0 -165.5 -61.5t-88.5 -157.5q-17 -98 40 -166.5t155 -68.5z" />
    <glyph glyph-name="Hbar" unicode="&#x126;" horiz-adv-x="750" 
d="M751 555l-6 -30h-69l-92 -525h-36l60 343h-434l-60 -343h-36l92 525h-68l5 30h69l25 145h36l-25 -145h434l25 145h36l-25 -145h69zM614 377l26 148h-434l-26 -148h434z" />
    <glyph glyph-name="hbar" unicode="&#x127;" horiz-adv-x="586" 
d="M367 511q87 0 131.5 -54.5t29.5 -142.5l-55 -314h-36l56 314q12 73 -22 118t-109 45q-83 0 -144.5 -56t-79.5 -155l-47 -266h-35l103 589h-76l5 29h77l14 82h35l-14 -82h168l-5 -29h-169l-34 -194q36 57 90.5 86.5t116.5 29.5z" />
    <glyph glyph-name="Imacron" unicode="&#x12a;" horiz-adv-x="223" 
d="M85 794l5 30h247l-6 -30h-246zM172 700h37l-123 -700h-37z" />
    <glyph glyph-name="imacron" unicode="&#x12b;" horiz-adv-x="202" 
d="M75 594l5 30h174l-6 -30h-173zM39 0l88 500h36l-88 -500h-36z" />
    <glyph glyph-name="Iogonek" unicode="&#x12e;" horiz-adv-x="223" 
d="M13 -134q-4 -22 7 -34.5t32 -12.5q26 0 45 9l-5 -30q-22 -9 -51 -9q-34 0 -50.5 20.5t-11.5 53.5q9 57 71 140l122 697h37l-123 -700q-65 -88 -73 -134z" />
    <glyph glyph-name="iogonek" unicode="&#x12f;" horiz-adv-x="202" 
d="M180 699q13 0 20.5 -9.5t5.5 -22.5t-12.5 -22t-24.5 -9q-13 0 -20.5 9.5t-5.5 21.5q8 32 37 32zM75 0q-34 -46 -50 -74t-22 -57q-4 -21 7 -35.5t32 -14.5q25 0 45 8l-5 -29q-24 -9 -51 -9q-34 0 -51 22.5t-11 54.5q8 51 71 138l87 496h36z" />
    <glyph glyph-name="Idotaccent" unicode="&#x130;" horiz-adv-x="223" 
d="M205 777q-17 0 -26 11t-6 27t15.5 27t29.5 11q16 0 25 -11t7 -27q-3 -16 -16 -27t-29 -11zM172 700h37l-123 -700h-37z" />
    <glyph glyph-name="dotlessi" unicode="&#x131;" horiz-adv-x="202" 
d="M39 0l88 500h36l-88 -500h-36z" />
    <glyph glyph-name="Kcommaaccent" unicode="&#x136;" horiz-adv-x="563" 
d="M624 700l-434 -343l319 -357h-44l-317 352l-62 -352h-37l123 700h37l-58 -331l421 331h52zM202 -240l40 170h35l-49 -170h-26z" />
    <glyph glyph-name="kcommaaccent" unicode="&#x137;" horiz-adv-x="472" 
d="M483 500l-326 -241l244 -259h-44l-238 252l-44 -252h-36l123 700h36l-75 -429l308 229h52zM146 -240l40 170h35l-49 -170h-26z" />
    <glyph glyph-name="Lacute" unicode="&#x139;" horiz-adv-x="497" 
d="M326 893l-107 -123h-35l100 123h42zM92 34h340l-6 -34h-377l123 700h37z" />
    <glyph glyph-name="lacute" unicode="&#x13a;" horiz-adv-x="203" 
d="M176 770h35l107 123h-42zM40 0l55 314l73 416h36l-74 -416l-54 -314h-36z" />
    <glyph glyph-name="Lcommaaccent" unicode="&#x13b;" horiz-adv-x="497" 
d="M92 34h340l-6 -34h-377l123 700h37zM176 -240l40 170h35l-49 -170h-26z" />
    <glyph glyph-name="lcommaaccent" unicode="&#x13c;" horiz-adv-x="203" 
d="M40 0l55 314l73 416h36l-74 -416l-54 -314h-36zM14 -240l49 170h-35l-40 -170h26z" />
    <glyph glyph-name="Lcaron" unicode="&#x13d;" horiz-adv-x="497" 
d="M92 34h340l-6 -34h-377l123 700h37zM398 700l-50 -170h-26l40 170h36z" />
    <glyph glyph-name="lcaron" unicode="&#x13e;" horiz-adv-x="231" 
d="M40 0l55 314l73 416h36l-74 -416l-54 -314h-36zM270 560l50 170h-36l-40 -170h26z" />
    <glyph glyph-name="Lslash" unicode="&#x141;" horiz-adv-x="513" 
d="M109 34h340l-6 -34h-377l45 258l-70 -41l7 39l70 41l71 403h37l-66 -378l215 127l-6 -39l-216 -127z" />
    <glyph glyph-name="lslash" unicode="&#x142;" horiz-adv-x="240" 
d="M255 447l-7 -37l-93 -57l-7 -39l-54 -314h-36l55 314l3 15l-92 -56l6 37l92 56l64 364h36l-60 -340z" />
    <glyph glyph-name="Nacute" unicode="&#x143;" horiz-adv-x="693" 
d="M406 770h35l107 123h-42zM49 0l123 700h32l327 -634l111 634h37l-123 -700h-31l-327 634l-112 -634h-37z" />
    <glyph glyph-name="nacute" unicode="&#x144;" horiz-adv-x="569" 
d="M448 693l-107 -123h-35l100 123h42zM350 511q87 0 132 -54.5t29 -142.5l-55 -314h-35l55 314q12 73 -22 118t-109 45q-77 0 -137 -50t-82 -138l-51 -289h-36l88 500h36l-18 -103q36 57 90 85.5t115 28.5z" />
    <glyph glyph-name="Ncommaaccent" unicode="&#x145;" horiz-adv-x="693" 
d="M49 0l123 700h32l327 -634l111 634h37l-123 -700h-31l-327 634l-112 -634h-37zM261 -240l49 170h-35l-40 -170h26z" />
    <glyph glyph-name="ncommaaccent" unicode="&#x146;" horiz-adv-x="569" 
d="M350 511q87 0 132 -54.5t29 -142.5l-55 -314h-35l55 314q12 73 -22 118t-109 45q-77 0 -137 -50t-82 -138l-51 -289h-36l88 500h36l-18 -103q36 57 90 85.5t115 28.5zM193 -240l40 170h35l-49 -170h-26z" />
    <glyph glyph-name="Ncaron" unicode="&#x147;" horiz-adv-x="693" 
d="M417 770l-89 123h38l72 -101l109 101h42l-131 -123h-41zM642 700h37l-123 -700h-31l-327 634l-112 -634h-37l123 700h32l327 -634z" />
    <glyph glyph-name="ncaron" unicode="&#x148;" horiz-adv-x="569" 
d="M317 570l-89 123h38l72 -101l109 101h42l-131 -123h-41zM350 511q87 0 132 -54.5t29 -142.5l-55 -314h-35l55 314q12 73 -22 118t-109 45q-77 0 -137 -50t-82 -138l-51 -289h-36l88 500h36l-18 -103q36 57 90 85.5t115 28.5z" />
    <glyph glyph-name="Eng" unicode="&#x14a;" horiz-adv-x="693" 
d="M642 700h37l-123 -700q-19 -111 -77.5 -156t-157.5 -44l6 35q83 -1 130 37.5t62 127.5l2 8l-323 626l-112 -634h-37l123 700h32l327 -634z" />
    <glyph glyph-name="eng" unicode="&#x14b;" horiz-adv-x="569" 
d="M350 511q87 0 132 -54.5t29 -142.5l-68 -387q-12 -72 -58 -108.5t-119 -29.5l6 34q116 -13 136 104l68 387q12 73 -22 118t-109 45q-77 0 -137 -50t-82 -138l-51 -289h-36l88 500h36l-18 -103q36 57 90 85.5t115 28.5z" />
    <glyph glyph-name="Omacron" unicode="&#x14c;" horiz-adv-x="829" 
d="M387 794l5 30h247l-6 -30h-246zM370 -11q-150 0 -237.5 108t-60.5 258q26 150 148 253t273 103q149 0 237 -109t62 -259q-26 -149 -148 -251.5t-274 -102.5zM375 24q137 0 246.5 94t134.5 230q23 136 -54.5 232t-213.5 96t-246 -95t-134 -231q-24 -135 54 -230.5
t213 -95.5z" />
    <glyph glyph-name="omacron" unicode="&#x14d;" horiz-adv-x="617" 
d="M241 594l5 30h247l-6 -30h-246zM265 -11q-108 0 -173 75.5t-44 189.5q20 114 109 185.5t197 71.5q107 0 171 -76t44 -189q-20 -114 -107.5 -185.5t-196.5 -71.5zM268 23q94 0 171.5 64.5t94.5 163.5q18 98 -37 162t-148 64q-94 0 -171 -64t-95 -163q-17 -99 37.5 -163.5
t147.5 -63.5z" />
    <glyph glyph-name="Ohungarumlaut" unicode="&#x150;" horiz-adv-x="829" 
d="M388 770h36l96 130h-40zM529 770h36l105 130h-40zM370 -11q-150 0 -237.5 108t-60.5 258q26 150 148 253t273 103q149 0 237 -109t62 -259q-26 -149 -148 -251.5t-274 -102.5zM375 24q137 0 246.5 94t134.5 230q23 136 -54.5 232t-213.5 96t-246 -95t-134 -231
q-24 -135 54 -230.5t213 -95.5z" />
    <glyph glyph-name="ohungarumlaut" unicode="&#x151;" horiz-adv-x="617" 
d="M242 570h36l96 130h-40zM383 570h36l105 130h-40zM265 -11q-108 0 -173 75.5t-44 189.5q20 114 109 185.5t197 71.5q107 0 171 -76t44 -189q-20 -114 -107.5 -185.5t-196.5 -71.5zM268 23q94 0 171.5 64.5t94.5 163.5q18 98 -37 162t-148 64q-94 0 -171 -64t-95 -163
q-17 -99 37.5 -163.5t147.5 -63.5z" />
    <glyph glyph-name="OE" unicode="&#x152;" horiz-adv-x="916" 
d="M938 666h-329l-52 -296h307l-6 -34h-307l-53 -302h333l-6 -34h-370q-44 -11 -97 -11q-152 0 -232.5 106t-53.5 258t143 255t270 103q52 0 93 -11h365zM461 36l111 628q-39 12 -92 12q-138 0 -243 -94t-129 -232t47 -232t209 -94q54 0 97 12z" />
    <glyph glyph-name="oe" unicode="&#x153;" horiz-adv-x="1077" 
d="M831 511q108 0 164 -78t37 -184q-2 -12 -4 -18h-464q-10 -94 41.5 -151t144.5 -57q65 0 118 26t84 71l27 -18q-36 -53 -98 -83t-133 -30q-87 0 -144 47.5t-69 125.5q-38 -78 -111.5 -125.5t-160.5 -47.5q-109 0 -171.5 77t-43.5 188q20 110 107.5 183.5t199.5 73.5
q82 0 138.5 -47.5t70.5 -124.5q37 79 107.5 125.5t159.5 46.5zM268 23q95 0 171 65.5t93 161.5t-35.5 161.5t-147.5 65.5q-96 0 -172.5 -65.5t-93.5 -161.5t36 -161.5t149 -65.5zM569 264h430q12 98 -36 155.5t-137 57.5q-94 0 -165 -59t-92 -154z" />
    <glyph glyph-name="Racute" unicode="&#x154;" horiz-adv-x="617" 
d="M494 893l-107 -123h-35l100 123h42zM446 700q82 0 131.5 -62.5t35.5 -146.5q-13 -71 -66 -124t-124 -69l123 -298h-38l-120 293h-14h-237l-51 -293h-37l123 700h274zM577 497q13 70 -27.5 119.5t-109.5 49.5h-237l-60 -339h237q70 0 127.5 50t69.5 120z" />
    <glyph glyph-name="racute" unicode="&#x155;" horiz-adv-x="322" 
d="M355 693l-107 -123h-35l100 123h42zM145 399q36 57 87.5 83.5t107.5 24.5l-6 -34q-74 0 -134 -50.5t-76 -144.5l-49 -278h-36l88 500h36z" />
    <glyph glyph-name="Rcommaaccent" unicode="&#x156;" horiz-adv-x="617" 
d="M446 700q82 0 131.5 -62.5t35.5 -146.5q-13 -71 -66 -124t-124 -69l123 -298h-38l-120 293h-14h-237l-51 -293h-37l123 700h274zM577 497q13 70 -27.5 119.5t-109.5 49.5h-237l-60 -339h237q70 0 127.5 50t69.5 120zM233 -240l40 170h35l-49 -170h-26z" />
    <glyph glyph-name="rcommaaccent" unicode="&#x157;" horiz-adv-x="322" 
d="M145 399q36 57 87.5 83.5t107.5 24.5l-6 -34q-74 0 -134 -50.5t-76 -144.5l-49 -278h-36l88 500h36zM-12 -240l40 170h35l-49 -170h-26z" />
    <glyph glyph-name="Rcaron" unicode="&#x158;" horiz-adv-x="617" 
d="M363 770l-89 123h38l72 -101l109 101h42l-131 -123h-41zM446 700q82 0 131.5 -62.5t35.5 -146.5q-13 -71 -66 -124t-124 -69l123 -298h-38l-120 293h-14h-237l-51 -293h-37l123 700h274zM577 497q13 70 -27.5 119.5t-109.5 49.5h-237l-60 -339h237q70 0 127.5 50
t69.5 120z" />
    <glyph glyph-name="rcaron" unicode="&#x159;" horiz-adv-x="322" 
d="M224 570l-89 123h38l72 -101l109 101h42l-131 -123h-41zM145 399q36 57 87.5 83.5t107.5 24.5l-6 -34q-74 0 -134 -50.5t-76 -144.5l-49 -278h-36l88 500h36z" />
    <glyph glyph-name="Sacute" unicode="&#x15a;" horiz-adv-x="562" 
d="M337 770h35l107 123h-42zM253 -11q-94 0 -154.5 43t-76.5 117l32 17q12 -66 63.5 -104t136.5 -38q89 0 143.5 38t67.5 101q8 37 -2 65.5t-38.5 49t-54.5 33t-69 27.5q-99 37 -136 70q-60 53 -44 137q14 77 78.5 121.5t147.5 44.5q82 0 134 -40t71 -104l-32 -16
q-39 125 -174 125q-71 0 -124 -37t-65 -98q-7 -37 3.5 -65.5t41 -49.5t53.5 -31.5t67 -26.5q18 -7 30 -12t29 -12.5t28 -13.5t26 -15.5t23 -18t19 -20.5t14.5 -23.5t9.5 -27t3.5 -31t-3.5 -35.5q-16 -82 -83.5 -126t-164.5 -44z" />
    <glyph glyph-name="sacute" unicode="&#x15b;" horiz-adv-x="469" 
d="M257 570h35l107 123h-42zM204 -11q-140 0 -177 110l32 16q27 -92 148 -92q59 0 101.5 25.5t50.5 71.5q7 36 -12 60.5t-52.5 35.5t-72 24.5t-71 27t-51 43t-10.5 72.5q10 58 60 93t121 35q56 0 99 -26.5t61 -71.5l-31 -16q-13 38 -49 59t-82 21q-54 0 -94.5 -25.5
t-49.5 -74.5q-7 -40 21.5 -64.5t72.5 -37.5t88 -27.5t70.5 -47.5t17.5 -85q-11 -59 -63 -92.5t-128 -33.5z" />
    <glyph glyph-name="Scedilla" unicode="&#x15e;" horiz-adv-x="562" 
d="M346 676q-71 0 -124 -37t-65 -98q-7 -37 3.5 -65.5t41 -49.5t53.5 -31.5t67 -26.5q18 -7 30 -12t29 -12.5t28 -13.5t26 -15.5t23 -18t19 -20.5t14.5 -23.5t9.5 -27t3.5 -31t-3.5 -35.5q-16 -81 -82 -124.5t-161 -45.5l-10 -57q36 -2 59.5 -20.5t17.5 -49.5
q-14 -88 -197 -69l5 29q151 -16 161 43q5 22 -16.5 34t-65.5 9l14 82q-83 6 -136.5 48t-67.5 111l32 17q12 -66 63.5 -104t136.5 -38q89 0 143.5 38t67.5 101q8 37 -2 65.5t-38.5 49t-54.5 33t-69 27.5q-99 37 -136 70q-60 53 -44 137q14 77 78.5 121.5t147.5 44.5
q82 0 134 -40t71 -104l-32 -16q-39 125 -174 125z" />
    <glyph glyph-name="scedilla" unicode="&#x15f;" horiz-adv-x="469" 
d="M269 477q-54 0 -94.5 -25.5t-49.5 -74.5q-7 -40 21.5 -64.5t72.5 -37.5t88 -27.5t70.5 -47.5t17.5 -85q-11 -58 -60 -91t-122 -35l-10 -57q36 -2 59.5 -20.5t17.5 -49.5q-14 -88 -197 -69l5 29q151 -16 161 43q5 22 -16.5 34t-65.5 9l14 82q-121 9 -154 109l32 16
q27 -92 148 -92q59 0 101.5 25.5t50.5 71.5q7 36 -12 60.5t-52.5 35.5t-72 24.5t-71 27t-51 43t-10.5 72.5q10 58 60 93t121 35q56 0 99 -26.5t61 -71.5l-31 -16q-13 38 -49 59t-82 21z" />
    <glyph glyph-name="Scaron" unicode="&#x160;" horiz-adv-x="562" 
d="M348 770l-89 123h38l72 -101l109 101h42l-131 -123h-41zM346 676q-71 0 -124 -37t-65 -98q-7 -37 3.5 -65.5t41 -49.5t53.5 -31.5t67 -26.5q18 -7 30 -12t29 -12.5t28 -13.5t26 -15.5t23 -18t19 -20.5t14.5 -23.5t9.5 -27t3.5 -31t-3.5 -35.5q-16 -82 -83.5 -126
t-164.5 -44q-94 0 -154.5 43t-76.5 117l32 17q12 -66 63.5 -104t136.5 -38q89 0 143.5 38t67.5 101q8 37 -2 65.5t-38.5 49t-54.5 33t-69 27.5q-99 37 -136 70q-60 53 -44 137q14 77 78.5 121.5t147.5 44.5q82 0 134 -40t71 -104l-32 -16q-39 125 -174 125z" />
    <glyph glyph-name="scaron" unicode="&#x161;" horiz-adv-x="469" 
d="M268 570l-89 123h38l72 -101l109 101h42l-131 -123h-41zM271 511q56 0 99 -26.5t61 -71.5l-31 -16q-13 38 -49 59t-82 21q-54 0 -94.5 -25.5t-49.5 -74.5q-7 -40 21.5 -64.5t72.5 -37.5t88 -27.5t70.5 -47.5t17.5 -85q-11 -59 -63 -92.5t-128 -33.5q-140 0 -177 110
l32 16q27 -92 148 -92q59 0 101.5 25.5t50.5 71.5q7 36 -12 60.5t-52.5 35.5t-72 24.5t-71 27t-51 43t-10.5 72.5q10 58 60 93t121 35z" />
    <glyph glyph-name="uni0162" unicode="&#x162;" horiz-adv-x="540" 
d="M592 700l-5 -34h-226l-117 -666h-36l117 666h-225l6 34h486zM158 -240l40 170h35l-49 -170h-26z" />
    <glyph glyph-name="uni0163" unicode="&#x163;" horiz-adv-x="378" 
d="M215 467l-61 -349q-11 -63 21.5 -80t117.5 -7l-6 -31q-97 -15 -139.5 13t-29.5 105l61 349h-114l6 33h114l23 129l37 11l-24 -140h154l-6 -33h-154zM124 -240l40 170h35l-49 -170h-26z" />
    <glyph glyph-name="Tcaron" unicode="&#x164;" horiz-adv-x="540" 
d="M340 770l-89 123h38l72 -101l109 101h42l-131 -123h-41zM592 700l-5 -34h-226l-117 -666h-36l117 666h-225l6 34h486z" />
    <glyph glyph-name="tcaron" unicode="&#x165;" horiz-adv-x="378" 
d="M367 713l-46 -153h-26l37 153h35zM215 467l-61 -349q-11 -63 21.5 -80t117.5 -7l-6 -31q-97 -15 -139.5 13t-29.5 105l61 349h-114l6 33h114l23 129l37 11l-24 -140h154l-6 -33h-154z" />
    <glyph glyph-name="Tbar" unicode="&#x166;" horiz-adv-x="540" 
d="M587 666h-226l-53 -299h163l-6 -34h-162l-59 -333h-36l59 333h-162l6 34h161l53 299h-225l6 34h486z" />
    <glyph glyph-name="tbar" unicode="&#x167;" horiz-adv-x="378" 
d="M369 467h-154l-33 -189h102l-5 -29h-102l-23 -131q-11 -63 21.5 -80t117.5 -7l-6 -31q-97 -15 -139.5 13t-29.5 105l23 131h-72l5 29h72l33 189h-114l6 33h114l23 129l37 11l-24 -140h154z" />
    <glyph glyph-name="Umacron" unicode="&#x16a;" horiz-adv-x="673" 
d="M307 794l5 30h247l-6 -30h-246zM297 -11q-117 0 -176.5 67.5t-40.5 172.5l83 471h37l-83 -471q-16 -90 30 -147.5t150 -57.5t170 58t82 147l83 471h37l-83 -471q-19 -109 -97 -174.5t-192 -65.5z" />
    <glyph glyph-name="umacron" unicode="&#x16b;" horiz-adv-x="569" 
d="M468 624l-6 -30h-246l5 30h247zM494 500h36l-88 -500h-36l18 103q-36 -57 -90 -85.5t-115 -28.5q-87 0 -132 54.5t-29 142.5l55 314h35l-55 -314q-12 -73 22 -118t109 -45q77 0 137 50t82 138z" />
    <glyph glyph-name="Uring" unicode="&#x16e;" horiz-adv-x="673" 
d="M419 720q-45 0 -68 27t-16 67t38.5 66t74.5 26q44 0 67.5 -26.5t16.5 -67.5t-38.5 -66.5t-74.5 -25.5zM422 747q31 0 53 18.5t27 47.5q5 30 -11 48t-46 18t-52 -18t-28 -48q-5 -29 10.5 -47.5t46.5 -18.5zM297 -11q-117 0 -176.5 67.5t-40.5 172.5l83 471h37l-83 -471
q-16 -90 30 -147.5t150 -57.5t170 58t82 147l83 471h37l-83 -471q-19 -109 -97 -174.5t-192 -65.5z" />
    <glyph glyph-name="uring" unicode="&#x16f;" horiz-adv-x="569" 
d="M334 557q-45 0 -68 27t-16 67t38.5 66t74.5 26q44 0 67.5 -26.5t16.5 -67.5t-38.5 -66.5t-74.5 -25.5zM280 650q-5 -29 10.5 -47.5t46.5 -18.5t53 18.5t27 47.5q5 30 -11 48t-46 18t-52 -18t-28 -48zM494 500h36l-88 -500h-36l18 103q-36 -57 -90 -85.5t-115 -28.5
q-87 0 -132 54.5t-29 142.5l55 314h35l-55 -314q-12 -73 22 -118t109 -45q77 0 137 50t82 138z" />
    <glyph glyph-name="Uhungarumlaut" unicode="&#x170;" horiz-adv-x="673" 
d="M308 770h36l96 130h-40zM449 770h36l105 130h-40zM297 -11q-117 0 -176.5 67.5t-40.5 172.5l83 471h37l-83 -471q-16 -90 30 -147.5t150 -57.5t170 58t82 147l83 471h37l-83 -471q-19 -109 -97 -174.5t-192 -65.5z" />
    <glyph glyph-name="uhungarumlaut" unicode="&#x171;" horiz-adv-x="569" 
d="M349 700l-96 -130h-36l92 130h40zM499 700l-105 -130h-36l101 130h40zM494 500h36l-88 -500h-36l18 103q-36 -57 -90 -85.5t-115 -28.5q-87 0 -132 54.5t-29 142.5l55 314h35l-55 -314q-12 -73 22 -118t109 -45q77 0 137 50t82 138z" />
    <glyph glyph-name="Uogonek" unicode="&#x172;" horiz-adv-x="673" 
d="M632 700h37l-83 -471q-23 -132 -127 -196q-87 -65 -121 -99.5t-39 -67.5q-8 -47 44 -47q22 0 41 9l-5 -30q-22 -9 -47 -9q-38 0 -55.5 21.5t-11.5 53.5q10 60 106 133q-37 -8 -74 -8q-117 0 -176.5 67.5t-40.5 172.5l83 471h37l-83 -471q-16 -90 30 -147.5t150 -57.5
t170 58t82 147z" />
    <glyph glyph-name="uogonek" unicode="&#x173;" 
d="M442 0q-103 -77 -114 -137q-4 -21 6.5 -32.5t31.5 -11.5q25 0 45 8l-5 -29q-22 -9 -51 -9q-34 0 -50.5 19.5t-10.5 51.5q11 62 113 146l17 97q-36 -57 -90 -85.5t-115 -28.5q-87 0 -132 54.5t-29 142.5l55 314h35l-55 -314q-12 -73 22 -118t109 -45q77 0 137 50t82 138
l51 289h36z" />
    <glyph glyph-name="Wcircumflex" unicode="&#x174;" horiz-adv-x="987" 
d="M604 872l-108 -102h-42l131 123h41l88 -123h-37zM990 700h39l-326 -700h-44l-95 653l-324 -653h-44l-80 700h35l74 -653l324 653h43l95 -653z" />
    <glyph glyph-name="wcircumflex" unicode="&#x175;" horiz-adv-x="770" 
d="M430 672l-108 -102h-42l131 123h41l88 -123h-37zM739 500h38l-248 -500h-39l-70 452l-228 -452h-39l-72 500h34l64 -454l230 454h37l69 -455z" />
    <glyph glyph-name="Ycircumflex" unicode="&#x176;" horiz-adv-x="565" 
d="M392 872l-108 -102h-42l131 123h41l88 -123h-37zM627 700l-313 -372l-57 -328h-37l58 328l-182 372h38l166 -339l285 339h42z" />
    <glyph glyph-name="ycircumflex" unicode="&#x177;" horiz-adv-x="510" 
d="M317 672l-108 -102h-42l131 123h41l88 -123h-37zM498 500h39l-312 -546q-44 -76 -102 -117.5t-121 -36.5l6 33q50 -5 98 30t84 99l13 22l-142 516h35l130 -476z" />
    <glyph glyph-name="Ydieresis" unicode="&#x178;" horiz-adv-x="565" 
d="M289 778q-12 0 -19 8.5t-5 20.5q2 11 12 19.5t22 8.5t18.5 -8.5t4.5 -19.5q-2 -12 -11.5 -20.5t-21.5 -8.5zM459 778q-12 0 -19 8.5t-5 20.5q2 11 12 19.5t22 8.5t18.5 -8.5t4.5 -19.5q-2 -12 -11.5 -20.5t-21.5 -8.5zM627 700l-313 -372l-57 -328h-37l58 328l-182 372
h38l166 -339l285 339h42z" />
    <glyph glyph-name="Zacute" unicode="&#x179;" horiz-adv-x="527" 
d="M469 893l-107 -123h-35l100 123h42zM559 700l-6 -34l-502 -632h401l-6 -34h-443l6 34l502 632h-381l6 34h423z" />
    <glyph glyph-name="zacute" unicode="&#x17a;" horiz-adv-x="477" 
d="M410 693l-107 -123h-35l100 123h42zM467 500l-4 -22l-397 -445h329l-6 -33h-380l4 22l398 445h-309l5 33h360z" />
    <glyph glyph-name="Zdotaccent" unicode="&#x17b;" horiz-adv-x="527" 
d="M361 777q-17 0 -26 11t-6 27t15.5 27t29.5 11q16 0 25 -11t7 -27q-3 -16 -16 -27t-29 -11zM559 700l-6 -34l-502 -632h401l-6 -34h-443l6 34l502 632h-381l6 34h423z" />
    <glyph glyph-name="zdotaccent" unicode="&#x17c;" horiz-adv-x="477" 
d="M302 577q-17 0 -26 11t-6 27t15.5 27t29.5 11q16 0 25 -11t7 -27q-3 -16 -16 -27t-29 -11zM467 500l-4 -22l-397 -445h329l-6 -33h-380l4 22l398 445h-309l5 33h360z" />
    <glyph glyph-name="Zcaron" unicode="&#x17d;" horiz-adv-x="527" 
d="M338 770l-89 123h38l72 -101l109 101h42l-131 -123h-41zM559 700l-6 -34l-502 -632h401l-6 -34h-443l6 34l502 632h-381l6 34h423z" />
    <glyph glyph-name="zcaron" unicode="&#x17e;" horiz-adv-x="477" 
d="M279 570l-89 123h38l72 -101l109 101h42l-131 -123h-41zM467 500l-4 -22l-397 -445h329l-6 -33h-380l4 22l398 445h-309l5 33h360z" />
    <glyph glyph-name="florin" unicode="&#x192;" horiz-adv-x="434" 
d="M314 584q27 79 82 109.5t118 8.5l-7 -34q-48 22 -92 -2.5t-65 -84.5l-74 -213h125l-6 -34h-131l-145 -420q-26 -78 -81 -109t-118 -9l6 34q48 -22 92.5 2.5t64.5 84.5l144 417h-119l6 34h125z" />
    <glyph glyph-name="Scommaaccent" unicode="&#x218;" horiz-adv-x="562" 
d="M253 -11q-94 0 -154.5 43t-76.5 117l32 17q12 -66 63.5 -104t136.5 -38q89 0 143.5 38t67.5 101q8 37 -2 65.5t-38.5 49t-54.5 33t-69 27.5q-99 37 -136 70q-60 53 -44 137q14 77 78.5 121.5t147.5 44.5q82 0 134 -40t71 -104l-32 -16q-39 125 -174 125q-71 0 -124 -37
t-65 -98q-7 -37 3.5 -65.5t41 -49.5t53.5 -31.5t67 -26.5q18 -7 30 -12t29 -12.5t28 -13.5t26 -15.5t23 -18t19 -20.5t14.5 -23.5t9.5 -27t3.5 -31t-3.5 -35.5q-16 -82 -83.5 -126t-164.5 -44zM205 -240l49 170h-35l-40 -170h26z" />
    <glyph glyph-name="scommaaccent" unicode="&#x219;" horiz-adv-x="469" 
d="M204 -11q-140 0 -177 110l32 16q27 -92 148 -92q59 0 101.5 25.5t50.5 71.5q7 36 -12 60.5t-52.5 35.5t-72 24.5t-71 27t-51 43t-10.5 72.5q10 58 60 93t121 35q56 0 99 -26.5t61 -71.5l-31 -16q-13 38 -49 59t-82 21q-54 0 -94.5 -25.5t-49.5 -74.5q-7 -40 21.5 -64.5
t72.5 -37.5t88 -27.5t70.5 -47.5t17.5 -85q-11 -59 -63 -92.5t-128 -33.5zM160 -240l49 170h-35l-40 -170h26z" />
    <glyph glyph-name="uni021A" unicode="&#x21a;" horiz-adv-x="540" 
d="M592 700l-5 -34h-226l-117 -666h-36l117 666h-225l6 34h486zM158 -240l40 170h35l-49 -170h-26z" />
    <glyph glyph-name="uni021B" unicode="&#x21b;" horiz-adv-x="378" 
d="M215 467l-61 -349q-11 -63 21.5 -80t117.5 -7l-6 -31q-97 -15 -139.5 13t-29.5 105l61 349h-114l6 33h114l23 129l37 11l-24 -140h154l-6 -33h-154zM124 -240l40 170h35l-49 -170h-26z" />
    <glyph glyph-name="circumflex" unicode="&#x2c6;" horiz-adv-x="301" 
d="M336 570h-37l-73 102l-108 -102h-42l131 123h41z" />
    <glyph glyph-name="caron" unicode="&#x2c7;" horiz-adv-x="301" 
d="M317 693h42l-131 -123h-41l-89 123h38l72 -101z" />
    <glyph glyph-name="breve" unicode="&#x2d8;" horiz-adv-x="293" 
d="M206 569q-57 0 -88 30.5t-22 82.5h34q-7 -39 14.5 -61t64.5 -22t71.5 22t35.5 61h34q-10 -53 -48 -83t-96 -30z" />
    <glyph glyph-name="dotaccent" unicode="&#x2d9;" horiz-adv-x="83" 
d="M114 577q-17 0 -26 11t-6 27t15.5 27t29.5 11q16 0 25 -11t7 -27q-3 -16 -16 -27t-29 -11z" />
    <glyph glyph-name="ring" unicode="&#x2da;" horiz-adv-x="238" 
d="M175 557q-45 0 -68 27t-16 67t38.5 66t74.5 26q44 0 67.5 -26.5t16.5 -67.5t-38.5 -66.5t-74.5 -25.5zM178 584q31 0 53 18.5t27 47.5q5 30 -11 48t-46 18t-52 -18t-28 -48q-5 -29 10.5 -47.5t46.5 -18.5z" />
    <glyph glyph-name="ogonek" unicode="&#x2db;" horiz-adv-x="166" 
d="M15 -211q-35 0 -52 22t-11 54q11 66 109 135h39q-104 -76 -114 -135q-4 -20 7.5 -33t32.5 -13q22 0 45 9l-5 -30q-22 -9 -51 -9z" />
    <glyph glyph-name="tilde" unicode="&#x2dc;" horiz-adv-x="304" 
d="M79 587q13 76 58 94t88 -33q37 -42 65.5 -33.5t38.5 64.5h31q-13 -76 -58 -93.5t-88 32.5q-38 43 -66 34.5t-38 -65.5h-31z" />
    <glyph glyph-name="hungarumlaut" unicode="&#x2dd;" horiz-adv-x="299" 
d="M76 570h36l96 130h-40zM217 570h36l105 130h-40z" />
    <glyph glyph-name="gravecomb" unicode="&#x300;" horiz-adv-x="0" 
d="M37 570l-60 123h-40l68 -123h32z" />
    <glyph glyph-name="acutecomb" unicode="&#x301;" horiz-adv-x="0" 
d="M-84 570h35l107 123h-42z" />
    <glyph glyph-name="uni0302" unicode="&#x302;" horiz-adv-x="0" 
d="M36 570h-37l-73 102l-108 -102h-42l131 123h41z" />
    <glyph glyph-name="tildecomb" unicode="&#x303;" horiz-adv-x="0" 
d="M-225 587q13 76 58 94t88 -33q37 -42 65.5 -33.5t38.5 64.5h31q-13 -76 -58 -93.5t-88 32.5q-38 43 -66 34.5t-38 -65.5h-31z" />
    <glyph glyph-name="uni0304" unicode="&#x304;" horiz-adv-x="0" 
d="M-206 594l5 30h247l-6 -30h-246z" />
    <glyph glyph-name="uni0306" unicode="&#x306;" horiz-adv-x="0" 
d="M-101 569q-57 0 -88 30.5t-22 82.5h34q-7 -39 14.5 -61t64.5 -22t71.5 22t35.5 61h34q-10 -53 -48 -83t-96 -30z" />
    <glyph glyph-name="uni0307" unicode="&#x307;" horiz-adv-x="0" 
d="M-1 577q-17 0 -26 11t-6 27t15.5 27t29.5 11q16 0 25 -11t7 -27q-3 -16 -16 -27t-29 -11z" />
    <glyph glyph-name="uni0308" unicode="&#x308;" horiz-adv-x="0" 
d="M-160 578q-12 0 -19 8.5t-5 20.5q2 11 12 19.5t22 8.5t18.5 -8.5t4.5 -19.5q-2 -12 -11.5 -20.5t-21.5 -8.5zM10 578q-12 0 -19 8.5t-5 20.5q2 11 12 19.5t22 8.5t18.5 -8.5t4.5 -19.5q-2 -12 -11.5 -20.5t-21.5 -8.5z" />
    <glyph glyph-name="uni030A" unicode="&#x30a;" horiz-adv-x="0" 
d="M-63 557q-45 0 -68 27t-16 67t38.5 66t74.5 26q44 0 67.5 -26.5t16.5 -67.5t-38.5 -66.5t-74.5 -25.5zM-60 584q31 0 53 18.5t27 47.5q5 30 -11 48t-46 18t-52 -18t-28 -48q-5 -29 10.5 -47.5t46.5 -18.5z" />
    <glyph glyph-name="uni030B" unicode="&#x30b;" horiz-adv-x="0" 
d="M-216 570h36l96 130h-40zM-75 570h36l105 130h-40z" />
    <glyph glyph-name="uni030C" unicode="&#x30c;" horiz-adv-x="0" 
d="M16 693h42l-131 -123h-41l-89 123h38l72 -101z" />
    <glyph glyph-name="uni0312" unicode="&#x312;" horiz-adv-x="0" 
d="M79 960l-49 -170h35l40 170h-26z" />
    <glyph glyph-name="uni0326" unicode="&#x326;" horiz-adv-x="0" 
d="M-125 -240l49 170h-35l-40 -170h26z" />
    <glyph glyph-name="uni0327" unicode="&#x327;" horiz-adv-x="0" 
d="M-166 -68q36 -2 59.5 -20.5t17.5 -49.5q-14 -88 -197 -69l5 29q151 -16 161 43q5 22 -16.5 34t-65.5 9l16 92h32z" />
    <glyph glyph-name="uni0328" unicode="&#x328;" horiz-adv-x="0" 
d="M-151 -211q-35 0 -52 22t-11 54q11 66 109 135h39q-104 -76 -114 -135q-4 -20 7.5 -33t32.5 -13q22 0 45 9l-5 -30q-22 -9 -51 -9z" />
    <glyph glyph-name="uni0394" unicode="&#x394;" horiz-adv-x="622" 
d="M410 700l151 -700h-588l397 700h40zM32 34h486l-133 623z" />
    <glyph glyph-name="uni03A9" unicode="&#x3a9;" horiz-adv-x="830" 
d="M793 345q-18 -103 -86.5 -186.5t-164.5 -124.5h184l-6 -34h-269l1 8l5 26q111 27 195 114.5t104 201.5q24 135 -53.5 230.5t-212.5 95.5q-136 0 -247 -95t-135 -231q-20 -114 33 -201.5t155 -114.5l-4 -27h-1l-1 -7h-270l6 34h188q-81 43 -120.5 130t-21.5 191
q26 150 148 253t276 103q147 0 235 -108.5t62 -257.5z" />
    <glyph glyph-name="pi" unicode="&#x3c0;" horiz-adv-x="650" 
d="M657 500l-5 -33h-84l-82 -467h-35l82 467h-336l-82 -467h-35l82 467h-87l6 33h576z" />
    <glyph glyph-name="uni0401" unicode="&#x401;" horiz-adv-x="537" 
d="M294 778q-12 0 -19 8.5t-5 20.5q2 11 12 19.5t22 8.5t18.5 -8.5t4.5 -19.5q-2 -12 -11.5 -20.5t-21.5 -8.5zM464 778q-12 0 -19 8.5t-5 20.5q2 11 12 19.5t22 8.5t18.5 -8.5t4.5 -19.5q-2 -12 -11.5 -20.5t-21.5 -8.5zM558 666h-355l-52 -296h330l-6 -34h-330l-53 -302
h360l-6 -34h-397l123 700h392z" />
    <glyph glyph-name="uni0402" unicode="&#x402;" horiz-adv-x="696" 
d="M480 471q86 0 129.5 -46.5t28.5 -132.5l-28 -161q-12 -72 -56.5 -108.5t-120.5 -28.5l6 33q114 -11 134 104l29 161q12 73 -21 109t-103 36q-82 0 -186 -51l-68 -386h-36l117 666h-205l6 34h483l-6 -34h-242l-42 -242q97 47 181 47z" />
    <glyph glyph-name="uni0403" unicode="&#x403;" horiz-adv-x="497" 
d="M477 892l-107 -123h-35l100 123h42zM549 700l-6 -34h-340l-117 -666h-37l123 700h377z" />
    <glyph glyph-name="uni0404" unicode="&#x404;" horiz-adv-x="757" 
d="M484 676q-136 0 -240 -88.5t-133 -220.5h407l-6 -34h-407q-17 -130 57.5 -219.5t208.5 -89.5q89 0 167.5 41.5t130.5 113.5l30 -19q-56 -77 -143.5 -124t-186.5 -47q-154 0 -238.5 106.5t-58.5 259.5q26 152 144 254t269 102q97 0 170 -45t109 -121l-32 -17
q-32 68 -96 108t-152 40z" />
    <glyph glyph-name="uni0405" unicode="&#x405;" horiz-adv-x="562" 
d="M253 -11q-94 0 -154.5 43t-76.5 117l32 17q12 -66 63.5 -104t136.5 -38q89 0 143.5 38t67.5 101q8 37 -2 65.5t-38.5 49t-54.5 33t-69 27.5q-99 37 -136 70q-60 53 -44 137q14 77 78.5 121.5t147.5 44.5q82 0 134 -40t71 -104l-32 -16q-39 125 -174 125q-71 0 -124 -37
t-65 -98q-7 -37 3.5 -65.5t41 -49.5t53.5 -31.5t67 -26.5q18 -7 30 -12t29 -12.5t28 -13.5t26 -15.5t23 -18t19 -20.5t14.5 -23.5t9.5 -27t3.5 -31t-3.5 -35.5q-16 -82 -83.5 -126t-164.5 -44z" />
    <glyph glyph-name="uni0406" unicode="&#x406;" horiz-adv-x="223" 
d="M172 700h37l-123 -700h-37z" />
    <glyph glyph-name="uni0407" unicode="&#x407;" horiz-adv-x="223" 
d="M120 778q-12 0 -19 8.5t-5 20.5q2 11 12 19.5t22 8.5t18.5 -8.5t4.5 -19.5q-2 -12 -11.5 -20.5t-21.5 -8.5zM290 778q-12 0 -19 8.5t-5 20.5q2 11 12 19.5t22 8.5t18.5 -8.5t4.5 -19.5q-2 -12 -11.5 -20.5t-21.5 -8.5zM172 700h37l-123 -700h-37z" />
    <glyph glyph-name="uni0408" unicode="&#x408;" horiz-adv-x="554" 
d="M212 -11q-75 0 -125 30.5t-66 86.5l33 17q26 -99 160 -99q82 0 138.5 44t69.5 118l90 514h37l-90 -515q-17 -93 -85.5 -144.5t-161.5 -51.5z" />
    <glyph glyph-name="uni0409" unicode="&#x409;" horiz-adv-x="997" 
d="M769 387q83 0 134 -58.5t36 -141.5t-82.5 -135t-155.5 -52h-210l117 666h-321l-67 -383q-28 -155 -86.5 -224t-155.5 -61l5 33q73 -7 123.5 51t76.5 202l73 416h395l-55 -313h173zM902 193q12 69 -28.5 114.5t-110.5 45.5h-173l-56 -319h173q70 0 126.5 45t68.5 114z" />
    <glyph glyph-name="uni040A" unicode="&#x40a;" horiz-adv-x="988" 
d="M761 387q83 0 133.5 -58.5t35.5 -141.5t-82 -135t-155 -52h-210l62 353h-397l-62 -353h-37l123 700h37l-55 -313h397l55 313h36l-55 -313h174zM894 193q12 69 -28.5 114.5t-110.5 45.5h-174l-56 -319h174q70 0 126.5 45t68.5 114z" />
    <glyph glyph-name="uni040B" unicode="&#x40b;" horiz-adv-x="704" 
d="M480 471q86 0 129.5 -46.5t28.5 -132.5l-51 -292h-37l52 292q12 73 -21 109t-103 36q-82 0 -186 -51l-68 -386h-36l117 666h-205l6 34h483l-6 -34h-242l-42 -242q97 47 181 47z" />
    <glyph glyph-name="uni040C" unicode="&#x40c;" horiz-adv-x="563" 
d="M487 892l-107 -123h-35l100 123h42zM624 700l-434 -343l319 -357h-44l-317 352l-62 -352h-37l123 700h37l-58 -331l421 331h52z" />
    <glyph glyph-name="uni040E" unicode="&#x40e;" horiz-adv-x="563" 
d="M513 823l-6 -30h-246l5 30h247zM586 700h39l-325 -546q-53 -88 -108.5 -123.5t-122.5 -30.5l6 33q107 -9 188 127l15 26l-162 514h34l151 -476z" />
    <glyph glyph-name="uni040F" unicode="&#x40f;" horiz-adv-x="687" 
d="M636 700h36l-123 -700h-232l-23 -134h-37l24 134h-232l123 700h37l-117 -666h427z" />
    <glyph glyph-name="uni0410" unicode="&#x410;" horiz-adv-x="629" 
d="M527 0l-39 185h-367l-105 -185h-40l397 700h41l151 -700h-38zM140 219h341l-93 438z" />
    <glyph glyph-name="uni0411" unicode="&#x411;" horiz-adv-x="586" 
d="M563 666h-360l-45 -259h210q81 0 131.5 -62.5t35.5 -146.5q-14 -84 -83 -141t-156 -57h-247l123 700h397zM361 373h-209l-60 -339h210q70 0 127.5 49.5t69.5 119.5q13 72 -27.5 121t-110.5 49z" />
    <glyph glyph-name="uni0412" unicode="&#x412;" horiz-adv-x="627" 
d="M597 518q-9 -53 -44 -95t-86 -62q55 -17 83 -65.5t18 -110.5q-12 -77 -73.5 -131t-148.5 -54h-297l123 700h263q79 0 126.5 -53t35.5 -129zM391 374q59 0 109.5 42.5t60.5 103.5q11 60 -26 103t-100 43h-232l-51 -292h239zM532 187q11 63 -25 108t-98 45h-263l-54 -306
h258q67 0 119 44.5t63 108.5z" />
    <glyph glyph-name="uni0413" unicode="&#x413;" horiz-adv-x="497" 
d="M549 700l-6 -34h-340l-117 -666h-37l123 700h377z" />
    <glyph glyph-name="uni0414" unicode="&#x414;" horiz-adv-x="690" 
d="M539 34h71l-29 -168h-37l24 134h-554l-23 -134h-37l30 168h54q89 83 119 253l72 413h427zM193 286q-28 -163 -108 -252h417l111 632h-353z" />
    <glyph glyph-name="uni0415" unicode="&#x415;" horiz-adv-x="537" 
d="M558 666h-355l-52 -296h330l-6 -34h-330l-53 -302h360l-6 -34h-397l123 700h392z" />
    <glyph glyph-name="uni0416" unicode="&#x416;" horiz-adv-x="821" 
d="M874 700l-387 -344l270 -356h-39l-269 350l-62 -350h-37l62 352l-388 -352h-48l400 363l-264 337h40l263 -332l58 332h37l-58 -330l375 330h47z" />
    <glyph glyph-name="uni0417" unicode="&#x417;" horiz-adv-x="548" 
d="M531 522q-10 -57 -47 -100t-96 -62q61 -19 90 -67t18 -112q-15 -85 -82.5 -138.5t-172.5 -53.5q-181 0 -220 150l33 17q32 -133 193 -133q86 0 143.5 46t69.5 117q12 67 -27 110.5t-119 43.5h-78l6 34h58q76 0 129.5 44t65.5 108q11 67 -29.5 109t-118.5 42
q-135 0 -208 -123l-29 19q82 138 243 138q92 0 142 -54.5t36 -134.5z" />
    <glyph glyph-name="uni0418" unicode="&#x418;" horiz-adv-x="693" 
d="M49 0l123 700h37l-111 -630l548 630h33l-123 -700h-37l111 631l-547 -631h-34z" />
    <glyph glyph-name="uni0419" unicode="&#x419;" horiz-adv-x="693" 
d="M313 794l5 30h247l-6 -30h-246zM49 0l123 700h37l-111 -630l548 630h33l-123 -700h-37l111 631l-547 -631h-34z" />
    <glyph glyph-name="uni041A" unicode="&#x41a;" horiz-adv-x="563" 
d="M624 700l-434 -343l319 -357h-44l-317 352l-62 -352h-37l123 700h37l-58 -331l421 331h52z" />
    <glyph glyph-name="uni041B" unicode="&#x41b;" horiz-adv-x="702" 
d="M-22 -2l5 33q73 -7 123.5 51t76.5 202l73 416h431l-123 -700h-36l117 666h-358l-67 -383q-28 -156 -87 -224.5t-155 -60.5z" />
    <glyph glyph-name="uni041C" unicode="&#x41c;" horiz-adv-x="813" 
d="M799 700l-123 -700h-37l113 644l-348 -443h-9l-195 449l-114 -650h-37l123 700h44l191 -439l345 439h47z" />
    <glyph glyph-name="uni041D" unicode="&#x41d;" horiz-adv-x="693" 
d="M642 700h37l-123 -700h-37l60 343h-433l-60 -343h-37l123 700h37l-57 -323h433z" />
    <glyph glyph-name="uni041E" unicode="&#x41e;" horiz-adv-x="829" 
d="M370 -11q-150 0 -237.5 108t-60.5 258q26 150 148 253t273 103q149 0 237 -109t62 -259q-26 -149 -148 -251.5t-274 -102.5zM375 24q137 0 246.5 94t134.5 230q23 136 -54.5 232t-213.5 96t-246 -95t-134 -231q-24 -135 54 -230.5t213 -95.5z" />
    <glyph glyph-name="uni041F" unicode="&#x41f;" horiz-adv-x="687" 
d="M672 700l-123 -700h-36l117 666h-427l-117 -666h-37l123 700h500z" />
    <glyph glyph-name="uni0420" unicode="&#x420;" horiz-adv-x="583" 
d="M395 700q96 0 147 -61t36 -152t-87 -152.5t-174 -61.5h-183l-48 -273h-37l123 700h223zM542 490q14 77 -28 126.5t-121 49.5h-190l-63 -359h180q86 0 147 52t75 131z" />
    <glyph glyph-name="uni0421" unicode="&#x421;" horiz-adv-x="757" 
d="M369 -11q-154 0 -238.5 106.5t-58.5 259.5q26 152 144 254t269 102q97 0 170 -45t109 -121l-32 -17q-32 68 -96 108t-152 40q-140 0 -246 -94.5t-130 -231.5q-24 -136 50.5 -231t212.5 -95q89 0 167.5 41.5t130.5 113.5l30 -19q-56 -77 -143.5 -124t-186.5 -47z" />
    <glyph glyph-name="uni0422" unicode="&#x422;" horiz-adv-x="540" 
d="M592 700l-5 -34h-226l-117 -666h-36l117 666h-225l6 34h486z" />
    <glyph glyph-name="uni0423" unicode="&#x423;" horiz-adv-x="563" 
d="M586 700h39l-325 -546q-53 -88 -108.5 -123.5t-122.5 -30.5l6 33q107 -9 188 127l15 26l-162 514h34l151 -476z" />
    <glyph glyph-name="uni0424" unicode="&#x424;" horiz-adv-x="805" 
d="M486 622q152 -5 237 -77.5t63 -198.5t-130 -195t-265 -73l-14 -78h-37l14 78q-152 5 -236.5 77.5t-62.5 198.5t129.5 195t264.5 73l14 78h37zM92 350q-20 -110 52.5 -172.5t215.5 -66.5l83 478q-143 -4 -237.5 -66.5t-113.5 -172.5zM749 350q19 110 -53.5 172.5
t-215.5 66.5l-83 -478q144 4 238.5 66.5t113.5 172.5z" />
    <glyph glyph-name="uni0425" unicode="&#x425;" horiz-adv-x="567" 
d="M608 700l-285 -344l173 -356h-38l-159 327l-272 -327h-44l299 361l-165 339h38l151 -311l258 311h44z" />
    <glyph glyph-name="uni0426" unicode="&#x426;" horiz-adv-x="690" 
d="M542 34h72l-30 -168h-37l24 134h-522l123 700h37l-117 -666h413l117 666h37z" />
    <glyph glyph-name="uni0427" unicode="&#x427;" horiz-adv-x="628" 
d="M577 700h37l-123 -700h-37l53 304q-94 -41 -195 -41q-114 0 -164.5 54t-36.5 140l43 243h37l-43 -243q-13 -74 28.5 -117t139.5 -43q95 0 198 45z" />
    <glyph glyph-name="uni0428" unicode="&#x428;" horiz-adv-x="963" 
d="M912 700h37l-123 -700h-777l123 700h37l-117 -666h333l117 666h37l-117 -666h333z" />
    <glyph glyph-name="uni0429" unicode="&#x429;" horiz-adv-x="980" 
d="M832 34h71l-29 -168h-37l24 134h-812l123 700h37l-117 -666h333l117 666h37l-117 -666h333l117 666h37z" />
    <glyph glyph-name="uni042A" unicode="&#x42a;" horiz-adv-x="687" 
d="M153 0l117 666h-197l6 34h233l-48 -273h189q92 0 144.5 -63.5t35.5 -154.5q-17 -92 -87.5 -150.5t-166.5 -58.5h-226zM195 34h189q79 0 139 51t74 128q14 79 -28 129.5t-123 50.5h-187z" />
    <glyph glyph-name="uni042B" unicode="&#x42b;" horiz-adv-x="752" 
d="M49 0l123 700h37l-48 -273h188q92 0 145 -63.5t36 -154.5q-17 -92 -87.5 -150.5t-166.5 -58.5h-227zM578 0l123 700h36l-123 -700h-36zM92 34h189q78 0 138 51t74 128q14 79 -28 130t-122 50h-188z" />
    <glyph glyph-name="uni042C" unicode="&#x42c;" horiz-adv-x="584" 
d="M349 427q92 0 145 -63.5t36 -154.5q-17 -92 -87.5 -150.5t-166.5 -58.5h-227l123 700h37l-48 -273h188zM493 213q14 79 -28 130t-122 50h-188l-63 -359h189q78 0 138 51t74 128z" />
    <glyph glyph-name="uni042D" unicode="&#x42d;" horiz-adv-x="755" 
d="M423 711q154 0 238 -107t57 -258q-26 -151 -143 -254t-276 -103q-96 0 -168 45t-103 122l33 17q27 -69 91 -109t151 -40q136 0 241 88.5t135 220.5h-407l6 34h407q17 132 -57.5 220.5t-209.5 88.5q-89 0 -167 -42t-128 -113l-31 19q56 78 144 124.5t187 46.5z" />
    <glyph glyph-name="uni042E" unicode="&#x42e;" horiz-adv-x="1054" 
d="M718 711q149 0 237 -109t62 -259q-26 -149 -148 -251.5t-274 -102.5q-146 0 -233 104t-66 250h-150l-60 -343h-37l123 700h37l-57 -323h150q34 143 152.5 238.5t263.5 95.5zM980 348q24 136 -53.5 232t-213.5 96q-137 0 -247 -95t-133 -231q-24 -135 53.5 -230.5
t213.5 -95.5q137 0 246.5 94t133.5 230z" />
    <glyph glyph-name="uni042F" unicode="&#x42f;" horiz-adv-x="633" 
d="M619 700l-123 -700h-37l51 293h-215l-251 -293h-45l253 295q-74 11 -116 71.5t-29 136.5q15 85 82.5 141t157.5 56h272zM284 327h232l60 339h-235q-70 0 -127.5 -48t-70.5 -118q-12 -70 29 -121.5t112 -51.5z" />
    <glyph glyph-name="uni0430" unicode="&#x430;" horiz-adv-x="654" 
d="M579 500h36l-88 -500h-36l21 118q-39 -61 -103 -95t-140 -34q-107 0 -173 81.5t-47 191.5q20 113 102.5 181t189.5 68q76 0 134 -43t78 -114zM276 23q91 0 162 56.5t93 145.5l5 33q10 94 -47.5 156.5t-148.5 62.5q-93 0 -165.5 -60t-90.5 -159q-17 -96 39.5 -165.5
t152.5 -69.5z" />
    <glyph glyph-name="uni0431" unicode="&#x431;" horiz-adv-x="576" 
d="M253 -11q-106 0 -166.5 71t-40.5 185q21 123 68.5 191.5t167.5 123.5q28 13 68.5 28.5t63.5 25t48 23.5t40.5 31.5t24.5 41.5l27 -16q-9 -26 -27 -46.5t-46.5 -36.5t-52.5 -26.5t-66 -26.5t-67 -27q-84 -37 -127.5 -81.5t-66.5 -120.5q47 62 111 93.5t129 31.5
q96 0 153 -68t39 -168q-17 -101 -95 -165t-185 -64zM257 23q91 0 158.5 55.5t82.5 142.5t-32 143.5t-133 56.5q-81 0 -153 -50.5t-99 -129.5q-17 -97 32.5 -157.5t143.5 -60.5z" />
    <glyph glyph-name="uni0432" unicode="&#x432;" horiz-adv-x="513" 
d="M473 369q-15 -83 -90 -111q43 -13 62 -46.5t11 -78.5q-10 -60 -54 -96.5t-121 -36.5h-242l88 500h224q66 0 99 -38t23 -93zM308 272q52 0 87 26t43 72q8 45 -17 71t-76 26h-188l-34 -195h185zM421 137q8 48 -18 75t-81 27h-205l-36 -206h206q54 0 89.5 27.5t44.5 76.5z
" />
    <glyph glyph-name="uni0433" unicode="&#x433;" horiz-adv-x="398" 
d="M434 500l-6 -33h-271l-82 -467h-36l88 500h307z" />
    <glyph glyph-name="uni0434" unicode="&#x434;" horiz-adv-x="591" 
d="M445 33h71l-31 -167h-35l24 134h-456l-24 -134h-35l30 167h55q72 81 95 213l44 254h344zM90 33h320l76 434h-273l-39 -221q-23 -130 -84 -213z" />
    <glyph glyph-name="uni0435" unicode="&#x435;" horiz-adv-x="593" 
d="M344 511q112 0 167.5 -77.5t36.5 -184.5q0 -3 -2 -9t-2 -9h-464q-10 -94 41 -151t145 -57q64 0 117 26t84 71l28 -18q-37 -53 -99 -83t-135 -30q-114 0 -174 76t-40 190q20 111 102.5 183.5t194.5 72.5zM85 264h430q12 98 -36.5 155.5t-136.5 57.5q-94 0 -165 -59
t-92 -154z" />
    <glyph glyph-name="uni0436" unicode="&#x436;" horiz-adv-x="651" 
d="M661 500l-282 -243l201 -257h-39l-197 251l-44 -251h-35l44 250l-282 -250h-44l295 263l-195 237h40l189 -231l41 231h35l-41 -231l268 231h46z" />
    <glyph glyph-name="uni0437" unicode="&#x437;" horiz-adv-x="445" 
d="M405 371q-15 -85 -96 -114q44 -15 65 -51t13 -80q-11 -59 -64 -98t-140 -39q-152 0 -172 117l31 16q13 -99 146 -99q66 0 110.5 30t53.5 79q8 48 -20.5 77.5t-85.5 29.5h-65l6 33h47q54 0 91 28t45 74q8 45 -23.5 74t-89.5 29q-109 0 -158 -87l-27 18q61 103 190 103
q74 0 113.5 -42t29.5 -98z" />
    <glyph glyph-name="uni0438" unicode="&#x438;" horiz-adv-x="573" 
d="M502 500h32l-88 -500h-35l77 439l-417 -439h-32l88 500h36l-78 -439z" />
    <glyph glyph-name="uni0439" unicode="&#x439;" horiz-adv-x="573" 
d="M225 594l5 30h247l-6 -30h-246zM502 500h32l-88 -500h-35l77 439l-417 -439h-32l88 500h36l-78 -439z" />
    <glyph glyph-name="uni043A" unicode="&#x43a;" horiz-adv-x="472" 
d="M483 500l-326 -241l244 -259h-44l-238 252l-44 -252h-36l88 500h36l-40 -229l308 229h52z" />
    <glyph glyph-name="uni043B" unicode="&#x43b;" 
d="M531 500l-88 -500h-36l82 467h-276l-46 -261q-22 -122 -71 -167t-123 -39l5 33q61 -5 99 36.5t55 136.5l51 294h348z" />
    <glyph glyph-name="uni043C" unicode="&#x43c;" horiz-adv-x="643" 
d="M604 500l-88 -500h-35l79 449l-255 -307h-6l-145 307l-79 -449h-36l88 500h40l142 -299l250 299h45z" />
    <glyph glyph-name="uni043D" unicode="&#x43d;" horiz-adv-x="573" 
d="M499 500h35l-88 -500h-35l41 233h-336l-41 -233h-36l88 500h36l-41 -233h336z" />
    <glyph glyph-name="uni043E" unicode="&#x43e;" horiz-adv-x="617" 
d="M265 -11q-108 0 -173 75.5t-44 189.5q20 114 109 185.5t197 71.5q107 0 171 -76t44 -189q-20 -114 -107.5 -185.5t-196.5 -71.5zM268 23q94 0 171.5 64.5t94.5 163.5q18 98 -37 162t-148 64q-94 0 -171 -64t-95 -163q-17 -99 37.5 -163.5t147.5 -63.5z" />
    <glyph glyph-name="uni043F" unicode="&#x43f;" horiz-adv-x="573" 
d="M534 500l-88 -500h-35l82 467h-336l-82 -467h-36l88 500h407z" />
    <glyph glyph-name="uni0440" unicode="&#x440;" horiz-adv-x="654" 
d="M385 511q106 0 172.5 -81.5t47.5 -191.5q-20 -113 -102.5 -181t-189.5 -68q-76 0 -134 42.5t-78 113.5l-61 -345h-36l123 700h36l-21 -118q40 61 103.5 95t139.5 34zM570 242q17 96 -39.5 165.5t-152.5 69.5q-91 0 -161.5 -56t-92.5 -145l-7 -35q-9 -94 49 -156t148 -62
q94 0 166.5 60.5t89.5 158.5z" />
    <glyph glyph-name="uni0441" unicode="&#x441;" horiz-adv-x="571" 
d="M263 -11q-111 0 -173 77.5t-42 189.5q20 110 106.5 182.5t198.5 72.5q72 0 125.5 -34t73.5 -91l-31 -16q-16 50 -61 78.5t-111 28.5q-97 0 -173 -65t-93 -161t35.5 -162t149.5 -66q65 0 121 29.5t89 79.5l28 -18q-38 -59 -102 -92t-141 -33z" />
    <glyph glyph-name="uni0442" unicode="&#x442;" horiz-adv-x="440" 
d="M467 500l-5 -33h-186l-82 -467h-36l82 467h-185l6 33h406z" />
    <glyph glyph-name="uni0443" unicode="&#x443;" horiz-adv-x="510" 
d="M498 500h39l-312 -546q-44 -76 -102 -117.5t-121 -36.5l6 33q50 -5 98 30t84 99l13 22l-142 516h35l130 -476z" />
    <glyph glyph-name="uni0444" unicode="&#x444;" horiz-adv-x="672" 
d="M400 512q117 -7 180 -83t44 -184t-106 -179.5t-210 -77.5l-33 -188h-36l33 188q-117 7 -180 83t-44 184t106.5 179.5t209.5 77.5l33 188h36zM83 250q-17 -95 37 -159t158 -70l80 458q-106 -6 -182 -70t-93 -159zM589 250q17 95 -37 159t-158 70l-80 -458q105 6 181.5 70
t93.5 159z" />
    <glyph glyph-name="uni0445" unicode="&#x445;" horiz-adv-x="503" 
d="M510 500l-236 -245l159 -255h-40l-143 230l-222 -230h-45l249 259l-150 241h39l135 -216l208 216h46z" />
    <glyph glyph-name="uni0446" unicode="&#x446;" horiz-adv-x="597" 
d="M442 33h80l-30 -167h-35l24 134h-442l88 500h36l-83 -467h326l83 467h35z" />
    <glyph glyph-name="uni0447" unicode="&#x447;" horiz-adv-x="543" 
d="M469 500h35l-88 -500h-35l35 200q-90 -33 -167 -33q-95 0 -139.5 47.5t-30.5 125.5l28 160h36l-28 -160q-12 -65 22 -103t111 -38q74 0 174 36z" />
    <glyph glyph-name="uni0448" unicode="&#x448;" horiz-adv-x="823" 
d="M749 500h35l-88 -500h-657l88 500h36l-82 -467h275l82 467h35l-82 -467h276z" />
    <glyph glyph-name="uni0449" unicode="&#x449;" horiz-adv-x="847" 
d="M702 33h70l-30 -167h-35l23 134h-691l88 500h36l-82 -467h275l82 467h35l-82 -467h276l82 467h35z" />
    <glyph glyph-name="uni044A" unicode="&#x44a;" horiz-adv-x="540" 
d="M349 302q66 0 107.5 -43.5t29.5 -110.5t-66 -107.5t-124 -40.5h-193l82 467h-147l6 33h182l-35 -198h158zM450 152q10 51 -21 84t-86 33h-158l-41 -236h157q55 0 97.5 33.5t51.5 85.5z" />
    <glyph glyph-name="uni044B" unicode="&#x44b;" horiz-adv-x="642" 
d="M286 302q66 0 107 -43.5t29 -110.5t-66 -107.5t-124 -40.5h-193l88 500h36l-35 -198h158zM567 500h36l-88 -500h-36zM387 152q10 51 -21.5 84t-86.5 33h-157l-41 -236h157q55 0 97.5 33.5t51.5 85.5z" />
    <glyph glyph-name="uni044C" unicode="&#x44c;" horiz-adv-x="477" 
d="M286 302q66 0 107 -43.5t29 -110.5t-66 -107.5t-124 -40.5h-193l88 500h36l-35 -198h158zM387 152q10 51 -21.5 84t-86.5 33h-157l-41 -236h157q55 0 97.5 33.5t51.5 85.5z" />
    <glyph glyph-name="uni044D" unicode="&#x44d;" horiz-adv-x="571" 
d="M308 511q112 0 173.5 -77.5t41.5 -189.5q-20 -110 -106.5 -182.5t-198.5 -72.5q-72 0 -125.5 34t-73.5 91l31 16q16 -50 61 -78.5t111 -28.5q93 0 166.5 59.5t96.5 150.5h-268l7 34h266q10 90 -41.5 150t-145.5 60q-65 0 -121 -29.5t-89 -79.5l-28 18q38 59 102 92
t141 33z" />
    <glyph glyph-name="uni044E" unicode="&#x44e;" horiz-adv-x="807" 
d="M544 511q107 0 171 -76t44 -189q-20 -114 -108 -185.5t-196 -71.5q-102 0 -165.5 69t-53.5 175h-120l-41 -233h-36l88 500h36l-41 -233h120q23 109 109.5 176.5t192.5 67.5zM724 251q18 98 -37 162t-148 64q-94 0 -171 -64t-95 -163t37 -163.5t148 -63.5q94 0 171 64.5
t95 163.5z" />
    <glyph glyph-name="uni044F" unicode="&#x44f;" horiz-adv-x="500" 
d="M461 500l-88 -500h-36l35 199h-130l-194 -199h-45l196 200q-60 6 -96.5 48t-24.5 104q12 67 66 107.5t124 40.5h193zM221 231h157l41 236h-157q-55 0 -97.5 -33.5t-51.5 -85.5q-10 -51 21 -84t87 -33z" />
    <glyph glyph-name="uni0451" unicode="&#x451;" horiz-adv-x="593" 
d="M274 578q-12 0 -19 8.5t-5 20.5q2 11 12 19.5t22 8.5t18.5 -8.5t4.5 -19.5q-2 -12 -11.5 -20.5t-21.5 -8.5zM444 578q-12 0 -19 8.5t-5 20.5q2 11 12 19.5t22 8.5t18.5 -8.5t4.5 -19.5q-2 -12 -11.5 -20.5t-21.5 -8.5zM344 511q112 0 167.5 -77.5t36.5 -184.5q0 -3 -2 -9
t-2 -9h-464q-10 -94 41 -151t145 -57q64 0 117 26t84 71l28 -18q-37 -53 -99 -83t-135 -30q-114 0 -174 76t-40 190q20 111 102.5 183.5t194.5 72.5zM85 264h430q12 98 -36.5 155.5t-136.5 57.5q-94 0 -165 -59t-92 -154z" />
    <glyph glyph-name="uni0452" unicode="&#x452;" horiz-adv-x="586" 
d="M367 511q87 0 131.5 -54.5t29.5 -142.5l-68 -387q-27 -153 -177 -138l6 34q114 -13 135 104l69 387q12 73 -22 118t-109 45q-83 0 -144.5 -56t-79.5 -155l-47 -266h-35l103 589h-76l5 29h77l14 82h35l-14 -82h168l-5 -29h-169l-34 -194q36 57 90.5 86.5t116.5 29.5z" />
    <glyph glyph-name="uni0453" unicode="&#x453;" horiz-adv-x="398" 
d="M379 693l-107 -123h-35l100 123h42zM434 500l-6 -33h-271l-82 -467h-36l88 500h307z" />
    <glyph glyph-name="uni0454" unicode="&#x454;" horiz-adv-x="571" 
d="M349 477q-93 0 -166.5 -59.5t-96.5 -150.5h268l-7 -34h-266q-10 -90 42 -150t145 -60q65 0 121 29.5t89 79.5l28 -18q-38 -59 -102 -92t-141 -33q-111 0 -173 77.5t-42 189.5q20 110 106.5 182.5t198.5 72.5q72 0 125.5 -34t73.5 -91l-31 -16q-16 50 -61 78.5t-111 28.5z
" />
    <glyph glyph-name="uni0455" unicode="&#x455;" horiz-adv-x="469" 
d="M204 -11q-140 0 -177 110l32 16q27 -92 148 -92q59 0 101.5 25.5t50.5 71.5q7 36 -12 60.5t-52.5 35.5t-72 24.5t-71 27t-51 43t-10.5 72.5q10 58 60 93t121 35q56 0 99 -26.5t61 -71.5l-31 -16q-13 38 -49 59t-82 21q-54 0 -94.5 -25.5t-49.5 -74.5q-7 -40 21.5 -64.5
t72.5 -37.5t88 -27.5t70.5 -47.5t17.5 -85q-11 -59 -63 -92.5t-128 -33.5z" />
    <glyph glyph-name="uni0456" unicode="&#x456;" horiz-adv-x="202" 
d="M169 636q-13 0 -20.5 9.5t-5.5 21.5q8 32 37 32q13 0 20.5 -9.5t5.5 -22.5t-12.5 -22t-24.5 -9zM39 0l88 500h36l-88 -500h-36z" />
    <glyph glyph-name="uni0457" unicode="&#x457;" horiz-adv-x="202" 
d="M74 578q-12 0 -19 8.5t-5 20.5q2 11 12 19.5t22 8.5t18.5 -8.5t4.5 -19.5q-2 -12 -11.5 -20.5t-21.5 -8.5zM244 578q-12 0 -19 8.5t-5 20.5q2 11 12 19.5t22 8.5t18.5 -8.5t4.5 -19.5q-2 -12 -11.5 -20.5t-21.5 -8.5zM39 0l88 500h36l-88 -500h-36z" />
    <glyph glyph-name="uni0458" unicode="&#x458;" horiz-adv-x="216" 
d="M194 699q13 0 20.5 -9.5t5.5 -22.5t-12.5 -22t-24.5 -9q-13 0 -20.5 9.5t-5.5 21.5q8 32 37 32zM40 -73l101 573h36l-101 -573q-28 -153 -177 -138l6 34q115 -13 135 104z" />
    <glyph glyph-name="uni0459" unicode="&#x459;" horiz-adv-x="818" 
d="M632 282q63 0 102 -39.5t27 -105.5t-62 -101.5t-117 -35.5h-185l82 467h-266l-46 -261q-21 -121 -70.5 -167t-123.5 -39l5 33q62 -6 99 35t55 138l51 294h338l-38 -218h149zM726 142q9 50 -19 78.5t-81 28.5h-149l-38 -216h149q52 0 90.5 29t47.5 80z" />
    <glyph glyph-name="uni045A" unicode="&#x45a;" horiz-adv-x="811" 
d="M625 282q63 0 102 -39.5t27 -105.5t-61.5 -101.5t-117.5 -35.5h-184l44 249h-316l-44 -249h-36l88 500h36l-38 -218h316l38 218h35l-38 -218h149zM719 142q9 50 -19 78.5t-81 28.5h-149l-38 -216h149q53 0 91 29t47 80z" />
    <glyph glyph-name="uni045B" unicode="&#x45b;" horiz-adv-x="586" 
d="M367 511q87 0 131.5 -54.5t29.5 -142.5l-55 -314h-36l56 314q12 73 -22 118t-109 45q-83 0 -144.5 -56t-79.5 -155l-47 -266h-35l103 589h-76l5 29h77l14 82h35l-14 -82h168l-5 -29h-169l-34 -194q36 57 90.5 86.5t116.5 29.5z" />
    <glyph glyph-name="uni045C" unicode="&#x45c;" horiz-adv-x="472" 
d="M399 693l-107 -123h-35l100 123h42zM483 500l-326 -241l244 -259h-44l-238 252l-44 -252h-36l88 500h36l-40 -229l308 229h52z" />
    <glyph glyph-name="uni045E" unicode="&#x45e;" horiz-adv-x="510" 
d="M431 624l-6 -30h-246l5 30h247zM498 500h39l-312 -546q-44 -76 -102 -117.5t-121 -36.5l6 33q50 -5 98 30t84 99l13 22l-142 516h35l130 -476z" />
    <glyph glyph-name="uni045F" unicode="&#x45f;" horiz-adv-x="573" 
d="M499 500h35l-88 -500h-186l-24 -134h-35l24 134h-186l88 500h36l-82 -467h336z" />
    <glyph glyph-name="uni0490" unicode="&#x490;" horiz-adv-x="497" 
d="M534 820h37l-28 -154h-340l-117 -666h-37l123 700h341z" />
    <glyph glyph-name="uni0491" unicode="&#x491;" horiz-adv-x="398" 
d="M417 604h35l-24 -137h-271l-82 -467h-36l88 500h272z" />
    <glyph glyph-name="Wgrave" unicode="&#x1e80;" horiz-adv-x="987" 
d="M615 770l-60 123h-40l68 -123h32zM196 0l-80 700h35l74 -653l324 653h43l95 -653l303 653h39l-326 -700h-44l-95 653l-324 -653h-44z" />
    <glyph glyph-name="wgrave" unicode="&#x1e81;" horiz-adv-x="770" 
d="M441 570h-32l-68 123h40zM739 500h38l-248 -500h-39l-70 452l-228 -452h-39l-72 500h34l64 -454l230 454h37l69 -455z" />
    <glyph glyph-name="Wacute" unicode="&#x1e82;" horiz-adv-x="987" 
d="M552 770h35l107 123h-42zM196 0l-80 700h35l74 -653l324 653h43l95 -653l303 653h39l-326 -700h-44l-95 653l-324 -653h-44z" />
    <glyph glyph-name="wacute" unicode="&#x1e83;" horiz-adv-x="770" 
d="M520 693l-107 -123h-35l100 123h42zM739 500h38l-248 -500h-39l-70 452l-228 -452h-39l-72 500h34l64 -454l230 454h37l69 -455z" />
    <glyph glyph-name="Wdieresis" unicode="&#x1e84;" horiz-adv-x="987" 
d="M501 778q-12 0 -19 8.5t-5 20.5q2 11 12 19.5t22 8.5t18.5 -8.5t4.5 -19.5q-2 -12 -11.5 -20.5t-21.5 -8.5zM671 778q-12 0 -19 8.5t-5 20.5q2 11 12 19.5t22 8.5t18.5 -8.5t4.5 -19.5q-2 -12 -11.5 -20.5t-21.5 -8.5zM196 0l-80 700h35l74 -653l324 653h43l95 -653
l303 653h39l-326 -700h-44l-95 653l-324 -653h-44z" />
    <glyph glyph-name="wdieresis" unicode="&#x1e85;" horiz-adv-x="770" 
d="M327 578q-12 0 -19 8.5t-5 20.5q2 11 12 19.5t22 8.5t18.5 -8.5t4.5 -19.5q-2 -12 -11.5 -20.5t-21.5 -8.5zM497 578q-12 0 -19 8.5t-5 20.5q2 11 12 19.5t22 8.5t18.5 -8.5t4.5 -19.5q-2 -12 -11.5 -20.5t-21.5 -8.5zM739 500h38l-248 -500h-39l-70 452l-228 -452h-39
l-72 500h34l64 -454l230 454h37l69 -455z" />
    <glyph glyph-name="Ygrave" unicode="&#x1ef2;" horiz-adv-x="565" 
d="M403 770h-32l-68 123h40zM627 700l-313 -372l-57 -328h-37l58 328l-182 372h38l166 -339l285 339h42z" />
    <glyph glyph-name="ygrave" unicode="&#x1ef3;" horiz-adv-x="510" 
d="M328 570h-32l-68 123h40zM498 500h39l-312 -546q-44 -76 -102 -117.5t-121 -36.5l6 33q50 -5 98 30t84 99l13 22l-142 516h35l130 -476z" />
    <glyph glyph-name="endash" unicode="&#x2013;" horiz-adv-x="681" 
d="M101 292l6 34h494l-6 -34h-494z" />
    <glyph glyph-name="emdash" unicode="&#x2014;" horiz-adv-x="781" 
d="M101 292l6 34h594l-6 -34h-594z" />
    <glyph glyph-name="quoteleft" unicode="&#x2018;" horiz-adv-x="207" 
d="M109 508l81 192h33l-70 -192h-44z" />
    <glyph glyph-name="quoteright" unicode="&#x2019;" horiz-adv-x="207" 
d="M222 700l-81 -192h-33l70 192h44z" />
    <glyph glyph-name="quotesinglbase" unicode="&#x201a;" horiz-adv-x="207" 
d="M108 52l-81 -192h-33l70 192h44z" />
    <glyph glyph-name="quotedblleft" unicode="&#x201c;" horiz-adv-x="320" 
d="M109 508l81 192h33l-70 -192h-44zM222 508l81 192h33l-70 -192h-44z" />
    <glyph glyph-name="quotedblright" unicode="&#x201d;" horiz-adv-x="320" 
d="M222 700l-81 -192h-33l70 192h44zM335 700l-81 -192h-33l70 192h44z" />
    <glyph glyph-name="quotedblbase" unicode="&#x201e;" horiz-adv-x="320" 
d="M108 52l-81 -192h-33l70 192h44zM221 52l-81 -192h-33l70 192h44z" />
    <glyph glyph-name="dagger" unicode="&#x2020;" horiz-adv-x="467" 
d="M447 520l-5 -34h-150l-85 -486h-35l85 486h-149l6 34h149l32 180h35l-32 -180h149z" />
    <glyph glyph-name="daggerdbl" unicode="&#x2021;" horiz-adv-x="467" 
d="M442 486h-150l-47 -272h148l-5 -34h-149l-32 -180h-35l32 180h-150l6 34h150l47 272h-149l6 34h149l32 180h35l-32 -180h149z" />
    <glyph glyph-name="bullet" unicode="&#x2022;" horiz-adv-x="261" 
d="M136 277q-31 0 -48.5 22.5t-12.5 54.5q5 30 29.5 49.5t56.5 19.5q31 0 48 -22t12 -53t-29.5 -51t-55.5 -20z" />
    <glyph glyph-name="ellipsis" unicode="&#x2026;" horiz-adv-x="577" 
d="M52 -10q-14 0 -22.5 10.5t-5.5 25.5q7 34 41 34q14 0 22.5 -10.5t5.5 -25.5q-7 -34 -41 -34zM242 -10q-14 0 -22.5 10.5t-5.5 25.5q7 34 41 34q14 0 22.5 -10.5t5.5 -25.5q-7 -34 -41 -34zM432 -10q-14 0 -22.5 10.5t-5.5 25.5q7 34 41 34q14 0 22.5 -10.5t5.5 -25.5
q-7 -34 -41 -34z" />
    <glyph glyph-name="perthousand" unicode="&#x2030;" horiz-adv-x="1088" 
d="M250 413q-65 0 -102 44.5t-26 107.5t61.5 104.5t117.5 41.5q64 0 101 -44.5t26 -107.5t-61 -104.5t-117 -41.5zM254 445q52 0 91.5 33.5t47.5 83.5q9 50 -18.5 83.5t-78.5 33.5t-91 -33.5t-48 -83.5q-9 -50 18.5 -83.5t78.5 -33.5zM77 85l575 543l26 -15l-575 -543z
M458 -11q-65 0 -102 44.5t-26 107.5t61.5 104.5t117.5 41.5q64 0 101 -44.5t26 -107.5t-61 -104.5t-117 -41.5zM823 -11q-65 0 -102 44.5t-26 107.5t61.5 104.5t117.5 41.5q64 0 101 -44.5t26 -107.5t-61 -104.5t-117 -41.5zM462 21q52 0 91.5 33.5t47.5 83.5
q9 50 -18.5 83.5t-78.5 33.5t-91 -33.5t-48 -83.5q-9 -50 18.5 -83.5t78.5 -33.5zM827 21q52 0 91.5 33.5t47.5 83.5q9 50 -18.5 83.5t-78.5 33.5t-91 -33.5t-48 -83.5q-9 -50 18.5 -83.5t78.5 -33.5z" />
    <glyph glyph-name="guilsinglleft" unicode="&#x2039;" horiz-adv-x="328" 
d="M278 476l-135 -170l73 -164h-42l-74 167l133 167h45z" />
    <glyph glyph-name="guilsinglright" unicode="&#x203a;" horiz-adv-x="329" 
d="M175 476l74 -167l-133 -167h-45l135 170l-73 164h42z" />
    <glyph glyph-name="fraction" unicode="&#x2044;" horiz-adv-x="233" 
d="M-114 0h-37l533 700h37z" />
    <glyph glyph-name="Euro" unicode="&#x20ac;" horiz-adv-x="612" 
d="M448 711q69 0 116.5 -35.5t67.5 -98.5l-33 -17q-33 116 -155 116q-88 0 -156.5 -64t-103.5 -179h281l-5 -32h-285q-7 -30 -11 -51q-3 -17 -7 -49h285l-5 -31h-282q-6 -116 39.5 -181t133.5 -65q126 0 197 118l30 -18q-84 -135 -233 -135q-103 0 -156.5 76t-47.5 205h-88
l6 31h84q1 15 7 52q6 32 10 48h-84l6 32h87q39 130 117.5 204t184.5 74z" />
    <glyph glyph-name="uni20BD" unicode="&#x20bd;" horiz-adv-x="564" 
d="M406 700q81 0 131.5 -62t35.5 -146t-83.5 -141.5t-155.5 -57.5h-194l-19 -112h273l-5 -32h-274l-26 -149h-36l26 149h-90l5 32h91l19 112h-90l6 34h90l66 373h230zM537 497q13 70 -27.5 119.5t-109.5 49.5h-194l-60 -339h194q70 0 127.5 50t69.5 120z" />
    <glyph glyph-name="uni2116" unicode="&#x2116;" horiz-adv-x="1023" 
d="M860 424q-60 0 -95.5 43t-25.5 103q11 60 59.5 100.5t112.5 40.5q62 0 97 -43t24 -103q-11 -61 -58 -101t-114 -40zM49 0l123 700h32l327 -634l111 634h37l-123 -700h-31l-327 634l-112 -634h-37zM866 456q49 0 86 32t45 80q8 47 -18 79t-74 32q-47 0 -85 -32t-46 -79
q-8 -48 18 -80t74 -32zM703 302l6 33h272l-7 -33h-271z" />
    <glyph glyph-name="trademark" unicode="&#x2122;" horiz-adv-x="492" 
d="M281 675h-60l-31 -175h-26l31 175h-60l4 25h147zM511 700l-35 -200h-27l27 153l-89 -111h-4l-49 113l-27 -155h-26l35 200h26l49 -115l90 115h30z" />
    <glyph glyph-name="estimated" unicode="&#x212e;" horiz-adv-x="847" 
d="M504 710q161 0 247.5 -104.5t59.5 -255.5q-3 -15 -18 -15h-560q-15 0 -18 -15l-33 -192q-3 -11 3 -19q69 -89 218 -89q143 0 250 97q9 9 19 9h35q10 0 12 -6t-6 -13q-130 -117 -316 -117q-173 0 -262.5 108t-62.5 262q27 152 146.5 251t285.5 99zM701 574q1 11 -4 19
q-67 87 -198 87q-129 0 -229 -89q-9 -9 -10 -19l-34 -192q-3 -15 12 -15h410q15 0 18 15z" />
    <glyph glyph-name="oneeighth" unicode="&#x215b;" horiz-adv-x="828" 
d="M144 300l63 358l-115 -38l-5 31l138 49h24l-71 -400h-34zM628 700h37l-533 -700h-37zM789 299q-10 -62 -80 -90q32 -15 48 -43.5t9 -65.5q-9 -52 -52 -82t-105 -30q-61 0 -96 32.5t-25 84.5q7 38 32.5 65.5t64.5 40.5q-59 30 -49 93q9 51 50 79.5t95 28.5q52 0 84.5 -31
t23.5 -82zM755 301q7 37 -15.5 58.5t-62.5 21.5q-41 0 -70.5 -21.5t-36.5 -58.5q-6 -34 17 -55t62 -21t69.5 21t36.5 55zM733 105q7 41 -18 64.5t-71 23.5q-48 0 -81 -23.5t-40 -64.5q-7 -39 17.5 -62t72.5 -23q47 0 80 23t40 62z" />
    <glyph glyph-name="threeeighths" unicode="&#x215c;" horiz-adv-x="928" 
d="M332 410q-9 -54 -51 -88t-107 -34q-96 0 -121 77l30 16q17 -61 95 -61q50 0 82 26.5t39 67.5q6 40 -16 66.5t-72 26.5h-3l-12 25l124 136h-203l5 32h245l-5 -32l-123 -134q51 -7 76 -41.5t17 -82.5zM728 700h37l-533 -700h-37zM889 299q-10 -62 -80 -90q32 -15 48 -43.5
t9 -65.5q-9 -52 -52 -82t-105 -30q-61 0 -96 32.5t-25 84.5q7 38 32.5 65.5t64.5 40.5q-59 30 -49 93q9 51 50 79.5t95 28.5q52 0 84.5 -31t23.5 -82zM855 301q7 37 -15.5 58.5t-62.5 21.5q-41 0 -70.5 -21.5t-36.5 -58.5q-6 -34 17 -55t62 -21t69.5 21t36.5 55zM833 105
q7 41 -18 64.5t-71 23.5q-48 0 -81 -23.5t-40 -64.5q-7 -39 17.5 -62t72.5 -23q47 0 80 23t40 62z" />
    <glyph glyph-name="fiveeighths" unicode="&#x215d;" horiz-adv-x="921" 
d="M329 410q-10 -55 -52.5 -88.5t-104.5 -33.5q-93 0 -119 76l30 15q16 -59 93 -59q47 0 79.5 25.5t40.5 68.5q7 43 -16.5 69t-70.5 26h-114l49 191h219l-5 -31h-189l-33 -128h79q59 0 91.5 -37.5t22.5 -93.5zM721 700h37l-533 -700h-37zM882 299q-10 -62 -80 -90
q32 -15 48 -43.5t9 -65.5q-9 -52 -52 -82t-105 -30q-61 0 -96 32.5t-25 84.5q7 38 32.5 65.5t64.5 40.5q-59 30 -49 93q9 51 50 79.5t95 28.5q52 0 84.5 -31t23.5 -82zM848 301q7 37 -15.5 58.5t-62.5 21.5q-41 0 -70.5 -21.5t-36.5 -58.5q-6 -34 17 -55t62 -21t69.5 21
t36.5 55zM826 105q7 41 -18 64.5t-71 23.5q-48 0 -81 -23.5t-40 -64.5q-7 -39 17.5 -62t72.5 -23q47 0 80 23t40 62z" />
    <glyph glyph-name="seveneighths" unicode="&#x215e;" horiz-adv-x="905" 
d="M368 700l-4 -27l-226 -373h-38l223 368h-226l5 32h266zM705 700h37l-533 -700h-37zM866 299q-10 -62 -80 -90q32 -15 48 -43.5t9 -65.5q-9 -52 -52 -82t-105 -30q-61 0 -96 32.5t-25 84.5q7 38 32.5 65.5t64.5 40.5q-59 30 -49 93q9 51 50 79.5t95 28.5q52 0 84.5 -31
t23.5 -82zM832 301q7 37 -15.5 58.5t-62.5 21.5q-41 0 -70.5 -21.5t-36.5 -58.5q-6 -34 17 -55t62 -21t69.5 21t36.5 55zM810 105q7 41 -18 64.5t-71 23.5q-48 0 -81 -23.5t-40 -64.5q-7 -39 17.5 -62t72.5 -23q47 0 80 23t40 62z" />
    <glyph glyph-name="arrowleft" unicode="&#x2190;" horiz-adv-x="833" 
d="M787 367l-6 -34h-637l233 -283h-45l-247 300l353 300h49l-333 -283h633z" />
    <glyph glyph-name="arrowup" unicode="&#x2191;" horiz-adv-x="733" 
d="M693 400l-8 -46l-232 283l-113 -637h-35l111 631l-332 -282l9 51l353 300z" />
    <glyph glyph-name="arrowright" unicode="&#x2192;" horiz-adv-x="833" 
d="M538 650l247 -300l-352 -300h-50l331 283h-633l6 34h638l-232 283h45z" />
    <glyph glyph-name="arrowdown" unicode="&#x2193;" horiz-adv-x="733" 
d="M353 68l331 282l-9 -50l-352 -300l-247 300l7 44l233 -282l112 638h35z" />
    <glyph glyph-name="arrowboth" unicode="&#x2194;" horiz-adv-x="1027" 
d="M778 593l200 -243l-286 -243h-51l266 226h-764l186 -226h-45l-199 243l285 243h51l-266 -226h764l-186 226h45z" />
    <glyph glyph-name="arrowupdn" unicode="&#x2195;" horiz-adv-x="633" 
d="M605 508l-185 225l-136 -763l266 227l-9 -51l-286 -243l-199 243l7 46l184 -224l137 762l-265 -227l9 51l284 243l201 -243z" />
    <glyph glyph-name="uni2196" unicode="&#x2196;" horiz-adv-x="641" 
d="M578 553h-402l372 -450l-28 -23l-370 451l-71 -402l-27 34l75 424h424z" />
    <glyph glyph-name="uni2197" unicode="&#x2197;" horiz-adv-x="641" 
d="M210 587h423l-75 -424l-40 -34l69 397l-524 -447l-22 27l526 447h-397z" />
    <glyph glyph-name="uni2198" unicode="&#x2198;" horiz-adv-x="641" 
d="M593 547l27 -34l-74 -424h-424l-28 34h400l-370 450l27 23l371 -451z" />
    <glyph glyph-name="uni2199" unicode="&#x2199;" horiz-adv-x="641" 
d="M630 569l-526 -446h398l-39 -34h-424l74 424l40 34l-70 -398l525 447z" />
    <glyph glyph-name="partialdiff" unicode="&#x2202;" horiz-adv-x="579" 
d="M316 711q116 0 179.5 -102t34.5 -264q-31 -171 -116.5 -263.5t-198.5 -92.5q-91 0 -136.5 61.5t-29.5 152.5q18 103 89 165t175 62q110 0 185 -59q19 132 -31.5 219t-156.5 87q-71 0 -129 -34l6 36q60 32 129 32zM220 23q96 0 169 83t102 228q-74 63 -183 63
q-86 0 -147.5 -53t-77.5 -144q-14 -78 23 -127.5t114 -49.5z" />
    <glyph glyph-name="emptyset" unicode="&#x2205;" horiz-adv-x="832" 
d="M825 720l-104 -104q48 -51 68 -121.5t6 -149.5q-27 -150 -149.5 -253t-274.5 -103q-120 0 -205 74l-83 -83h-42l104 104q-48 51 -67.5 121.5t-5.5 149.5q26 150 148.5 253t275.5 103q119 0 204 -74l83 83h42zM105 350q-26 -146 63 -243l509 507q-76 65 -186 65
q-137 0 -249.5 -96t-136.5 -233zM762 350q25 145 -64 243l-509 -507q76 -65 186 -65q137 0 249.5 96t137.5 233z" />
    <glyph glyph-name="product" unicode="&#x220f;" horiz-adv-x="640" 
d="M14 -200l158 900h454l-158 -900h-36l153 867h-383l-152 -867h-36z" />
    <glyph glyph-name="summation" unicode="&#x2211;" horiz-adv-x="541" 
d="M-16 -200l6 35l341 429l-181 405l6 31h413l-6 -33h-376l184 -409l-339 -425h399l-5 -33h-442z" />
    <glyph glyph-name="minus" unicode="&#x2212;" horiz-adv-x="540" 
d="M81 333l6 34h407l-6 -34h-407z" />
    <glyph glyph-name="radical" unicode="&#x221a;" horiz-adv-x="634" 
d="M260 0l-110 267h-80l6 33h96l108 -260l385 760h39l-406 -800h-38z" />
    <glyph glyph-name="infinity" unicode="&#x221e;" horiz-adv-x="813" 
d="M640 503q63 0 100 -44.5t25 -111.5q-12 -68 -61 -109t-115 -41q-31 0 -58 11t-47.5 32t-34 39t-28.5 44q-34 -37 -59 -59.5t-68 -44.5t-86 -22q-64 0 -100.5 44.5t-24.5 111.5q12 68 61 109t115 41q41 0 76.5 -22t53.5 -45t40 -59q33 37 58 59.5t67.5 44.5t85.5 22z
M212 229q36 0 74 21t61 42.5t58 58.5q-15 26 -27 43t-30.5 37t-42 30t-50.5 10q-51 0 -89 -33.5t-48 -87.5q-10 -53 16.5 -87t77.5 -34zM730 350q10 53 -16 87t-78 34q-36 0 -73.5 -20.5t-61.5 -43t-56 -58.5q14 -26 26 -43t30 -37t41.5 -30t50.5 -10q51 0 89 33.5t48 87.5z
" />
    <glyph glyph-name="integral" unicode="&#x222b;" horiz-adv-x="434" 
d="M-80 -203l7 34q47 -22 88.5 2.5t61.5 84.5l231 667q28 80 82.5 110t123.5 8l-6 -34q-56 21 -99.5 -2.5t-63.5 -84.5l-231 -667q-27 -79 -80 -109.5t-114 -8.5z" />
    <glyph glyph-name="approxequal" unicode="&#x2248;" horiz-adv-x="579" 
d="M312 415q-39 31 -73 37.5t-57 -8t-36.5 -31.5t-24.5 -40l-30 14q12 28 31.5 51t49 40.5t71.5 10t88 -43.5q125 -98 191 42l30 -14q-12 -28 -31.5 -51t-48.5 -40t-71 -10t-89 43zM93 213l-31 14q12 28 32 51t49.5 40.5t71.5 10t88 -43.5q125 -98 191 42l30 -14
q-12 -28 -31 -51t-48.5 -40t-71.5 -10t-89 43q-40 31 -74 37.5t-56.5 -8t-36.5 -31.5t-24 -40z" />
    <glyph glyph-name="notequal" unicode="&#x2260;" horiz-adv-x="533" 
d="M499 433h-143l-104 -166h218l-7 -34h-233l-101 -160h-32l101 160h-135l7 34h150l104 166h-225l6 34h241l101 160h32l-101 -160h127z" />
    <glyph glyph-name="lessequal" unicode="&#x2264;" horiz-adv-x="533" 
d="M525 587l-6 -40l-382 -140l332 -140l-6 -36l-371 161l6 34zM43 113l5 34h400l-6 -34h-399z" />
    <glyph glyph-name="greaterequal" unicode="&#x2265;" horiz-adv-x="533" 
d="M126 587l371 -161l-6 -34l-427 -161l6 40l382 140l-332 140zM43 113l5 34h400l-6 -34h-399z" />
    <glyph glyph-name="lozenge" unicode="&#x25ca;" horiz-adv-x="536" 
d="M206 0l-125 350l248 350h36l126 -350l-249 -350h-36zM228 39l225 316l-110 306l-224 -316z" />
    <glyph glyph-name="i.loclTRK" horiz-adv-x="202" 
d="M159 577q-17 0 -26 11t-6 27t15.5 27t29.5 11q16 0 25 -11t7 -27q-3 -16 -16 -27t-29 -11zM39 0l88 500h36l-88 -500h-36z" />
    <glyph glyph-name="f_f_j" horiz-adv-x="774" 
d="M653 687q-81 0 -123.5 -34.5t-56.5 -109.5l-8 -43h270l-101 -573q-13 -72 -58.5 -108.5t-118.5 -29.5l6 34q115 -13 135 104l95 540h-233l-83 -467h-35l83 467h-235l-82 -467h-35l82 467h-88l5 33h89l6 33q16 92 71.5 138.5t148.5 39.5l-6 -34q-150 13 -179 -144l-6 -33
h234l8 43q29 178 220 178q50 0 97 -11l-5 -32q-45 9 -97 9z" />
    <glyph glyph-name="f_j" horiz-adv-x="505" 
d="M381 677q-80 0 -122.5 -34.5t-56.5 -109.5l-6 -33h269l-101 -573q-12 -72 -57.5 -108.5t-118.5 -29.5l5 34q116 -13 136 104l95 540h-234l-82 -467h-35l82 467h-88l5 33h89l6 33q31 178 220 178q50 0 97 -11l-6 -32q-45 9 -97 9z" />
    <glyph glyph-name="uni0414.loclBGR" horiz-adv-x="707" 
d="M640 34l-6 -34l-24 -134h-36l24 134h-577l-24 -134h-37l30 168h63l359 666h41l124 -666h63zM93 34h448l-114 623z" />
    <glyph glyph-name="uni041B.loclBGR" horiz-adv-x="601" 
d="M-27 0l387 700h40l141 -700h-37l-129 656l-362 -656h-40z" />
    <glyph glyph-name="uni0424.loclBGR" horiz-adv-x="859" 
d="M528 711q155 -6 238.5 -107t55.5 -259q-28 -159 -143.5 -255t-277.5 -101l-16 -89h-36l16 89q-155 6 -238 107t-55 259q28 159 143.5 255t276.5 101l16 89h36zM108 350q-25 -141 46.5 -231t216.5 -96l115 654q-149 -6 -251 -95.5t-127 -231.5zM786 350q25 141 -47 231
t-217 96l-115 -654q149 6 251 95.5t128 231.5z" />
    <glyph glyph-name="uni0414.ss01" horiz-adv-x="690" 
d="M656 700l-117 -666h71l-6 -34h-626l6 34h54q89 83 119 253l72 413h427zM193 286q-28 -163 -108 -252h417l111 632h-353z" />
    <glyph glyph-name="uni0426.ss01" horiz-adv-x="690" 
d="M542 34h72l-6 -34h-559l123 700h37l-117 -666h413l117 666h37z" />
    <glyph glyph-name="uni0429.ss01" horiz-adv-x="980" 
d="M832 34h72l-6 -34h-849l123 700h37l-117 -666h333l117 666h37l-117 -666h333l117 666h37z" />
    <glyph glyph-name="uni0414.loclBGR.ss01" horiz-adv-x="707" 
d="M577 34h63l-6 -34h-650l6 34h63l359 666h41zM93 34h448l-114 623z" />
    <glyph glyph-name="uni0432.loclBGR" horiz-adv-x="578" 
d="M401 400q70 -17 102 -71.5t18 -134.5q-17 -99 -84 -152t-173 -53q-102 0 -152.5 65.5t-30.5 177.5l44 251q19 110 80.5 169t158.5 59q78 0 121.5 -48t32.5 -113q-16 -90 -117 -150zM358 677q-78 0 -130 -50.5t-68 -143.5l-19 -107l131 25q39 8 83 6q54 28 87 67.5
t40 79.5q9 50 -25 86.5t-99 36.5zM486 199q18 97 -40 144t-179 25l-131 -25l-20 -113q-17 -99 23.5 -153t129.5 -54q88 0 145.5 46t71.5 130z" />
    <glyph glyph-name="uni0433.loclBGR" horiz-adv-x="462" 
d="M186 -11q-79 0 -122.5 42.5t-32.5 102.5q9 51 45.5 80t84 40t94 20t82 31.5t42.5 62.5q8 48 -24.5 78.5t-86.5 30.5q-52 0 -92.5 -23.5t-61.5 -63.5l-28 18q25 46 73.5 74.5t112.5 28.5q70 0 111 -43t31 -102q-8 -49 -44.5 -77.5t-83.5 -39.5t-94 -20.5t-82.5 -32
t-42.5 -63.5q-10 -49 26 -79.5t96 -30.5q61 0 106 26t68 71l28 -17q-60 -114 -205 -114z" />
    <glyph glyph-name="uni0434.loclBGR" horiz-adv-x="661" 
d="M586 500h35l-83 -473q-19 -111 -96 -174.5t-191 -63.5q-84 0 -140 33.5t-76 86.5l31 16q15 -44 62.5 -73t124.5 -29q101 0 167 54t83 150l16 93q-39 -61 -102 -96t-136 -35q-113 0 -178 80t-48 193q18 109 101.5 179t187.5 70q79 0 137.5 -42.5t78.5 -114.5zM286 23
q92 0 165 61.5t89 156.5q18 101 -40.5 168.5t-154.5 67.5q-92 0 -165.5 -61.5t-88.5 -157.5q-17 -98 40 -166.5t155 -68.5z" />
    <glyph glyph-name="uni0436.loclBGR" horiz-adv-x="651" 
d="M-17 0l295 263l-195 237h40l189 -229l76 429h36l-77 -431l268 231h46l-282 -243l201 -257h-39l-197 250l-44 -250h-35l43 250l-281 -250h-44z" />
    <glyph glyph-name="uni0438.loclBGR" horiz-adv-x="569" 
d="M494 500h36l-88 -500h-36l18 103q-36 -57 -90 -85.5t-115 -28.5q-87 0 -132 54.5t-29 142.5l55 314h35l-55 -314q-12 -73 22 -118t109 -45q77 0 137 50t82 138z" />
    <glyph glyph-name="uni0439.loclBGR" horiz-adv-x="569" 
d="M468 624l-6 -30h-246l5 30h247zM494 500h36l-88 -500h-36l18 103q-36 -57 -90 -85.5t-115 -28.5q-87 0 -132 54.5t-29 142.5l55 314h35l-55 -314q-12 -73 22 -118t109 -45q77 0 137 50t82 138z" />
    <glyph glyph-name="uni043A.loclBGR" horiz-adv-x="472" 
d="M483 500l-326 -241l244 -259h-44l-238 252l-44 -252h-36l123 700h36l-75 -429l308 229h52z" />
    <glyph glyph-name="uni043B.loclBGR" horiz-adv-x="485" 
d="M424 0h-35l-107 463l-270 -463h-39l293 500h41z" />
    <glyph glyph-name="uni043F.loclBGR" horiz-adv-x="569" 
d="M350 511q87 0 132 -54.5t29 -142.5l-55 -314h-35l55 314q12 73 -22 118t-109 45q-77 0 -137 -50t-82 -138l-51 -289h-36l88 500h36l-18 -103q36 57 90 85.5t115 28.5z" />
    <glyph glyph-name="uni0442.loclBGR" horiz-adv-x="866" 
d="M665 511q75 0 117.5 -49.5t26.5 -139.5l-56 -322h-36l57 322q12 75 -19.5 115t-95.5 40q-72 0 -125.5 -50.5t-70.5 -145.5l-49 -281h-36l57 322q12 75 -18 115t-93 40q-68 0 -121.5 -44.5t-74.5 -128.5l-53 -304h-36l88 500h36l-16 -93q67 104 184 104q56 0 94.5 -29.5
t46.5 -85.5q34 58 85.5 86.5t107.5 28.5z" />
    <glyph glyph-name="uni0446.loclBGR" horiz-adv-x="595" 
d="M456 80q-8 -47 37 -47h27l-31 -174h-35l25 141q-32 2 -48.5 24t-9.5 56l4 23q-73 -114 -206 -114q-87 0 -131.5 54.5t-29.5 142.5l55 314h36l-56 -314q-12 -73 22 -118t109 -45q83 0 144.5 56t79.5 155l47 266h35z" />
    <glyph glyph-name="uni0448.loclBGR" horiz-adv-x="866" 
d="M791 500h36l-88 -500h-36l16 93q-67 -104 -184 -104q-56 0 -94.5 29.5t-46.5 85.5q-34 -58 -85.5 -86.5t-107.5 -28.5q-75 0 -117.5 49.5t-26.5 139.5l56 322h36l-57 -322q-12 -75 19.5 -115t95.5 -40q72 0 125.5 50.5t70.5 145.5l49 281h36l-57 -322q-12 -75 18 -115
t93 -40q68 0 121.5 44.5t74.5 128.5z" />
    <glyph glyph-name="uni0449.loclBGR" horiz-adv-x="891" 
d="M753 80q-4 -22 6 -34.5t31 -12.5h26l-29 -167h-36l25 134q-32 2 -48.5 24t-10.5 56l2 9q-69 -100 -184 -100q-56 0 -94.5 29.5t-46.5 85.5q-34 -58 -85.5 -86.5t-107.5 -28.5q-75 0 -117.5 49.5t-26.5 139.5l56 322h36l-57 -322q-12 -75 19.5 -115t95.5 -40
q72 0 125.5 50.5t70.5 145.5l49 281h36l-57 -322q-12 -75 18 -115t93 -40q68 0 121 44t74 128l54 305h36z" />
    <glyph glyph-name="uni044C.loclBGR" horiz-adv-x="483" 
d="M271 326q83 0 127.5 -49t31.5 -125q-13 -73 -69.5 -118t-140.5 -45q-90 0 -134.5 50t-31.5 124l59 337h36l-31 -174h153zM394 158q11 60 -24.5 97.5t-104.5 37.5h-153l-23 -130q-11 -63 24 -101.5t110 -38.5q68 0 114.5 38t56.5 97z" />
    <glyph glyph-name="uni044A.loclBGR" horiz-adv-x="567" 
d="M355 326q83 0 127.5 -49.5t31.5 -124.5q-13 -73 -69.5 -118t-140.5 -45q-90 0 -134.5 50t-31.5 124l53 304h-153l6 33h189l-31 -174h153zM478 158q11 60 -24.5 97.5t-104.5 37.5h-153l-23 -130q-11 -63 24 -101.5t110 -38.5q68 0 114.5 38t56.5 97z" />
    <glyph glyph-name="uni044E.loclBGR" horiz-adv-x="807" 
d="M544 511q107 0 171 -76t44 -189q-20 -114 -108 -185.5t-196 -71.5q-102 0 -165.5 69t-53.5 175h-120l-41 -233h-36l123 700h36l-76 -433h120q23 109 109.5 176.5t192.5 67.5zM724 251q18 98 -37 162t-148 64q-94 0 -171 -64t-95 -163t37 -163.5t148 -63.5q94 0 171 64.5
t95 163.5z" />
    <glyph glyph-name="zero.sinf" horiz-adv-x="411" 
d="M133 -172q-76 0 -113 59.5t-20 154.5q17 96 71.5 153t132.5 57q76 0 113 -59.5t20 -154.5q-17 -96 -71.5 -153t-132.5 -57zM137 -140q62 0 106.5 48t59.5 132t-13 132t-90 48t-106.5 -48t-59.5 -132t12.5 -132t90.5 -48z" />
    <glyph glyph-name="one.sinf" horiz-adv-x="237" 
d="M144 240h24l-71 -400h-34l63 358l-115 -38l-5 31z" />
    <glyph glyph-name="two.sinf" horiz-adv-x="344" 
d="M-35 -160l4 27l212 173q58 48 65 96q6 35 -15.5 59.5t-63.5 24.5q-36 0 -66 -19.5t-47 -51.5l-28 16q20 39 59 63t86 24q56 0 85.5 -34t22.5 -84q-8 -60 -77 -117l-178 -145h217l-6 -32h-270z" />
    <glyph glyph-name="three.sinf" horiz-adv-x="341" 
d="M285 240l-5 -32l-123 -134q51 -7 76 -41.5t17 -82.5q-9 -54 -51 -88t-107 -34q-96 0 -121 77l30 16q17 -61 95 -61q50 0 82 26.5t39 67.5q6 40 -16 66.5t-72 26.5h-3l-12 25l124 136h-203l5 32h245z" />
    <glyph glyph-name="four.sinf" horiz-adv-x="357" 
d="M279 -44l-5 -31h-59l-15 -85h-34l15 85h-220l6 31l202 284h37l-201 -284h181l20 113h34l-20 -113h59z" />
    <glyph glyph-name="five.sinf" horiz-adv-x="323" 
d="M276 209h-189l-33 -128h79q59 0 91.5 -37.5t22.5 -93.5q-10 -55 -52.5 -88.5t-104.5 -33.5q-93 0 -119 76l30 15q16 -59 93 -59q47 0 79.5 25.5t40.5 68.5q7 43 -16.5 69t-70.5 26h-114l49 191h219z" />
    <glyph glyph-name="six.sinf" horiz-adv-x="337" 
d="M140 94q59 0 94 -39t25 -97t-56.5 -94t-107.5 -36q-59 0 -94 39.5t-25 97.5q7 37 33 70l171 205h43l-128 -152q23 6 45 6zM225 -39q7 45 -18 73t-72 28t-82.5 -28t-42.5 -73q-8 -45 17.5 -73t71.5 -28q48 0 83.5 28t42.5 73z" />
    <glyph glyph-name="seven.sinf" horiz-adv-x="323" 
d="M21 240h266l-4 -27l-226 -373h-38l223 368h-226z" />
    <glyph glyph-name="eight.sinf" horiz-adv-x="349" 
d="M282 139q-10 -62 -80 -90q32 -15 48 -43.5t9 -65.5q-9 -52 -52 -82t-105 -30q-61 0 -96 32.5t-25 84.5q7 38 32.5 65.5t64.5 40.5q-59 30 -49 93q9 51 50 79.5t95 28.5q52 0 84.5 -31t23.5 -82zM248 141q7 37 -15.5 58.5t-62.5 21.5q-41 0 -70.5 -21.5t-36.5 -58.5
q-6 -34 17 -55t62 -21t69.5 21t36.5 55zM226 -55q7 41 -18 64.5t-71 23.5q-48 0 -81 -23.5t-40 -64.5q-7 -39 17.5 -62t72.5 -23q47 0 80 23t40 62z" />
    <glyph glyph-name="nine.sinf" horiz-adv-x="337" 
d="M168 252q59 0 94 -39.5t25 -97.5q-7 -43 -38 -75l-166 -200h-42l129 152q-22 -6 -47 -6q-58 0 -93.5 39.5t-25.5 96.5q10 58 56.5 94t107.5 36zM253 119q8 45 -17.5 73t-71.5 28q-48 0 -83.5 -28t-42.5 -73t18 -73t72 -28t82.5 28t42.5 73z" />
    <glyph glyph-name="zero.tf" 
d="M240 -11q-120 0 -172 100t-23 264q29 165 113.5 261.5t206.5 96.5q120 0 172 -100t23 -264q-29 -165 -113 -261.5t-207 -96.5zM245 24q103 0 177 86.5t102 239.5q26 153 -17.5 239.5t-146.5 86.5t-177.5 -87t-100.5 -239q-28 -152 16 -239t147 -87z" />
    <glyph glyph-name="one.tf" 
d="M287 35h218l-6 -35h-500l7 35h245l110 624l-176 -54l-4 32l193 63h30z" />
    <glyph glyph-name="two.tf" 
d="M11 0l6 33l325 249q77 58 122 109.5t54 105.5q14 81 -28.5 130t-129.5 49q-65 0 -119 -33t-89 -90l-30 18q39 65 104 102.5t140 37.5q97 0 151.5 -59t37.5 -156q-20 -113 -188 -239l-294 -222h419l-6 -35h-475z" />
    <glyph glyph-name="three.tf" 
d="M567 700l-5 -34l-232 -256q98 -7 150 -64.5t36 -147.5q-17 -97 -94 -153t-189 -56q-83 0 -139.5 36t-73.5 99l33 17q13 -54 61 -85.5t123 -31.5q98 0 163.5 49t79.5 128t-34 128t-147 49h-10l-12 23l240 265h-385l5 34h430z" />
    <glyph glyph-name="four.tf" 
d="M525 187l-5 -34h-92l-27 -153h-37l27 153h-381l5 34l361 513h42l-361 -513h340l39 220h37l-39 -220h91z" />
    <glyph glyph-name="five.tf" 
d="M572 666h-359l-62 -253h163q102 0 161 -60t43 -156q-17 -96 -93 -152t-184 -56q-82 0 -138.5 36.5t-72.5 100.5l33 17q12 -54 60 -86.5t122 -32.5q94 0 158 49t78 128t-32.5 128t-140.5 49h-201l79 322h391z" />
    <glyph glyph-name="six.tf" 
d="M315 450q110 0 168.5 -66t40.5 -169q-19 -102 -97 -164t-191 -62q-109 0 -167.5 66t-39.5 169q15 85 73 143l305 333h44l-243 -267q49 17 107 17zM487 220q15 86 -31 140.5t-145 54.5t-165 -54.5t-81 -140.5q-15 -87 31.5 -141.5t145.5 -54.5t164.5 54.5t80.5 141.5z" />
    <glyph glyph-name="seven.tf" 
d="M119 700h477l-6 -34l-421 -666h-40l421 666h-437z" />
    <glyph glyph-name="eight.tf" 
d="M555 524q-10 -58 -49.5 -100t-99.5 -63q63 -21 92 -68.5t18 -111.5q-16 -91 -89.5 -141.5t-186.5 -50.5q-109 0 -167.5 53.5t-42.5 143.5q11 64 56.5 110t116.5 67q-51 22 -75.5 65.5t-14.5 100.5q15 84 84 133t168 49q96 0 150 -51.5t40 -135.5zM307 377q86 0 142.5 42
t68.5 108q11 67 -30.5 108t-127.5 41t-142.5 -41t-67.5 -108q-12 -66 29.5 -108t127.5 -42zM479 183q12 73 -33 116.5t-145 43.5q-99 0 -160.5 -43.5t-73.5 -116.5q-13 -72 33.5 -115.5t144.5 -43.5q100 0 160.5 43.5t73.5 115.5z" />
    <glyph glyph-name="nine.tf" 
d="M369 711q109 0 167.5 -66t40.5 -168q-15 -86 -75 -146l-303 -331h-45l243 267q-49 -17 -107 -17q-109 0 -168 66t-41 168t96.5 164.5t191.5 62.5zM540 480q15 87 -31 141.5t-145 54.5q-100 0 -165 -54.5t-81 -141.5q-15 -86 31 -140.5t145 -54.5q100 0 165 54.5t81 140.5
z" />
    <glyph glyph-name="zero.dnom" horiz-adv-x="411" 
d="M161 -12q-76 0 -113 59.5t-20 154.5q17 96 71.5 153t132.5 57q76 0 113 -59.5t20 -154.5q-17 -96 -71 -153t-133 -57zM165 20q62 0 106.5 48t59.5 132t-13 132t-90 48t-106.5 -48t-59.5 -132t12.5 -132t90.5 -48z" />
    <glyph glyph-name="one.dnom" horiz-adv-x="246" 
d="M172 400h24l-71 -400h-34l63 358l-115 -38l-5 31z" />
    <glyph glyph-name="two.dnom" horiz-adv-x="345" 
d="M-6 0l4 27l212 173q58 48 65 96q6 35 -15.5 59.5t-63.5 24.5q-36 0 -66 -19.5t-47 -51.5l-28 16q20 39 59 63t86 24q56 0 85.5 -34t22.5 -84q-8 -60 -77 -117l-178 -145h217l-6 -32h-270z" />
    <glyph glyph-name="three.dnom" horiz-adv-x="347" 
d="M314 400l-5 -32l-123 -134q51 -7 76 -41.5t17 -82.5q-9 -54 -51 -88t-107 -34q-96 0 -121 77l30 16q17 -61 95 -61q50 0 82 26.5t39 67.5q6 40 -16 66.5t-72 26.5h-3l-12 25l124 136h-203l5 32h245z" />
    <glyph glyph-name="four.dnom" horiz-adv-x="357" 
d="M307 116l-5 -31h-59l-15 -85h-34l15 85h-220l6 31l202 284h37l-201 -284h181l20 113h34l-20 -113h59z" />
    <glyph glyph-name="five.dnom" horiz-adv-x="339" 
d="M305 369h-189l-33 -128h79q59 0 91.5 -37.5t22.5 -93.5q-10 -55 -52.5 -88.5t-104.5 -33.5q-93 0 -119 76l30 15q16 -59 93 -59q47 0 79.5 25.5t40.5 68.5q7 43 -16.5 69t-70.5 26h-114l49 191h219z" />
    <glyph glyph-name="six.dnom" horiz-adv-x="337" 
d="M168 254q59 0 94 -39t25 -97t-56.5 -94t-107.5 -36q-59 0 -94 39.5t-25 97.5q7 37 33 70l171 205h43l-128 -152q23 6 45 6zM253 121q7 45 -18 73t-72 28t-82.5 -28t-42.5 -73q-8 -45 17.5 -73t71.5 -28q48 0 83.5 28t42.5 73z" />
    <glyph glyph-name="seven.dnom" horiz-adv-x="323" 
d="M49 400h266l-4 -27l-226 -373h-38l223 368h-226z" />
    <glyph glyph-name="eight.dnom" horiz-adv-x="349" 
d="M310 299q-10 -62 -80 -90q32 -15 48 -43.5t9 -65.5q-9 -52 -52 -82t-105 -30q-61 0 -96 32.5t-25 84.5q7 38 32.5 65.5t64.5 40.5q-59 30 -49 93q9 51 50 79.5t95 28.5q52 0 84.5 -31t23.5 -82zM276 301q7 37 -15.5 58.5t-62.5 21.5q-41 0 -70.5 -21.5t-36.5 -58.5
q-6 -34 17 -55t62 -21t69.5 21t36.5 55zM254 105q7 41 -18 64.5t-71 23.5q-48 0 -81 -23.5t-40 -64.5q-7 -39 17.5 -62t72.5 -23q47 0 80 23t40 62z" />
    <glyph glyph-name="nine.dnom" horiz-adv-x="337" 
d="M196 412q59 0 94 -39.5t25 -97.5q-7 -43 -38 -75l-166 -200h-42l129 152q-22 -6 -47 -6q-58 0 -93.5 39.5t-25.5 96.5q10 58 56.5 94t107.5 36zM281 279q8 45 -17.5 73t-71.5 28q-48 0 -83.5 -28t-42.5 -73t18 -73t72 -28t82.5 28t42.5 73z" />
    <glyph glyph-name="zero.numr" horiz-adv-x="411" 
d="M214 288q-76 0 -113 59.5t-20 154.5q17 96 71 153t133 57q76 0 113 -59.5t20 -154.5q-17 -96 -71.5 -153t-132.5 -57zM218 320q62 0 106.5 48t59.5 132t-13 132t-90 48t-106.5 -48t-59.5 -132t12.5 -132t90.5 -48z" />
    <glyph glyph-name="one.numr" horiz-adv-x="246" 
d="M225 700h24l-71 -400h-34l63 358l-115 -38l-5 31z" />
    <glyph glyph-name="two.numr" horiz-adv-x="344" 
d="M46 300l4 27l212 173q58 48 65 96q6 35 -15.5 59.5t-63.5 24.5q-36 0 -66 -19.5t-47 -51.5l-28 16q20 39 59 63t86 24q56 0 85.5 -34t22.5 -84q-8 -60 -77 -117l-178 -145h217l-6 -32h-270z" />
    <glyph glyph-name="three.numr" horiz-adv-x="346" 
d="M367 700l-5 -32l-123 -134q51 -7 76 -41.5t17 -82.5q-9 -54 -51 -88t-107 -34q-96 0 -121 77l30 16q17 -61 95 -61q50 0 82 26.5t39 67.5q6 40 -16 66.5t-72 26.5h-3l-12 25l124 136h-203l5 32h245z" />
    <glyph glyph-name="four.numr" horiz-adv-x="357" 
d="M360 416l-5 -31h-59l-15 -85h-34l15 85h-220l6 31l202 284h37l-201 -284h181l20 113h34l-20 -113h59z" />
    <glyph glyph-name="five.numr" horiz-adv-x="339" 
d="M358 669h-189l-33 -128h79q59 0 91.5 -37.5t22.5 -93.5q-10 -55 -52.5 -88.5t-104.5 -33.5q-93 0 -119 76l30 15q16 -59 93 -59q47 0 79.5 25.5t40.5 68.5q7 43 -16.5 69t-70.5 26h-114l49 191h219z" />
    <glyph glyph-name="six.numr" horiz-adv-x="337" 
d="M221 554q59 0 94 -39t25 -97t-56.5 -94t-107.5 -36q-59 0 -94 39.5t-25 97.5q7 37 33 70l171 205h43l-128 -152q22 6 45 6zM306 421q7 45 -18 73t-72 28t-82.5 -28t-42.5 -73q-8 -45 17.5 -73t71.5 -28q48 0 83.5 28t42.5 73z" />
    <glyph glyph-name="seven.numr" horiz-adv-x="323" 
d="M102 700h266l-4 -27l-226 -373h-38l223 368h-226z" />
    <glyph glyph-name="eight.numr" horiz-adv-x="349" 
d="M363 599q-10 -62 -80 -90q32 -15 48 -43.5t9 -65.5q-9 -52 -52 -82t-105 -30q-61 0 -96 32.5t-25 84.5q7 38 32.5 65.5t64.5 40.5q-59 30 -49 93q9 51 50 79.5t95 28.5q52 0 84.5 -31t23.5 -82zM329 601q7 37 -15.5 58.5t-62.5 21.5q-41 0 -70.5 -21.5t-36.5 -58.5
q-6 -34 17 -55t62 -21t69.5 21t36.5 55zM307 405q7 41 -18 64.5t-71 23.5q-48 0 -81 -23.5t-40 -64.5q-7 -39 17.5 -62t72.5 -23q47 0 80 23t40 62z" />
    <glyph glyph-name="nine.numr" horiz-adv-x="337" 
d="M249 712q59 0 94 -39.5t25 -97.5q-7 -43 -38 -75l-166 -200h-42l129 152q-22 -6 -47 -6q-58 0 -93.5 39.5t-25.5 96.5q10 58 56.5 94t107.5 36zM334 579q8 45 -17.5 73t-71.5 28q-48 0 -83.5 -28t-42.5 -73t18 -73t72 -28t82.5 28t42.5 73z" />
    <glyph glyph-name="zero.sups" horiz-adv-x="411" 
d="M242 448q-76 0 -113 59.5t-20 154.5q17 96 71 153t133 57q76 0 113 -59.5t20 -154.5q-17 -96 -71.5 -153t-132.5 -57zM246 480q62 0 106.5 48t59.5 132t-13 132t-90 48t-106.5 -48t-59.5 -132t12.5 -132t90.5 -48z" />
    <glyph glyph-name="one.sups" horiz-adv-x="246" 
d="M253 860h24l-71 -400h-34l63 358l-115 -38l-5 31z" />
    <glyph glyph-name="two.sups" horiz-adv-x="345" 
d="M75 460l4 27l212 173q58 48 65 96q6 35 -15.5 59.5t-63.5 24.5q-36 0 -66 -19.5t-47 -51.5l-28 16q20 39 59 63t86 24q56 0 85.5 -34t22.5 -84q-8 -60 -77 -117l-178 -145h217l-6 -32h-270z" />
    <glyph glyph-name="three.sups" horiz-adv-x="346" 
d="M395 860l-5 -32l-123 -134q51 -7 76 -41.5t17 -82.5q-9 -54 -51 -88t-107 -34q-96 0 -121 77l30 16q17 -61 95 -61q50 0 82 26.5t39 67.5q6 40 -16 66.5t-72 26.5h-3l-12 25l124 136h-203l5 32h245z" />
    <glyph glyph-name="four.sups" horiz-adv-x="357" 
d="M388 576l-5 -31h-59l-15 -85h-34l15 85h-220l6 31l202 284h37l-201 -284h181l20 113h34l-20 -113h59z" />
    <glyph glyph-name="five.sups" horiz-adv-x="339" 
d="M386 829h-189l-33 -128h79q59 0 91.5 -37.5t22.5 -93.5q-10 -55 -52.5 -88.5t-104.5 -33.5q-93 0 -119 76l30 15q16 -59 93 -59q47 0 79.5 25.5t40.5 68.5q7 43 -16.5 69t-70.5 26h-114l49 191h219z" />
    <glyph glyph-name="six.sups" horiz-adv-x="337" 
d="M249 714q59 0 94 -39t25 -97t-56.5 -94t-107.5 -36q-59 0 -94 39.5t-25 97.5q7 37 33 70l171 205h43l-128 -152q22 6 45 6zM334 581q7 45 -18 73t-72 28t-82.5 -28t-42.5 -73q-8 -45 17.5 -73t71.5 -28q48 0 83.5 28t42.5 73z" />
    <glyph glyph-name="seven.sups" horiz-adv-x="323" 
d="M131 860h266l-4 -27l-226 -373h-38l223 368h-226z" />
    <glyph glyph-name="eight.sups" horiz-adv-x="349" 
d="M391 759q-10 -62 -80 -90q32 -15 48 -43.5t9 -65.5q-9 -52 -52 -82t-105 -30q-61 0 -96 32.5t-25 84.5q7 38 32.5 65.5t64.5 40.5q-59 30 -49 93q9 51 50 79.5t95 28.5q52 0 84.5 -31t23.5 -82zM357 761q7 37 -15.5 58.5t-62.5 21.5q-41 0 -70.5 -21.5t-36.5 -58.5
q-6 -34 17 -55t62 -21t69.5 21t36.5 55zM335 565q7 41 -18 64.5t-71 23.5q-48 0 -81 -23.5t-40 -64.5q-7 -39 17.5 -62t72.5 -23q47 0 80 23t40 62z" />
    <glyph glyph-name="nine.sups" horiz-adv-x="337" 
d="M277 872q59 0 94 -39.5t25 -97.5q-7 -43 -38 -75l-166 -200h-42l129 152q-23 -6 -47 -6q-58 0 -93.5 39.5t-25.5 96.5q10 58 56.5 94t107.5 36zM362 739q8 45 -17.5 73t-71.5 28q-48 0 -83.5 -28t-42.5 -73t18 -73t72 -28t82.5 28t42.5 73z" />
    <glyph glyph-name="cent.tf" 
d="M540 470q-23 70 -98 96l-218 -434q28 -9 63 -9q65 0 121 29.5t89 79.5l28 -18q-38 -59 -102 -92t-141 -33q-39 0 -75 11l-50 -100h-32l56 111q-66 30 -97 96.5t-17 148.5q20 110 106.5 182.5t198.5 72.5q31 0 58 -6l48 95h32l-52 -104q85 -31 113 -110zM197 142l217 431
q-19 4 -46 4q-97 0 -173 -65t-93 -161q-12 -70 13.5 -126.5t81.5 -82.5z" />
    <glyph glyph-name="dollar.tf" 
d="M527 570q-33 97 -140 105l-55 -308q42 -15 71.5 -30t58.5 -39t40 -58.5t3 -78.5q-14 -80 -78 -124.5t-161 -47.5l-16 -89h-33l16 89q-83 4 -136.5 41t-67.5 99l33 17q10 -56 56 -87.5t121 -34.5l56 319q-40 14 -68.5 29t-54.5 38.5t-36 57t-2 76.5q14 76 77.5 120.5
t148.5 46.5l16 89h33l-16 -90q64 -7 106.5 -39.5t58.5 -84.5zM171 540q-12 -62 24 -98t106 -64l53 298q-72 -3 -122.5 -41t-60.5 -95zM469 165q6 34 -2 60.5t-30.5 46t-48 33t-62.5 26.5l-54 -307q84 4 134.5 42t62.5 99z" />
    <glyph glyph-name="Euro.tf" 
d="M409 676q-82 0 -146 -63.5t-99 -179.5h265l-5 -32h-269q-7 -30 -11 -51q-3 -17 -7 -49h269l-5 -31h-266q-7 -116 35 -181t124 -65q58 0 109 34t83 96l29 -18q-36 -69 -96 -108t-130 -39q-97 0 -147.5 76t-43.5 205h-76l5 31h73q2 17 8 53q6 32 10 47h-73l5 32h76
q38 130 113 204t175 74q66 0 113.5 -38.5t61.5 -105.5l-32 -17q-11 60 -51 93t-97 33z" />
    <glyph glyph-name="florin.tf" 
d="M404 584q32 79 87 109.5t122 8.5l-6 -34q-54 21 -98.5 -3t-69.5 -84l-87 -213h156l-6 -34h-164l-172 -420q-32 -79 -87 -109.5t-122 -8.5l6 34q54 -21 98.5 3t69.5 84l171 417h-154l6 34h162z" />
    <glyph glyph-name="uni20BD.tf" 
d="M416 700q81 0 131.5 -62t35.5 -146t-83.5 -141.5t-155.5 -57.5h-200l-19 -112h279l-5 -32h-280l-26 -149h-37l26 149h-90l6 32h90l19 112h-89l6 34h89l66 373h237zM547 497q13 70 -27.5 119.5t-109.5 49.5h-200l-60 -339h200q70 0 127.5 50t69.5 120z" />
    <glyph glyph-name="sterling.tf" 
d="M405 676q-71 0 -119 -43t-60 -116l-33 -187h249l-5 -33h-250l-47 -262h389l-6 -35h-530l6 35h104l47 262h-85l6 33h85l33 187q16 91 74.5 142.5t144.5 51.5q63 0 108 -34t66 -94l-30 -16q-42 109 -147 109z" />
    <glyph glyph-name="yen.tf" 
d="M630 700l-303 -360h183l-5 -31h-191l-17 -93h191l-5 -32h-191l-33 -184h-36l32 184h-189l6 32h189l16 93h-189l5 31h182l-177 360h39l166 -339l284 339h43z" />
    <glyph glyph-name="brevecy" horiz-adv-x="287" 
d="M81 594l5 30h247l-6 -30h-246z" />
    </font>
</defs>
</svg>
